<?xml version="1.0" encoding="utf-8"?>
<svg version="1.1" xmlns="http://www.w3.org/2000/svg" viewBox="0 0 323 202">
<style type="text/css">
        .st0{opacity:0.2373;fill-rule:evenodd;clip-rule:evenodd;fill:#9CD7FF;enable-background:new    ;}
        .st1{fill-rule:evenodd;clip-rule:evenodd;fill:#3F6490;}
        .st2{fill-rule:evenodd;clip-rule:evenodd;fill:#FFFFFF;}
        .st3{opacity:0.1159;fill-rule:evenodd;clip-rule:evenodd;fill:#FFFFFF;enable-background:new    ;}
        .st4{opacity:0.431;fill-rule:evenodd;clip-rule:evenodd;fill:#FFFFFF;enable-background:new    ;}
        .st5{fill-rule:evenodd;clip-rule:evenodd;fill:#0066CC;}
        .st6{opacity:0.5212;fill-rule:evenodd;clip-rule:evenodd;fill:#9CD7FF;enable-background:new    ;}
        .st7{fill-rule:evenodd;clip-rule:evenodd;fill:#0093E2;}
        .st8{fill-rule:evenodd;clip-rule:evenodd;fill:#69D6F6;}
        .st9{fill-rule:evenodd;clip-rule:evenodd;fill:#9BE0F8;}
        .st10{fill-rule:evenodd;clip-rule:evenodd;fill:#79C1ED;}
        .st11{opacity:0.4758;fill-rule:evenodd;clip-rule:evenodd;fill:#9BE0F8;enable-background:new    ;}
    </style>
    <path class="st0" d="M149,181.4c-75.1,0-135.9,4.6-135.9,10.2c0,5.6,60.8,10.2,135.9,10.2c75.1,0,135.9-4.6,135.9-10.2 C284.9,185.9,224.1,181.4,149,181.4z"/>
    <path class="st1" d="M260.3,19.7v134.7c0,3.2-2.4,5.8-5.5,5.8h-209c-3,0-5.5-2.6-5.5-5.8V19.7c0-3.2,2.4-5.8,5.5-5.8h209 C257.8,13.9,260.3,16.5,260.3,19.7"/>
    <polygon class="st2" points="44.6,146 256.8,146 256.8,17.8 44.6,17.8 "/>
    <path class="st3" d="M44.6,146h212.2c-51.5-11.9-94.9-28.5-130.3-49.9S63.8,48.7,44.6,17.8V146z"/>
    <polygon class="st1" points="171.4,189.7 126.7,189.7 131.5,170.6 132.6,166.2 134.8,157.8 163.3,157.8 165.5,166.2 166.6,170.6 "/>
    <polygon class="st4" points="166.6,170.6 131.5,170.6 132.6,166.2 165.5,166.2 "/>
    <path class="st1" d="M188.6,195h-79.1c-1.9,0-3.4-1.5-3.4-3.4c0-1.9,1.5-3.4,3.4-3.4h79.1c1.9,0,3.4,1.5,3.4,3.4 C192,193.4,190.5,195,188.6,195"/>
    <path class="st4" d="M149,160.1L149,160.1c-2.8,0-5.1-2.3-5.1-5.1c0-2.8,2.3-5.1,5.1-5.1c2.8,0,5.1,2.3,5.1,5.1 C154.1,157.8,151.8,160.1,149,160.1"/>
    <path class="st5" d="M155.7,109.6l-28.2,17.8l9.9-17.8h-15.1c-4,0-7.3-4.7-7.3-10.5V11c0-5.8,3.3-10.5,7.3-10.5h71.8 c4,0,7.3,4.7,7.3,10.5v88.1c0,5.8-3.3,10.5-7.3,10.5H155.7z"/>
    <path class="st2" d="M189.3,103.7h-61.6c-3.9,0-7-4.7-7-10.5V16.7c0-5.8,3.1-10.5,7-10.5h61.6c3.9,0,7,4.7,7,10.5v76.5 C196.3,99,193.2,103.7,189.3,103.7"/>
    <path class="st6" d="M138.5,63.7c0.4-3.2,2.4-6,2-9.2c-0.3-2.7-2.3-4.3-4.1-5.3c-1.8-1-3.8-1.9-4.8-4.3c-1.1-2.8-0.3-6.5,1.3-8.7 c1.6-2.2,3.8-3.2,6-3.8c2.2-0.6,4.4-1.1,6.4-2.5c2-1.4,3.7-4.1,3.9-7.3c0.1-2.2-0.6-4.4-0.3-6.6c0.2-2.3,1.4-4.2,2.9-5.3 c1.4-1,3.1-1.3,4.7-1.2c2.7,0.1,5.5,0.9,7.7,3.3s3.6,6.5,3,10.4c-0.5,3.1-2.1,6-1.5,9c0.5,2.7,2.4,4.1,4.2,5 c1.8,0.9,3.8,1.8,4.8,4.1c1.2,2.6,0.6,6.2-0.7,8.6c-1.4,2.4-3.3,3.8-5.3,5.1c-1,0.6-2,1.3-2.8,2.4c-0.7,1.2-1.1,3-0.5,4.3 c0.8,1.9,2.7,1.8,3.8,3.3c1.4,1.9,0.7,5.5-0.8,7.1c-1.5,1.6-3.5,1.8-5.4,1.9c-3.8,0.2-7.6,0.5-11.4,0.7c-1.4,0.1-2.8-0.3-4.3-0.4 c-0.9-0.1-1.7-0.2-2.6-0.5c-0.7-0.2-1.7-1.1-2.3-1.1C140,70.9,138.1,67.3,138.5,63.7z"/>
    <path class="st7" d="M165.5,72.1c0-0.7-0.7-1.3-1.4-1.6c-0.7-0.3-1.5-0.4-2.2-0.6c-1.6-0.6-2.9-2.1-3-3.8c-0.2-1.7,0.7-3.4,2.2-4.3 c0.9-0.5,2-0.7,3-1.2c1-0.4,2-1.1,2.2-2.2c0.2-1.1-0.5-2.1-1.4-2.8c-0.8-0.7-1.9-1.3-2.6-2.1c-1.6-1.9-0.9-5.1,1.4-6.3 c1.1-0.6,2.3-0.7,3.5-1c1.2-0.4,2.3-1.2,2.4-2.4c0.1-1.3-1-2.2-1.7-3.3c-1.4-2.1-1-5.1,0.9-6.9c1.9-1.7,5.1-2,7.2-0.5 c2.1,1.4,3,4.4,1.9,6.7c-0.5,1-1.2,1.8-1.7,2.8c-0.5,0.9-0.9,2.1-0.4,3.1c1.1,2.3,5.3,1.4,6.8,3.6c0.8,1.2,0.3,2.9-0.6,4.1 c-0.9,1.2-2.2,2-3.2,3.1c-1,1.1-1.7,2.7-1,4.1c0.5,1,1.5,1.5,2.4,2.2c0.9,0.7,1.7,1.7,1.3,2.7c-0.6,1.8-3.9,1.6-4.5,3.4 c-0.4,1.1,0.4,2.2,0.5,3.3c1,6.9-14.4,7.2-12.5,1.4C165.2,73.2,165.5,72.7,165.5,72.1z"/>
    <polygon class="st1" points="175.4,69.9 175.1,69.6 170.6,71.9 171.3,64.3 170.7,64.3 170.2,68.4 166.4,65.3 166,65.5 170.2,69.1  168.1,87.3 169.2,87.4 170.6,72.6 "/>
    <path class="st5" d="M137,100.8l48,0.6c-0.2-0.6-4.3-14.3-17.5-17.5c-9.5-2.3-17.4,2.4-19.2,3.5C140.8,91.9,137.9,98.5,137,100.8"/>
    <polygon class="st1" points="162,62.6 161.6,62.3 156.2,66.1 156.1,55.3 155.3,55.3 155.2,61.2 149.8,57.4 149.5,57.7 155.2,62.1  155,88.2 156.4,88.2 156.2,67.1 "/>
    <path class="st5" d="M79.8,112.1h-15l6.2,16.2l-24.6-16.2H7.4c-4.1,0-7.4-3.3-7.4-7.4V42.8c0-4.1,3.3-7.4,7.4-7.4h72.4 c4.1,0,7.4,3.3,7.4,7.4v61.9C87.2,108.7,83.9,112.1,79.8,112.1"/>
    <path class="st2" d="M76.6,107.9H11.3c-4.1,0-7.4-3.3-7.4-7.4V46.8c0-4.1,3.3-7.4,7.4-7.4h65.2c4.1,0,7.4,3.3,7.4,7.4v53.7 C83.9,104.6,80.6,107.9,76.6,107.9"/>
    <path class="st8" d="M104.6,57.5H67.5c-0.7,0-1.3-0.6-1.3-1.4s0.6-1.5,1.3-1.5h37.1c0.7,0,1.3,0.6,1.3,1.5S105.3,57.5,104.6,57.5"/>
    <path class="st8" d="M99.4,63.2H67.1c-0.5,0-0.9-0.4-0.9-0.9v-1.1c0-0.5,0.4-0.9,0.9-0.9h32.3c0.5,0,0.9,0.4,0.9,0.9v1.1 C100.3,62.9,99.9,63.2,99.4,63.2"/>
    <path class="st8" d="M91.8,69H67c-0.4,0-0.8-0.3-0.8-0.8v-1.4c0-0.4,0.3-0.8,0.8-0.8h24.8c0.4,0,0.8,0.3,0.8,0.8v1.4 C92.6,68.7,92.2,69,91.8,69"/>
    <path class="st8" d="M104.6,74.8H67.5c-0.7,0-1.3-0.6-1.3-1.4s0.6-1.5,1.3-1.5h37.1c0.7,0,1.3,0.6,1.3,1.5S105.3,74.8,104.6,74.8"/>
    <path class="st8" d="M100.6,80.5H67.2c-0.5,0-0.9-0.4-0.9-0.9v-1.1c0-0.5,0.4-0.9,0.9-0.9h33.5c0.5,0,0.9,0.4,0.9,0.9v1.1 C101.5,80.1,101.1,80.5,100.6,80.5"/>
    <path class="st8" d="M104.6,86.3H67.5c-0.7,0-1.3-0.6-1.3-1.5c0-0.8,0.6-1.4,1.3-1.4h37.1c0.7,0,1.3,0.6,1.3,1.4 C105.9,85.7,105.3,86.3,104.6,86.3"/>
    <path class="st9" d="M54.5,57.1c0,0-0.9-5.2-7.8-5.9c-6.9-0.7-2.4,3-2.4,3L54.5,57.1z"/>
    <path class="st9" d="M21.2,57.1c0,0,0.9-5.2,7.8-5.9c6.9-0.7,2.4,3,2.4,3L21.2,57.1z"/>
    <polygon class="st9" points="27.4,92.4 37.8,92.4 37.8,50.5 27.4,50.5 "/>
    <polygon class="st9" points="37.8,92.4 48.3,92.4 48.3,50.5 37.8,50.5 "/>
    <path class="st9" d="M34.5,60.8c0,4-3.2,7.2-7.2,7.2c-4,0-7.2-3.2-7.2-7.2s3.2-7.2,7.2-7.2C31.3,53.6,34.5,56.8,34.5,60.8"/>
    <path class="st9" d="M55.5,60.8c0,4-3.2,7.2-7.2,7.2c-4,0-7.2-3.2-7.2-7.2s3.2-7.2,7.2-7.2C52.3,53.6,55.5,56.8,55.5,60.8"/>
    <path class="st5" d="M46.7,60.6C46.7,60.6,46.7,60.6,46.7,60.6c-0.3,0-0.5,0.1-0.6,0.3c-0.1,0.2-0.2,0.4-0.2,0.6
        c0,0.4,0.2,0.7,0.5,0.9c0.3,0.2,0.6,0.3,1,0.3c0.5-0.1,1-0.3,1.3-0.8c-0.1,0-0.2,0.1-0.3,0.1c-0.7,0.1-1.3-0.4-1.4-1.1
        C47.1,60.7,47,60.6,46.7,60.6 M47.8,69.2c-3.8,0-7-2.8-7.5-6.6c-0.4-3.4,2-6.6,5.5-7c1.4-0.2,2.8,0.2,3.9,1.1c1.1,0.9,1.8,2.1,2,3.5
        c0.1,1.2-0.2,2.3-0.9,3.3c-0.7,0.9-1.8,1.5-3,1.7c-1,0.1-2-0.2-2.8-0.8c-0.8-0.6-1.3-1.5-1.4-2.5c-0.1-0.9,0.1-1.7,0.7-2.4
        c0.5-0.7,1.3-1.1,2.2-1.2c0.4-0.1,0.9,0,1.3,0.1c-0.5-0.2-1-0.3-1.6-0.3c-2.1,0.3-3.6,2.2-3.3,4.3c0.3,2.8,2.9,4.8,5.7,4.4
        c1.8-0.2,3.3-1.1,4.4-2.5c1.1-1.4,1.6-3.1,1.4-4.9c-0.5-4.5-4.4-7.5-9.6-7.5c-0.1,0-0.1,0-0.2,0h-6.7c-0.7,0-1.2-0.5-1.2-1.2
        c0-0.7,0.5-1.2,1.2-1.2h6.6c0.1,0,0.1,0,0.2,0c6.5,0,11.3,3.9,12,9.7c0.3,2.4-0.4,4.8-1.9,6.7c-1.5,1.9-3.7,3.1-6.1,3.4
        C48.4,69.2,48.1,69.2,47.8,69.2"/>
    <path class="st5" d="M26.9,61.9c0.3,0.4,0.8,0.7,1.3,0.8c0.4,0,0.7-0.1,1-0.3c0.3-0.2,0.5-0.5,0.5-0.9c0-0.2,0-0.4-0.2-0.6
        c-0.1-0.2-0.3-0.3-0.6-0.3c-0.2,0-0.5,0.1-0.5,0.4c-0.1,0.7-0.7,1.1-1.4,1.1C27,62,27,62,26.9,61.9 M27.9,69.2c-0.3,0-0.6,0-0.9-0.1
        c-2.4-0.3-4.6-1.5-6.1-3.4c-1.5-1.9-2.2-4.3-1.9-6.7c0.7-5.8,5.5-9.7,12-9.7c0.1,0,0.1,0,0.2,0h6.6c0.7,0,1.2,0.5,1.2,1.2
        c0,0.7-0.5,1.2-1.2,1.2h-6.6c-5.3-0.1-9.2,3-9.7,7.5c-0.2,1.8,0.3,3.5,1.4,4.9c1.1,1.4,2.7,2.3,4.4,2.5c2.8,0.3,5.3-1.7,5.7-4.4
        c0.2-2.1-1.2-4-3.3-4.3c-0.6-0.1-1.1,0-1.6,0.3c0.4-0.1,0.8-0.2,1.3-0.1c0.9,0.1,1.6,0.5,2.2,1.2c0.5,0.7,0.8,1.6,0.7,2.4
        c-0.1,1-0.6,1.9-1.4,2.5c-0.8,0.6-1.8,0.9-2.8,0.8c-1.2-0.1-2.2-0.7-3-1.7c-0.7-0.9-1.1-2.1-0.9-3.3c0.2-1.4,0.9-2.6,2-3.5
        c1.1-0.9,2.5-1.2,3.9-1.1c3.4,0.4,5.9,3.5,5.5,7C34.9,66.4,31.6,69.2,27.9,69.2"/>
    <path class="st5" d="M38.7,89.2c0,0.5-0.4,0.9-0.9,0.9s-0.9-0.4-0.9-0.9V71.9c0-0.5,0.4-0.9,0.9-0.9s0.9,0.4,0.9,0.9V89.2z"/>
    <path class="st5" d="M42.7,89.2c0,0.5-0.4,0.9-0.9,0.9s-0.9-0.4-0.9-0.9V71.9c0-0.5,0.4-0.9,0.9-0.9s0.9,0.4,0.9,0.9V89.2z"/>
    <path class="st5" d="M46.6,89.2c0,0.5-0.4,0.9-0.9,0.9s-0.9-0.4-0.9-0.9V71.9c0-0.5,0.4-0.9,0.9-0.9s0.9,0.4,0.9,0.9V89.2z"/>
    <path class="st5" d="M33,89.2c0,0.5,0.4,0.9,0.9,0.9s0.9-0.4,0.9-0.9V71.9c0-0.5-0.4-0.9-0.9-0.9S33,71.4,33,71.9V89.2z"/>
    <path class="st5" d="M29.1,89.2c0,0.5,0.4,0.9,0.9,0.9s0.9-0.4,0.9-0.9V71.9c0-0.5-0.4-0.9-0.9-0.9s-0.9,0.4-0.9,0.9V89.2z"/>
    <polygon class="st5" points="25.2,96.8 50.4,96.8 50.4,92.1 25.2,92.1 "/>
    <polygon class="st9" points="23,99.6 52.7,99.6 52.7,95.1 23,95.1 "/>
    <polygon class="st5" points="25.2,51.4 50.4,51.4 50.4,46.8 25.2,46.8 "/>
    <path class="st5" d="M243.1,105.8h15l-6.2,16.2l24.6-16.2h38.9c4.1,0,7.4-3.3,7.4-7.4V36.5c0-4.1-3.3-7.4-7.4-7.4h-72.4
        c-4.1,0-7.4,3.3-7.4,7.4v61.9C235.7,102.5,239,105.8,243.1,105.8"/>
    <path class="st2" d="M246.3,101.7h65.2c4.1,0,7.4-3.3,7.4-7.4V40.6c0-4.1-3.3-7.4-7.4-7.4h-65.2c-4.1,0-7.4,3.3-7.4,7.4v53.7
        C238.9,98.4,242.2,101.7,246.3,101.7"/>
    <path class="st8" d="M218.3,51.2h37.1c0.7,0,1.3-0.6,1.3-1.4s-0.6-1.5-1.3-1.5h-37.1c-0.7,0-1.3,0.6-1.3,1.5S217.6,51.2,218.3,51.2"
        />
    <path class="st8" d="M223.4,57h32.3c0.5,0,0.9-0.4,0.9-0.9V55c0-0.5-0.4-0.9-0.9-0.9h-32.3c-0.5,0-0.9,0.4-0.9,0.9v1.1
        C222.6,56.6,223,57,223.4,57"/>
    <path class="st8" d="M231.1,62.7h24.8c0.4,0,0.8-0.3,0.8-0.8v-1.4c0-0.4-0.3-0.8-0.8-0.8h-24.8c-0.4,0-0.8,0.3-0.8,0.8V62
        C230.3,62.4,230.6,62.7,231.1,62.7"/>
    <path class="st8" d="M218.3,68.5h37.1c0.7,0,1.3-0.6,1.3-1.4s-0.6-1.5-1.3-1.5h-37.1c-0.7,0-1.3,0.6-1.3,1.5S217.6,68.5,218.3,68.5"
        />
    <path class="st8" d="M222.2,74.3h33.5c0.5,0,0.9-0.4,0.9-0.9v-1.1c0-0.5-0.4-0.9-0.9-0.9h-33.5c-0.5,0-0.9,0.4-0.9,0.9v1.1
        C221.3,73.9,221.7,74.3,222.2,74.3"/>
    <path class="st8" d="M218.3,80h37.1c0.7,0,1.3-0.6,1.3-1.5c0-0.8-0.6-1.4-1.3-1.4h-37.1c-0.7,0-1.3,0.6-1.3,1.4
        C217,79.4,217.6,80,218.3,80"/>
    <path class="st9" d="M276,65.2c-8,1.7-8,1.7-16.8,0.8c-0.2-0.1-0.4,0.1-0.4,0.3c0,0,0.6,3.4,0.8,4.3c3.5,16.7,15.3,26.8,22.9,25.2
        L276,65.2z"/>
    <path class="st10" d="M276,65.2c8-1.7,15.7-6.1,15.7-6.1c0.2-0.2,0.4-0.1,0.5,0.1c0,0,0.8,3.4,1,4.2c3.5,16.7-3.1,30.7-10.7,32.3
        L276,65.2z"/>
    <path class="st2" d="M274.6,74.9c-0.1-0.5-1.5,0.8-3.4,1.2c-1.9,0.4-3.7-0.3-3.6,0.3c0.1,0.5,2.1,2,4,1.6
        C273.5,77.6,274.7,75.5,274.6,74.9"/>
    <path class="st2" d="M281.3,73.5c-0.1-0.5,1.7,0.2,3.6-0.3c1.9-0.4,3.3-1.7,3.4-1.2c0.1,0.5-1.1,2.7-3,3.1
        C283.4,75.5,281.4,74,281.3,73.5"/>
    <path class="st2" d="M287.5,87.8c0.2,0.9-3.3-1.3-6.8-0.5c-3.5,0.7-5.8,4.1-6,3.2c-0.2-0.9,1.9-5.3,5.4-6
        C283.7,83.7,287.3,86.9,287.5,87.8"/>
    <path class="st11" d="M298,47.1c-8.3-2.5-16-7.9-16-7.9c-0.2-0.2-0.4-0.1-0.5,0.1c0,0-1.2,3.5-1.4,4.4c-5.3,17.2,0.4,32.6,8.2,35
        L298,47.1z"/>
    <path class="st5" d="M298,47.1c8.3,2.5,17.6,2.4,17.6,2.4c0.3,0,0.4,0.1,0.4,0.4c0,0-1,3.5-1.3,4.4c-5.3,17.2-18.6,26.7-26.4,24.3
        L298,47.1z"/>
    <path class="st2" d="M291.2,56.7c-0.2,0.5-1.5-1-3.5-1.6c-2-0.6-3.9-0.1-3.8-0.6c0.2-0.5,2.4-1.9,4.4-1.3S291.4,56.2,291.2,56.7"/>
    <path class="st2" d="M298.1,58.8c-0.2,0.5,1.8,0,3.8,0.6c2,0.6,3.3,2.1,3.5,1.6c0.2-0.5-0.9-2.9-2.9-3.5
        C300.5,56.9,298.3,58.3,298.1,58.8"/>
    <path class="st2" d="M298.2,69.8c0.3-0.9-3.6,1.1-7.2-0.1c-3.6-1.1-5.7-4.9-6-4c-0.3,0.9,1.4,5.9,5.1,7
        C293.7,73.8,297.9,70.7,298.2,69.8"/>
</svg>
