<?xml version="1.0" encoding="utf-8"?>
<!-- Generator: Adobe Illustrator 23.0.4, SVG Export Plug-In . SVG Version: 6.00 Build 0)  -->
<svg version="1.1" id="Livello_1" xmlns="http://www.w3.org/2000/svg" xmlns:xlink="http://www.w3.org/1999/xlink" x="0px" y="0px"
	 viewBox="0 0 347.9 98.6" style="enable-background:new 0 0 347.9 98.6;" xml:space="preserve">
<g>
	<path style="fill:#FFFFFF;" d="M111.4,40.4c1.7,0.1,3.3-0.3,4.8-1.1c1.7-0.9,3.4-1.9,5.1-2.9c0.7-0.4,0.6-0.5,0.1-1.1
		c-1.3-1.5-2.2-3.1-2.6-5c-0.4-1.8-0.3-3.7,0.5-5.3c0.7-1.3,1.8-2.3,3.6-2.4c3.4-0.2,5.9,2.1,6.9,4.9c0.6,1.5,0.5,1.5,1.7,0.4
		c2.1-1.9,4.2-3.6,6.3-5.5c1.9-1.7,3.8-3.2,5.9-4.6c2.4-1.6,4.9-3.2,7.8-4c0.2-0.1,0.5-0.2,0.7-0.2c0.2,0,0.4,0.1,0.5,0.3
		c0.1,0.1,0,0.4-0.1,0.5c-0.7,0.7-1.4,1.4-2.1,2.1c-2,2-4,4-6,6c-1.2,1.2-2.4,2.5-3.5,3.8c-1.8,2.1-3.5,4.2-5.2,6.3
		c-1.4,1.7-2.7,3.5-4,5.2c-0.1,0.1-0.1,0.3-0.2,0.5c0.2,0,0.4,0.1,0.6,0c0.9-0.4,1.9-0.7,2.6-1.3c1.2-0.9,2.4-1.9,3.5-3.2
		c1.3-1.6,3.2-2.5,5.3-2.9c0.4-0.1,0.9-0.2,1.3-0.3c0.8,0,1.6-0.2,2,0.8c0,0.1,0.3,0.2,0.3,0.1c0.6-0.8,1.4-0.7,2.3-0.7
		c0.4,0,1-0.2,1.1-0.1c0.3,0.5-0.3,0.7-0.6,1c-1.6,1.9-3.2,3.7-4.8,5.6c-0.5,0.6-1.1,1.2-1.7,1.8c-0.1,0.1,0,0.3-0.1,0.4
		c0.1,0,0.3,0.1,0.4,0c1.9-1.4,3.8-2.7,5.7-4.1c1.3-1,2.4-2.1,3.7-3.1c1.5-1.1,3.3-1.4,5.1-1.7c0.6-0.1,1.3,0.1,1.6,0.8
		c0.4,0.7,0.1,1.3-0.3,1.8c-0.5,0.7-1.1,1.2-2,1.5c-1,0.2-2,0.5-3,0.6c-1.7,0.1-2.7,0.9-3.3,2.4c-0.3,0.9,0,1.5,1,1.4
		c0.8-0.1,1.5-0.3,2.2-0.6c2.3-1,4.2-2.6,6.1-4.2c1.1-0.9,2.2-1.8,3.3-2.7c0.6-0.4,1.3-0.8,2.2-0.7c0.6,0.1,0.9,0.3,0.9,0.9
		c0.1,0.8-0.1,1.5-0.6,2.2c-0.1,0.1-0.1,0.2-0.1,0.4c0.1,0,0.3,0,0.4-0.1c1.1-0.8,2.1-1.6,3.2-2.3c0.9-0.5,1.7-1.1,2.8-1.1
		c1.1,0,1.8,0.7,1.5,1.8c-0.2,0.8-0.5,1.7-1.2,2.3c-0.7,0.6-1.5,1.3-2.2,1.9c-0.5,0.5-1.1,1-1.6,1.5c-0.1,0.1-0.1,0.3-0.1,0.4
		c0.1,0.1,0.4,0.3,0.5,0.2c0.6-0.3,1.3-0.5,1.8-0.9c1.5-1.1,2.9-2.3,4.4-3.4c0.6-0.5,1.1-0.9,1.7-1.4c0.7-0.6,1.4-1.2,1.6-2.2
		c0.1-0.5,0.6-0.8,1.1-0.8c0.4-0.1,0.9-0.1,1.2,0.3c0.3,0.4,0.2,0.8-0.1,1.2c-0.1,0.1-0.2,0.2-0.2,0.4c0.2,0,0.4,0.1,0.5,0.1
		c1-0.2,1.9-0.6,2.7-1.4c0.4-0.4,0.9-0.7,1.5-0.9c0.6-0.2,1,0.3,0.7,0.8c-0.1,0.3-0.4,0.6-0.6,0.8c-0.3,0.2-0.6,0.4-0.9,0.5
		c-1.6,0.5-2.8,1.6-4,2.7c-0.4,0.3-0.8,0.6-1.1,0.9c-0.1,0.1-0.2,0.2-0.3,0.3c0.1,0,0.2,0.1,0.4,0.1c0.1,0,0.3,0,0.4,0
		c1.1,0.1,1.4,0.5,1.4,1.6c0,0.1,0,0.3,0,0.4c0.1,0,0.3,0,0.4-0.1c0.4-0.2,0.7-0.5,1.1-0.8c1.1-1,2.2-2,3.3-2.9
		c1.1-1,2.3-1.8,3.4-2.8c0.7-0.5,1.4-0.9,2.3-0.7c0.2,0,0.5,0,0.7,0c0.3,0,0.6,0.1,0.9,0.1c-0.2,0.2-0.3,0.5-0.5,0.7
		c-1.7,1.9-3.4,3.8-5.1,5.7c-0.4,0.4-0.7,0.8-1,1.3c0,0.1,0,0.2,0,0.3c0,0,0.2,0.1,0.2,0c0.4-0.1,0.9-0.2,1.2-0.5
		c2-1.3,4-2.7,5.7-4.4c1.6-1.6,3.4-2.6,5.5-3.1c0.8-0.2,1.6-0.2,2.3-0.1c0.5,0.1,0.9,0.7,1.3,0.7c0.4,0,0.8-0.6,1.2-0.7
		c0.5-0.1,1.1-0.1,1.6-0.1c0.5,0,0.4,0.3,0.2,0.6c-0.3,0.3-0.5,0.7-0.8,1c-1.5,1.7-3,3.5-4.5,5.2c-0.2,0.2-0.3,0.4-0.4,0.6
		c-0.1,0.2-0.2,0.5-0.3,0.7c0.3-0.1,0.5-0.2,0.8-0.3c1.1-0.8,2.2-1.5,3.2-2.3c1-0.7,1.9-1.5,2.9-2.3c0.1-0.1,0.3-0.1,0.5-0.1
		c0,0.2,0.1,0.5,0,0.7c-0.2,0.3-0.4,0.5-0.7,0.8c-1.7,1.3-3.3,2.6-5,3.8c-0.4,0.3-1,0.5-1.5,0.6c-1,0.3-1.6-0.2-1.5-1.2
		c0-0.1,0.1-0.3,0.1-0.4c0-0.1,0-0.3,0-0.4c-0.1,0-0.3,0-0.4,0.1c-0.2,0.2-0.4,0.4-0.7,0.6c-0.8,0.7-1.7,1.1-2.7,1.4
		c-1.2,0.3-2.1-0.3-2.3-1.5c-0.1-0.4,0-0.9,0-1.3c0-0.1-0.1-0.3-0.1-0.4c-0.1,0-0.3,0-0.4,0.1c-0.7,0.5-1.3,1.1-1.9,1.6
		c-1,0.7-1.9,1.4-3.1,1.5c-1,0.1-1.4-0.2-1.5-1.2c-0.1-1,0.3-1.8,0.8-2.6c0.2-0.3,0.4-0.6,0.5-0.9c0-0.1,0-0.2,0-0.2
		c-0.1,0-0.2,0-0.3,0c-0.2,0.2-0.4,0.4-0.7,0.6c-1.4,1.2-2.8,2.4-4.2,3.6c-0.4,0.4-1,0.5-1.5,0.8c-0.6,0.3-1,0.2-1.5-0.2
		c-0.3-0.2-0.3-1.2,0-1.7c0.2-0.3,0.4-0.5,0.6-0.8c-0.4,0-0.9-0.1-1.3,0.1c-0.9,0.5-1.7,1.1-2.6,1.7c-0.4,0.3-0.7,0.7-1.1,1
		c-0.1,0.1-0.5,0.1-0.5,0c-0.1-0.1-0.3-0.4-0.2-0.6c0-0.2,0.1-0.5,0.3-0.6c0.4-0.4,0.9-0.8,1.4-1.1c1.8-1.4,3.6-2.7,5.3-4.1
		c0.1-0.1,0.2-0.2,0.2-0.4c-0.1,0-0.3,0-0.4-0.1c-1.3-0.5-2.1,0.2-3.1,1c-1.7,1.6-3.6,3.1-5.4,4.5c-0.8,0.7-1.8,1.2-2.9,1.3
		c-1.2,0.1-1.6-0.3-1.6-1.4c0-1.4,0.8-2.4,1.6-3.4c0.5-0.6,1.2-1,1.7-1.6c0.4-0.4,0.8-0.8,1.2-1.2c0.1-0.1,0.1-0.2,0-0.3
		c-0.1-0.1-0.3-0.2-0.4-0.2c-0.4,0.1-0.8,0.3-1.2,0.5c-2,1.1-3.8,2.4-5.5,3.8c-1.3,1-2.5,2.2-3.8,3.2c-0.2,0.2-0.6,0.3-0.9,0.4
		c-0.5,0.1-1,0-1.5,0c-0.5,0-0.5-0.2-0.2-0.5c0.1-0.2,0.2-0.3,0.3-0.5c1-1.2,2.1-2.3,3.2-3.5c0.9-1,1.8-2,2.7-3.1
		c0.1-0.1,0.1-0.2,0.1-0.3c-0.1,0-0.3-0.1-0.4,0c-0.9,0.6-1.8,1.2-2.6,1.9c-1.9,1.7-3.8,3.3-5.9,4.8c-1.2,0.8-2.6,1.2-3.9,1.5
		c-1.7,0.3-2.8-0.7-2.8-2.4c0-0.4,0-0.8-0.1-1.2c-0.3,0.2-0.7,0.4-1,0.7c-2.4,1.9-4.9,3.6-7.7,4.8c-0.3,0.1-0.6,0.4-0.8,0.6
		c-2.5,2.5-4.9,5.1-7.4,7.6c-1.2,1.1-2.5,2-4.1,2.5c-0.9,0.3-1.7,0.2-2.3-0.5c-0.7-0.7-0.6-1.6-0.1-2.5c0.6-1.2,1.6-2,2.6-2.8
		c1.6-1.2,3.4-2,5.3-2.9c0.9-0.4,1.9-0.8,2.8-1.2c0.8-0.3,1.5-0.8,2-1.6c0.2-0.4,0.6-0.7,0.9-1.1c0.1-0.1,0.1-0.3,0.1-0.4
		c-0.1,0-0.3-0.1-0.4,0c-0.2,0-0.5,0.2-0.7,0.2c-1.5,0.1-2.2-0.4-2.3-1.9c0-0.2,0-0.4,0-0.6c0-0.2-0.1-0.4-0.3-0.2
		c-0.2,0.1-0.3,0.2-0.5,0.4c-1.5,1.2-3.1,1.9-5.1,2.1c-0.2,0-0.5,0.2-0.6,0.3c-0.7,1.4-2,1.1-3.2,1.1c-0.1,0-0.3-0.3-0.2-0.4
		c0.1-0.2,0.3-0.4,0.4-0.6c0.5-0.8,0.4-0.7-0.4-1c-1.3-0.4-2.4-1-3.5-1.8c-0.4-0.3-0.7-0.3-1.2,0c-1.2,0.8-2.5,1.5-3.7,2.3
		c-2,1.2-4.1,1.8-6.4,1.8c-1.2,0-2.4,0.2-3.5-0.3c-2.1-1-2.5-3.3-0.9-4.6c0.7-0.6,1.8-0.6,2.3,0c0.2,0.2,0.3,0.6,0.2,0.9
		c0,0.2-0.4,0.4-0.7,0.5c-0.3,0.1-0.7,0-1,0c-0.7-0.1-0.9,0.1-0.8,0.7c0.1,1.1,0.8,1.6,2.2,2C110.3,40.5,110.9,40.4,111.4,40.4z
		 M119.6,28.1c0.1,0.6,0.2,1.2,0.3,1.8c0.4,1.8,1.1,3.5,2.3,4.8c0.6,0.6,0.7,0.6,1.4,0.1c1.4-1.1,2.7-2.3,4.1-3.4
		c2.3-1.9,2.4-1.4,1-4.5c0-0.1-0.1-0.2-0.1-0.3c-0.9-1.3-1.9-2.5-3.6-2.9c-2.1-0.5-3.7-0.1-4.7,2.1
		C119.9,26.6,119.8,27.4,119.6,28.1z M130.4,35.9c0.1-0.1,0.2-0.2,0.3-0.3c1.9-2.2,3.8-4.4,5.7-6.5c2.6-2.8,5.3-5.6,8.1-8.4
		c1.2-1.2,2.4-2.3,3.6-3.4c0.5-0.5,1.1-1,1.6-1.6c0.1-0.1,0.1-0.2,0.1-0.3c-0.1,0-0.2,0-0.3,0c-0.3,0.1-0.6,0.3-0.9,0.5
		c-3.5,2-6.8,4.4-9.9,7c-2.4,2.1-4.8,4.2-7.2,6.3c-0.4,0.3-0.8,0.6-0.7,1.2c0.1,1.7-0.1,3.4-0.5,5.1
		C130.3,35.7,130.4,35.8,130.4,35.9z M128,51.9c0.7,0,1.8-0.4,2.6-1.1c1.9-1.4,3.4-3.3,5-5.2c0.3-0.4,0.7-0.8,1-1.2
		c0-0.1,0-0.2,0-0.2c0,0-0.2,0-0.2,0c-2.8,1.1-5.5,2.4-7.7,4.4c-0.6,0.6-1.1,1.3-1.5,2.1C126.8,51.4,127.2,51.9,128,51.9z M138.2,38
		c0,0.9,0.2,1.1,0.8,1c0.3-0.1,0.6-0.2,0.8-0.3c1.9-1,3.5-2.4,4.8-4c0.5-0.6,0.8-1.2,1.2-1.8c0.2-0.3,0.2-0.7,0-0.9
		c-0.2-0.2-0.5-0.3-0.8-0.2c-0.6,0.1-1.2,0.3-1.6,0.6c-1.9,1.3-3.5,2.9-4.8,4.7C138.4,37.4,138.3,37.8,138.2,38z M195.3,39.3
		c0.5-0.2,1-0.3,1.4-0.6c1.3-1,2.7-1.9,3.8-3c0.8-0.8,1.7-1.6,2.1-2.8c0.1-0.3,0.3-0.7,0-0.9c-0.3-0.2-0.7-0.3-0.9-0.2
		c-0.6,0.2-1.1,0.4-1.6,0.7c-1.2,1-2.4,2-3.5,3.1c-0.5,0.5-1,1.2-1.4,1.9c-0.2,0.3-0.3,0.7-0.3,1.1C194.8,38.8,195.1,39,195.3,39.3z
		 M129.9,32.4c0-0.4,0-0.6,0-0.8c0-0.4-0.1-0.6-0.5-0.3c-0.2,0.1-0.3,0.2-0.5,0.3c-1.6,1.3-3.2,2.7-4.9,4c-0.4,0.3-0.4,0.6,0,0.9
		c1.2,0.8,2.4,1.4,3.8,1.7c0.3,0.1,0.4-0.1,0.5-0.3C129.3,36.1,129.8,34.2,129.9,32.4z M154.6,34.6c1.2-0.1,2.3-0.5,3.2-1.2
		c0.3-0.2,0.7-0.4,0.9-0.7c0.1-0.2,0.1-0.6,0-0.8c0-0.1-0.4-0.1-0.6-0.1c-1.5,0.4-2.7,1.3-3.7,2.4c-0.1,0.1-0.1,0.2-0.1,0.3
		C154.4,34.5,154.5,34.5,154.6,34.6z"/>
	<path style="fill:#FFFFFF;" d="M232.5,80.8c-0.1-1.3,0.5-2.3,1.4-3.3c1.8-2,4.3-2.6,6.8-3c0.6-0.1,1.4,0.1,1.7,0.9
		c0.3,0.6,0.1,1.2-0.3,1.6c-0.5,0.6-1.1,1.1-1.8,1.4c-1,0.4-2.1,0.6-3.1,0.7c-1.8,0.2-2.9,0.9-3.4,2.5c-0.3,0.8,0,1.3,0.9,1.3
		c0.7,0,1.4-0.2,2-0.4c1.6-0.6,3-1.6,4.4-2.6c2.1-1.6,4.1-3.3,6.2-4.9c0.4-0.3,0.6-0.6,0.6-1.1c0-0.7,0.4-1.2,1.1-1.4
		c0.5-0.2,1.1,0,1.3,0.4c0.3,0.5,0,1.3-0.6,1.5c-0.2,0.1-0.4,0-0.6,0.1c0,0-0.1,0.1-0.1,0.1c0,0.1,0.1,0.1,0.1,0.1
		c0.3,0,0.6,0.1,0.9,0c0.7-0.2,1,0.2,1.1,0.6c0.2,0.7,0.2,1.4-0.4,2.1c-0.8,0.9-1.6,1.8-2.4,2.7c-0.6,0.7-1.3,1.5-1.9,2.2
		c-0.1,0.1-0.1,0.3-0.1,0.5c0.2,0,0.4,0,0.5-0.1c1.4-0.9,2.8-1.7,4.1-2.7c2.1-1.6,4.2-3.4,6.3-5.1c0.4-0.3,0.4-0.6,0.4-1
		c0-0.7,0.4-1.1,1-1.3c0.6-0.2,1.2-0.1,1.4,0.4c0.2,0.6,0,1.2-0.6,1.4c-0.1,0-0.3,0-0.4,0c-0.1,0-0.2,0.1-0.2,0.1
		c0.1,0,0.2,0.1,0.3,0.1c0.2,0,0.5,0,0.7,0c0.8-0.1,1.1,0.1,1.2,0.8c0.1,0.7,0,1.4-0.5,2c-1.4,1.5-2.7,3-4,4.5
		c-0.1,0.1-0.3,0.3-0.4,0.5c0,0.1-0.1,0.2,0,0.3c0.1,0.1,0.3,0.1,0.4,0.1c1.7-0.8,3.2-1.9,4.6-3.1c2-1.5,3.9-3.1,5.8-4.7
		c1-0.8,2.2-0.3,3.3-0.4c0,0,0.1,0.3,0,0.3c-0.6,0.7-1.1,1.4-1.7,2c-1.2,1.3-2.5,2.7-3.7,4c-0.4,0.5-0.7,1.1-1.1,1.6
		c0.8,0,1.4-0.4,2-0.8c2.1-1.4,4-3,5.8-4.6c1.8-1.7,3.8-3.2,5.8-4.7c0.1-0.1,0.2-0.3,0.3-0.4c-0.1,0-0.3,0-0.4-0.1
		c-0.2-0.1-0.3-0.1-0.5-0.2c0.1-0.1,0.1-0.3,0.3-0.3c0.3-0.1,0.7-0.4,1.1-0.3c0.8,0.1,1.4-0.3,1.9-0.9c0.8-1,1.7-1.9,2.5-2.9
		c0.8-1,2-0.6,3-0.7c0,0,0.1,0.2,0.1,0.3c-0.2,0.3-0.4,0.6-0.6,0.8c-0.8,0.9-1.6,1.8-2.4,2.8c-0.1,0.1-0.2,0.2-0.2,0.4
		c0.1,0,0.3,0.1,0.4,0.1c0.6,0,1.2,0,1.8,0c0.1,0,0.3,0.2,0.3,0.2c0,0.1-0.1,0.3-0.2,0.4c-0.1,0.1-0.2,0.2-0.4,0.2
		c-0.2,0-0.4,0.1-0.6,0c-1.9-0.4-3.1,0.7-4.2,2c-1.1,1.3-2.2,2.5-3.3,3.8c-1,1.1-2.1,2.2-3,3.4c-0.4,0.4-1,0.8-0.8,1.6
		c0.6-0.1,1.2-0.1,1.6-0.4c1.1-0.6,2.1-1.2,3.1-2c1.3-0.9,2.4-2,3.6-3c1.9-1.6,4.1-2.7,6.6-3c1.2-0.1,2,0.6,2,1.7
		c0,0.7-0.3,1.4-0.4,2.1c0,0.1-0.1,0.3,0,0.4c0.1,0.1,0.3,0.1,0.4,0c0.8-0.6,1.5-1.2,2.3-1.8c0.7-0.6,1.3-1.2,2-1.7
		c0.6-0.4,1-0.8,1-1.6c0-0.7,0.7-1,1.3-1.2c0.4-0.1,0.9,0.3,1,0.6c0.1,0.5,0,1.1-0.5,1.3c-0.2,0.1-0.5,0.1-0.7,0.1
		c0,0-0.1,0.1-0.1,0.1c0.1,0.1,0.1,0.1,0.2,0.1c0.3,0,0.6,0.1,0.9,0c0.7-0.2,1,0.2,1.1,0.6c0.2,0.7,0.2,1.4-0.4,2.1
		c-0.9,0.9-1.7,1.9-2.5,2.8c-0.6,0.7-1.2,1.4-1.8,2.1c-0.1,0.1-0.1,0.3-0.1,0.5c0.2,0,0.4,0,0.5-0.1c1.5-1,2.9-1.9,4.4-2.9
		c0.8-0.6,1.5-1.4,2.4-2c1.3-1,2.7-1.9,4-2.9c0.6-0.4,1.3-0.2,2-0.2c0.4,0,0.8,0.1,1.2,0.1c-0.2,0.3-0.4,0.6-0.6,0.9
		c-1.6,1.8-3.2,3.6-4.8,5.4c-0.4,0.5-0.8,1.1-1.2,1.7c0.8,0.1,1.4-0.3,2-0.7c2-1.4,3.9-2.9,5.7-4.6c1.9-1.8,4.2-2.8,6.9-2.8
		c0.5,0,1,0,1.3,0.5c0.3,0.5,0.6,0.3,0.9,0c0.8-0.7,1.8-0.3,2.7-0.4c0,0,0.1,0.2,0.1,0.3c-0.1,0.2-0.2,0.4-0.4,0.6
		c-1.5,1.7-3,3.5-4.5,5.2c-0.4,0.5-0.8,1-1.2,1.5c-0.1,0.1-0.1,0.3-0.1,0.4c0.1,0,0.3,0,0.4-0.1c0.8-0.5,1.7-1,2.4-1.6
		c2-1.6,3.9-3.4,5.9-5c3.3-2.7,6.4-5.7,9.3-8.8c1.4-1.5,2.7-3.1,4.1-4.6c0.3-0.4,0.7-0.7,1.2-0.6c0.5,0,1,0,1.5,0
		c0.3,0,0.4,0.2,0.2,0.5c-0.1,0.1-0.2,0.2-0.3,0.3c-2,2.2-4,4.4-6,6.6c-2.7,2.9-5.3,5.9-7.9,8.9c-1,1.1-1.9,2.2-2.8,3.4
		c-0.2,0.2-0.3,0.4-0.4,0.6c-0.1,0.1,0,0.3,0,0.4c0,0.1,0.3,0,0.4,0c1.3-0.5,2.4-1.4,3.5-2.4c1.4-1.2,2.8-2.5,4.2-3.6
		c1.7-1.4,3.7-1.9,5.8-2.2c0.6-0.1,1.4,0.1,1.8,0.8c0.4,0.7,0.1,1.3-0.3,1.8c-0.5,0.7-1.1,1.2-2,1.4c-1,0.3-2,0.6-3.1,0.6
		c-1.6,0-2.7,1-3.2,2.5c-0.2,0.8,0.1,1.2,1,1.2c1.1,0,2.1-0.4,3-0.9c2.1-1.1,4-2.6,5.8-4.3c0.1-0.1,0.2-0.2,0.4-0.2
		c0.1,0.2,0.2,0.4,0.2,0.5c0,0.3-0.1,0.6-0.3,0.8c-1.7,1.3-3.3,2.7-5.1,3.9c-1,0.6-2.2,0.9-3.3,1.1c-1.7,0.3-2.8-0.7-2.8-2.4
		c0-0.3,0-0.6,0-0.9c0-0.3-0.1-0.4-0.4-0.2c-0.6,0.5-1.1,0.9-1.7,1.4c-1,0.8-2,1.6-3.3,1.9c-1.1,0.3-1.8-0.1-1.7-1.2
		c0-0.7,0.2-1.5,0.5-2.1c0.4-0.7,0.9-1.4,1.4-2.1c0.1-0.2,0.2-0.5,0.3-0.7c-0.2,0.2-0.5,0.3-0.7,0.5c-1.9,1.8-3.9,3.5-6.2,5
		c-0.4,0.3-1,0.5-1.5,0.7c-1.1,0.4-1.7-0.2-1.6-1.3c0-0.1,0.1-0.2,0.1-0.3c0-0.2,0-0.3-0.1-0.5c-0.1,0.1-0.3,0.1-0.4,0.2
		c-0.6,0.4-1.1,1-1.7,1.3c-0.6,0.3-1.2,0.6-1.9,0.7c-1,0.2-1.8-0.6-2-1.7c-0.1-0.6-0.2-1.1-0.2-1.7c-0.4,0.3-0.8,0.7-1.3,1
		c-0.9,0.6-1.8,1.3-2.7,1.8c-0.8,0.5-1.8,1-2.6,0.2c-0.7-0.7-0.4-1.7-0.1-2.6c0.3-0.6,0.7-1.2,1-1.8c0.1-0.1,0-0.2,0-0.4
		c-0.1,0-0.2,0-0.3,0.1c-1,0.7-1.9,1.5-2.9,2.2c-0.9,0.7-1.8,1.4-2.7,2c-0.7,0.4-1.4,0.7-2.2,0.9c-0.7,0.2-1.1-0.2-1.2-0.9
		c-0.1-1.2,0.2-2.4,0.9-3.3c0.9-1.2,1.9-2.3,2.9-3.5c0.1-0.1,0.1-0.2,0.2-0.4c-0.1,0-0.3-0.1-0.4-0.1c-0.6-0.1-1.1,0.1-1.5,0.5
		c-0.9,0.7-1.8,1.5-2.7,2.3c-0.8,0.8-1.7,1.4-2.8,1.3c-0.6,0-0.9,0.3-1.3,0.6c-1.2,1.2-2.6,2.2-4.2,2.9c-1,0.4-1.9,0.6-3,0.3
		c-0.7-0.2-1.1-0.7-1.2-1.5c0-0.4,0-0.8,0-1.2c0-0.1-0.1-0.3-0.1-0.4c-0.1,0.1-0.3,0.1-0.4,0.2c-1.2,0.8-2.4,1.7-3.6,2.4
		c-0.6,0.4-1.4,0.6-2.1,0.7c-1.1,0.2-1.8-0.4-1.7-1.5c0-0.4,0.1-0.9,0.3-1.3c0.5-1,1.2-1.9,1.8-2.9c0.2-0.3,0.4-0.5,0.6-0.8
		c0.1-0.1,0.1-0.3,0.1-0.5c-0.1,0.1-0.3,0.1-0.4,0.2c-1,0.8-1.9,1.7-2.9,2.5c-1.6,1.2-3.2,2.4-4.8,3.6c-0.4,0.3-1,0.4-1.5,0.5
		c-1,0.2-1.4-0.2-1.4-1.1c-0.1-1.2,0.3-2.2,1-3.1c0.1-0.1,0.1-0.3,0.1-0.4c-0.2,0-0.4,0-0.5,0.1c-1.5,1.2-3,2.5-4.6,3.6
		c-0.7,0.5-1.6,0.8-2.4,1.1c-0.8,0.3-1.2-0.1-1.3-0.9c-0.1-1.2,0.2-2.2,0.8-3.2c0.9-1.3,1.8-2.5,3-3.6c0.1-0.1,0.1-0.2,0.1-0.3
		c-0.1,0-0.2-0.1-0.3-0.1c-0.6-0.1-1.2,0.1-1.6,0.5c-1.4,1.2-2.7,2.4-4.1,3.5c-1.4,1.1-2.7,2.2-4.2,3.2c-0.7,0.5-1.5,0.7-2.3,1
		c-0.7,0.2-1.1-0.2-1.2-0.9c-0.1-1.2,0.2-2.4,0.9-3.3c0.9-1.2,1.9-2.3,2.9-3.5c0.1-0.1,0.1-0.2,0.2-0.4c-0.1,0-0.3-0.1-0.4-0.1
		c-0.6-0.1-1.1,0.2-1.6,0.6c-2,1.5-3.9,3.1-5.9,4.6c-1.3,1-2.6,2.1-4.2,2.5c-0.4,0.1-0.8,0.2-1.1,0.3
		C233.4,84.1,232.5,83.4,232.5,80.8z M288.2,76.5c0.1-1-0.4-1.4-1.2-1.1c-0.5,0.1-1,0.3-1.5,0.6c-2,1.3-3.5,3.1-4.9,5
		c-0.2,0.2-0.3,0.5-0.3,0.8c-0.2,0.7,0.3,1.2,1,1c0.6-0.2,1.1-0.4,1.6-0.7c1.7-0.9,3-2.3,4.3-3.7C287.7,77.8,288.1,77.1,288.2,76.5z
		 M315.9,76.1c0-0.6-0.4-1-0.8-0.9c-0.6,0.2-1.2,0.4-1.8,0.7c-1.8,1.2-3.3,2.7-4.6,4.5c-0.3,0.4-0.5,0.7-0.7,1.1
		c-0.1,0.4-0.2,0.8,0.2,1.1c0.2,0.1,0.5,0,0.8-0.1c0.3-0.1,0.6-0.2,0.8-0.3c2-1.2,3.7-2.9,5.2-4.7C315.5,77.2,315.7,76.5,315.9,76.1
		z M237.1,78.2c1.5-0.1,2.8-0.8,3.9-1.7c0.1-0.1,0.2-0.1,0.2-0.2c0-0.3,0.1-0.6,0-0.8c0-0.1-0.4-0.1-0.6-0.1
		c-1.5,0.4-2.7,1.3-3.7,2.4c-0.1,0.1-0.1,0.2-0.1,0.3C236.9,78.1,237,78.1,237.1,78.2z M332,78.2c1.6-0.2,2.9-0.8,4-1.8
		c0.1-0.1,0.1-0.2,0.1-0.2c0-0.2,0.1-0.5-0.1-0.7c-0.1-0.1-0.4-0.2-0.6-0.1c-1.5,0.4-2.7,1.3-3.7,2.4c-0.1,0.1-0.1,0.2-0.1,0.2
		C331.7,78.1,331.9,78.1,332,78.2z"/>
	<path style="fill:#FFFFFF;" d="M122.5,56.9c0.8,0,1.6,0,2.4,0c0.1,0,0.3,0.2,0.4,0.3c0,0.1-0.1,0.3-0.2,0.3c-0.3,0.1-0.7,0.2-1,0.2
		c-1.1,0-2.3-0.1-3.4,0.1c-2.9,0.3-5.8,0.9-8.3,2.6c-1.4,1-2.6,2.2-3.3,3.9c-0.3,0.8-0.5,1.6-0.4,2.5c0.3,2.3,1.6,3.1,3.7,3.6
		c0.3,0.1,0.6,0.1,0.9,0.2c1.3,0.3,2.3,0.1,3.3-0.9c3.9-3.8,8.2-7.1,12.9-9.9c2-1.2,4.1-2.2,6.4-2.7c0.5-0.1,1.1-0.1,1.6-0.2
		c1.2-0.1,2.2,1,1.8,2.5c-0.4,1.5-1.4,2.6-2.5,3.5c-3.1,2.5-6.6,4.3-10.3,5.8c-2.3,0.9-4.6,1.6-7,2.1c-0.8,0.2-1.3,0.6-1.9,1.3
		c-1.5,1.7-2.8,3.4-4,5.2c-0.6,0.9-1.1,1.9-1.4,3.1c-0.3,1.3,0,2.2,1.1,2.9c0.7,0.4,1.4,0.7,2.2,0.7c1.8,0.1,3.4-0.3,4.9-1.1
		c2-1,3.9-2.3,5.1-4.3c0.4-0.6,0.7-1.4,0.9-2.1c0.2-1.1-0.9-2.3-2.2-2.4c-0.5,0-1.1,0-1.6,0.2c-1.6,0.4-3,1.2-4.1,2.4
		c-1.3,1.3-2.6,2.6-3.4,4.4c-0.1,0.3-0.3,0.5-0.5,0.7c-0.1,0.1-0.4,0-0.5-0.1c-0.1,0-0.1-0.3,0-0.4c1-2.2,2.3-4.1,4.2-5.6
		c1.4-1.1,2.9-2,4.7-2.3c1.1-0.2,2.1,0,3.1,0.5c0.9,0.4,1.2,1.2,1.2,2.2c0,0.6,0.1,1.2,0.1,1.8c0.5-0.4,0.9-0.7,1.4-1.1
		c1.6-1.1,3.3-2.1,5.4-2.1c0.4,0,0.8,0,1.1,0.1c0.7,0.2,1,0.6,1.1,1.3c0.1,0.9-0.1,1.6-0.4,2.4c0,0.1,0,0.3,0.1,0.3c0,0,0.2,0,0.3,0
		c0.6-0.4,1.3-0.8,1.8-1.3c1.8-1.9,4.2-2.6,6.7-3c0.6-0.1,1.4,0.1,1.8,0.8c0.4,0.7,0.1,1.3-0.3,1.8c-0.5,0.6-1.2,1.1-1.9,1.4
		c-1,0.4-2.1,0.7-3.3,0.7c-1.6,0-2.7,1-3.2,2.5c-0.2,0.7,0.1,1.2,0.8,1.2c1.1,0.1,2-0.3,2.9-0.8c2.1-1.1,4-2.6,5.8-4.2
		c1-1,2.2-1.8,3.2-2.8c1-0.9,1.9-1.8,2.8-2.8c0.1-0.1,0.2-0.3,0.3-0.5c0.3-0.3,0.7-0.3,1.1,0c0.3,0.3,0.4,0.7,0.1,1
		c0,0-0.1,0.1-0.1,0.1c-1,0.4-0.6,1-0.3,1.7c0.6,1.1,1,2.3,0.8,3.6c-0.1,0.5,0.3,0.5,0.5,0.4c0.6-0.3,1.3-0.5,1.8-0.9
		c1-0.7,2-1.4,2.9-2.3c1.2-1.1,2.6-1,4-0.9c0.3,0,0.3,0.2,0.1,0.4c-0.6,0.7-1.3,1.5-1.9,2.2c-1.2,1.3-2.5,2.7-3.7,4
		c-0.3,0.3-0.5,0.7-0.8,1.1c-0.1,0.1,0,0.3,0,0.4c0.1,0,0.2,0,0.3,0c0.4-0.2,0.9-0.2,1.2-0.5c1.7-1.2,3.4-2.4,5-3.8
		c1.5-1.3,3.1-2.4,4.9-3.2c1-0.4,2-0.6,3.1-0.8c1.1-0.2,1.9,0.7,1.9,1.9c0,0.6-0.2,1.2-0.3,1.9c0,0.2-0.1,0.3-0.1,0.5
		c0.2,0,0.5,0,0.7-0.1c0.3-0.2,0.6-0.4,0.8-0.6c0.9-1.1,2-1.8,3.1-2.6c0.6-0.4,1.2-0.8,2-0.8c0.9,0,1.2,0.3,1.1,1.2
		c-0.1,0.7-0.3,1.3-0.5,1.9c0,0.1-0.1,0.2-0.2,0.4c0.1,0,0.3,0,0.4-0.1c1.3-0.9,2.6-1.8,3.9-2.6c0.9-0.6,1.8-0.9,2.9-0.8
		c0.2,0,0.5,0.3,0.6,0.5c0.6,1.2,0.1,2.3-0.7,3.2c-0.6,0.8-1.5,1.4-2.2,2.1c-0.6,0.5-1.2,1-1.7,1.6c-0.1,0.1-0.1,0.4-0.2,0.6
		c0.2,0,0.5,0.1,0.7,0c1.5-0.6,2.7-1.5,4-2.5c1.7-1.4,3.3-2.8,5-4.1c1.5-1.1,3.3-1.4,5.1-1.7c0.6-0.1,1.4,0.1,1.7,0.8
		c0.3,0.7,0.1,1.3-0.4,1.8c-0.5,0.5-1.2,1.1-1.9,1.4c-1,0.4-2.1,0.7-3.3,0.7c-1.6,0-2.8,1-3.2,2.6c-0.2,0.7,0.1,1.1,0.9,1.2
		c1.1,0.1,2.1-0.4,3.1-0.9c2.1-1.1,4-2.6,5.8-4.3c0.1-0.1,0.3-0.2,0.5-0.3c0,0.2,0.2,0.4,0.1,0.6c0,0.3-0.1,0.6-0.3,0.8
		c-1.6,1.3-3.3,2.7-5,3.8c-1,0.6-2.2,0.9-3.4,1.2c-1.7,0.3-2.7-0.7-2.8-2.5c0-0.4,0-0.8-0.1-1.2c-0.3,0.2-0.6,0.4-0.9,0.7
		c-1.2,0.8-2.3,1.6-3.5,2.4c-0.5,0.3-1.1,0.4-1.7,0.5c-1,0.1-1.5-0.4-1.5-1.3c0-0.5,0.1-1,0.3-1.4c0.6-1.4,1.7-2.5,2.8-3.5
		c0.4-0.4,0.9-0.8,1.3-1.2c0.1-0.1,0.1-0.3,0.2-0.5c-0.2,0-0.5-0.1-0.7-0.1c-0.3,0.1-0.5,0.3-0.8,0.4c-2.1,1.1-3.9,2.5-5.6,3.9
		c-1.3,1-2.5,2.2-3.8,3.2c-0.2,0.2-0.5,0.3-0.8,0.3c-0.5,0.1-1.1,0-1.6,0c-0.3,0-0.5-0.1-0.3-0.4c0.1-0.2,0.2-0.4,0.4-0.6
		c0.9-1,1.8-2,2.6-3c1.1-1.2,2.1-2.3,3.2-3.5c0.1-0.1,0.1-0.3,0.1-0.5c-0.1,0-0.3,0-0.4,0c-1,0.7-2,1.4-2.9,2.2
		c-1.1,1-2.1,1.9-3.7,1.9c-0.3,0-0.7,0.3-0.9,0.6c-1.3,1.2-2.6,2.2-4.2,2.9c-0.9,0.4-1.8,0.6-2.8,0.3c-0.9-0.3-1.2-0.7-1.3-1.7
		c-0.1-0.5,0.3-1.1-0.2-1.5c-0.4,0.3-0.8,0.6-1.1,0.9c-1,0.7-1.9,1.4-2.9,2c-0.7,0.4-1.7,0.9-2.4,0.2c-0.7-0.6-0.4-1.6-0.1-2.4
		c0.3-0.7,0.7-1.4,1.1-2.1c0-0.1,0-0.2,0-0.4c-0.1,0-0.2,0-0.3,0.1c-0.8,0.8-1.7,1.1-2.8,1.1c-0.2,0-0.5,0.2-0.7,0.5
		c-1.5,2-3.5,3-5.9,3.5c-0.9,0.2-1.8,0.2-2.5-0.4c-0.7-0.5-1-1.4-0.6-2.2c0.3-0.6,1.4-0.9,2.1-0.6c0.5,0.2,0.7,0.9,0.4,1.4
		c-0.2,0.2-0.4,0.4-0.6,0.6c-0.1,0.1-0.1,0.2-0.2,0.2c0.1,0,0.2,0.1,0.3,0.1c1,0,1.8-0.5,2.5-1.1c1.6-1.3,2.9-2.9,3.3-5
		c0.1-0.3,0.2-0.6,0.1-0.9c-0.1-0.5-0.3-0.9-0.5-1.3c-0.3,0.2-0.7,0.4-1,0.7c-2.6,2.1-5.2,4.2-7.7,6.3c-1.4,1.2-3,1.8-4.7,2.2
		c-0.7,0.1-1.4,0.1-2-0.3c-0.6-0.3-1-0.8-1-1.5c0-0.4,0-0.8,0-1.2c0-0.4-0.1-1-0.2-1.1c-0.6-0.1-1.2-0.2-1.7,0.2
		c-0.7,0.6-1.3,1.2-2,1.7c-1.2,1-2.6,1.8-4.2,1.9c-1.4,0.1-2.6-0.5-2.5-2c0-0.1,0-0.2,0-0.3c0-0.4,0-0.8-0.1-1.2
		c-0.2,0.3-0.5,0.5-0.8,0.8c-2.9,2.5-6,4.3-10,4.1c-2.4-0.2-4-1.9-4.2-4.3c-0.2-2.3,0.5-4.3,1.7-6.1c0.6-0.8,1.2-1.7,1.8-2.5
		c0.3-0.4,0.2-0.5-0.2-0.5c-0.5-0.1-1.1-0.2-1.6-0.2c-2-0.3-4.3-1.5-4.9-4c-0.4-1.8,0.1-3.5,1.1-5c0.8-1.2,1.9-2,3.1-2.7
		c2.2-1.3,4.6-2.2,7.1-2.5c1.2-0.1,2.3-0.3,3.5-0.4C122.5,56.9,122.5,56.9,122.5,56.9z M137.2,57.7c-0.6,0.1-1.1,0.3-1.6,0.4
		c-1.8,0.4-3.5,1.3-5.1,2.3c-3.6,2.3-6.9,4.8-9.6,8.1c-0.4,0.5-0.8,0.9-1.2,1.3c0.6-0.1,1.2-0.2,1.8-0.4c0.8-0.2,1.5-0.4,2.2-0.7
		c3.9-1.4,7.7-3.1,11.1-5.5c1.2-0.9,2.4-1.8,3.3-3.1c0.4-0.6,0.5-1.2,0.2-1.8C138.1,58,137.6,57.9,137.2,57.7z M135.2,76.8
		c0.1-1.1-0.3-1.6-1.1-1.4c-0.6,0.2-1.1,0.4-1.6,0.7c-1.9,1.3-3.4,3-4.8,4.9c-0.2,0.3-0.3,0.6-0.4,0.9c-0.1,0.6,0.3,1.1,0.9,0.9
		c0.6-0.2,1.1-0.4,1.6-0.7c1.7-1,3.1-2.3,4.4-3.8C134.8,77.8,135,77.1,135.2,76.8z M173.7,76.4c-0.1-0.9-0.6-1.3-1.3-1
		c-0.6,0.2-1.1,0.4-1.6,0.7c-1.9,1.3-3.4,3-4.8,4.9c-0.2,0.2-0.3,0.5-0.4,0.8c-0.2,0.7,0.3,1.2,1,1c0.6-0.2,1.1-0.4,1.6-0.7
		c1.7-0.9,3.1-2.3,4.3-3.7C173,77.8,173.3,77.1,173.7,76.4z M195.4,78.2c1.5-0.1,2.7-0.8,3.8-1.7c0.1-0.1,0.2-0.2,0.3-0.3
		c0-0.2,0.1-0.5,0-0.7c-0.1-0.1-0.4-0.2-0.6-0.2c-1.4,0.4-2.6,1.2-3.6,2.3c-0.1,0.1-0.1,0.3-0.2,0.5
		C195.1,78.1,195.2,78.1,195.4,78.2z M141.1,78.2c1.5-0.1,2.8-0.9,3.9-1.8c0,0,0.1-0.1,0.1-0.1c0-0.3,0.2-0.6,0.1-0.8
		c-0.1-0.1-0.5-0.2-0.7-0.1c-1.4,0.4-2.6,1.3-3.6,2.3c-0.1,0.1-0.1,0.2-0.1,0.4C140.9,78.1,141,78.1,141.1,78.2z"/>
	<path style="fill:#FFFFFF;" d="M204.8,50.8c-0.4,0-0.7,0-1,0c-0.2,0-0.3-0.1-0.5-0.2c0,0,0.1-0.3,0.1-0.4c0.9-1,1.8-2,2.6-3
		c2.2-2.5,4.3-4.9,6.5-7.4c1-1.1,2-2.2,3.1-3.4c0.6-0.7,1.2-1.3,1.7-2c0.2-0.3,0.4-0.7,0.7-1c-0.3,0.3-0.7,0.5-1,0.8
		c-0.2,0.2-0.3,0.4-0.5,0.5c-0.2,0.2-0.5,0.3-0.7,0.4c0-0.4,0-0.7,0-1.1c0-0.2,0.3-0.3,0.4-0.4c2.8-2.5,5.5-5,8.3-7.4
		c0.3-0.3,0.7-0.6,1.1-0.7c0.4-0.1,1.2-0.1,1.4,0.1c0.3,0.5-0.4,0.8-0.6,1.1c-1.8,2.1-3.6,4.2-5.4,6.4c-0.1,0.1-0.1,0.3-0.1,0.5
		c0.2,0,0.4,0,0.5-0.1c0.9-0.6,1.7-1.2,2.6-1.7c0.6-0.3,1.3-0.6,2-0.8c1.3-0.3,2,0.6,1.6,1.9c-0.4,1.8-1.7,2.9-3,4
		c-0.6,0.5-1.2,1.1-1.8,1.7c-0.1,0.1-0.1,0.3-0.1,0.4c0.1,0.1,0.4,0.3,0.5,0.2c0.7-0.3,1.5-0.6,2.1-1.1c1.7-1.3,3.4-2.6,4.9-4.2
		c1.8-2.1,4.3-2.7,6.8-3.1c0.6-0.1,1.4,0.1,1.7,0.9c0.3,0.7,0,1.3-0.4,1.8c-0.5,0.5-1.1,1.1-1.7,1.3c-1,0.4-2.1,0.6-3.1,0.7
		c-1.6,0.1-2.8,0.8-3.3,2.4c-0.3,0.9-0.1,1.5,0.9,1.4c0.8-0.1,1.5-0.3,2.2-0.6c2.1-0.9,3.8-2.3,5.6-3.7c1.5-1.2,3-2.4,4.6-3.6
		c0.4-0.3,0.6-0.6,0.6-1.1c0-0.7,0.4-1.2,1.1-1.4c0.5-0.2,1.1,0,1.3,0.3c0.3,0.5,0,1.3-0.5,1.5c-0.1,0.1-0.3,0-0.4,0
		c-0.1,0-0.2,0.1-0.3,0.2c0.1,0,0.2,0.1,0.3,0.1c0.2,0,0.5,0,0.7,0c0.7-0.1,1,0.1,1.1,0.7c0.1,0.7,0.1,1.4-0.5,2.1
		c-1.4,1.5-2.7,3-4,4.5c-0.2,0.2-0.3,0.4-0.5,0.6c0,0.1,0,0.2,0,0.3c0.1,0.1,0.2,0.1,0.2,0.1c0.5-0.3,1.1-0.5,1.6-0.8
		c2-1.3,3.8-2.7,5.5-4.3c0.1-0.1,0.2-0.1,0.4-0.2c0,0.1,0.1,0.3,0.1,0.4c0,0.4,0,0.7-0.4,1c-1.6,1.2-3.1,2.5-4.7,3.7
		c-0.7,0.5-1.5,0.8-2.2,1.1c-1.1,0.4-1.5,0.1-1.5-1c-0.1-1.1,0.2-2.2,0.9-3c0.9-1.2,1.9-2.3,2.9-3.5c0.1-0.1,0.2-0.2,0.3-0.4
		c-0.2-0.1-0.3-0.1-0.5-0.2c-0.6-0.1-1.1,0.3-1.6,0.6c-2.3,1.8-4.7,3.7-7,5.5c-1.4,1.1-2.9,1.7-4.6,2c-0.7,0.1-1.3,0-2-0.3
		c-0.8-0.4-1-1.2-1-2c0-0.3-0.1-0.5-0.2-0.8c-0.2,0.1-0.5,0.3-0.7,0.4c-0.9,0.6-1.7,1.3-2.6,1.8c-0.5,0.3-1.1,0.6-1.7,0.7
		c-1,0.3-1.7-0.3-1.8-1.3c-0.1-0.8,0.2-1.6,0.7-2.2c0.7-1,1.4-2,2.5-2.7c0.6-0.4,1.1-1,1.5-1.6c0.1-0.1,0-0.3,0-0.4
		c0,0-0.3-0.1-0.4,0c-1.6,0.9-3.3,1.8-4.8,2.9c-2.1,1.4-4,3-5.6,4.9c-1.5,1.7-2.9,3.4-4.3,5.2c-1.6,1.9-3.2,3.7-4.8,5.6
		C205.9,51,205.3,50.6,204.8,50.8z M233.4,34.6c0.4-0.1,0.8-0.1,1.2-0.3c0.9-0.4,1.7-0.9,2.5-1.3c0.4-0.2,0.5-0.6,0.3-1
		c-0.2-0.4-0.5-0.2-0.9-0.1c-1.4,0.4-2.5,1.3-3.5,2.3c-0.1,0.1-0.1,0.2-0.2,0.4C233.1,34.5,233.2,34.5,233.4,34.6z"/>
	<path style="fill:#FFFFFF;" d="M237,57.1c2.6,0.2,5.1,0.5,7.7,0.7c2,0.2,4.1,0.3,6.1,0.3c1.1,0,2.1-0.3,3.2-0.5
		c0.3-0.1,0.6-0.3,1-0.3c0.3,0,0.7,0.1,1,0.1c-0.2,0.2-0.4,0.5-0.6,0.7c-0.6,0.3-1.2,0.7-1.9,0.8c-2.1,0.6-4.2,0.8-6.4,0.7
		c-0.2,0-0.5-0.1-0.7-0.1c-0.7-0.1-0.7-0.1-1.7,0.5c-0.9,0.5-1.8,1-2.7,1.5c-2.2,1.5-4,3.3-5.4,5.5c-1.6,2.5-3.1,4.9-4.6,7.5
		c-1.5,2.6-3.5,4.6-5.9,6.3c-2,1.5-4.2,2.6-6.6,3.3c-2.6,0.8-5.2,1-7.8,0.8c-1.1-0.1-2.1-0.4-3-1.1c-0.9-0.7-1.3-2.2-0.9-3.2
		c0.3-0.7,1.2-1.2,2.1-1c0.6,0.1,0.9,0.5,0.8,1.2c0,0.6-0.3,0.9-0.9,0.9c-0.3,0-0.5-0.1-0.8-0.2c-0.1,0-0.3-0.1-0.4-0.1
		c0,0.2-0.1,0.4-0.1,0.5c0.5,1.4,1.7,2,2.9,2.1c4.9,0.4,9.4-0.6,13.1-4.1c2-2,3.8-4.2,5.4-6.6c2.8-3.9,5.8-7.7,9.4-10.9
		c1.4-1.3,3-2.4,4.8-3.1c0.1-0.1,0.3-0.1,0.4-0.2c-0.1,0-0.3-0.1-0.4-0.1c-1.8-0.3-3.5-0.7-5.3-0.8c-4.9-0.4-9.7,0-13.8,3.3
		c-1.5,1.2-2.6,2.6-3.2,4.5c-0.5,1.7,0.2,3.1,1.9,3.5c0.9,0.2,1.8,0.1,2.7-0.1c1.8-0.3,3.3-1.4,4.8-2.5c1.9-1.3,3.3-3.1,4.3-5.1
		c0.1-0.2,0.1-0.4,0.3-0.5c0.2-0.1,0.4-0.1,0.6-0.2c0,0.2,0.2,0.5,0.1,0.6c-0.4,0.8-0.8,1.7-1.4,2.4c-2,3-4.7,5.2-8.3,6.1
		c-1.2,0.3-2.5,0.3-3.8,0c-1.9-0.4-2.7-2-2.4-3.9c0.3-1.6,1-2.9,2.1-4.1c2.1-2.3,4.7-3.7,7.8-4.4C232.7,57.3,234.9,57.1,237,57.1z"
		/>
	<path style="fill:#FFFFFF;" d="M274.9,18.3c0.4,0.1,0.8,0.1,1.1,0.2c-0.2,0.4-0.4,0.7-0.7,1c-2.2,2.5-4.4,5-6.6,7.5
		c-1,1.1-2,2.2-3,3.3c-2,2.2-4,4.4-6,6.6c-0.5,0.5-0.9,1.1-1.3,1.6c-0.1,0.1,0,0.4,0,0.5c0.1,0,0.3,0,0.4-0.1
		c1.3-0.6,2.4-1.5,3.5-2.4c1.6-1.4,3.1-2.8,4.8-4.1c1.6-1.1,3.4-1.6,5.4-1.6c0.5,0,0.9,0.1,1.2,0.5c0.3,0.5,0.6,0.3,0.9,0
		c0.8-0.8,1.8-0.3,2.7-0.4c0,0,0.1,0.2,0.1,0.3c-0.1,0.2-0.2,0.4-0.4,0.6c-1.5,1.7-3,3.4-4.5,5.1c-0.3,0.3-0.6,0.6-0.8,0.9
		c-0.2,0.3-0.4,0.7-0.6,1.1c0.4-0.2,0.8-0.3,1.1-0.5c1.6-1.2,3.1-2.3,4.7-3.5c0.4-0.3,0.7-0.6,1.1-0.8c0.2-0.1,0.4-0.1,0.6-0.1
		c0,0.2,0,0.5-0.1,0.7c-0.1,0.2-0.3,0.4-0.5,0.5c-1.7,1.3-3.4,2.7-5.1,3.9c-0.5,0.3-1,0.5-1.6,0.7c-0.9,0.3-1.5-0.3-1.5-1.2
		c0-0.1,0.1-0.3,0.1-0.4c0-0.2,0-0.3-0.1-0.5c-0.2,0.1-0.4,0.2-0.5,0.3c-0.6,0.4-1.1,1-1.8,1.3c-0.7,0.3-1.5,0.6-2.2,0.5
		c-0.9,0-1.4-0.6-1.5-1.5c0-0.1,0-0.2,0-0.3c0-0.5-0.1-1-0.1-1.5c-0.5,0.3-1,0.6-1.4,1c-1.1,1-2.2,1.8-3.6,2.2
		c-1.1,0.3-1.7-0.2-1.7-1.3c0-0.8,0.2-1.5,0.7-2.2c0.5-0.8,1.1-1.5,1.6-2.3c0-0.1,0.1-0.2,0.1-0.3c-0.1,0-0.3,0-0.3,0.1
		c-0.4,0.4-0.8,0.7-1.2,1.1c-0.3,0.2-0.4,0-0.5-0.3c-0.1-0.4,0.1-0.7,0.5-1c3.8-3.1,7.5-6.5,10.9-10.1c1.4-1.5,2.8-3.1,4.2-4.7
		C273.6,18.3,274.2,18.3,274.9,18.3z M273.3,32.3c-0.3-0.2-0.5-0.5-0.8-0.6c-0.2-0.1-0.5,0.1-0.7,0.2c-2.9,1.2-4.8,3.5-6.4,6
		c-0.2,0.4-0.3,0.9,0.1,1.2c0.2,0.1,0.6,0,0.9-0.1c0.2,0,0.5-0.2,0.7-0.3c2-1.3,3.8-2.8,5.2-4.7C272.7,33.5,272.9,32.9,273.3,32.3z"
		/>
	<path style="fill:#FFFFFF;" d="M308.4,71.6c-0.2-0.2-0.6-0.4-0.7-0.8c-0.2-0.6,0.4-1.2,1.1-1.3c0.5,0,0.8,0.3,0.8,0.8
		C309.6,71,309.1,71.6,308.4,71.6z"/>
	<path style="fill:#FFFFFF;" d="M167,70.5c0,0.6-0.6,1.2-1.1,1.2c-0.5,0-0.9-0.5-0.9-0.9c0.1-0.6,0.6-1.1,1.2-1.1
		C166.6,69.6,167,70,167,70.5z"/>
	<path style="fill:#FFFFFF;" d="M194.5,27.2c0-0.7,0.5-1.2,1.2-1.2c0.5,0,0.7,0.4,0.7,0.7c0.1,0.6-0.6,1.3-1.1,1.3
		C194.9,28,194.5,27.6,194.5,27.2z"/>
	<path style="fill:#FFFFFF;" d="M272.5,70.4c0,0.6-0.6,1.2-1.1,1.2c-0.5,0-0.9-0.5-0.9-0.9c0.1-0.6,0.6-1.1,1.2-1.1
		C272.1,69.6,272.5,70,272.5,70.4z"/>
</g>
<g>
	<path style="fill-rule:evenodd;clip-rule:evenodd;fill:#2864AE;" d="M67.2,64.7c0.4,0,1,0.2,0.9,0.6c-0.1,0.4-0.3,1-0.7,1
		c-0.3,0-1-0.4-1-0.9C66.4,65,66.8,64.7,67.2,64.7L67.2,64.7z"/>
	<path style="fill-rule:evenodd;clip-rule:evenodd;fill:#2864AE;" d="M30.2,76.3c0.5,0.2,0.9,0.2,1.4,0l-0.4-0.6l-0.8-0.7
		c-0.4-0.2-0.8,0-1.1,0.6L30.2,76.3L30.2,76.3z"/>
	<path style="fill-rule:evenodd;clip-rule:evenodd;fill:#707072;" d="M54.2,92.5c-0.1,0.2-0.1,0.5,0.3,0.7c0.3,0.2,0.5,0.3,0.7,0.2
		L54.2,92.5L54.2,92.5z"/>
	<path style="fill-rule:evenodd;clip-rule:evenodd;fill:#FFFFFF;" d="M86.5,46.3c0.3-1.8,0.1-2.9-0.5-3.4c-0.7-0.5-1.5-0.3-2.5,0.4
		c-0.6-0.3-1.3,0-2.3,0.9c0.2-0.4,0.2-0.8,0.1-1.2c0.9-0.4,1.4-0.8,1.7-1.3c0.3-0.5,0.4-1.2,0.4-2.3c0.1-0.6,0.7-1.8,1.8-3.4
		c0.7-1.6,0.2-2.2-1.6-1.7c1-0.9,1.5-1.6,1.5-2.3c0.1-0.6-0.2-1.4-0.8-2.3c-0.2-0.5-0.6-0.6-1.1-0.3c0.2-0.3,0.3-0.7,0.3-1.2
		c0-0.5-0.3-1.5-0.9-3c-0.1-2-0.6-2.8-1.4-2.5c-0.1-1-0.5-2-1-3c-0.8-1.2-1.4-1.5-1.9-1c-1.3-1.9-2.5-2.7-3.7-2.4
		c0-0.8-0.3-1.6-0.9-2.3c-0.3-1.3-0.7-2.2-1.1-2.7c-0.6-0.2-1,0.1-1.3,1c-0.1-0.7-0.3-1.5-0.7-2.3c-0.4-0.8-1-1.2-1.8-1.3
		c-0.3,0-0.6,0-0.9,0.2c-0.5-0.3-1-0.5-1.4-0.5c-1.1-1.2-2.2-1.3-3.1-0.3l-0.2-1.1c-0.3-1.2-1-1.5-2-0.8c-1.6-1.7-3-2.8-4.2-3.4
		c-1-0.3-1.6-0.3-1.9,0.3c-0.5-0.5-1-0.8-1.6-1c-0.6-0.1-1.1-0.3-1.6-0.5c-0.8,0-1.1,0.4-1,1.3c-1.2,0.1-2,0.3-2.5,0.6
		c-0.4,0.4-0.6,0.8-0.3,1.5C48.6,6.1,49,6.6,49.8,7c-0.2,0.2-0.3,0.6-0.3,1.1c0,0.5,0.6,0.9,1.6,1.3c0.8,0.2,1.5,0.2,2.3,0.1
		c-0.2,0.8,0.1,1.3,0.8,1.5c1,1,2.2,1.3,3.6,0.8l-0.2,1l2,0.8c0.1,0.9,0.5,1.6,1.3,2l0.8,0.3c-0.2,0-0.9,0.6-0.9,0.7
		c-0.2,0.2-0.6,1.1,0.5,1.3c0.8,0.1,1.7,0.2,2.5,0.2c0,0.2,0.2,0.6,0.3,0.9c0.1,0.3,0.5,0.7,1.1,1.4c0.5,0.6,1.6,1.2,2.4,1.5
		c-0.1,0.1-0.3,0.7-0.5,1.3c-0.3,0.7-0.4,1.9,0.1,2.6c-0.1-0.1-0.6,0.3-0.8,0.5c-0.6,1,0.7,2.3,0.9,2.8c-0.1,0-0.5,0.2-0.7,0.3
		c-0.5,0.3-0.3,2,1,2.3c0.3,0.2,1.8,1,2.6,1.8c0.1,0.2,0.6,0.9,1.2,1.7c0.3,0.4,0.7,1.1,1.5,1.2c0.7,2.3,1.9,4.6,3.3,6.8
		c0,0.1,1.3,1.5,1.8,2.7c-0.2,0.8-0.1,1.5-0.1,1.6c-0.2,1.6-0.5,3.1-0.9,4.4c-1.4-0.7-1.7,0.2-1.9,1.2c0,0-0.7-0.1-0.8,0.2
		c0.1-0.6-0.9-1-1.3-0.7c0,0-0.5,0.3-0.7,0.5c-0.1,0.1-0.2-0.5-0.2-0.9c0-0.3-0.1-1.2,0.1-1.6c0-0.1,0.4-0.5,0.6-0.8
		c0.4-0.8,0.1-3.1-0.4-4.8c-0.2-0.5-0.5-0.7-0.8-0.8c-0.1,0-0.9,0-1,0.6c0-0.3-0.6-0.5-1-0.6c-1.1-0.3-2.3,1.8-2.1,3.8
		c-0.8-0.6-1.8-0.4-1.7,0.7c0.2,1.5,2.5,4.3,2.6,5.5c-0.7-0.6-2.3-0.6-2.3,0.9c0,0.5,0.4,1.2,0.5,1.6c-0.3,1.6,1.5,2.8,3,4.3
		c0,0.7,0.2,0.7,0.4,1c-0.3,0.4-2,3.1-2,3.1c-0.1,0-1.2-0.6-1.6-0.3c-0.4,0.4-0.7,0.8-0.9,1.1l0.2,1.9c0.1,0.8-0.3,1.6-1.2,2.6
		c-1,1-1.6,1.8-1.9,2.6c-0.2,0.6-0.8,1.3-2,2c-0.1-0.2-0.3-0.5-0.8-1c-0.1-0.1-0.2-0.2-0.4-0.1c-1.1,0.3-3.4,1.6-6.9,3.3
		c-0.6,0.3-1.4,1.1-2.5,3h-2c-0.5-0.6-1.1-1-1.7-1.6c-0.4-0.3-1.2-0.4-2.3,0.2c-1-0.2-2.1-0.1-3.1,0.6c-0.6,0.2-1.1,0.2-1.4,0.1
		l-2.5-2.7c-5.1-2.1-7.8-3.1-8.3-2.9c-0.5,0.3-0.9,0.7-1.1,1.3c-0.5-0.2-1.3-0.9-2.3-1.9l-1.6-1.8c-1.1-1.3-1.6-2.5-1.4-3.6l0.3-1.6
		c0-0.2,0-0.4-0.1-0.6c-0.4-0.4-1-0.6-1.4-0.7c-0.1,0-0.3-0.1-0.5,0.8c0.1,0.2-1.6-2.2-1.6-2.3c0.4-0.5,1.2-1.9,1.7-3.6
		c0.5-1.9,0.8-3.9,0.7-4.7c0.1-0.1,0.1-0.2,0.2-0.3c0.8-0.6,1.8-6.2,1.5-7.5c-0.1-0.5-0.2-0.8-0.4-0.8s-0.3,0-0.4,0.1l0.3-0.6
		c0.2-0.4,0.2-0.7,0-0.9c-0.1-0.1-1-0.1-1.8,0.3c-0.1-0.9-0.5-2.1-0.7-2.6c-0.1-0.2-0.3,0-0.3,0c-1.4,0.8-2,2.7-2.5,5l-0.4,0.4
		c-1.8,2.3-3.2,4.9-3.8,7.8c-0.3-0.5-0.5-1.1-0.7-2c-0.3-0.9-0.3-1.5-0.3-1.8c0.3-0.5,0.2-0.9-0.3-1.3c-0.3-0.3-0.8-1.8-1.3-4.5
		c0-0.7,0.3-1.8,0.9-3.2c0.5-1.4,1.4-3.2,2.6-5.2c0.1-0.1,0.6-0.6,0.7-0.7c1.7-0.4,9.4-10.4,8.6-15c-0.1,0.6,3.3-5.5,3.6-6.7
		l0.4-0.1l0.5-0.2c1.7-0.7,3.1-1.4,4.4-2l2-1.1c1.4-0.6,2.7-1.4,4-2.5c1.3-1.2,2.1-2.4,2.2-3.7c-0.2-0.3-0.9-0.5-2.1-0.5
		c0.6-0.7,0.9-1.4,1-2.1c-0.4-0.6-1.7-0.7-3.9-0.3c-2.3,0.6-4.3,1.5-6,2.7c-1.7,1.1-3.3,2.4-4.7,4c-1.4,1.6-2.5,3.2-3.3,4.9l1-2.3
		c0.5-1.1,1-2.4,1.6-3.9c0.2-0.7,0.2-1.2,0-1.5c-0.1-0.3-0.5-0.4-1-0.3c-0.5,0.1-1.5,0.8-2.9,2.1c-1.5,1.6-2.9,3.5-4.1,5.8
		c-1.2,2.3-2,4.1-2.4,5.5c0.2-1.5,0.2-2.8-0.1-3.9c-0.2-0.4-0.5-0.6-1.1-0.4c-0.5,0.4-1.1,0.9-1.6,1.7c-0.5,0.7-1.1,1.4-1.6,2.1
		c-0.5,0.7-1.1,1.7-1.8,2.9c-0.7,1.3-1.3,2.8-1.8,4.5c-0.5,1.7-0.9,4-1.2,6.9c-0.2,1.8,0,3.8,0.4,5.9c0.5,2.1,1.1,3.7,1.6,4.7
		c0.5,1,1,1.6,1.5,1.8c0.3,0.7,0.7,2,1.2,3.7c0.3,0.8,0.4,1.4,0.3,1.8c0,0.4,0.1,0.7,0.3,0.9c0.3,0.2,0.5,0.5,0.6,1
		c0.4,1.6,1,3.1,1.8,4.5c-0.1,0.7-0.2,1.5-0.2,2.2c-1.6-4.6-2.9-8.1-3.9-10.5C6.6,45.6,5.1,43.6,4,44c-0.5,0.2-0.9,0.7-1,1.5
		c0,0.3,0,1.1,0,2.3c0,1.2,0.1,2.5,0.3,3.9c1,4.4,2.7,8.1,5.2,11.1l3.7,4.3c0.7,0.7,1.4,1.3,2.1,1.6c0.7,0.4,1.3,0.4,1.9,0.3
		c0.8,1.3,1.9,2.7,3.2,4.2c0.8,1.2,1.6,1.8,2.5,1.8c0.4,0.8,0.9,1.2,1.7,1.2l0.8-0.1c1,1,2,1.8,2.8,2.4l-1,2.7
		c-1.7,0.2-3.2,0.4-4.6,0.4c-1.3-0.9-3.1-2.2-5.5-3.8l-0.2-3c-0.1-1,0.1-1.9,0.6-2.6c0.1-0.6-0.2-1.1-1-1.6c-1.1-0.5-1.6-0.8-2-0.7
		c-0.2,0.1,0,0.3,0,0.6v0.2c0-0.2,0.1-0.2,0.3-0.1c1.4,0.4,2,0.8,1.9,1.4c-0.4,0.7-0.6,1.6-0.6,2.5l0,2.6c-1.8-1.2-3.7-2.2-5.7-3.1
		c0.2,0,0.5-0.1,0.8-0.1c0.3,0,0.5-0.1,0.6-0.3c0.1-0.2-0.1-0.3-0.6-0.4c-1,0-1.7,0.1-2,0.3c-0.2,0.3-0.2,0.5,0.2,0.8
		c2.4,1.2,4.5,2.4,6.4,3.6c2.9,1.8,5.2,3.3,6.8,4.5c1.6,0,3.8-0.3,6.6-0.7l4.3-0.8c1.8-0.3,3.6-0.6,5.5-0.9c0.7-0.1,1.6-0.2,2.7-0.2
		c1.1,0,2.1-0.1,3-0.3c0.9,1.6,1.4,3.1,1.6,4.3c0.1,0.6,0,1-0.3,1.1c-4,1.5-6.8,2.4-8.6,2.8c-1.7,0.4-3.3,0.7-4.7,1
		c-3.5,0.6-7,1.2-10.4,1.6c-0.9-0.2-3.4-1.5-7.5-3.9c-2.9-1.8-5-3.2-6.2-4.3c-1.3-1.4-1.9-2.3-1.6-2.6c0.9-1.4,1.5-2.7,1.8-3.8
		c0.1-0.5,0.2-0.8,0.1-1.1c-0.4-1.1-0.1-1.7,0.8-1.8c2.2-0.1,3.7-0.2,4.5-0.1c0.3,0,0.6-0.1,0.7-0.3l0.8-1.5l-0.5-0.2l-0.6,1l0-1
		v1.3l-5.1,0.1c-0.4,0-1,0.2-1.2,0.5c-0.3,0.3-0.4,1-0.1,2c0,0.4,0,0.7-0.1,1c-0.2,1.1-0.9,2.4-1.9,3.9c-0.1,0.2-0.1,0.6,0.2,1.1
		C5.4,81.1,6,81.8,7,82.8c0.4,0.4,1.1,1,2,1.6c0.9,0.6,2.4,1.6,4.7,2.9c2.6,1.6,5.2,2.9,7.6,3.9c0.5,0,3.8-0.4,10-1.4l0.1,0.5
		c-1.8,1.3-2.9,1.9-3.4,1.7c-0.7,0.1-0.9,0.6-0.7,1.6c0.2,0.4,0.6,0.7,1.1,0.9l0.7,0.8l1.9,1.1c0.7,0.2,1.4,0.2,2,0
		c0.6-0.2,1-0.8,1.2-1.6l0.2-0.2l2-2l1.5-1.1c1.1-0.2,1.9-0.6,2.2-1.2c0.1-0.5,0.2-0.9,0.4-1l1.8-1.2c0.1-0.2,0.8,0.1,2.2,0.9
		c0.7,0.2,1.3,0.1,1.8-0.1l1.3-0.8c1.2,0.3,3.2,1.7,6.2,4.4c0,0.3,0.2,0.6,0.6,1.1c0.2,0.3,0.9,0.5,1.9,0.7l0.7,1.3l0.7,0.3
		c1,0,2-0.3,2.9-1.1l1.1-0.4c0.6-0.4,0.8-0.9,0.8-1.3l-0.5-0.5l-1-0.2c-1.2-0.6-2.4-1.3-3.7-2.3l-0.8-0.6c3.6,0.6,8.2,1.1,13.6,1.5
		c0.7,0.1,1.6-0.2,2.7-1c1.1-0.8,4.5-3.2,10.1-7.2c0.8-0.9,1.5-1.9,2-3.1c-0.5-0.5-0.9-1.1-1.3-2c-0.4-0.9-0.6-1.6-0.7-2.2
		c-0.1-0.6-0.2-1.1-0.1-1.5c0.1-0.4-0.1-0.9-0.4-1.3c-0.2-0.2-0.6-0.4-1.2-0.4c-1.1-0.1-2.3-0.1-3.6,0c-0.6-0.1-1-0.2-1.1-0.5
		l0.1-1.2c0.1-0.5-0.1-0.8-0.4-0.7c-1.5,0.4-2.4,0.7-2.7,1.1c-0.4,0.5-0.4,1,0.1,1.5c0.4,0.3,0.5,0.7,0.5,1.2
		c-0.2,2.2-0.4,3.7-0.5,4.5c-2.4,1.9-4.1,3.1-5,3.6c-0.7,0.2-2.3,0.1-4.7-0.3c-0.5-0.5-0.9-1.3-1.2-2.4c0.8-0.5,1.7-1.1,2.7-1.8
		c0.6-0.1,1.2-0.2,1.6-0.4c0.4-0.1,0.7-0.6,0.7-1.2c0.4-0.2,0.8-0.5,1-1.1l2.9-3.5c0.9-0.8,2-1.3,3.1-1.4c1.3-0.1,3.1-0.9,5.2-2.3
		c0.3-0.4,0.3-0.9,0-1.6c0.6-0.4,1.7-1.4,3.1-3.1c0.6-0.8,0.7-1.7,0.4-2.7c1.3-1.6,2.1-2.9,2.3-3.8c0.1-0.8,0.1-1.7-0.1-2.7
		c0.6-0.4,1.1-0.7,1.3-1c0.3-0.3,0.4-0.7,0.4-1.2c0-0.5-0.2-0.9-0.6-1.3C87.2,48.6,87.3,47.4,86.5,46.3z M39.9,6.4
		c0,0.6-0.3,1.3-1.1,2.1c-1.2,1.1-2.6,2.1-4.3,3c-1.8,0.9-4.1,2-6.6,3.2v-0.3c3.2-2.5,6.4-4.6,9.3-6.2c0.8-0.5,0.5-0.6-0.4-0.4
		c-1,0.5-2.1,1.1-3.3,1.9c-2,1.3-3.9,2.6-5.8,3.9l0.1-0.6c3.8-3.3,6.9-5.5,9.4-6.5C38.2,6.1,39.2,6.1,39.9,6.4z M28.6,7.6
		c1.8-1.5,4-2.7,6.5-3.5c1.2-0.3,2.3-0.5,3.2-0.4c0.4,0.1,0.6,0.3,0.4,0.8l-1.1,1.5c-1,0.1-2.3,0.7-4,1.7c-1.7,1-3.5,2.3-5.4,3.9
		l-0.7,0.5c-0.4-0.3-1-0.2-2,0.3c3.1-2.6,5.7-4.5,8-5.9C34.9,5.5,35.8,5,36,4.7c-0.7,0.2-1.8,0.7-3.1,1.4s-3.5,2.2-6.6,4.5l-3,2.7
		C25,10.9,26.8,9.1,28.6,7.6z M25.5,13.1c0.5-0.3,0.9-0.4,1.1-0.4c0.1,0.3,0.2,0.8,0.1,1.4s-0.5,1.8-1.3,3.7l-1.9,3.6
		c-1.3,0.2-2.5,0.8-3.7,1.8c0.6-1,1.3-2.2,2.2-3.6c0.9-1.3,2.2-3.3,4-6c0.3-0.5,0.3-0.6,0-0.4c-0.3,0.3-1,1.2-2.3,2.9
		c-1.2,1.7-2.9,4.3-5,7.8c-0.6,0.9-1.9,3-4.2,6.4l0.3-0.8l3-5.3l2.9-5.4C22.2,16.4,23.7,14.5,25.5,13.1z M13.2,25.4
		c1.3-2.2,2.9-5.2,4.8-9.2c0.6-1.2,1.4-2.5,2.5-4c0.3-0.8,0.2-0.8-0.6,0.1c-1.6,2-3.5,5.3-5.7,9.7l1-2.4c0.2-0.5,0.7-1.7,1.6-3.6
		c0.9-1.9,1.8-3.4,2.7-4.5s1.5-1.8,1.8-2.2c1.2-1,1.9-1.5,2.1-1.5c0.2,0.1,0.2,0.4,0.2,0.7l-2.5,6.3c-1.6,3.1-3.7,6.3-6.3,9.7
		c-1.1,1.2-1.8,2-2.1,2.3c-0.3,0.3-0.5,0.7-0.7,1l0.2-0.9L13.2,25.4z M14.6,31.1c-0.7,1.3-1.2,2.5-1.6,3.5l-0.4-0.1l1.1-3.3
		L14.6,31.1z M10.9,39.6l0.3-1.5l0.3-1.5l0.8-0.2l-1,2.7l-0.7,2.4L10.9,39.6z M10.7,34.1c0.2-1.5,0.6-2.9,1-4.1l0.4,0.5L10.7,34.1z
		 M8.8,44.1l-0.2-0.4c-0.2-0.3,0.1-2.3,1.1-5.9C9.3,40.5,9,42.6,8.8,44.1z M8,41.2c-0.3-1.4-0.1-4.2,0.5-8.6
		c0.6-4.4,1.3-7.5,2.2-9.4c0.4-1,0.4-1.1-0.1-0.5c-2,3.5-3.2,8.6-3.6,15.4c-0.1,2.4,0.1,4.1,0.4,5.1c0.3,1.1,0.7,1.7,1.2,1.8
		c0.2,0.1,0.5,0.1,0.8-0.1c0,0-0.2,0.9-0.2,1.1c-0.9-0.4-1.5-1.1-1.9-2c-0.4-1-0.8-2.2-1.1-3.7c-0.4-1.5-0.5-3.4-0.4-5.5
		c0.2-2.5,0.5-5,1.1-7.4C7.7,24.1,9.4,21,12,18c0.6-0.6,0.9-0.8,1.1-0.5c0.1,1.3,0.1,2.6,0,3.9c-0.2,1.3-0.5,2.6-1,4.2
		c-1.3,4.3-2.1,7.3-2.4,8.8C9.2,36.1,8.6,38.4,8,41.2z M9.5,46v-0.8c1.3-1.4,1.1-2.7,1.6-3.9l1.8-4.5l2-4.8c1.1-2.1,2.7-4.6,4.6-7.3
		c1.2-1.4,2.2-2.1,3.1-2.2c0.2,0.3,0.2,1,0,2.1c-0.2,1-0.6,2.1-1.2,3.3c0,0-0.1,0,0,0.1c-2.2,4-4.2,6.9-6.3,8.6l3.5-5.6l1.6-3
		c0.6-1.1,0.7-1.5,0.3-1.2c-3.4,5.1-5.4,8.3-6.1,9.6c-0.7,1.3-1.3,2.5-2,3.7c-0.6,1.1-1.3,2-1.5,2.7S10.8,44.4,9.5,46z M22.9,48.1
		c-0.1,1.5-0.4,3.4-1,5.6c0-1.8-0.1-3.1-0.3-3.7l0.5-1.3c0-0.4-0.1-0.5-0.3-0.1l-0.3,0.5l-0.1-1l0.8-1C22.8,46.8,23,47.1,22.9,48.1z
		 M22.2,45.4c0.4-0.1,0.5,0.1,0.3,0.6l-1,1.4c-0.1-0.6-0.2-1.1-0.3-1.5C21.6,45.7,21.9,45.5,22.2,45.4z M18.2,47.7
		c0.7-2.8,1.4-4.2,2-4.4c0.4,1,0.7,2.8,0.9,5.4c0.2,2.6,0.2,5,0,7.1c-0.3,2.7-0.8,4.5-1.4,5.4l-0.7,1.4c0-2.1,0-3.8,0.1-5.1
		c0.1-1.3,0.1-3,0.2-5.2c0.1-2.2,0.2-4.6,0.4-7.3c0.1-0.7,0.1-0.8-0.1-0.4c-0.5,2.8-0.9,6.3-1,10.7l-0.1,2.9L18.6,62l-0.7-0.8
		c-0.5-2.3-0.7-4.8-0.6-7.4C17.4,52,17.7,49.9,18.2,47.7z M13.8,56.1c0.6-2.5,1.8-5,3.8-7.6c-0.3,1.4-0.5,2.4-0.6,3.1
		c-1.5,2.5-2.6,5.1-3.4,7.6c-0.2,0.8-0.4,1.7-0.5,2.8C13,60.5,13.3,58.6,13.8,56.1z M17.1,60.3L16,58.9l0.8-2
		C16.8,58,16.9,59.1,17.1,60.3z M27.2,81l0.7-2l2.3,1.5L27.2,81z M32.7,80l-3.8-2.3l-3.5-2.3l-0.7-0.9c-0.2-0.2-0.5-0.3-0.8-0.1
		c-0.4,0.1-0.6-0.1-0.8-0.6c-0.9,0.5-1.8,0.3-2.8-0.6l-1.7-2l-1.6-2.7l-0.6-0.4c-0.3,0.2-0.7,0.3-1.1,0.2c-0.7-0.1-1.4-0.5-2.2-1.3
		c-0.5-0.4-1.5-2.2-3-5.2c-2-3.9-3.4-6.8-4.2-8.8c-0.5-1.6-0.9-2.7-1.1-3.1c-0.2-0.4-0.2-0.4-0.2,0c0,0.4,0.3,1.4,0.8,2.8
		c0.5,1.5,1.3,3.6,2.6,6.4c1.1,2.3,2.2,4.3,3.3,6.2c-2.5-2.7-4.3-5.2-5.4-7.5c-1.1-2.3-1.8-4.4-2.2-6.4c-0.2-0.7-0.3-1.8-0.3-3.2
		c0-1.5,0-2.3,0.1-2.4c0.2-0.5,0.4-0.7,0.7-0.7c0.2,0,0.7,0.5,1.4,1.4c0.7,1,1.7,3.1,2.9,6.4c1.2,3.3,2,5.5,2.3,6.5
		c0.3,1,0.6,1.9,0.9,2.7c0.3,0.8,0.6,1.6,1,2.4c0.6,1.2,1.2,2,1.8,2.5c0.8,0.6,1.4,0.7,1.7,0.3l-1.8-3.3c-0.2-0.1-0.4-0.1-0.6,0
		c0,0-0.1,0-0.1,0c0,0,0,0,0,0c-0.1,0-0.1,0-0.2,0c-0.1,0-0.2,0-0.2,0c-0.1,0-0.1-0.1-0.1-0.1c-0.1,0-0.1-0.1-0.2-0.1
		c0-0.1-0.1-0.1-0.1-0.2c0-0.1-0.1-0.1-0.1-0.2c0-0.2,0-0.4,0-0.6c0.1-0.6,0.3-1.6,0.7-3.1c0.7-2.5,1.8-4.9,3.2-7.4
		c-0.2,1.1-0.3,2-0.3,2.7c-1.2,2.8-2.1,5-2.7,6.7c-0.3,1.2-0.3,1.8,0.1,1.8l0.4-0.2l-0.3-0.7l0.2-0.6l0.6,1.1l0.4-0.3l0.3,0.5
		l-0.3,0.5l2.3,3.3l0.6-0.4l0.4,0.4c-0.7,0.7-0.9,1.1-0.8,1.3c0.6,1.1,1.2,2,1.7,2.7c1,1.5,1.8,1.9,2.5,1.3c0.2-0.2,0.5-0.1,0.8,0.1
		c0.3,0.2,0.6,0.7,1,1.5l-0.1-1.2l-1.9-1.8l-1.1-2.1c-0.9-1.2-1.5-2.2-1.9-2.9c-0.4-0.7-0.8-1.5-1.4-2.4c-0.6-0.9-1.2-2-2-3.2
		l0.2-0.6l1.6,2c1.4,1.8,2.4,3.2,3,4.2c0.6,1,0.9,1.2,1,0.7l0.3-1l0.4,0.3l-0.3,2l-0.1,0.6c0,0.5,0.1,0.7,0.3,0.8
		c0.2,0.1,0.4,0.4,0.6,0.9c0.1,0.3,0.6,1,1.6,2.1c1,1.1,2,1.9,3,2.7c1.1,0.7,1.9,1.3,2.6,1.8c0.7,0.4,1,0.9,1,1.3l1,0.2L31.3,77
		l0.6-0.2c0.3,0.2,0.6,0.6,0.8,1.1c0.9,0.7,1.6,1.2,2.3,1.6L32.7,80z M16.3,63.7l0.3-0.3l1.4,2.4l-0.2,0.3L16.3,63.7z M18.6,68.4
		l0.6-0.7l1.3,1.9l0.8,1.4l0.3,0.7c-0.5-0.2-0.9-0.6-1.2-1.1l-0.8-1L18.6,68.4z M36.1,79.4l-2.2-1.5c-0.9-1-1.5-1.8-1.9-2.3
		c-0.4-0.5-0.8-0.8-1.2-1c-0.5-0.3-1-0.4-1.3-0.3c-0.2,0.1-0.5,0.4-0.8,1l-0.1-0.1c0.1-0.6,0.3-0.9,0.6-1.1c0.3-0.1,0.6-0.1,1.1,0.1
		l2.4,1.2l4.1,1.6c1,1.1,1.6,1.8,1.9,2.2C37.9,79.3,37,79.3,36.1,79.4z M37.4,89.8c-1.4,1.4-3,2.7-4.8,3.9L32,93.5
		c1-0.6,2.5-1.7,4.4-3.1l0.9-1l-0.5,0c-0.6,0.6-1.4,1.1-2.2,1.7c-0.8,0.6-1.8,1.1-2.8,1.7l-1.5,0.7l0.3,0.3l1.1,0.1
		c0.6,0.4,0.9,0.8,0.8,1.2c-0.3,0.5-0.9,0.6-1.6,0.2l-1.2-0.7c-0.4-0.4-0.9-0.7-1.3-0.9l-0.5-0.4l0.2-0.5l1.5,0.6H30l-0.3-0.9
		l1.8-1.1c0.5-0.2,0.7-0.5,0.6-0.9l0.2-0.9c0.8,0.2,1.6,0,2.5-0.4c0.9-0.4,1.8-0.7,2.6-0.7C37.9,89,37.9,89.4,37.4,89.8z M58.3,11.9
		l0.1-1.2l-1,0.2c-0.9,0.3-1.8,0-2.7-0.8c-0.6,0.1-0.9-0.1-0.8-0.7c0.2-0.5,0.2-0.8-0.2-0.8l-1.5,0.2c-0.9-0.1-1.6-0.4-1.9-0.8
		c-0.2-0.3-0.1-0.8,0.4-1.3c-0.9-0.4-1.5-0.8-1.7-1.2c-0.2-0.4-0.1-0.8,0.4-1.1c0.5-0.3,1.4-0.3,2.7-0.1C52,3.9,51.9,3.6,52,3.2
		c0-0.4,0.9-0.2,2.6,0.7l1,0.6C55.9,3.9,56.3,3.8,57,4c0.8,0.4,1.5,0.8,2.2,1.3c0.7,0.5,1.4,1.3,2.3,2.2c0.7-0.5,1.2-0.4,1.5,0.3
		L63,9c-0.7-0.7-1.6-0.8-2.7-0.1l-0.7-0.3c-1-1.2-1.6-2.1-1.8-2.7c-0.2-0.8-0.3-0.8-0.3-0.2c0,0.7,0.4,1.5,1.2,2.6
		c-1.5-0.5-2.5-1.1-3.2-1.8c-0.7-0.7-1.2-1.4-1.6-1.9c-0.4-0.6-0.5-0.6-0.4,0c0.4,0.7,1,1.4,1.7,2.1c-0.5-0.2-1-0.5-1.5-0.7
		c-1.2-0.5-2.1-0.8-2.9-0.8c-0.4,0-0.4,0.1-0.1,0.2C52,5.7,53,6,53.5,6.3c0.6,0.3,1,0.5,1.2,0.8c-0.9,0.4-1.9,0.6-2.9,0.6
		c-0.6,0-0.9,0-0.9,0.1c0.1,0.1,0.3,0.1,0.6,0.2c1.2,0.1,2.4,0,3.7-0.4c0.9,0.5,2,0.9,3.2,1.4c-0.7,0.2-1.5,0.5-2.2,1
		c-0.3,0.3-0.1,0.3,0.4,0.1C57.2,9.5,58,9.2,59,9.1l0.9,0.3c-0.1,0.9,0.2,1.8,0.7,2.8L60,12.4L58.3,11.9z M64,17.2
		c-1.9,0-2.2,0-2.4-0.3c-0.1-0.2-0.1-0.4,0.5-0.8l0.3-0.6c-1.1-0.5-2.1-1.1-2.1-2.4l0.9-0.4c0.4-0.5,0.4-0.8,0-1.1
		c-0.4-0.2-0.6-0.9-0.6-1.9c0.4-0.8,1.3-0.8,2.7,0c0.6-1.2,1.4-1.6,2.3-1.1c-1,0-1.5,0.4-1.7,1.3c-0.1,0.5-0.1,1.2,0,2
		c-0.3-0.5-0.7-0.9-1.2-1.2c-0.9-0.5-1.1-0.4-0.5,0.1c0.6,0.6,1.1,1.2,1.5,1.8c-0.7,0.6-1.5,0.9-2.4,0.8c-0.3,0.1-0.3,0.2,0.1,0.3
		c0.4,0.1,0.9,0.1,1.4-0.1c-0.1,0.5,0.1,1.4,0.3,2c0.3,0.5,0.7,0.9,1.2,1.2C64.3,16.9,64.1,17,64,17.2z M65,18.2
		c0-0.4,0.3-0.6,1.1-0.7c0.7-0.1,0.9-0.3,0.4-0.6c-1-0.3-1.8-0.9-2.4-1.7c-0.4-0.6-0.4-1,0-1.2l0.8-0.2l0.4-0.5l-0.4-1.8
		c-0.1-0.9,0.1-1.5,0.7-1.9c0.9-0.1,1.8,0.1,2.7,0.8c0-0.5,0.3-0.6,0.9-0.4c0.6,0.2,1.1,1.4,1.6,3.7l0.8,0.3c0.3-0.6,0.5-1,0.7-1
		c0.3,0,0.5,0.6,0.8,1.7c0.7,0.6,1,1.6,1,3c-0.4,0.6-0.7,1.3-0.7,2.1l-0.4-0.9c-0.2-1-0.3-2.1-0.3-3.2c0-0.5-0.1-0.5-0.1,0
		c-0.1,1-0.1,1.8-0.1,2.5c-0.9-1.2-1.9-2.2-2.9-3.2c-0.2-0.7-0.3-1.6-0.2-2.5c-0.1-0.8-0.2-1-0.3-0.6c-0.1,1,0,1.9,0.1,2.8
		c-0.8-0.8-1.7-1.9-2.7-3.4c-0.3-0.5-0.4-0.6-0.3-0.3c0.6,1.2,1.3,2.2,2,3c0.7,0.8,1.3,1.4,1.7,1.9c-0.9-0.3-1.6-0.4-2.3-0.5
		c-0.6-0.1-1.2-0.3-1.8-0.5c-0.5-0.1-0.5,0,0,0.3c0.3,0.2,0.9,0.4,1.8,0.6c0.9,0.2,1.8,0.5,2.6,0.9c0.4,0.3,1,1,1.8,2.1l0.6,1.4
		c-0.9-0.5-2-0.9-3.1-1.1c-1.1-0.2-1.8-0.4-2-0.6c-0.9-0.4-1-0.3-0.3,0.1c0.2,0.2,0.9,0.4,2.1,0.7c1.2,0.3,2.4,0.7,3.5,1.4l0.1,0.3
		c-0.2,0.3-0.3,0.6-0.3,1.1l0.4,1c-0.3-0.4-0.7-0.2-1.3,0.5c0.2-0.4,0.1-0.8-0.2-1.2c-0.5-0.7-1.6-1.5-3.4-2.3l-0.3,0.6
		C66.3,20.3,65.4,19.4,65,18.2z M77.2,43.1c-0.3-0.5-0.9-1.3-1.5-2.4c-0.6-1.1-1.1-1.9-1.4-2.6c-0.3-0.7-0.4-1.4-0.2-2.1
		c0.2-0.7,0.4-1.2,0.5-1.6c0.1-0.4,0.1-0.4-0.1-0.2c-0.4,0.7-0.7,1.4-0.9,2.1l-1-2.9c0.1-1.1,0.7-2.6,1.8-4.4
		c0.3-0.6,0.3-0.7-0.1-0.2c-1,1.3-1.7,2.7-2,4.1l-1.6-3.5c0-0.6,0.4-1.8,1.2-3.6c0.4-0.9,0.3-0.9-0.3,0.1c-0.5,1-0.9,1.9-1.2,2.8
		c-0.5-1.9-0.9-3.5-1.4-4.9L69,23.9l0.2,0.6c0.3,1.7,0.6,3.1,1.1,4.4c-0.6-0.6-1.4-1-2.2-1.4c-0.4-0.2-0.4-0.2,0,0.2
		c1,0.6,1.7,1.1,2.2,1.7c0.4,0.9,0.8,1.8,1.1,2.6c-0.6-0.4-1.6-0.9-3.1-1.5c-0.5-0.1-0.5,0,0,0.2c1.8,0.7,2.9,1.5,3.4,2.2l1,2.7
		c-0.4,0-0.9-0.6-1.5-1.7c-0.5-0.9-1.8-1.8-3.8-2.7c-0.4-0.2-0.6-0.5-0.6-1.1c0.1-0.4,0.4-0.5,1.2-0.5c-0.2-0.6-0.4-1-0.7-1.4
		L67,27.5c-0.5-1.1-0.2-1.7,1-1.7c-0.4-0.7-0.6-1.2-0.4-1.6c0-0.6,0.1-1.3,0.4-1.9c0.2-0.4,0.4-0.8,0.5-1.2c0.6,0.4,1.2,0.7,1.7,0.9
		c0.5,0.3,0.8,0.7,0.8,1.4l-0.2,1.6c0.1,0.3,0.4,0.2,0.8-0.3c0.4-0.6,0.8-1,1.1-1.1c0.4,0.2,0.7,0.5,1.1,0.9
		c0.3,0.6,0.2,1.8-0.3,3.5l-0.6,1.4c1.1-1.5,2.1-2.2,2.8-2.2c0.2,0.2,0.3,0.5,0.2,1c-0.1,0.5-0.1,1.1,0,1.6c0.1,0.6-0.1,1.1-0.6,1.5
		c-0.5,0.4-0.8,1.1-1,2c1.1-0.8,1.5-0.7,1.3,0.5l-0.6,2.2c-0.2,1,0,1.5,0.5,1.5c0.5-0.1,0.8,0,0.9,0.2c0.1,0.2,0.1,0.6,0.1,1.1
		c-0.3,0.7-0.4,1.2-0.4,1.4c0,0.2,0.1,0.4,0.3,0.6c0.2,0.2,0.5,0.1,1-0.1c0.5-0.2,0.8-0.1,0.8,0.4c0,0.5,0,1,0,1.5
		c0,0.5,0.2,1,0.5,1.4c0.2,0.3,0.5,0.6,0.9,0.7l0.5-0.6c-0.7,0-1-0.4-0.9-1.3c0-0.9,0-1.6,0-2.1c-0.3-0.6-0.5-1-0.8-1.1
		c-0.3-0.1-0.9-1.7-1.9-5l1.1,0.1c0.8,2.8,1.4,4.3,1.9,4.5c0.5,0.2,0.7,0.5,0.7,0.8c0,0.3,0.1,0.9,0.3,1.8c0.6-0.2,1-0.7,1.1-1.7
		c0.2-0.9-0.1-1.5-0.8-2c-0.7-0.4-1.1-0.8-1.2-1.1c-0.2-0.6,0-0.9,0.7-1.1c0.4-0.2-0.5-1-2.7-2.4c-1.1-0.8-1.4-1.5-1-2.1
		c0.2-0.3,0.5-0.3,0.9,0c0.4,0.3,0.7,0.4,0.9,0.2c0.2-0.5,0.1-0.8-0.5-1c-0.6-0.2-0.9-0.4-0.9-0.6c0-1,0-1.7,0-2.1
		c0.1-0.4,0-0.8-0.1-1.3c-0.4-0.5-1.1-0.5-2.1,0.1c0.2-0.6,0.3-1.1,0.2-1.7c-0.1-0.5-0.4-1.1-0.8-1.6l-0.5-1.6
		c-0.1-0.5,0.2-0.9,0.9-1.1c-0.2-1-0.2-1.8,0-2.2c0.2-0.5,0.4-0.9,0.5-1.2c0.1-0.3,0.4-0.3,0.9-0.1c0.5,0.2,1.3,1.1,2.4,2.7
		c0.5-0.6,1.1-0.4,1.6,0.7c0.6,0.9,0.8,2.1,0.7,3.4c1.2-0.7,1.7-0.2,1.3,1.4c0.5,1.1,0.9,2,1,2.6c0.1,0.6,0,1.2-0.3,1.7
		c-0.3,0.5-0.5,0.9-0.4,1.2c0,0.3,0.1,0.3,0.4,0c0.2-0.3,0.7-0.6,1.3-0.8c0.4,0.9,0.6,1.6,0.6,1.9c0,0.4-0.2,0.8-0.7,1.2
		c-0.5,0.4-0.7,1-0.8,1.6c0,0.3,0.2,0.4,0.5,0.4l0.9-0.3c0.5-0.1,0.5,0.3,0.1,1.1c-0.5,0.9-0.8,1.6-1,2.2s-0.3,1.1-0.3,1.5
		c0,0.8-0.2,1.2-0.4,1.4c0.1-1,0-2-0.1-3c-0.1-1.1-0.3-2.2-0.6-3.5c0.3-0.2,0.6-1,1.1-2.4c0.2-0.7,0.2-0.8-0.1-0.3
		c-0.4,1-0.7,1.6-1.1,1.9c-0.4-1.2-0.8-2.7-1.2-4.5c0.5-0.8,0.8-1.9,1-3.2c0-1.1,0-1.2-0.2-0.3c-0.2,1.3-0.6,2.3-1.1,3
		c-0.4-1.4-0.9-2.7-1.4-4c0.2-0.7,0.2-1.5,0.2-2.5c0-0.9-0.1-1-0.3-0.1c0,0.7-0.1,1.3-0.3,1.8L77,21.5l-0.7-1.6
		c-0.2-0.5-0.3-0.5-0.3,0l0.6,2.1c-0.5-0.6-1-1-1.4-1.3c-0.4-0.3-0.5-0.3-0.3,0.1c0.7,0.6,1.4,1.3,1.9,2.1c0.4,1.1,0.9,2.2,1.3,3.3
		c-1.3-1.1-2.2-1.7-2.7-1.8c-0.6-0.2-0.6-0.1,0,0.3c0.9,0.6,2,1.6,3.2,3c0.4,1.2,0.8,2.3,1.2,3.4c-0.6-0.4-1.4-1.1-2.3-2.2
		c-0.4-0.4-0.4-0.3,0,0.2c0.7,1.1,1.6,2.1,2.6,2.9l0.8,3.1c-0.8-0.8-1.8-1.6-3-2.4c-0.5-0.3-0.6-0.3-0.1,0.2
		c1.1,0.8,2.2,1.9,3.4,3.4c0.3,0.9,0.5,2.7,0.4,5.2c0,0.6-0.5,1.1-1.4,1.4L80,45.2l-1.3,0.1C78.1,44.4,77.6,43.6,77.2,43.1z
		 M78.8,45.5c0.2-0.1,0.6,0,1.1,0c-0.5,2.5-1,5.3-1.4,7l-0.7-0.4C78.4,49.7,78.7,47,78.8,45.5z M70,59.7c-0.2-0.1-0.7-0.6-1.7-1.4
		c-0.8-0.7-1.1-1.4-0.8-2c-0.2-0.3-0.4-0.7-0.6-1.1c-0.2-0.4-0.1-0.8,0.1-1.2c0.3-0.4,0.9-0.2,1.9,0.5c0.2-0.6,0.2-1.1,0-1.6
		c-0.2-0.5-0.4-1-0.6-1.5c-0.4-0.8-0.9-1.5-1.3-2.1c-0.4-0.8-0.5-1.2-0.3-1.3c0.2-0.1,0.5,0,1,0.4c0.8-0.9,1.4-1.2,1.7-0.8
		c0.3,0.4,0.5,1,0.7,1.9c0.2,0.9,0.2,1.8,0.1,2.8l-0.2,0.2l0.2,0.2c0.1,0.2,0,1-0.3,2.3c0,0.3,0.1,0.5,0.3,0.8
		c-0.1-0.4-0.1-0.7-0.1-0.9c0-0.2,0.1-0.6,0.3-1.2c0.2-0.6,0.3-1,0.3-1.1c0-0.1,0-0.1-0.3-0.2c0.3-0.1,0.3-0.2,0.4-0.4
		c0.1-0.2,0.1-0.4,0.1-0.6c-0.1-0.2-0.1-0.7-0.1-1.6c0-0.9-0.1-1.5-0.3-2c-0.1-0.4-0.2-0.8-0.3-1.1c0-0.3-0.2-0.4-0.6-0.4
		c-0.4,0-0.9,0.3-1.6,1.1c0.3-1.4,0.6-2.4,0.9-2.9c0.3-0.5,0.6-0.6,1-0.4c0.3,0.2,0.6,0.4,0.6,0.7c0.1,0.2,0.3,0.2,0.5-0.1
		c0.2-0.3,0.4-0.4,0.5-0.3c0.1,0.1,0.3,0.3,0.4,0.6c0.1,0.3,0.3,0.6,0.3,1c0.1,0.3,0.1,0.9,0.2,1.8c0.1,0.9-0.1,1.5-0.3,1.8
		c-0.3,0.3-0.4,0.7-0.4,1.1c0.1,1.7,0.2,2.6,0.4,2.6c0.2,0,0.4-0.2,0.7-0.4c0.3-0.3,0.5-0.3,0.8-0.3c0.2,0.1,0.3,0.6,0.4,1.5
		c0,0.9,0.1,1,0.3,0.3c0.1-0.7,0.4-1.1,0.8-1.1s0.4,1,0.2,2.9c-1.3,1.2-2.2,2.1-2.8,2.9c-0.2-0.8-0.2-1.4,0-1.8
		c0.2-0.3,0.3-0.7,0.5-1.1c0.2-0.4,0.3-0.8,0.4-1.1c0.3-0.8,0.2-0.9-0.2-0.2c-0.2,0.4-0.4,0.8-0.5,1.1c-0.2,0.3-0.3,0.6-0.5,0.9
		c-0.1-0.5-0.3-1.5-0.7-2.9c-0.3-0.9-0.4-0.9-0.3,0c0.3,1.6,0.4,3.1,0.5,4.6c-0.6-0.6-1.1-1.1-1.7-1.6c-0.6-0.4-1.1-0.9-1.5-1.4
		c-0.4-0.2-0.4-0.2-0.2,0.1c0.4,0.5,1,1.2,1.8,1.9c0.8,0.7,1.3,1.2,1.4,1.4c0.2,0.2,0.3,0.4,0.3,0.6c-0.3,0.4-0.6,0.8-1.1,1.3
		c-0.2-0.1-0.4-0.4-0.4-0.7C70.2,60.1,70.1,59.9,70,59.7z M52,78c0.4-0.5,0.9-0.9,1.6-1.3c2.8-1.4,4.7-2.2,5.7-2.5
		c0.2-0.1,0.3,0,0.5,0.1l0.4,0.5l-0.5,0.3c-0.3,0.3-0.8,0.4-1.3,0.4c-0.4,0-1,0.1-1.8,0.4c-0.7,0.3-1.1,0.8-1.2,1.3
		c-0.1,0.4-0.3,0.7-0.6,0.8c-0.7,0.4-1.4,0.8-2,1.1l-1.6-0.1L52,78z M56.3,79.7H56l0-0.1c-0.2,0.1-0.4,0.1-0.5,0.2l-1.7-0.2l1.8-0.9
		l0.4,0.8c0.1,0,0.2-0.1,0.2-0.1L56,78.5c-0.2-0.6,0-1.1,0.6-1.4c0.5-0.4,1.1-0.6,1.8-0.5c0.3,0,0.3,0.5,0.1,1.4
		c-0.2,0.4-0.9,1-2.2,1.5L56.3,79.7z M49,86.1l-0.3-0.8L47.4,87l-1.1,0.7c-0.5,0.4-1,0.6-1.6,0.5L43,87.4l0.9-0.5l0.2,0.2
		c-0.2,0.5,0,0.4,0.6-0.2l1.6-1.5c0.1-0.9-0.1-2.1-0.7-3.5c-0.5-1.4-0.9-2.3-1.2-2.7c-0.1-0.3-0.8-0.4-2.3-0.2
		c0.9-0.4,1.9-0.5,3.1-0.1l1.2,0.5l0.7-0.3l-0.1-0.1l-1.1-0.5l0.6,0.1l0.5,0.5l0.1,0.1l0,0l0.3,0.3c1.7,1.8,2.7,3.1,2.9,3.8
		c0.2,0.7,0.2,1.3,0.1,2C49.7,86.1,49.2,86.4,49,86.1z M60.9,93.3l0.5,0.1l-0.2,0.2L60,94.1c-0.6,0.5-1.2,0.8-2,1l-0.8-0.2l-0.2-0.6
		c0.2-0.3,0.5-0.5,0.8-0.7c0.3-0.1,0.7-0.2,1.2-0.4l1.2,0.2L60.9,93.3z M59.1,93.1c-0.9,0-1.5,0.6-1.7,0.6h-0.7
		c-1-1.3-1.7-1.6-2.3-2.1l-2.4-2c0.4-0.2,1.4-0.1,2.8,0.3L59.1,93.1z M66.2,82.6c1,0.1,1.7,0,2.2-0.1c0.9-0.4,2.8-1.7,5.6-4.1
		c2.7-2,5-3.5,6.9-4.3c0.6-0.3,0.6-0.6,0.1-0.7c-0.5-0.1-1.3-0.2-2.3-0.2c-0.3,0.3-0.3,0.5,0.1,0.7c0.5,0,0.8,0,1,0.1
		c-2.2,1.2-4.1,2.3-5.6,3.5c0.1-0.8,0.2-2.1,0.3-4c0-0.6-0.2-1.1-0.6-1.6c-0.2-0.3,0.1-0.6,0.9-0.9l0.7-0.2v1.1l-0.9-0.2l0.1,0.5
		c0.2,0.4,0.6,0.6,1.1,0.8l2.7,0.1l1.2,0c1.4,0,2.1,0.4,2.1,1c0,0.6,0,1.3,0.1,1.8c0.2,1.4,0.8,2.8,1.7,4.1
		c-0.2,0.6-0.6,1.3-1.3,2.1l-2.6,1.7c-2.2,1.6-5.3,3.7-9.1,6.3c-2.7,0.1-6-0.2-9.9-0.7c-2.8-0.4-6-1.1-9.6-2.1L50.3,87l0.4-0.4
		c0.6-0.7,0.9-1.2,0.9-1.5c0.1-0.3,0-0.8-0.3-1.7c-0.2-0.9-0.6-1.9-1.9-3.1v-0.3l0.8-0.1c2.1,0.1,3.9,0.4,5.5,0.8
		c1.6,0.4,3.5,0.8,5.8,1.1C63.7,82.3,65.3,82.5,66.2,82.6z M62.5,81.3c-0.9-0.1-2.3-0.4-4.2-0.8l1.8-0.6c0.9,0.2,1.5,0,1.6-0.6
		C61.8,80,62,80.7,62.5,81.3z M72.9,66.5c-0.7,0.7-0.9,1.5-0.6,2.3c-0.9,0.5-1.8,1.2-2.7,2.2c-0.9,1-1.5,1.8-2,2.5
		c-0.4,0.7-0.9,1.1-1.4,1.2c-0.6,0.3-1.2,0.1-2-0.4L64,75.5l-3.4,2.1L59,78.3c0.1-0.3,0.2-0.9,0.3-1.7l0.6-0.5
		c2.3-1.2,3.6-2.3,4-3.3c0.5-0.8,1-1.5,1.5-2.1c0.5-0.6,0.9-1.2,1.2-2l0.1-1.2l-0.1-1.3c0.5,0.6,1,0.7,1.5,0.4
		c0.7-1.3,1.5-2.5,2.3-3.6c0.8-1.1,1.7-2.2,2.6-3.1c0.9-1,1.7-1.8,2.3-2.5l0,1.3c-2,2.5-3.3,4.2-3.8,5.1c-1.7,2.6-2.9,4.6-3.5,6.1
		c-0.4,0.8-0.9,1.5-1.6,2c-0.5,0.3-0.9,0.6-1.2,0.9c-0.2,0.4-0.1,0.5,0.4,0.3c0.3-0.3,0.7-0.6,1.1-0.7c0.7-0.4,2.3-2.1,4.7-5.2
		l-0.1-1.8l0.6-1c0,1,0,1.5,0.3,1.6c0.2,0.1,0.5-0.2,0.8-0.8c0.3-0.6,1.2-2.4,2.6-5.4c-0.3,0.9-0.3,1.7-0.1,2.4
		c-0.8,0.6-1,1.5-0.6,2.9L72.9,66.5z M84.2,55.4c-0.1,0.8-0.4,1.6-0.8,2.2c-1.4,1.6-1.9,2.5-1.7,2.8c0.4,0.6,0.3,1.4-0.2,2.2
		c-0.7,0.9-1.7,1.9-2.9,3c0.3,0.7,0.1,1.2-0.8,1.7c-1,0.5-2,1-3.2,1.4c2.2-1.6,3.5-3.4,4-5.3c0.7-0.6,1.3-1.1,1.9-1.3
		c0.5-0.3,0.6-0.4,0.3-0.4c-0.6,0.2-1.2,0.6-1.9,1.1c0.6-1.3,1.1-2.6,1.4-4.1c1.3-1.3,2.1-2.3,2.5-3c0.5-0.7,0.5-0.8,0.1-0.4
		c-0.5,0.8-1.3,1.7-2.3,2.7c0.5-1.4,0.9-3,1.3-4.8c0.2-1,0.1-1.2-0.2-0.5l-0.5,1.8c-0.2-0.7-0.5-1.2-0.8-1.6l0.7,2.1
		c-0.1,0.8-0.5,2-1,3.6c-0.5-1.3-1.1-2.5-1.9-3.6c-0.7-0.9-0.8-0.9-0.4-0.1c0.8,1.1,1.4,2.6,1.9,4.4c-0.4,1.6-0.9,2.9-1.4,4
		c-0.4-0.6-0.8-1-1.3-1.3c-0.3-0.2-0.3-0.1,0,0.3c0.4,0.4,0.8,0.9,1.1,1.3c-0.4,1-0.9,1.8-1.6,2.6c-0.7,0.7-1.3,1.4-1.9,1.9
		c0.8-1.2,1.1-2.6,0.8-4.1c0-0.3,0.2-0.5,0.6-0.7c0.4-0.2,0.6-0.4,0.4-0.6c-0.4-0.7-0.6-1.3-0.6-1.8c0.3-0.1,0.7-0.1,1.2,0
		c0.4-0.3,0.4-0.7-0.1-1.3c-0.5-0.6-0.8-1.3-1-2.4c0-0.6,0.4-0.8,1.2-0.7c0.4,0,0.4-0.5,0.1-1.3L76.3,54c-0.6-1.3-0.4-1.8,0.8-1.5
		l1.3,0.8c0.9,0.3,1.3-0.3,1.3-1.8c0-0.3,0.3-0.4,0.8-0.2c0.5,0.2,1-0.2,1.4-1.2c0.4-0.5,0.8,0,1,1.3c-0.1,1.8,0.3,2.6,1.3,2.5
		C84.3,54.1,84.3,54.6,84.2,55.4z M85.7,51.1c0.1,0.3,0,0.6-0.2,0.8c-0.2,0.2-0.6,0.4-1.2,0.6l-0.6-1c0-0.8-0.2-1.6-0.8-2.3
		c0.2-0.2,0.6-0.4,1.1-0.6c0.4-0.2,0.3,0-0.2,0.1c-0.5,0.1-1,0.6-1.3,0.6h-0.1c0.3-1.3,0.8-2.3,1.5-3.3c0.2-0.4,0.1-0.5-0.3,0
		c-0.6,0.8-1.1,1.6-1.5,2.5c-0.2-0.2-0.4-0.6-0.5-1.1c-0.1-0.6-0.2-0.7-0.3-0.1c0.1,0.8,0.2,1.3,0.4,1.6c-0.7,1.1-1.3,1.6-1.8,1.3
		c0.3-1.6,0.6-3.3,1.1-5.1c0.8-0.8,1.4-1,2-0.8c0.8-0.6,1.5-0.8,2.1-0.4c0.3,0.5,0.4,1,0.4,1.5c0,0.5-0.2,1-0.5,1.6
		c0.6,0,1,0.3,1,0.8c-0.3,1.1-0.8,2-1.6,2.5C85.2,50.5,85.6,50.8,85.7,51.1z"/>
	<path style="fill-rule:evenodd;clip-rule:evenodd;fill:#FFFFFF;" d="M15.6,83.1c0,0.1,0.1,0.1,0.2,0.2c0.5,0.3,0.9,0.2,1.2-0.4
		c0.4-0.6,0.3-1-0.2-1.3c-0.2-0.2-0.2-0.2-0.5,0.1L15.6,83.1L15.6,83.1z M9,78.6c0.6,0.4,1,0.7,1.6-0.1c0.3-0.5,0.3-1-0.1-1.2
		c-0.1-0.1-0.3-0.2-0.3-0.2c-0.1,0-0.1,0.1-0.2,0.1L9,78.6L9,78.6z M18.5,83.3c0.1-0.5,0.2-0.8-0.2-1.1l0.1-0.1
		c0.2,0.1,0.5,0.3,0.7,0.4c0.2,0.1,0.5,0.3,0.8,0.4L19.8,83c-0.1-0.1-0.5-0.2-0.6,0c-0.1,0.2-0.4,1.4-0.5,1.7l-0.3,1.9l1.4-1.2
		c0.2-0.2,1.1-1.1,1.2-1.3c0.2-0.4,0-0.5-0.1-0.6l0-0.2c0.2,0.2,0.5,0.3,0.6,0.4c0.2,0.1,0.5,0.2,0.6,0.3l0,0.1
		c-0.5-0.3-0.9,0.3-1.3,0.6l-2.8,2.6l-0.2-0.1L18.5,83.3L18.5,83.3z M14.8,84c-0.1,0.2-0.4,0.7-0.4,0.9c-0.1,0.2,0.1,0.3,0.4,0.6
		l-0.1,0.1c-0.2-0.2-0.5-0.3-0.8-0.5c-0.2-0.1-0.5-0.3-0.7-0.4l0-0.2c0.2,0.1,0.5,0.3,0.6,0.1c0.2-0.1,0.5-0.6,0.6-0.8l1-1.7
		c0.1-0.2,0.4-0.7,0.5-0.8c0.1-0.3-0.1-0.4-0.4-0.5l0.1-0.1c0.2,0.2,0.6,0.3,0.8,0.5c0.2,0.1,0.5,0.3,0.7,0.4c0.6,0.3,1.1,1,0.5,1.8
		c-0.5,0.9-1.4,0.8-2,0.3c-0.1,0-0.4-0.2-0.4-0.2L14.8,84L14.8,84z M12.3,80c0.1-0.2,0.4-0.7,0.5-0.8c0.1-0.3-0.1-0.4-0.4-0.5
		l0.2-0.1l2.5,1.6L14.5,81l-0.1-0.1c0.4-0.7,0.2-0.9-0.4-1.3l-0.4-0.2c-0.1-0.1-0.1-0.1-0.3,0.1L12.4,81c0.7,0.5,1,0.2,1.4-0.2
		l0.1,0c-0.2,0.4-0.4,0.6-0.5,0.8c-0.2,0.4-0.3,0.6-0.5,0.8l-0.1-0.1c0.4-0.7,0.2-0.9-0.4-1.2l-0.6,1.1c-0.1,0.2-0.3,0.5-0.3,0.7
		c0,0.3,0.3,0.6,0.5,0.7c0.6,0.3,0.9,0.4,1.5-0.2l0.1,0l-0.6,1L10,82.5l0.1-0.1c0.1,0.1,0.4,0.2,0.6,0.1c0.1-0.1,0.4-0.6,0.6-0.8
		L12.3,80L12.3,80z M9.6,81.5c0,0.3,0,0.5,0.3,0.7l-0.1,0.1c-0.1-0.1-0.2-0.2-0.4-0.3c-0.1-0.1-0.4-0.1-0.5-0.2L9,81.2l0-1.8
		c0-0.3,0-0.3-0.3-0.6l-0.5,0.7c-0.1,0.2-0.4,0.7-0.5,0.9c0,0.2,0.1,0.3,0.4,0.4L8,81.1c-0.2-0.1-0.5-0.3-0.7-0.4
		c-0.2-0.2-0.5-0.4-0.8-0.5L6.6,80c0.2,0.1,0.4,0.2,0.6,0.1c0.2-0.1,0.5-0.6,0.6-0.8l1.2-1.8c0.1-0.1,0.4-0.6,0.5-0.8
		c0.1-0.2-0.1-0.3-0.3-0.4l0-0.2c0.4,0.2,0.6,0.4,0.9,0.6c0.2,0.1,0.5,0.3,0.6,0.4c0.6,0.4,1.1,1,0.5,1.8c-0.5,0.7-1.1,0.7-1.7,0.4
		L9.6,81.5L9.6,81.5z M42.1,83l-0.9-1.7l-0.3,1.9L42.1,83L42.1,83z M27.6,86.3c0.1,0.2,0.1,0.6,0.2,0.8c0.1,0.2,0.3,0.2,0.6,0.2
		c0.4-0.1,0.7-0.6,0.5-1.1c0-0.4-0.2-0.7-0.5-0.9c-0.3-0.1-0.5,0-0.8,0l-0.2,0L27.6,86.3L27.6,86.3z M27.4,85l0.1,0
		c0.2-0.1,0.4-0.1,0.5-0.2c0.2-0.2,0.2-0.6,0.2-0.9c-0.1-0.5-0.4-0.8-0.8-0.7c-0.1,0.1-0.3,0.1-0.3,0.1s0,0.2,0,0.3L27.4,85L27.4,85
		z M24,86.9c0,0.2,0.1,0.7,0.2,0.9c0.1,0.2,0.3,0.2,0.6,0.1c0.6,0,0.8-0.5,0.6-1.1c-0.1-0.3-0.2-0.7-0.6-0.8c-0.2-0.1-0.6-0.1-0.9,0
		l-0.1,0L24,86.9L24,86.9z M23.7,85.7l0.2-0.1c0.2,0,0.4,0,0.5-0.2c0.2-0.2,0.2-0.5,0.2-0.8c-0.1-0.6-0.4-0.9-0.9-0.8
		c0,0-0.2,0-0.3,0.1l0,0.2L23.7,85.7L23.7,85.7z M40.7,83.7c0,0.3-0.2,0.9-0.1,1.1c0,0.3,0.3,0.2,0.6,0.2l0,0.2c-0.2,0-0.4,0-0.7,0
		c-0.2,0.1-0.4,0.1-0.7,0.1l0-0.1c0.3-0.1,0.4-0.2,0.5-0.6c0.1-0.6,0.1-1,0.2-1.4l0.5-3l0.2,0l1.8,3.4c0.1,0.2,0.3,0.5,0.5,0.8
		c0.1,0.1,0.3,0.1,0.6,0.1l0,0.2c-0.2,0-0.6,0-0.8,0.1c-0.3,0-0.7,0.1-0.9,0.1l0-0.1c0.1-0.1,0.4-0.1,0.3-0.5c0-0.1-0.1-0.3-0.1-0.4
		l-0.5-0.8l-1.4,0.3L40.7,83.7L40.7,83.7z M38.6,80.9l0.1,0l0.3,1.4l-0.1,0c-0.2-0.8-0.8-1.3-1.5-1.2c-1.1,0.1-1.2,1.5-1,2.6
		c0.3,1.1,0.7,2.2,1.8,2.1c0.8-0.2,1-0.9,1-1.8l0.1-0.1l0.3,1.7l-0.2-0.3c-0.3,0.5-0.8,0.6-1.2,0.7c-1.2,0.3-2.2-0.6-2.5-2
		c-0.2-1.4,0.5-2.7,1.7-2.8c0.6-0.1,0.9,0,1.3,0.2L38.6,80.9L38.6,80.9z M34.1,83c0-0.2-0.1-0.7-0.1-0.9c-0.2-0.2-0.4-0.2-0.6-0.2
		l-0.1-0.1c0.3-0.1,0.7-0.1,0.9-0.1c0.3,0,0.7-0.1,0.9-0.1l0,0.1c-0.1,0-0.3,0.1-0.4,0.3c0,0.2,0,0.7,0.1,0.9L35,85
		c0,0.2,0.1,0.8,0.2,0.9c0.1,0.2,0.3,0.2,0.6,0.2l0,0.2c-0.3,0-0.6,0-0.9,0c-0.2,0.1-0.6,0.1-0.9,0.1l0-0.1c0.2,0,0.4,0,0.4-0.3
		c0.1-0.2,0-0.7,0-0.9L34.1,83L34.1,83z M30.2,83.7c0-0.2-0.1-0.8-0.1-1c-0.1-0.2-0.4-0.2-0.6-0.1l-0.1-0.2c0.3,0,0.7,0,0.9-0.1
		c0.3,0,0.7,0,0.9-0.1l0.1,0.2c-0.2,0-0.4,0-0.5,0.2c0,0.2,0.1,0.8,0.1,1l0.3,2.1c0.1,0.9,0.4,1.1,1.1,1c0.2-0.1,0.6-0.1,0.8-0.4
		c0.2-0.2,0.2-0.6,0.2-0.9l0.2-0.1l0.1,1.3c-0.1,0-0.2,0-0.3,0c-1,0.1-2.1,0.4-3.1,0.5l0-0.1c0.2-0.1,0.4-0.1,0.4-0.3
		c0.1-0.2,0-0.8,0-1L30.2,83.7L30.2,83.7z M26.6,84.4c0-0.2-0.1-0.8-0.2-0.9c-0.1-0.2-0.3-0.2-0.6-0.2l0-0.1
		c0.3-0.1,0.6-0.1,0.9-0.1c0.2,0,0.4-0.1,0.7-0.1c0.7-0.1,1.4,0,1.6,0.8c0.1,0.7-0.3,1-0.7,1.2c0.3,0,0.7,0,0.9,0.2
		c0.3,0.2,0.6,0.5,0.7,0.9c0,0.6-0.2,0.9-0.4,1.1c-0.3,0.3-0.8,0.4-1.1,0.4c-0.1,0.1-0.4,0.1-0.7,0.1c-0.3,0-0.7,0.1-1,0.2l0-0.2
		c0.1,0,0.4,0,0.4-0.3c0-0.2-0.1-0.7-0.1-0.9L26.6,84.4L26.6,84.4z M22.9,85c0-0.2-0.1-0.8-0.1-1c-0.1-0.2-0.3-0.2-0.6-0.1l0-0.2
		c0.2,0,0.6,0,0.8-0.1c0.3,0,0.6,0,0.8-0.1c0.6-0.1,1.4,0,1.6,1c0.1,0.7-0.2,1-0.6,1.2c0.3,0,0.7,0,0.9,0.1c0.3,0.2,0.6,0.5,0.6,1
		c0.1,0.4-0.1,0.8-0.4,1.1c-0.2,0.2-0.7,0.3-1,0.4c-0.3,0-0.6,0-0.8,0.1c-0.5,0-0.7,0.1-1.1,0.1l0-0.1c0.2-0.1,0.4-0.1,0.6-0.3
		c0-0.2-0.1-0.8-0.1-1L22.9,85L22.9,85z M60.6,85.6l-0.3-2l-0.9,1.8L60.6,85.6L60.6,85.6z M68.1,85.1c0-0.2-0.1-0.8-0.1-0.9
		c-0.1-0.3-0.3-0.2-0.6-0.2v-0.2c0.2,0,0.6,0,0.9,0c0.2,0,0.6-0.1,0.9-0.1v0.2c-0.2,0-0.5,0-0.6,0.2c0,0.2,0,0.8,0,1l0.2,2
		c0,0.2,0,0.8,0.1,1c0.1,0.2,0.3,0.2,0.6,0.2v0.1c-0.3,0-0.6,0-0.9,0c-0.3,0.1-0.6,0.1-0.9,0.1v-0.1c0.1,0,0.5,0,0.5-0.3
		c0.1-0.2,0-0.7,0-0.9L68.1,85.1L68.1,85.1z M63.7,84.7c0-0.2,0.1-0.8,0.1-1c-0.1-0.2-0.3-0.3-0.6-0.3l0.1-0.1
		c0.2,0,0.6,0.1,0.8,0.1c0.3,0.1,0.7,0.1,1,0.1L65,83.7c-0.1,0-0.5-0.1-0.6,0.1c-0.1,0.2-0.1,0.8-0.2,1l-0.3,2.2
		c-0.1,0.9,0,1.1,0.7,1.2c0.3,0,0.7,0.1,0.9,0c0.5-0.2,0.5-0.5,0.6-0.9h0.2l-0.3,1.4c0-0.1-0.2-0.1-0.2-0.1
		c-1.1-0.2-2.1-0.3-3.3-0.6v-0.1c0.2,0,0.4,0,0.7-0.2c0-0.1,0.1-0.7,0.2-0.9L63.7,84.7L63.7,84.7z M59,85.8c-0.1,0.2-0.3,0.8-0.4,1
		c0,0.3,0.3,0.3,0.4,0.5v0.1c-0.2,0-0.4-0.1-0.7-0.1c-0.2,0-0.5-0.1-0.7-0.1l0.1-0.1c0.3,0,0.4-0.1,0.7-0.5c0.2-0.5,0.4-0.9,0.7-1.4
		l1.3-2.7l0.2,0.1l0.7,3.8c0.1,0.2,0.1,0.7,0.2,0.9c0.1,0.2,0.2,0.2,0.4,0.3v0.1c-0.2,0-0.6-0.1-0.9-0.1c-0.2-0.1-0.6-0.1-0.9-0.1
		l0.1-0.2c0.1,0,0.4,0.1,0.4-0.1c0-0.2,0-0.5,0-0.7l-0.1-0.8l-1.6-0.2L59,85.8L59,85.8z M58.6,83.5l-0.1-0.1c0.1-0.7-0.1-0.9-0.7-1
		c-0.3,0-0.7-0.1-0.7,0.1L56.5,86c0,0.6,0,0.7,0.6,0.9V87c-0.3,0-0.7-0.1-1-0.2c-0.3,0-0.7,0-1-0.1v-0.1c0.7,0,0.8-0.1,0.9-0.7
		l0.4-3.5c0.1-0.1-0.2-0.2-0.4-0.2c-0.7-0.1-0.9-0.1-1,0.8l-0.2-0.1l0.2-1.1l3.8,0.7L58.6,83.5L58.6,83.5z M52.9,82.8
		c0-0.2,0.1-0.7,0-0.9c0-0.2-0.2-0.3-0.4-0.3v-0.2c0.3,0.1,0.7,0.2,0.9,0.2c0.3,0,0.7,0.1,1,0.1l-0.1,0.1c-0.1,0-0.4,0-0.6,0.2
		c-0.1,0.2-0.1,0.7-0.2,0.9L53.2,85c-0.1,0.2-0.1,0.8-0.1,0.9c0,0.3,0.2,0.3,0.4,0.3v0.2c-0.3-0.1-0.6-0.1-0.9-0.2
		c-0.3,0-0.6,0-0.9-0.1V86c0.2,0,0.4,0,0.6-0.2c0.1-0.1,0.2-0.7,0.2-0.9L52.9,82.8L52.9,82.8z M80,79.4l-1.7-1.1l0.7,1.9L80,79.4
		L80,79.4z M72.4,84.8l-1.5-1.4l0.3,1.9L72.4,84.8L72.4,84.8z M79.1,80.6c0,0.3,0.2,0.9,0.3,1.1c0.2,0.2,0.4,0,0.6-0.1l0.1,0.2
		c-0.1,0.1-0.3,0.2-0.6,0.3c-0.1,0.1-0.3,0.2-0.5,0.5L79,82.4c0.2-0.2,0.2-0.3,0.2-0.7c-0.2-0.6-0.3-1-0.4-1.5l-0.9-2.9l0.1-0.1
		l3.3,2.3c0.1,0.1,0.6,0.5,0.7,0.5c0.2,0.1,0.4,0,0.7-0.1v0.2c-0.2,0.1-0.5,0.2-0.7,0.4c-0.2,0.2-0.5,0.3-0.7,0.6L81.1,81
		c0.1-0.1,0.3-0.3,0.2-0.6c-0.1-0.1-0.3-0.2-0.4-0.3l-0.7-0.5L79,80.5L79.1,80.6L79.1,80.6z M73.5,81.4c-0.3-0.1-0.6-0.1-0.8,0.1
		l-0.1-0.2c0.2-0.1,0.3-0.1,0.5-0.3c0.1,0,0.3-0.1,0.4-0.2l4.4,1.5l-1.2-1.7c-0.2-0.2-0.4-0.7-0.7-0.9c-0.3-0.2-0.5-0.1-0.8,0
		L75,79.5c0.2-0.1,0.4-0.2,0.7-0.3c0.1-0.2,0.2-0.3,0.4-0.5l0.1,0.1c-0.1,0.2-0.3,0.2-0.2,0.6c0.1,0.2,0.6,0.8,0.8,1.1l1.8,2.5
		l-0.1,0.1c-0.2,0-0.4-0.1-0.7-0.2l-4-1.4l1.5,2c0.1,0.2,0.5,0.6,0.7,0.8c0.2,0.1,0.5,0,0.7-0.1v0.1c-0.1,0.2-0.3,0.3-0.6,0.5
		c-0.2,0.1-0.3,0.2-0.6,0.5l-0.1-0.1c0.2-0.2,0.3-0.3,0.2-0.7c-0.1-0.2-0.3-0.6-0.6-0.8L73.5,81.4L73.5,81.4z M71.4,86
		c0,0.2,0.1,0.8,0.2,1.1c0.1,0.2,0.4,0.1,0.6,0l0.1,0.1c-0.2,0.1-0.3,0.2-0.6,0.3c-0.2,0.1-0.5,0.2-0.6,0.3l-0.1-0.1
		c0.2-0.2,0.3-0.3,0.2-0.8c0-0.5-0.1-1-0.2-1.5l-0.6-3h0.2l2.9,2.6c0.1,0.1,0.5,0.5,0.7,0.6c0.2,0.1,0.4,0,0.6,0l0.1,0.1
		c-0.2,0.1-0.6,0.2-0.8,0.5c-0.2,0.1-0.6,0.2-0.8,0.5l-0.1-0.2c0.2,0,0.5-0.2,0.3-0.4c-0.1-0.1-0.2-0.3-0.4-0.5L72.6,85l-1.3,0.7
		L71.4,86L71.4,86z"/>
	<g>
		<path style="fill:#FFFFFF;" d="M14.1,53.9c-0.3-0.9-0.6-2-0.7-2.3l-0.1-0.2l2.6-1.5c-0.3-1.3-0.5-2.5-0.6-3.6l-2.9-0.6l0-0.2
			c0-0.6,0-3.2,0-3.8l0-0.2l2.9-0.6c0.1-1.1,0.3-2.3,0.6-3.6l-1.4-0.8l1-0.1l1.1,0.6l0,0.2c-0.3,1.4-0.5,2.7-0.6,4l0,0.2L13,41.9
			c0,0.8,0,2.5,0,3.3l2.9,0.6l0,0.2c0.1,1.2,0.3,2.5,0.6,4l0,0.2L14,51.6c0.1,0.4,0.3,1,0.5,1.7L14.1,53.9z M19.3,62.3
			c0.3,0.3,0.5,0.7,0.6,0.9l2.7-1.2l0.1,0.2c0.8,0.9,1.8,1.9,2.8,2.8l0.2,0.1l-1.2,2.7c0.6,0.5,2,1.5,2.7,1.9l2.2-2l0.2,0.1
			c1.2,0.7,2.4,1.3,3.6,1.8l0.2,0.1L33,72.7c0.7,0.3,2.4,0.8,3.2,1l1.4-2.5l0.2,0c1.4,0.3,2.7,0.5,4,0.6l0.2,0l0.6,2.9
			c0.4,0,1,0,1.7,0c0.7,0,1.3,0,1.6,0l0.6-2.9l0.2,0c1.4-0.1,2.7-0.4,4-0.6l0.2,0l1.5,2.6c0.7-0.2,2.4-0.8,3.2-1l-0.3-2.9l0.2-0.1
			c1.2-0.5,2.5-1.2,3.6-1.8l0.2-0.1l2.2,2c0.6-0.4,2.1-1.5,2.7-1.9l-1.2-2.7l0.2-0.1c1.1-1,2-1.9,2.8-2.8l0.1-0.2l2.7,1.2
			c0.5-0.6,1.5-2,1.9-2.7l-2-2.2l0.1-0.2c0.7-1.1,1.3-2.3,1.8-3.6l0.1-0.2l2.9,0.3c0.3-0.7,0.8-2.4,1-3.1l-2.5-1.5l0-0.2
			c0.3-1.4,0.5-2.7,0.6-4l0-0.2l2.9-0.6c0-0.8,0-2.5,0-3.3l-2.9-0.6l0-0.2c-0.1-1.4-0.3-2.7-0.6-4L71.8,37l2.6-1.5
			c-0.2-0.7-0.8-2.4-1-3.1l-2.9,0.4l-0.1-0.2c-0.5-1.2-1.1-2.4-1.8-3.6l-0.1-0.2l2-2.2c-0.4-0.6-1.5-2.1-1.9-2.7l-2.6,1.2L65.6,25
			c-0.9-1-1.8-1.9-2.8-2.8L62.6,22l1.2-2.7c-0.6-0.5-2-1.5-2.7-2l-2.1,2l-0.2-0.1c-1.2-0.7-2.4-1.3-3.6-1.8l-0.2-0.1l0.3-2.9
			c-0.7-0.3-2.4-0.8-3.1-1L50.8,16l-0.2-0.1c-1.4-0.3-2.6-0.5-4-0.6l-0.2,0l-0.6-2.9c-0.4,0-1,0-1.7,0c-0.7,0-1.3,0-1.7,0L42,15.2
			l-0.2,0c-1.4,0.1-2.7,0.3-4,0.6L37.6,16l-1.5-2.6c-0.7,0.2-2.4,0.8-3.1,1l0.3,2.9l-0.2,0.1c-1.2,0.5-2.4,1.1-3.6,1.8l-0.2,0.1
			l-2.2-2c-0.3,0.2-0.8,0.6-1.3,0.9l0.1-0.8c0.5-0.3,0.9-0.6,1.1-0.8l0.2-0.1l2.2,2c1.1-0.6,2.2-1.2,3.3-1.7L32.3,14l0.2-0.1
			c0.6-0.2,3-1,3.6-1.2l0.2-0.1l1.5,2.6c1.1-0.3,2.3-0.5,3.6-0.6l0.6-2.9l0.2,0h0l0,0l0,0l0,0h0l0,0l0,0l0,0l0,0h0l0,0h0v0l0.2,0
			c0,0,0,0,0,0l0.1,0v0c0,0,0,0,0,0h0.2c0.4,0,0.9,0,1.4,0c0.7,0,1.6,0,1.9,0l0.2,0l0.6,2.9c1.2,0.1,2.4,0.3,3.6,0.6l1.4-2.6
			l0.2,0.1c0.6,0.2,3.1,0.9,3.6,1.2L56,14L55.7,17c1.1,0.5,2.2,1,3.3,1.7l2.1-2l0.2,0.1c0.6,0.3,2.6,1.9,3.1,2.3l0.2,0.1l-1.2,2.7
			c0.9,0.8,1.8,1.7,2.6,2.6l2.7-1.2l0.1,0.2c0.4,0.5,1.9,2.6,2.3,3.1l0.1,0.2l-2,2.2c0.6,1.1,1.2,2.2,1.7,3.3l2.9-0.4l0.1,0.2
			c0.2,0.6,1,3,1.2,3.6l0.1,0.2l-2.6,1.5c0.3,1.1,0.5,2.3,0.6,3.6l2.9,0.6l0,0.2c0,0.6,0,3.2,0,3.8l0,0.2L73,46.3
			c-0.1,1.1-0.3,2.3-0.6,3.6l2.5,1.5l0,0.2c-0.1,0.6-1,3.1-1.2,3.6l-0.1,0.2l-3-0.3c-0.5,1.1-1,2.2-1.7,3.3l2,2.2L71,60.7
			c-0.3,0.5-1.8,2.6-2.2,3.1l-0.1,0.2l-2.7-1.2c-0.8,0.9-1.6,1.7-2.6,2.6l1.2,2.7l-0.2,0.1c-0.5,0.4-2.5,1.9-3.1,2.2l-0.2,0.1
			l-2.2-2c-1,0.6-2.1,1.2-3.3,1.7l0.3,2.9l-0.2,0.1c-0.6,0.2-3,1-3.6,1.2L52,74.4l-1.5-2.6c-1.1,0.3-2.3,0.4-3.6,0.6l-0.6,2.9
			l-0.2,0c-0.3,0-1.2,0-1.9,0c-0.7,0-1.5,0-1.9,0l-0.2,0l-0.6-2.9c-1.1-0.1-2.4-0.3-3.6-0.6l-1.4,2.6l-0.2-0.1c-0.6-0.2-3-1-3.6-1.2
			l-0.2-0.1l0.3-2.9c-1.1-0.5-2.2-1-3.3-1.7l-2.2,2L27,70.4c-0.5-0.4-2.6-1.8-3.1-2.2L23.8,68l1.2-2.7c-1-0.9-1.8-1.7-2.6-2.6
			l-2.7,1.2l-0.1-0.2c-0.1-0.2-0.4-0.5-0.7-0.9L19.3,62.3z"/>
		<path style="fill:#FFFFFF;" d="M44.1,66.9c-3.4,0-6.7-0.7-9.8-2.1l-0.4-0.2l10.2-12.9l10,13l-0.4,0.2
			C50.8,66.2,47.4,66.9,44.1,66.9z M35.1,64.3c2.9,1.3,5.9,1.9,9.1,1.9c3,0,6.1-0.6,8.9-1.8l-8.9-11.5L35.1,64.3z M61,59.8
			l-9.1-13.7l15.4-5.5l0,0.4c0.7,6.7-1.5,13.4-6.1,18.4L61,59.8z M53,46.5l8.1,12.2c4.1-4.7,6.2-10.8,5.6-17L53,46.5z M27.1,59.6
			l-0.3-0.3c-4.5-5-6.7-11.8-5.9-18.5l0.1-0.5l15.4,5.7L27.1,59.6z M21.6,41.3C21,47.5,23,53.7,27.1,58.4l8.2-12L21.6,41.3z M49,37
			l-0.5-16.4l0.4,0.1c6.6,1.4,12.3,5.6,15.6,11.5l0.2,0.4L49,37z M49.3,21.5L49.7,36l14.1-3.9C60.6,26.7,55.4,22.9,49.3,21.5z
			 M39.4,36.9l-15.7-4.6l0.2-0.4c3.4-5.9,9.1-10,15.7-11.3l0.4-0.1L39.4,36.9z M24.8,31.9L38.7,36l0.6-14.6
			C33.2,22.8,28,26.5,24.8,31.9z"/>
		<path style="fill:#FFFFFF;" d="M44.2,22.3l-4.9,14.1l-0.1,0.2l-0.2,0L24,37l11.9,9l0.2,0.1L36,46.4l-4.3,14.4L44,52.3l0.2-0.1
			l0.2,0.1l12.3,8.5l-4.3-14.3l-0.1-0.2l0.2-0.1L64.4,37l-14.9-0.3l-0.2,0l-0.1-0.2L44.2,22.3L44.2,22.3z M38.7,36l5.2-14.8l0.3-0.9
			l0.3,0.9L49.7,36l15.7,0.4l1,0l-0.8,0.6l-12.5,9.5l4.5,15l0.3,0.9l-0.8-0.5L44.2,53l-12.9,8.9l-0.8,0.5l0.3-0.9l4.5-15.1
			l-12.5-9.5L22,36.4l1,0L38.7,36L38.7,36z"/>
		<g>
			<polygon style="fill-rule:evenodd;clip-rule:evenodd;fill:#FFFFFF;" points="16.6,67.4 16.6,67.4 16.6,67.4 			"/>
			<polygon style="fill-rule:evenodd;clip-rule:evenodd;fill:#FFFFFF;" points="15.2,64.6 16.6,67.4 16.6,67.4 			"/>
		</g>
	</g>
</g>
</svg>
