<?xml version="1.0" encoding="utf-8"?>
<!-- Generator: Adobe Illustrator 23.0.4, SVG Export Plug-In . SVG Version: 6.00 Build 0)  -->
<svg version="1.1" id="Livello_1" xmlns="http://www.w3.org/2000/svg" xmlns:xlink="http://www.w3.org/1999/xlink" x="0px" y="0px"
	 viewBox="0 0 203 31" style="enable-background:new 0 0 203 31;" xml:space="preserve">
<style type="text/css">
	.st0{fill:#FFFFFF;}
	.st1{fill:none;stroke:#FFFFFF;stroke-width:0.6548;}
	.st2{fill-rule:evenodd;clip-rule:evenodd;fill:#2764AD;}
	.st3{fill-rule:evenodd;clip-rule:evenodd;fill:#6F7072;}
	.st4{fill-rule:evenodd;clip-rule:evenodd;fill:#FFFFFF;}
</style>
<title>Logo dell&amp;Agenzia per l&amp;Italia Digitale</title>
<desc>Emblema della Repubblica Italiana con accanto l&amp;acronimo AGID e il nome per esteso</desc>
<g transform="translate(126.000000, 2.000000)">
	<path id="Shape" class="st0" d="M0.2,9.5l2.5-9.1h2.2l2.5,9.1h-1L5.7,7.2H1.8L1.1,9.5H0.2z M3.4,1.3L2,6.3h3.4L4,1.3H3.4z"/>
	<path class="st0" d="M11,12.6c-1,0-1.8-0.1-2.2-0.4c-0.4-0.3-0.6-0.8-0.6-1.6c0-0.4,0.1-0.6,0.2-0.9c0.1-0.3,0.4-0.5,0.8-0.8
		C9,8.7,8.8,8.4,8.8,8c0-0.1,0.1-0.4,0.3-0.8L9.2,7c-0.7-0.3-1-1-1-2c0-1.5,0.8-2.2,2.4-2.2c0.4,0,0.8,0,1.2,0.1H12L14,3v0.8h-1.2
		c0.3,0.3,0.4,0.7,0.4,1.3c0,0.8-0.2,1.4-0.6,1.7c-0.4,0.3-1,0.5-1.9,0.5c-0.2,0-0.4,0-0.6-0.1C9.9,7.6,9.9,7.8,9.9,7.9
		c0,0.3,0.1,0.4,0.2,0.5c0.2,0.1,0.7,0.1,1.5,0.1c0.8,0,1.4,0.1,1.8,0.4c0.4,0.3,0.5,0.8,0.5,1.5C13.9,11.9,13,12.6,11,12.6z
		 M9.2,10.5c0,0.5,0.1,0.8,0.4,1c0.3,0.2,0.7,0.3,1.4,0.3s1.2-0.1,1.5-0.3s0.5-0.5,0.5-1s-0.1-0.7-0.3-0.9c-0.2-0.2-0.6-0.2-1.3-0.2
		L10,9.3C9.7,9.5,9.5,9.7,9.4,9.8C9.2,10.1,9.2,10.3,9.2,10.5z M9.3,5.1c0,0.5,0.1,0.9,0.3,1.1c0.2,0.2,0.6,0.3,1.1,0.3
		s0.9-0.1,1.1-0.3C12,6,12.1,5.6,12.1,5.1S12,4.2,11.8,4c-0.2-0.2-0.6-0.3-1.1-0.3S9.8,3.8,9.6,4C9.4,4.2,9.3,4.6,9.3,5.1z"/>
	<path class="st0" d="M19.7,8.7h0.4v0.8c-1,0.1-1.8,0.2-2.6,0.2c-0.9,0-1.6-0.3-2-0.8s-0.6-1.4-0.6-2.5c0-2.3,0.9-3.4,2.7-3.4
		c0.9,0,1.5,0.2,2,0.7C20,4.2,20.3,5,20.3,6l-0.1,0.7h-4.3c0,0.7,0.1,1.3,0.4,1.6c0.3,0.3,0.7,0.5,1.4,0.5C18.4,8.8,19,8.8,19.7,8.7
		z M19.3,5.9c0-0.8-0.1-1.4-0.4-1.7c-0.3-0.3-0.7-0.5-1.3-0.5s-1,0.2-1.3,0.5c-0.3,0.3-0.4,0.9-0.5,1.7H19.3z"/>
	<path class="st0" d="M22.8,9.5h-1V3h1v0.5c0.7-0.4,1.4-0.6,2-0.6c0.9,0,1.5,0.2,1.8,0.7c0.3,0.5,0.5,1.3,0.5,2.5v3.5h-1V6.1
		c0-0.9-0.1-1.5-0.3-1.9c-0.2-0.3-0.6-0.5-1.1-0.5c-0.3,0-0.6,0-0.9,0.1C23.5,3.9,23.3,4,23.1,4l-0.2,0.1v5.4H22.8z"/>
	<polygon class="st0" points="28.5,3.9 28.5,3 33.4,3 33.4,3.9 29.7,8.7 33.4,8.7 33.4,9.6 28.5,9.6 28.5,8.7 32.2,3.9 	"/>
	<path class="st0" d="M34.8,1.5V0.4h1v1.1H34.8z M34.8,9.5V3h1v6.5H34.8z"/>
	<path class="st0" d="M42.3,5v3.4c0,0.3,0.3,0.5,0.8,0.6v0.8c-0.7,0-1.2-0.2-1.6-0.5c-0.8,0.3-1.6,0.5-2.4,0.5
		c-0.6,0-1.1-0.2-1.4-0.5s-0.5-0.8-0.5-1.5c0-0.6,0.2-1.1,0.5-1.4c0.3-0.3,0.8-0.5,1.5-0.6l2.1-0.2V5c0-0.4-0.1-0.8-0.3-1
		c-0.2-0.2-0.5-0.3-0.8-0.3c-0.7,0-1.4,0-2.2,0.1h-0.4V3.1c1-0.2,1.8-0.3,2.6-0.3s1.3,0.2,1.6,0.5C42.2,3.7,42.3,4.2,42.3,5z
		 M38.3,7.6c0,0.8,0.3,1.2,1,1.2c0.6,0,1.2-0.1,1.8-0.3l0.3-0.1V6.3l-1.9,0.2c-0.4,0-0.7,0.1-0.9,0.3C38.4,7,38.3,7.3,38.3,7.6z"/>
	<path class="st0" d="M47.1,12.4V3h1v0.5c0.7-0.4,1.3-0.6,2-0.6c0.8,0,1.4,0.3,1.8,0.8c0.4,0.5,0.6,1.4,0.6,2.6s-0.2,2.1-0.7,2.6
		c-0.4,0.5-1.2,0.8-2.2,0.8c-0.5,0-1,0-1.5-0.1v2.9h-1V12.4z M49.9,3.7c-0.3,0-0.5,0-0.8,0.1c-0.3,0.1-0.5,0.2-0.7,0.3l-0.2,0.1v4.4
		c0.6,0.1,1.1,0.1,1.4,0.1c0.7,0,1.2-0.2,1.5-0.6c0.3-0.4,0.4-1.1,0.4-2s-0.1-1.6-0.4-1.9C50.8,3.9,50.4,3.7,49.9,3.7z"/>
	<path class="st0" d="M58.5,8.7h0.4v0.8c-1,0.1-1.8,0.2-2.6,0.2c-0.9,0-1.6-0.3-2-0.8c-0.4-0.5-0.6-1.4-0.6-2.5
		c0-2.3,0.9-3.4,2.7-3.4c0.9,0,1.5,0.2,2,0.7C58.8,4.2,59.1,5,59.1,6L59,6.7h-4.3c0,0.7,0.1,1.3,0.4,1.6c0.3,0.3,0.7,0.5,1.4,0.5
		S57.8,8.8,58.5,8.7z M58.2,5.9c0-0.8-0.1-1.4-0.4-1.7c-0.3-0.3-0.7-0.5-1.3-0.5s-1,0.2-1.3,0.5c-0.3,0.3-0.4,0.9-0.5,1.7H58.2z"/>
	<path class="st0" d="M60.7,9.5V3h1v0.9c0.8-0.5,1.6-0.9,2.4-1v1C63.7,4,63.4,4.1,63,4.2c-0.4,0.1-0.7,0.3-0.9,0.4l-0.3,0.2v4.8
		h-1.1V9.5z"/>
	<polygon class="st0" points="0.9,25.2 0.9,15.8 1.9,15.8 1.9,25.2 	"/>
	<polygon class="st0" points="3.6,18.8 4.2,15.9 5.2,15.9 4.4,18.8 	"/>
	<polygon class="st0" points="6.8,25.2 6.8,16.1 7.8,16.1 7.8,25.2 	"/>
	<path class="st0" d="M13.3,19.5h-2.1v3.1c0,0.8,0.1,1.2,0.2,1.5c0.1,0.2,0.4,0.4,0.8,0.4l1.2-0.1l0.1,0.8c-0.6,0.1-1,0.1-1.3,0.1
		c-0.7,0-1.2-0.2-1.4-0.5c-0.3-0.3-0.4-1-0.4-1.9v-3.4H9.5v-0.9h0.9v-2h1v2h2.1v0.9H13.3z"/>
	<path class="st0" d="M19.1,20.7V24c0,0.3,0.3,0.5,0.8,0.6v0.8c-0.7,0-1.2-0.2-1.6-0.5c-0.8,0.3-1.6,0.5-2.4,0.5
		c-0.6,0-1.1-0.2-1.4-0.5c-0.3-0.3-0.5-0.8-0.5-1.5c0-0.6,0.2-1.1,0.5-1.4s0.8-0.5,1.5-0.6l2.1-0.2v-0.6c0-0.4-0.1-0.8-0.3-1
		c-0.2-0.2-0.5-0.3-0.8-0.3c-0.7,0-1.4,0-2.2,0.1h-0.4v-0.7c1-0.2,1.8-0.3,2.6-0.3s1.3,0.2,1.6,0.5C18.9,19.4,19.1,19.9,19.1,20.7z
		 M15.1,23.3c0,0.8,0.3,1.2,1,1.2c0.6,0,1.2-0.1,1.8-0.3l0.3-0.1V22l-1.9,0.2c-0.4,0-0.7,0.1-0.9,0.3C15.2,22.7,15.1,23,15.1,23.3z"
		/>
	<polygon class="st0" points="21.1,25.2 21.1,15.8 22.1,15.8 22.1,25.2 	"/>
	<path class="st0" d="M24.1,17.2v-1.1h1v1.1H24.1z M24.1,25.2v-6.5h1v6.5H24.1z"/>
	<path class="st0" d="M31.6,20.7V24c0,0.3,0.3,0.5,0.8,0.6v0.8c-0.7,0-1.2-0.2-1.6-0.5c-0.8,0.3-1.6,0.5-2.4,0.5
		c-0.6,0-1.1-0.2-1.4-0.5c-0.3-0.3-0.5-0.8-0.5-1.5c0-0.6,0.2-1.1,0.5-1.4s0.8-0.5,1.5-0.6l2.1-0.2v-0.6c0-0.4-0.1-0.8-0.3-1
		c-0.2-0.2-0.5-0.3-0.8-0.3c-0.7,0-1.4,0-2.2,0.1h-0.4v-0.7c1-0.2,1.8-0.3,2.6-0.3s1.3,0.2,1.6,0.5C31.4,19.4,31.6,19.9,31.6,20.7z
		 M27.5,23.3c0,0.8,0.3,1.2,1,1.2c0.6,0,1.2-0.1,1.8-0.3l0.3-0.1V22l-1.9,0.2c-0.4,0-0.7,0.1-0.9,0.3C27.6,22.7,27.5,23,27.5,23.3z"
		/>
	<path class="st0" d="M39.8,25.2h-3.2v-9.1h3.2c1.5,0,2.5,0.6,2.9,1.8c0.3,0.7,0.4,1.6,0.4,2.6c0,2.3-0.6,3.7-1.7,4.3
		C41,25.1,40.4,25.2,39.8,25.2z M42.1,20.6c0-1.7-0.4-2.8-1.2-3.2c-0.3-0.2-0.7-0.3-1.2-0.3h-2.2v7.3h2.2
		C41.3,24.3,42.1,23.1,42.1,20.6z"/>
	<path class="st0" d="M44.8,17.2v-1.1h1v1.1H44.8z M44.8,25.2v-6.5h1v6.5H44.8z"/>
	<path class="st0" d="M50.2,28.3c-1,0-1.8-0.1-2.2-0.4c-0.4-0.3-0.6-0.8-0.6-1.6c0-0.4,0.1-0.6,0.2-0.9c0.1-0.3,0.4-0.5,0.8-0.8
		c-0.2-0.2-0.4-0.5-0.4-0.9c0-0.1,0.1-0.4,0.3-0.8l0.1-0.2c-0.7-0.3-1-1-1-2c0-1.5,0.8-2.2,2.4-2.2c0.4,0,0.8,0,1.2,0.1h0.2l1.9-0.1
		v0.8h-1.2c0.3,0.3,0.4,0.7,0.4,1.3c0,0.8-0.2,1.4-0.6,1.7c-0.4,0.3-1,0.5-1.9,0.5c-0.2,0-0.4,0-0.6-0.1C49,23.1,49,23.3,49,23.4
		c0,0.3,0.1,0.4,0.2,0.5c0.2,0.1,0.7,0.1,1.5,0.1s1.4,0.1,1.8,0.4c0.4,0.3,0.5,0.8,0.5,1.5C53.1,27.6,52.2,28.3,50.2,28.3z
		 M48.4,26.3c0,0.5,0.1,0.8,0.4,1c0.3,0.2,0.7,0.3,1.4,0.3s1.2-0.1,1.5-0.3c0.3-0.2,0.5-0.5,0.5-1s-0.1-0.7-0.3-0.9
		c-0.2-0.2-0.6-0.2-1.3-0.2l-1.4-0.1c-0.3,0.2-0.5,0.4-0.6,0.5C48.4,25.8,48.4,26,48.4,26.3z M48.5,20.8c0,0.5,0.1,0.9,0.3,1.1
		c0.2,0.2,0.6,0.3,1.1,0.3s0.9-0.1,1.1-0.3c0.2-0.2,0.3-0.6,0.3-1.1s-0.1-0.9-0.3-1.1c-0.2-0.2-0.6-0.3-1.1-0.3s-0.9,0.1-1.1,0.3
		C48.6,19.9,48.5,20.3,48.5,20.8z"/>
	<path class="st0" d="M54.4,17.2v-1.1h1v1.1H54.4z M54.4,25.2v-6.5h1v6.5H54.4z"/>
	<path class="st0" d="M60.7,19.5h-2.1v3.1c0,0.8,0.1,1.2,0.2,1.5c0.1,0.2,0.4,0.4,0.8,0.4l1.2-0.1l0.1,0.8c-0.6,0.1-1,0.1-1.3,0.1
		c-0.7,0-1.2-0.2-1.4-0.5c-0.3-0.3-0.4-1-0.4-1.9v-3.4h-0.9v-0.9h0.9v-2h1v2h2.1v0.9H60.7z"/>
	<path class="st0" d="M66.5,20.7V24c0,0.3,0.3,0.5,0.8,0.6v0.8c-0.7,0-1.2-0.2-1.6-0.5c-0.8,0.3-1.6,0.5-2.4,0.5
		c-0.6,0-1.1-0.2-1.4-0.5c-0.3-0.3-0.5-0.8-0.5-1.5c0-0.6,0.2-1.1,0.5-1.4c0.3-0.3,0.8-0.5,1.5-0.6l2.1-0.2v-0.6
		c0-0.4-0.1-0.8-0.3-1c-0.2-0.2-0.5-0.3-0.8-0.3c-0.7,0-1.4,0-2.2,0.1h-0.4v-0.7c1-0.2,1.8-0.3,2.6-0.3c0.8,0,1.3,0.2,1.6,0.5
		C66.4,19.4,66.5,19.9,66.5,20.7z M62.5,23.3c0,0.8,0.3,1.2,1,1.2c0.6,0,1.2-0.1,1.8-0.3l0.3-0.1V22l-1.9,0.2
		c-0.4,0-0.7,0.1-0.9,0.3S62.5,23,62.5,23.3z"/>
	<polygon class="st0" points="68.5,25.2 68.5,15.8 69.5,15.8 69.5,25.2 	"/>
	<path class="st0" d="M75.9,24.4h0.4v0.8c-1,0.1-1.8,0.2-2.6,0.2c-0.9,0-1.6-0.3-2-0.8c-0.4-0.5-0.6-1.4-0.6-2.5
		c0-2.3,0.9-3.4,2.7-3.4c0.9,0,1.5,0.2,2,0.7c0.4,0.5,0.7,1.3,0.7,2.3l-0.1,0.7h-4.3c0,0.7,0.1,1.3,0.4,1.6s0.7,0.5,1.4,0.5
		C74.6,24.5,75.3,24.5,75.9,24.4z M75.6,21.6c0-0.8-0.1-1.4-0.4-1.7c-0.3-0.3-0.7-0.5-1.3-0.5s-1,0.2-1.3,0.5
		c-0.3,0.3-0.4,0.9-0.5,1.7H75.6z"/>
</g>
<g transform="translate(32.000000, 0.000000)">
	<path class="st0" d="M0.5,27.4l6-26.5h10.2l6,26.5h-5.4l-1.1-4.8H6.9l-1.1,4.8H0.5z M10.6,5.3L7.9,17.9h7.3L12.5,5.3H10.6z"/>
	<path class="st0" d="M36.8,17.9v-4.7h7.7V27c-3.7,0.6-6.7,0.9-9,0.9c-4.1,0-7-1.1-8.5-3.3s-2.3-5.7-2.3-10.5s0.8-8.3,2.4-10.4
		s4.4-3.2,8.2-3.2c2.4,0,5,0.3,7.8,0.8l1.4,0.3l-0.2,4.2c-3.1-0.3-5.7-0.5-7.7-0.5S33.2,5.5,32.4,6c-0.8,0.5-1.4,1.3-1.8,2.6
		S30,12,30,15.1s0.4,5.2,1.1,6.4c0.8,1.2,2.3,1.8,4.7,1.8l3.2-0.2V18h-2.2V17.9z"/>
	<polygon class="st0" points="49.6,27.4 49.6,0.9 55,0.9 55,27.4 	"/>
	<path class="st0" d="M69.7,27.4h-8.9V0.9h8.9c2.3,0,4.2,0.2,5.7,0.7S78,2.9,78.8,4c0.8,1.1,1.4,2.4,1.7,3.9s0.5,3.4,0.5,5.8
		s-0.1,4.4-0.4,5.9c-0.3,1.6-0.8,3-1.6,4.2c-0.8,1.2-1.9,2.1-3.4,2.7C73.9,27.1,72,27.4,69.7,27.4z M75.3,16.9
		c0.1-0.8,0.1-2,0.1-3.4c0-1.5-0.1-2.6-0.2-3.5c-0.1-0.9-0.4-1.7-0.7-2.4c-0.4-0.7-1-1.2-1.7-1.5C72,5.8,71,5.7,69.7,5.7h-3.5v17.2
		h3.5c1.9,0,3.4-0.5,4.2-1.5C74.7,20.4,75.1,19,75.3,16.9z"/>
</g>
<path class="st1" d="M119.5,0v27.5"/>
<g>
	<path class="st2" d="M19.8,19.6c0.1,0,0.3,0.1,0.3,0.2c0,0.1-0.1,0.3-0.2,0.3c-0.1,0-0.3-0.1-0.3-0.3
		C19.6,19.7,19.7,19.6,19.8,19.6L19.8,19.6z"/>
	<path class="st2" d="M8.4,23.1c0.1,0.1,0.3,0.1,0.4,0L8.7,23l-0.2-0.2c-0.1-0.1-0.2,0-0.3,0.2L8.4,23.1L8.4,23.1z"/>
	<path class="st3" d="M15.8,28.1c0,0.1,0,0.1,0.1,0.2c0.1,0.1,0.2,0.1,0.2,0L15.8,28.1L15.8,28.1z"/>
	<path class="st4" d="M25.8,13.9c0.1-0.6,0-0.9-0.2-1.1c-0.2-0.1-0.5-0.1-0.8,0.1c-0.2-0.1-0.4,0-0.7,0.3c0.1-0.1,0.1-0.3,0-0.4
		c0.3-0.1,0.4-0.3,0.5-0.4c0.1-0.1,0.1-0.4,0.1-0.7c0-0.2,0.2-0.5,0.5-1.1c0.2-0.5,0.1-0.7-0.5-0.5c0.3-0.3,0.4-0.5,0.4-0.7
		c0-0.2-0.1-0.4-0.2-0.7c-0.1-0.2-0.2-0.2-0.3-0.1c0.1-0.1,0.1-0.2,0.1-0.4c0-0.1-0.1-0.4-0.3-0.9c0-0.6-0.2-0.9-0.4-0.8
		c0-0.3-0.1-0.6-0.3-0.9c-0.2-0.4-0.4-0.5-0.6-0.3c-0.4-0.6-0.8-0.8-1.1-0.7c0-0.3-0.1-0.5-0.3-0.7c-0.1-0.4-0.2-0.7-0.3-0.8
		c-0.2-0.1-0.3,0-0.4,0.3c0-0.2-0.1-0.5-0.2-0.7c-0.1-0.2-0.3-0.4-0.5-0.4c-0.1,0-0.2,0-0.3,0c-0.2-0.1-0.3-0.2-0.4-0.2
		c-0.4-0.4-0.7-0.4-1-0.1l0-0.3c-0.1-0.4-0.3-0.5-0.6-0.2c-0.5-0.5-0.9-0.9-1.3-1c-0.3-0.1-0.5-0.1-0.6,0.1
		c-0.2-0.2-0.3-0.3-0.5-0.3c-0.2,0-0.3-0.1-0.5-0.1c-0.2,0-0.3,0.1-0.3,0.4c-0.4,0-0.6,0.1-0.8,0.2C14,0.9,13.9,1.1,14,1.3
		c0.1,0.2,0.2,0.4,0.5,0.5c-0.1,0.1-0.1,0.2-0.1,0.3c0,0.2,0.2,0.3,0.5,0.4c0.2,0.1,0.5,0.1,0.7,0c-0.1,0.2,0,0.4,0.2,0.4
		c0.3,0.3,0.7,0.4,1.1,0.2l0,0.3l0.6,0.2c0,0.3,0.2,0.5,0.4,0.6l0.2,0.1c-0.1,0-0.3,0.2-0.3,0.2c0,0.1-0.2,0.3,0.1,0.4
		c0.2,0,0.5,0.1,0.8,0c0,0.1,0.1,0.2,0.1,0.3c0,0.1,0.2,0.2,0.3,0.4c0.2,0.2,0.5,0.4,0.7,0.5c0,0-0.1,0.2-0.2,0.4
		c-0.1,0.2-0.1,0.6,0,0.8c0,0-0.2,0.1-0.2,0.2c-0.2,0.3,0.2,0.7,0.3,0.9c0,0-0.1,0.1-0.2,0.1c-0.1,0.1-0.1,0.6,0.3,0.7
		c0.1,0,0.6,0.3,0.8,0.6c0,0,0.2,0.3,0.4,0.5c0.1,0.1,0.2,0.4,0.4,0.4c0.2,0.7,0.6,1.4,1,2.1c0,0,0.4,0.5,0.5,0.8c0,0.3,0,0.5,0,0.5
		c-0.1,0.5-0.1,1-0.3,1.4c-0.4-0.2-0.5,0.1-0.6,0.4c0,0-0.2,0-0.2,0.1c0-0.2-0.3-0.3-0.4-0.2c0,0-0.1,0.1-0.2,0.2
		c0,0-0.1-0.1-0.1-0.3c0-0.1,0-0.4,0-0.5c0,0,0.1-0.1,0.2-0.3c0.1-0.2,0-1-0.1-1.5c0-0.2-0.1-0.2-0.2-0.3c0,0-0.3,0-0.3,0.2
		c0-0.1-0.2-0.2-0.3-0.2c-0.3-0.1-0.7,0.6-0.7,1.2c-0.2-0.2-0.6-0.1-0.5,0.2c0.1,0.5,0.8,1.3,0.8,1.7C20,16,19.5,16,19.5,16.5
		c0,0.1,0.1,0.4,0.2,0.5c-0.1,0.5,0.5,0.9,0.9,1.3c0,0.2,0.1,0.2,0.1,0.3c-0.1,0.1-0.6,0.9-0.6,1c0,0-0.4-0.2-0.5-0.1
		c-0.1,0.1-0.2,0.3-0.3,0.4l0.1,0.6c0,0.2-0.1,0.5-0.4,0.8c-0.3,0.3-0.5,0.6-0.6,0.8c-0.1,0.2-0.3,0.4-0.6,0.6
		c0-0.1-0.1-0.2-0.2-0.3c0,0-0.1-0.1-0.1,0c-0.4,0.1-1.1,0.5-2.1,1c-0.2,0.1-0.4,0.3-0.8,0.9H14c-0.2-0.2-0.3-0.3-0.5-0.5
		c-0.1-0.1-0.4-0.1-0.7,0.1c-0.3-0.1-0.6,0-1,0.2c-0.2,0.1-0.3,0.1-0.4,0l-0.8-0.8c-1.6-0.7-2.4-1-2.6-0.9c-0.2,0.1-0.3,0.2-0.3,0.4
		c-0.2-0.1-0.4-0.3-0.7-0.6l-0.5-0.5c-0.4-0.4-0.5-0.8-0.4-1.1l0.1-0.5c0-0.1,0-0.1,0-0.2c-0.1-0.1-0.3-0.2-0.4-0.2
		c0,0-0.1,0-0.2,0.2c0,0.1-0.5-0.7-0.5-0.7c0.1-0.1,0.4-0.6,0.5-1.1c0.2-0.6,0.2-1.2,0.2-1.5c0,0,0-0.1,0.1-0.1
		c0.2-0.2,0.5-1.9,0.5-2.3c0-0.2-0.1-0.2-0.1-0.3c0,0-0.1,0-0.1,0l0.1-0.2c0.1-0.1,0.1-0.2,0-0.3c0,0-0.3,0-0.6,0.1
		c0-0.3-0.2-0.7-0.2-0.8c0,0-0.1,0-0.1,0c-0.4,0.3-0.6,0.8-0.8,1.5l-0.1,0.1c-0.6,0.7-1,1.5-1.2,2.4c-0.1-0.1-0.1-0.4-0.2-0.6
		c-0.1-0.3-0.1-0.5-0.1-0.5C3,15.5,3,15.4,2.8,15.3c-0.1-0.1-0.2-0.6-0.4-1.4c0-0.2,0.1-0.5,0.3-1c0.2-0.4,0.4-1,0.8-1.6
		c0,0,0.2-0.2,0.2-0.2C4.3,11,6.6,7.9,6.4,6.4c0,0.2,1-1.7,1.1-2.1l0.1,0l0.2-0.1c0.5-0.2,1-0.4,1.4-0.6l0.6-0.3
		c0.4-0.2,0.8-0.4,1.2-0.8c0.4-0.4,0.6-0.7,0.7-1.1c-0.1-0.1-0.3-0.1-0.6-0.2c0.2-0.2,0.3-0.4,0.3-0.6c-0.1-0.2-0.5-0.2-1.2-0.1
		C9.4,0.7,8.8,1,8.3,1.4c-0.5,0.3-1,0.8-1.4,1.2c-0.4,0.5-0.8,1-1,1.5l0.3-0.7c0.2-0.3,0.3-0.7,0.5-1.2c0.1-0.2,0.1-0.4,0-0.5
		c0-0.1-0.1-0.1-0.3-0.1c-0.2,0-0.5,0.3-0.9,0.6C4.9,2.8,4.5,3.4,4.2,4.1C3.8,4.8,3.5,5.4,3.4,5.8c0.1-0.5,0.1-0.9,0-1.2
		C3.3,4.5,3.2,4.5,3,4.5C2.9,4.6,2.7,4.8,2.5,5C2.4,5.2,2.2,5.5,2.1,5.7C1.9,5.9,1.7,6.2,1.5,6.6C1.3,7,1.1,7.4,1,8
		c-0.2,0.5-0.3,1.2-0.4,2.1c-0.1,0.6,0,1.2,0.1,1.8c0.2,0.6,0.3,1.1,0.5,1.4c0.2,0.3,0.3,0.5,0.5,0.5C1.8,14.1,1.9,14.5,2,15
		c0.1,0.2,0.1,0.4,0.1,0.6c0,0.1,0,0.2,0.1,0.3c0.1,0.1,0.1,0.2,0.2,0.3c0.1,0.5,0.3,1,0.5,1.4c0,0.2-0.1,0.5-0.1,0.7
		C2.4,16.8,2,15.7,1.7,15c-0.6-1.3-1.1-1.9-1.4-1.8C0.2,13.2,0,13.4,0,13.6c0,0.1,0,0.3,0,0.7c0,0.4,0,0.8,0.1,1.2
		C0.4,16.9,1,18,1.7,19l1.1,1.3c0.2,0.2,0.4,0.4,0.6,0.5c0.2,0.1,0.4,0.1,0.6,0.1c0.3,0.4,0.6,0.8,1,1.3c0.2,0.4,0.5,0.6,0.8,0.5
		c0.1,0.2,0.3,0.4,0.5,0.4l0.2,0c0.3,0.3,0.6,0.6,0.9,0.7l-0.3,0.8c-0.5,0.1-1,0.1-1.4,0.1c-0.4-0.3-1-0.7-1.7-1.2l0-0.9
		c0-0.3,0-0.6,0.2-0.8c0-0.2-0.1-0.3-0.3-0.5c-0.3-0.2-0.5-0.2-0.6-0.2c-0.1,0,0,0.1,0,0.2v0.1c0,0,0-0.1,0.1,0
		c0.4,0.1,0.6,0.3,0.6,0.4c-0.1,0.2-0.2,0.5-0.2,0.8l0,0.8c-0.5-0.4-1.1-0.7-1.8-1c0.1,0,0.2,0,0.2,0c0.1,0,0.2,0,0.2-0.1
		c0-0.1,0-0.1-0.2-0.1c-0.3,0-0.5,0-0.6,0.1c-0.1,0.1-0.1,0.2,0,0.3c0.7,0.4,1.4,0.7,2,1.1c0.9,0.6,1.6,1,2.1,1.4
		c0.5,0,1.2-0.1,2-0.2L9,24.6c0.5-0.1,1.1-0.2,1.7-0.3c0.2,0,0.5-0.1,0.8-0.1c0.3,0,0.6,0,0.9-0.1c0.3,0.5,0.4,0.9,0.5,1.3
		c0,0.2,0,0.3-0.1,0.3c-1.2,0.5-2.1,0.7-2.6,0.9c-0.5,0.1-1,0.2-1.5,0.3c-1.1,0.2-2.1,0.4-3.2,0.5c-0.3-0.1-1-0.5-2.3-1.2
		c-0.9-0.5-1.5-1-1.9-1.3c-0.4-0.4-0.6-0.7-0.5-0.8c0.3-0.4,0.4-0.8,0.5-1.2c0-0.1,0.1-0.3,0-0.3c-0.1-0.4,0-0.5,0.2-0.5
		c0.7,0,1.2-0.1,1.4,0c0.1,0,0.2,0,0.2-0.1l0.2-0.5l-0.1-0.1l-0.2,0.3l0-0.3v0.4l-1.6,0c-0.1,0-0.3,0.1-0.4,0.2
		c-0.1,0.1-0.1,0.3,0,0.6c0,0.1,0,0.2,0,0.3c-0.1,0.3-0.3,0.7-0.6,1.2c0,0.1,0,0.2,0.1,0.3c0.1,0.1,0.3,0.4,0.6,0.7
		c0.1,0.1,0.3,0.3,0.6,0.5c0.3,0.2,0.8,0.5,1.4,0.9c0.8,0.5,1.6,0.9,2.3,1.2c0.2,0,1.2-0.1,3.1-0.4l0,0.2c-0.5,0.4-0.9,0.6-1.1,0.5
		c-0.2,0-0.3,0.2-0.2,0.5c0.1,0.1,0.2,0.2,0.3,0.3L8,29l0.6,0.3c0.2,0.1,0.4,0.1,0.6,0c0.2-0.1,0.3-0.2,0.4-0.5l0.1-0.1l0.6-0.6
		l0.4-0.3c0.4-0.1,0.6-0.2,0.7-0.4c0-0.2,0.1-0.3,0.1-0.3l0.5-0.4c0-0.1,0.2,0,0.7,0.3c0.2,0.1,0.4,0,0.5,0l0.4-0.2
		c0.4,0.1,1,0.5,1.9,1.3c0,0.1,0,0.2,0.2,0.3c0.1,0.1,0.3,0.2,0.6,0.2l0.2,0.4l0.2,0.1c0.3,0,0.6-0.1,0.9-0.3l0.3-0.1
		c0.2-0.1,0.3-0.3,0.2-0.4l-0.1-0.1l-0.3-0.1c-0.4-0.2-0.7-0.4-1.1-0.7l-0.2-0.2c1.1,0.2,2.5,0.4,4.2,0.5c0.2,0,0.5-0.1,0.8-0.3
		c0.3-0.3,1.4-1,3.1-2.2c0.3-0.3,0.5-0.6,0.6-1c-0.2-0.1-0.3-0.3-0.4-0.6c-0.1-0.3-0.2-0.5-0.2-0.7c0-0.2,0-0.3,0-0.5
		c0-0.1,0-0.3-0.1-0.4c-0.1-0.1-0.2-0.1-0.4-0.1c-0.3,0-0.7,0-1.1,0c-0.2,0-0.3-0.1-0.3-0.1l0-0.4c0-0.2,0-0.2-0.1-0.2
		c-0.5,0.1-0.7,0.2-0.8,0.3c-0.1,0.1-0.1,0.3,0,0.5c0.1,0.1,0.2,0.2,0.2,0.4c-0.1,0.7-0.1,1.1-0.2,1.4c-0.8,0.6-1.3,1-1.5,1.1
		c-0.2,0.1-0.7,0-1.5-0.1c-0.2-0.1-0.3-0.4-0.4-0.7c0.3-0.2,0.5-0.3,0.8-0.6c0.2,0,0.4-0.1,0.5-0.1c0.1,0,0.2-0.2,0.2-0.4
		c0.1-0.1,0.2-0.2,0.3-0.3l0.9-1.1c0.3-0.2,0.6-0.4,0.9-0.4c0.4,0,0.9-0.3,1.6-0.7c0.1-0.1,0.1-0.3,0-0.5c0.2-0.1,0.5-0.4,1-1
		c0.2-0.2,0.2-0.5,0.1-0.8c0.4-0.5,0.6-0.9,0.7-1.2c0-0.3,0-0.5,0-0.8c0.2-0.1,0.3-0.2,0.4-0.3c0.1-0.1,0.1-0.2,0.1-0.4
		c0-0.2-0.1-0.3-0.2-0.4C26,14.6,26,14.2,25.8,13.9z M11.4,1.5c0,0.2-0.1,0.4-0.3,0.6c-0.4,0.3-0.8,0.6-1.3,0.9
		c-0.5,0.3-1.3,0.6-2,1V4c1-0.8,2-1.4,2.9-1.9c0.2-0.1,0.1-0.2-0.1-0.1c-0.3,0.2-0.6,0.3-1,0.6C8.8,2.9,8.2,3.3,7.6,3.7l0-0.2
		c1.2-1,2.1-1.7,2.9-2C10.9,1.5,11.2,1.5,11.4,1.5z M7.9,1.9c0.6-0.5,1.2-0.8,2-1.1c0.4-0.1,0.7-0.1,1-0.1c0.1,0,0.2,0.1,0.1,0.2
		l-0.3,0.4c-0.3,0-0.7,0.2-1.2,0.5C8.9,2.2,8.4,2.6,7.8,3.1L7.5,3.2c-0.1-0.1-0.3,0-0.6,0.1c0.9-0.8,1.8-1.4,2.5-1.8
		c0.5-0.2,0.7-0.4,0.8-0.5c-0.2,0.1-0.5,0.2-1,0.4s-1.1,0.7-2,1.4L6.3,3.7C6.8,3,7.3,2.4,7.9,1.9z M6.9,3.6c0.2-0.1,0.3-0.1,0.3-0.1
		c0,0.1,0.1,0.2,0,0.4c0,0.2-0.2,0.6-0.4,1.1L6.3,6.2C5.9,6.2,5.6,6.4,5.2,6.8c0.2-0.3,0.4-0.7,0.7-1.1c0.3-0.4,0.7-1,1.2-1.9
		c0.1-0.2,0.1-0.2,0-0.1C7,3.8,6.8,4.1,6.4,4.6C6,5.1,5.5,5.9,4.9,7c-0.2,0.3-0.6,0.9-1.3,2l0.1-0.2l0.9-1.6l0.9-1.7
		C5.9,4.6,6.4,4.1,6.9,3.6z M3.2,7.4c0.4-0.7,0.9-1.6,1.5-2.8c0.2-0.4,0.4-0.8,0.8-1.2c0.1-0.2,0-0.2-0.2,0C4.7,4,4.2,5,3.5,6.4
		l0.3-0.7C3.8,5.4,4,5.1,4.3,4.5c0.3-0.6,0.6-1,0.8-1.4s0.5-0.6,0.6-0.7C6,2.1,6.2,2,6.3,2c0.1,0,0.1,0.1,0,0.2L5.6,4.1
		c-0.5,1-1.1,2-1.9,3C3.3,7.5,3.1,7.7,3,7.8C2.9,8,2.9,8,2.8,8.1l0.1-0.3L3.2,7.4z M3.6,9.2c-0.2,0.4-0.4,0.8-0.5,1.1l-0.1,0l0.3-1
		L3.6,9.2z M2.4,11.8l0.1-0.4l0.1-0.4l0.2,0l-0.3,0.8l-0.2,0.7L2.4,11.8z M2.4,10.1c0.1-0.5,0.2-0.9,0.3-1.3L2.8,9L2.4,10.1z
		 M1.8,13.2l-0.1-0.1c-0.1-0.1,0-0.7,0.3-1.8C1.9,12.1,1.9,12.7,1.8,13.2z M1.6,12.3c-0.1-0.4,0-1.3,0.1-2.7s0.4-2.3,0.7-2.9
		c0.1-0.3,0.1-0.3,0-0.1c-0.6,1.1-1,2.7-1.1,4.7c0,0.7,0,1.3,0.1,1.6c0.1,0.3,0.2,0.5,0.4,0.6c0.1,0,0.1,0,0.2,0c0,0-0.1,0.3,0,0.3
		c-0.3-0.1-0.5-0.3-0.6-0.6C1.2,12.9,1.1,12.5,1,12c-0.1-0.5-0.2-1-0.1-1.7C0.9,9.6,1,8.8,1.2,8.1c0.3-1,0.8-2,1.6-2.9
		C2.9,4.9,3.1,4.9,3.1,5c0,0.4,0,0.8,0,1.2C3,6.6,2.9,7,2.8,7.5c-0.4,1.3-0.6,2.2-0.7,2.7C1.9,10.7,1.7,11.4,1.6,12.3z M2,13.8v-0.2
		c0.4-0.4,0.3-0.8,0.5-1.2L3,11l0.6-1.5C4,8.8,4.5,8.1,5.1,7.2c0.4-0.4,0.7-0.6,1-0.7c0.1,0.1,0.1,0.3,0,0.6C6,7.5,5.9,7.8,5.7,8.2
		c0,0,0,0,0,0C5,9.4,4.4,10.3,3.7,10.9l1.1-1.7l0.5-0.9c0.2-0.4,0.2-0.5,0.1-0.4c-1,1.6-1.7,2.5-1.9,2.9c-0.2,0.4-0.4,0.8-0.6,1.1
		c-0.2,0.4-0.4,0.6-0.5,0.8C2.4,12.9,2.4,13.3,2,13.8z M6.2,14.4c0,0.5-0.1,1-0.3,1.7c0-0.6,0-0.9-0.1-1.1l0.1-0.4
		c0-0.1,0-0.1-0.1,0l-0.1,0.2l0-0.3L6,14.2C6.1,14,6.2,14.1,6.2,14.4z M5.9,13.6c0.1,0,0.2,0,0.1,0.2l-0.3,0.4c0-0.2,0-0.3-0.1-0.4
		C5.7,13.7,5.8,13.6,5.9,13.6z M4.7,14.3C4.9,13.5,5.1,13,5.3,13c0.1,0.3,0.2,0.9,0.3,1.7c0.1,0.8,0.1,1.5,0,2.2
		c-0.1,0.8-0.2,1.4-0.4,1.7L5,18.9c0-0.6,0-1.2,0-1.6c0-0.4,0-0.9,0-1.6c0-0.7,0.1-1.4,0.1-2.3c0-0.2,0-0.3,0-0.1
		c-0.2,0.9-0.3,2-0.3,3.3l0,0.9l0,1.2l-0.2-0.2c-0.1-0.7-0.2-1.5-0.2-2.3C4.5,15.6,4.5,15,4.7,14.3z M3.3,16.9
		c0.2-0.8,0.6-1.5,1.2-2.4c-0.1,0.4-0.2,0.7-0.2,0.9c-0.5,0.8-0.8,1.6-1.1,2.3c-0.1,0.2-0.1,0.5-0.2,0.8C3.1,18.3,3.2,17.7,3.3,16.9
		z M4.3,18.2L4,17.8l0.2-0.6C4.2,17.5,4.3,17.8,4.3,18.2z M7.5,24.6L7.7,24l0.7,0.5L7.5,24.6z M9.2,24.3L8,23.6l-1.1-0.7l-0.2-0.3
		c-0.1-0.1-0.1-0.1-0.3,0c-0.1,0-0.2,0-0.3-0.2c-0.3,0.2-0.6,0.1-0.8-0.2l-0.5-0.6l-0.5-0.8l-0.2-0.1c-0.1,0.1-0.2,0.1-0.3,0.1
		c-0.2,0-0.4-0.2-0.7-0.4c-0.1-0.1-0.5-0.7-0.9-1.6C1.7,17.5,1.3,16.6,1,16c-0.2-0.5-0.3-0.8-0.3-1c-0.1-0.1-0.1-0.1-0.1,0
		c0,0.1,0.1,0.4,0.2,0.9c0.1,0.4,0.4,1.1,0.8,2c0.3,0.7,0.7,1.3,1,1.9c-0.8-0.8-1.3-1.6-1.7-2.3c-0.3-0.7-0.6-1.4-0.7-2
		c-0.1-0.2-0.1-0.5-0.1-1c0-0.4,0-0.7,0-0.7c0.1-0.2,0.1-0.2,0.2-0.2c0.1,0,0.2,0.1,0.4,0.4c0.2,0.3,0.5,1,0.9,2
		c0.4,1,0.6,1.7,0.7,2c0.1,0.3,0.2,0.6,0.3,0.8C2.9,19,3,19.3,3.1,19.5c0.2,0.4,0.4,0.6,0.6,0.8c0.2,0.2,0.4,0.2,0.5,0.1l-0.6-1
		c-0.1,0-0.1,0-0.2,0c0,0,0,0,0,0c0,0,0,0,0,0c0,0,0,0-0.1,0c0,0,0,0-0.1,0c0,0,0,0,0,0c0,0,0,0,0,0c0,0,0,0,0-0.1c0,0,0,0,0-0.1
		c0-0.1,0-0.1,0-0.2c0-0.2,0.1-0.5,0.2-1c0.2-0.8,0.6-1.5,1-2.3c-0.1,0.3-0.1,0.6-0.1,0.8c-0.4,0.9-0.7,1.5-0.8,2.1
		c-0.1,0.4-0.1,0.6,0,0.6l0.1-0.1l-0.1-0.2l0.1-0.2L3.7,19L3.8,19l0.1,0.1l-0.1,0.1l0.7,1l0.2-0.1l0.1,0.1c-0.2,0.2-0.3,0.3-0.2,0.4
		c0.2,0.3,0.4,0.6,0.5,0.8c0.3,0.5,0.6,0.6,0.8,0.4c0.1-0.1,0.1,0,0.2,0c0.1,0.1,0.2,0.2,0.3,0.5l0-0.4l-0.6-0.5l-0.3-0.6
		c-0.3-0.4-0.5-0.7-0.6-0.9c-0.1-0.2-0.3-0.5-0.4-0.7c-0.2-0.3-0.4-0.6-0.6-1l0-0.2l0.5,0.6c0.4,0.6,0.8,1,0.9,1.3
		c0.2,0.3,0.3,0.4,0.3,0.2l0.1-0.3l0.1,0.1l-0.1,0.6l0,0.2c0,0.1,0,0.2,0.1,0.3c0.1,0,0.1,0.1,0.2,0.3c0,0.1,0.2,0.3,0.5,0.6
		c0.3,0.3,0.6,0.6,0.9,0.8c0.3,0.2,0.6,0.4,0.8,0.5c0.2,0.1,0.3,0.3,0.3,0.4l0.3,0.1l-0.1-0.4l0.2,0c0.1,0.1,0.2,0.2,0.2,0.3
		c0.3,0.2,0.5,0.4,0.7,0.5L9.2,24.3z M4.1,19.2L4.1,19.2l0.5,0.6l0,0.1L4.1,19.2z M4.8,20.7L5,20.5l0.4,0.6l0.2,0.4l0.1,0.2
		c-0.1-0.1-0.3-0.2-0.4-0.3l-0.2-0.3L4.8,20.7z M10.2,24.1l-0.7-0.5c-0.3-0.3-0.5-0.6-0.6-0.7c-0.1-0.1-0.2-0.2-0.4-0.3
		c-0.2-0.1-0.3-0.1-0.4-0.1c-0.1,0-0.1,0.1-0.2,0.3l0,0c0-0.2,0.1-0.3,0.2-0.3c0.1,0,0.2,0,0.3,0l0.7,0.4l1.3,0.5
		c0.3,0.3,0.5,0.6,0.6,0.7C10.8,24,10.5,24.1,10.2,24.1z M10.6,27.3c-0.4,0.4-0.9,0.8-1.5,1.2l-0.2-0.1c0.3-0.2,0.8-0.5,1.4-1
		l0.3-0.3l-0.1,0c-0.2,0.2-0.4,0.4-0.7,0.5c-0.3,0.2-0.5,0.4-0.9,0.5l-0.4,0.2l0.1,0.1l0.3,0c0.2,0.1,0.3,0.2,0.2,0.4
		C9,29.1,8.8,29.1,8.6,29l-0.4-0.2c-0.1-0.1-0.3-0.2-0.4-0.3l-0.2-0.1l0.1-0.1l0.5,0.2h0.1l-0.1-0.3l0.6-0.3C9,27.8,9,27.7,9,27.6
		l0-0.3c0.2,0.1,0.5,0,0.8-0.1c0.3-0.1,0.5-0.2,0.8-0.2C10.8,27.1,10.8,27.2,10.6,27.3z M17.1,3.2l0-0.4L16.8,3
		C16.5,3,16.2,3,16,2.7c-0.2,0-0.3,0-0.2-0.2c0.1-0.2,0.1-0.2-0.1-0.2l-0.4,0c-0.3,0-0.5-0.1-0.6-0.2c-0.1-0.1,0-0.2,0.1-0.4
		c-0.3-0.1-0.5-0.2-0.5-0.4c-0.1-0.1,0-0.2,0.1-0.3c0.1-0.1,0.4-0.1,0.8,0c-0.1-0.1-0.1-0.2-0.1-0.4c0-0.1,0.3-0.1,0.8,0.2l0.3,0.2
		c0.1-0.2,0.2-0.2,0.4-0.1c0.2,0.1,0.5,0.2,0.7,0.4c0.2,0.2,0.4,0.4,0.7,0.7c0.2-0.1,0.4-0.1,0.5,0.1l0,0.4c-0.2-0.2-0.5-0.2-0.8,0
		l-0.2-0.1c-0.3-0.4-0.5-0.6-0.5-0.8c-0.1-0.2-0.1-0.3-0.1-0.1c0,0.2,0.1,0.5,0.4,0.8c-0.5-0.1-0.8-0.3-1-0.6
		C16,1.4,15.8,1.2,15.7,1c-0.1-0.2-0.2-0.2-0.1,0c0.1,0.2,0.3,0.4,0.5,0.6c-0.2-0.1-0.3-0.1-0.5-0.2c-0.4-0.2-0.7-0.2-0.9-0.2
		c-0.1,0-0.1,0,0,0.1c0.4,0.1,0.7,0.2,0.9,0.3c0.2,0.1,0.3,0.2,0.4,0.2c-0.3,0.1-0.6,0.2-0.9,0.2c-0.2,0-0.3,0-0.3,0
		c0,0,0.1,0,0.2,0.1c0.4,0,0.7,0,1.1-0.1c0.3,0.1,0.6,0.3,1,0.4c-0.2,0.1-0.4,0.2-0.7,0.3c-0.1,0.1,0,0.1,0.1,0
		c0.2-0.1,0.4-0.2,0.7-0.2l0.3,0.1c0,0.3,0,0.6,0.2,0.8l-0.2,0.1L17.1,3.2z M18.8,4.9c-0.6,0-0.7,0-0.7-0.1c0-0.1,0-0.1,0.2-0.2
		l0.1-0.2C18,4.2,17.7,4,17.7,3.6L18,3.5c0.1-0.1,0.1-0.3,0-0.3c-0.1-0.1-0.2-0.3-0.2-0.6c0.1-0.2,0.4-0.2,0.8,0
		c0.2-0.4,0.4-0.5,0.7-0.3c-0.3,0-0.5,0.1-0.5,0.4c0,0.2,0,0.4,0,0.6c-0.1-0.1-0.2-0.3-0.4-0.4c-0.3-0.1-0.3-0.1-0.2,0
		c0.2,0.2,0.3,0.4,0.5,0.5c-0.2,0.2-0.5,0.3-0.7,0.2c-0.1,0-0.1,0.1,0,0.1c0.1,0,0.3,0,0.4,0c0,0.2,0,0.4,0.1,0.6
		c0.1,0.1,0.2,0.3,0.4,0.4C18.9,4.8,18.8,4.8,18.8,4.9z M19.1,5.2c0-0.1,0.1-0.2,0.3-0.2c0.2,0,0.3-0.1,0.1-0.2
		c-0.3-0.1-0.5-0.3-0.7-0.5c-0.1-0.2-0.1-0.3,0-0.4l0.2-0.1l0.1-0.1L19,3.2c0-0.3,0-0.5,0.2-0.6c0.3,0,0.6,0,0.8,0.2
		c0-0.1,0.1-0.2,0.3-0.1c0.2,0.1,0.3,0.4,0.5,1.2l0.2,0.1c0.1-0.2,0.1-0.3,0.2-0.3c0.1,0,0.2,0.2,0.2,0.5c0.2,0.2,0.3,0.5,0.3,0.9
		c-0.1,0.2-0.2,0.4-0.2,0.6l-0.1-0.3c-0.1-0.3-0.1-0.6-0.1-1c0-0.1,0-0.1,0,0c0,0.3,0,0.6,0,0.8c-0.3-0.4-0.6-0.7-0.9-1
		c-0.1-0.2-0.1-0.5-0.1-0.8c0-0.2-0.1-0.3-0.1-0.2c0,0.3,0,0.6,0,0.9c-0.2-0.2-0.5-0.6-0.8-1C19.4,3,19.4,2.9,19.4,3
		C19.6,3.4,19.8,3.7,20,4c0.2,0.2,0.4,0.4,0.5,0.6c-0.3-0.1-0.5-0.1-0.7-0.2c-0.2,0-0.4-0.1-0.5-0.2c-0.2,0-0.1,0,0,0.1
		c0.1,0.1,0.3,0.1,0.6,0.2c0.3,0.1,0.5,0.1,0.8,0.3c0.1,0.1,0.3,0.3,0.5,0.6l0.2,0.4c-0.3-0.2-0.6-0.3-1-0.3
		c-0.3-0.1-0.6-0.1-0.6-0.2c-0.3-0.1-0.3-0.1-0.1,0c0.1,0.1,0.3,0.1,0.7,0.2c0.4,0.1,0.7,0.2,1.1,0.4l0,0.1
		c-0.1,0.1-0.1,0.2-0.1,0.3l0.1,0.3c-0.1-0.1-0.2-0.1-0.4,0.2c0.1-0.1,0-0.3,0-0.4c-0.1-0.2-0.5-0.4-1.1-0.7L20,6
		C19.5,5.9,19.3,5.6,19.1,5.2z M22.9,12.9c-0.1-0.2-0.3-0.4-0.5-0.7c-0.2-0.3-0.3-0.6-0.4-0.8c-0.1-0.2-0.1-0.4,0-0.6
		c0.1-0.2,0.1-0.4,0.2-0.5c0-0.1,0-0.1,0-0.1c-0.1,0.2-0.2,0.4-0.3,0.6l-0.3-0.9c0-0.3,0.2-0.8,0.6-1.3c0.1-0.2,0.1-0.2,0,0
		c-0.3,0.4-0.5,0.8-0.6,1.3L21,8.7c0-0.2,0.1-0.6,0.4-1.1c0.1-0.3,0.1-0.3-0.1,0c-0.2,0.3-0.3,0.6-0.4,0.9c-0.1-0.6-0.3-1.1-0.4-1.5
		l-0.1,0l0.1,0.2c0.1,0.5,0.2,1,0.3,1.3c-0.2-0.2-0.4-0.3-0.7-0.4C20,8,20,8,20.1,8.1c0.3,0.2,0.5,0.4,0.7,0.5
		c0.1,0.3,0.2,0.6,0.3,0.8c-0.2-0.1-0.5-0.3-0.9-0.5c-0.2,0-0.2,0,0,0.1c0.6,0.2,0.9,0.4,1,0.7l0.3,0.8c-0.1,0-0.3-0.2-0.4-0.5
		c-0.2-0.3-0.5-0.6-1.2-0.8c-0.1-0.1-0.2-0.2-0.2-0.3c0-0.1,0.1-0.2,0.4-0.1C20,8.5,20,8.4,19.9,8.3l-0.1-0.2
		c-0.2-0.3-0.1-0.5,0.3-0.5c-0.1-0.2-0.2-0.4-0.1-0.5c0-0.2,0-0.4,0.1-0.6c0.1-0.1,0.1-0.2,0.1-0.4c0.2,0.1,0.4,0.2,0.5,0.3
		C20.9,6.5,21,6.7,21,6.9l-0.1,0.5c0,0.1,0.1,0.1,0.2-0.1c0.1-0.2,0.2-0.3,0.3-0.3c0.1,0.1,0.2,0.1,0.3,0.3c0.1,0.2,0.1,0.6-0.1,1.1
		l-0.2,0.4C21.9,8.2,22.2,8,22.4,8c0.1,0.1,0.1,0.2,0.1,0.3c0,0.2,0,0.3,0,0.5c0,0.2,0,0.3-0.2,0.4C22.1,9.4,22,9.6,22,9.9
		c0.3-0.2,0.5-0.2,0.4,0.1l-0.2,0.7c-0.1,0.3,0,0.5,0.2,0.4c0.2,0,0.2,0,0.3,0.1c0,0.1,0,0.2,0,0.3c-0.1,0.2-0.1,0.4-0.1,0.4
		c0,0.1,0,0.1,0.1,0.2c0,0,0.1,0,0.3,0c0.2-0.1,0.2,0,0.2,0.1c0,0.2,0,0.3,0,0.5c0,0.1,0.1,0.3,0.1,0.4c0.1,0.1,0.2,0.2,0.3,0.2
		l0.1-0.2c-0.2,0-0.3-0.1-0.3-0.4c0-0.3,0-0.5,0-0.6c-0.1-0.2-0.2-0.3-0.2-0.3c-0.1,0-0.3-0.5-0.6-1.5l0.3,0
		c0.2,0.9,0.4,1.3,0.6,1.4c0.1,0.1,0.2,0.1,0.2,0.2c0,0.1,0,0.3,0.1,0.6c0.2-0.1,0.3-0.2,0.3-0.5c0.1-0.3,0-0.5-0.2-0.6
		c-0.2-0.1-0.3-0.2-0.4-0.3c-0.1-0.2,0-0.3,0.2-0.3c0.1-0.1-0.2-0.3-0.8-0.7c-0.3-0.2-0.4-0.4-0.3-0.6c0.1-0.1,0.1-0.1,0.3,0
		c0.1,0.1,0.2,0.1,0.3,0.1c0.1-0.1,0-0.2-0.2-0.3C22.8,9,22.7,9,22.7,8.9c0-0.3,0-0.5,0-0.6c0-0.1,0-0.2,0-0.4
		c-0.1-0.2-0.3-0.2-0.6,0c0.1-0.2,0.1-0.3,0.1-0.5C22,7.2,22,7,21.8,6.9l-0.2-0.5c0-0.2,0.1-0.3,0.3-0.3c-0.1-0.3-0.1-0.5,0-0.7
		C22,5.2,22.1,5.1,22.1,5c0-0.1,0.1-0.1,0.3,0c0.2,0.1,0.4,0.3,0.7,0.8c0.2-0.2,0.3-0.1,0.5,0.2c0.2,0.3,0.3,0.6,0.2,1
		c0.4-0.2,0.5-0.1,0.4,0.4c0.2,0.3,0.3,0.6,0.3,0.8c0,0.2,0,0.4-0.1,0.5c-0.1,0.2-0.1,0.3-0.1,0.4c0,0.1,0,0.1,0.1,0
		c0.1-0.1,0.2-0.2,0.4-0.2C25,9.2,25,9.4,25,9.5c0,0.1-0.1,0.2-0.2,0.4c-0.1,0.1-0.2,0.3-0.2,0.5c0,0.1,0,0.1,0.1,0.1l0.3-0.1
		c0.1,0,0.1,0.1,0,0.3c-0.1,0.3-0.2,0.5-0.3,0.7c-0.1,0.2-0.1,0.3-0.1,0.4c0,0.2-0.1,0.4-0.1,0.4c0-0.3,0-0.6,0-0.9
		c0-0.3-0.1-0.7-0.2-1.1c0.1-0.1,0.2-0.3,0.3-0.7c0.1-0.2,0.1-0.2,0-0.1c-0.1,0.3-0.2,0.5-0.3,0.6c-0.1-0.4-0.2-0.8-0.4-1.4
		c0.2-0.3,0.3-0.6,0.3-1c0-0.3,0-0.4-0.1-0.1C24,8,23.9,8.3,23.7,8.5c-0.1-0.4-0.3-0.8-0.4-1.2c0.1-0.2,0.1-0.5,0.1-0.8
		c0-0.3,0-0.3-0.1,0c0,0.2,0,0.4-0.1,0.6l-0.3-0.9l-0.2-0.5c-0.1-0.2-0.1-0.2-0.1,0l0.2,0.6c-0.2-0.2-0.3-0.3-0.4-0.4
		c-0.1-0.1-0.2-0.1-0.1,0c0.2,0.2,0.4,0.4,0.6,0.6c0.1,0.3,0.3,0.7,0.4,1c-0.4-0.3-0.7-0.5-0.8-0.6c-0.2-0.1-0.2,0,0,0.1
		c0.3,0.2,0.6,0.5,1,0.9c0.1,0.4,0.2,0.7,0.4,1.1c-0.2-0.1-0.4-0.3-0.7-0.7c-0.1-0.1-0.1-0.1,0,0.1c0.2,0.3,0.5,0.6,0.8,0.9l0.2,0.9
		c-0.2-0.2-0.5-0.5-0.9-0.7c-0.2-0.1-0.2-0.1,0,0.1c0.3,0.2,0.7,0.6,1,1.1c0.1,0.3,0.1,0.8,0.1,1.6c0,0.2-0.2,0.3-0.4,0.4l-0.1,0.7
		l-0.4,0C23.2,13.3,23,13,22.9,12.9z M23.4,13.6c0.1,0,0.2,0,0.3,0c-0.1,0.8-0.3,1.6-0.4,2.2l-0.2-0.1
		C23.3,14.9,23.4,14.1,23.4,13.6z M20.7,18c-0.1,0-0.2-0.2-0.5-0.4c-0.3-0.2-0.3-0.4-0.2-0.6c-0.1-0.1-0.1-0.2-0.2-0.3
		c-0.1-0.1,0-0.2,0-0.4c0.1-0.1,0.3-0.1,0.6,0.2c0.1-0.2,0.1-0.3,0-0.5c-0.1-0.2-0.1-0.3-0.2-0.5c-0.1-0.2-0.3-0.5-0.4-0.6
		c-0.1-0.2-0.1-0.4-0.1-0.4c0.1,0,0.2,0,0.3,0.1c0.3-0.3,0.4-0.4,0.5-0.2c0.1,0.1,0.1,0.3,0.2,0.6c0.1,0.3,0.1,0.6,0,0.9l-0.1,0.1
		l0.1,0.1c0,0.1,0,0.3-0.1,0.7c0,0.1,0,0.2,0.1,0.2c0-0.1,0-0.2,0-0.3c0-0.1,0-0.2,0.1-0.4c0.1-0.2,0.1-0.3,0.1-0.3c0,0,0,0-0.1-0.1
		c0.1,0,0.1-0.1,0.1-0.1c0-0.1,0-0.1,0-0.2c0-0.1,0-0.2,0-0.5c0-0.3,0-0.5-0.1-0.6c0-0.1-0.1-0.2-0.1-0.3c0-0.1-0.1-0.1-0.2-0.1
		c-0.1,0-0.3,0.1-0.5,0.3c0.1-0.4,0.2-0.7,0.3-0.9c0.1-0.1,0.2-0.2,0.3-0.1c0.1,0.1,0.2,0.1,0.2,0.2c0,0.1,0.1,0.1,0.1,0
		c0.1-0.1,0.1-0.1,0.2-0.1c0,0,0.1,0.1,0.1,0.2c0,0.1,0.1,0.2,0.1,0.3c0,0.1,0,0.3,0.1,0.6c0,0.3,0,0.5-0.1,0.5
		c-0.1,0.1-0.1,0.2-0.1,0.3c0,0.5,0.1,0.8,0.1,0.8c0.1,0,0.1,0,0.2-0.1c0.1-0.1,0.2-0.1,0.2-0.1c0.1,0,0.1,0.2,0.1,0.4
		c0,0.3,0,0.3,0.1,0.1c0-0.2,0.1-0.3,0.2-0.3c0.1,0,0.1,0.3,0.1,0.9c-0.4,0.4-0.7,0.7-0.9,0.9c-0.1-0.3-0.1-0.4,0-0.5
		c0.1-0.1,0.1-0.2,0.2-0.3c0-0.1,0.1-0.2,0.1-0.3c0.1-0.2,0.1-0.3,0-0.1c-0.1,0.1-0.1,0.2-0.2,0.3c0,0.1-0.1,0.2-0.2,0.3
		c0-0.2-0.1-0.5-0.2-0.9C21,16,21,16,21,16.3c0.1,0.5,0.1,1,0.2,1.4c-0.2-0.2-0.4-0.3-0.5-0.5c-0.2-0.1-0.3-0.3-0.5-0.4
		c-0.1-0.1-0.1-0.1-0.1,0c0.1,0.2,0.3,0.4,0.5,0.6c0.2,0.2,0.4,0.4,0.4,0.4c0.1,0.1,0.1,0.1,0.1,0.2c-0.1,0.1-0.2,0.3-0.3,0.4
		c-0.1,0-0.1-0.1-0.1-0.2C20.8,18.1,20.7,18.1,20.7,18z M15.1,23.7c0.1-0.1,0.3-0.3,0.5-0.4c0.9-0.4,1.5-0.7,1.7-0.8
		c0.1,0,0.1,0,0.1,0l0.1,0.2l-0.2,0.1c-0.1,0.1-0.2,0.1-0.4,0.1c-0.1,0-0.3,0-0.5,0.1c-0.2,0.1-0.4,0.2-0.4,0.4
		c0,0.1-0.1,0.2-0.2,0.2c-0.2,0.1-0.4,0.2-0.6,0.3l-0.5,0L15.1,23.7z M16.4,24.2L16.4,24.2L16.4,24.2c-0.1,0-0.2,0-0.2,0l-0.5-0.1
		l0.5-0.3L16.4,24.2C16.4,24.1,16.4,24.1,16.4,24.2l-0.1-0.4c-0.1-0.2,0-0.3,0.2-0.4c0.2-0.1,0.3-0.2,0.5-0.2c0.1,0,0.1,0.1,0,0.4
		C17.1,23.8,16.8,23.9,16.4,24.2L16.4,24.2z M14.2,26.2l-0.1-0.2l-0.4,0.5l-0.3,0.2c-0.2,0.1-0.3,0.2-0.5,0.2l-0.5-0.3l0.3-0.1
		l0.1,0.1c-0.1,0.2,0,0.1,0.2-0.1l0.5-0.5c0-0.3,0-0.6-0.2-1.1c-0.2-0.4-0.3-0.7-0.4-0.8c0-0.1-0.3-0.1-0.7-0.1
		c0.3-0.1,0.6-0.1,0.9,0l0.4,0.2l0.2-0.1l0,0l-0.3-0.2l0.2,0l0.2,0.1l0,0l0,0l0.1,0.1c0.5,0.6,0.8,1,0.9,1.2c0.1,0.2,0.1,0.4,0,0.6
		C14.4,26.1,14.3,26.2,14.2,26.2z M17.9,28.4l0.2,0L18,28.5l-0.4,0.1c-0.2,0.2-0.4,0.3-0.6,0.3l-0.3,0l-0.1-0.2
		c0.1-0.1,0.1-0.2,0.2-0.2c0.1,0,0.2-0.1,0.4-0.1l0.4,0.1L17.9,28.4z M17.3,28.3c-0.3,0-0.5,0.2-0.5,0.2h-0.2
		c-0.3-0.4-0.5-0.5-0.7-0.7l-0.7-0.6c0.1-0.1,0.4,0,0.9,0.1L17.3,28.3z M19.5,25.1c0.3,0,0.5,0,0.7,0c0.3-0.1,0.8-0.5,1.7-1.3
		c0.8-0.6,1.5-1.1,2.1-1.3c0.2-0.1,0.2-0.2,0-0.2c-0.2,0-0.4-0.1-0.7-0.1c-0.1,0.1-0.1,0.1,0,0.2c0.1,0,0.2,0,0.3,0
		c-0.7,0.4-1.3,0.7-1.7,1.1c0-0.2,0.1-0.6,0.1-1.2c0-0.2-0.1-0.3-0.2-0.5c-0.1-0.1,0-0.2,0.3-0.3l0.2-0.1v0.3l-0.3-0.1l0,0.2
		c0.1,0.1,0.2,0.2,0.3,0.2l0.8,0l0.4,0c0.4,0,0.6,0.1,0.6,0.3c0,0.2,0,0.4,0,0.6c0.1,0.4,0.2,0.9,0.5,1.3c-0.1,0.2-0.2,0.4-0.4,0.6
		l-0.8,0.5c-0.7,0.5-1.6,1.1-2.8,1.9c-0.8,0-1.9,0-3-0.2c-0.9-0.1-1.8-0.3-2.9-0.6l-0.2-0.1l0.1-0.1c0.2-0.2,0.3-0.4,0.3-0.5
		c0-0.1,0-0.3-0.1-0.5c-0.1-0.3-0.2-0.6-0.6-1v-0.1l0.2,0c0.6,0,1.2,0.1,1.7,0.2c0.5,0.1,1.1,0.2,1.8,0.3C18.7,25,19.2,25,19.5,25.1
		z M18.4,24.7c-0.3,0-0.7-0.1-1.3-0.2l0.5-0.2c0.3,0.1,0.5,0,0.5-0.2C18.1,24.3,18.2,24.5,18.4,24.7z M21.6,20.1
		c-0.2,0.2-0.3,0.5-0.2,0.7c-0.3,0.2-0.6,0.4-0.8,0.7c-0.3,0.3-0.5,0.6-0.6,0.8c-0.1,0.2-0.3,0.3-0.4,0.4c-0.2,0.1-0.4,0-0.6-0.1
		l-0.1,0.4l-1,0.6l-0.5,0.2c0-0.1,0.1-0.3,0.1-0.5l0.2-0.2c0.7-0.4,1.1-0.7,1.2-1c0.1-0.3,0.3-0.5,0.5-0.6c0.2-0.2,0.3-0.4,0.4-0.6
		l0-0.4l0-0.4c0.2,0.2,0.3,0.2,0.4,0.1c0.2-0.4,0.4-0.8,0.7-1.1c0.2-0.3,0.5-0.7,0.8-1c0.3-0.3,0.5-0.6,0.7-0.8l0,0.4
		c-0.6,0.8-1,1.3-1.2,1.6c-0.5,0.8-0.9,1.4-1.1,1.9c-0.1,0.3-0.3,0.5-0.5,0.6c-0.2,0.1-0.3,0.2-0.4,0.3c-0.1,0.1,0,0.2,0.1,0.1
		c0.1-0.1,0.2-0.2,0.3-0.2c0.2-0.1,0.7-0.6,1.5-1.6l0-0.5l0.2-0.3c0,0.3,0,0.5,0.1,0.5c0.1,0,0.1-0.1,0.3-0.3
		c0.1-0.2,0.4-0.8,0.8-1.7c-0.1,0.3-0.1,0.5,0,0.7c-0.2,0.2-0.3,0.5-0.2,0.9L21.6,20.1z M25,16.7c0,0.3-0.1,0.5-0.3,0.7
		c-0.4,0.5-0.6,0.8-0.5,0.9c0.1,0.2,0.1,0.4-0.1,0.7c-0.2,0.3-0.5,0.6-0.9,0.9c0.1,0.2,0,0.4-0.2,0.5c-0.3,0.2-0.6,0.3-1,0.4
		c0.7-0.5,1.1-1,1.2-1.6c0.2-0.2,0.4-0.3,0.6-0.4c0.1-0.1,0.2-0.1,0.1-0.1c-0.2,0.1-0.4,0.2-0.6,0.3c0.2-0.4,0.3-0.8,0.4-1.3
		c0.4-0.4,0.7-0.7,0.8-0.9c0.1-0.2,0.1-0.3,0-0.1c-0.2,0.3-0.4,0.5-0.7,0.8c0.1-0.4,0.3-0.9,0.4-1.5c0.1-0.3,0-0.4,0-0.2l-0.2,0.5
		c-0.1-0.2-0.2-0.4-0.2-0.5l0.2,0.6c0,0.3-0.1,0.6-0.3,1.1c-0.1-0.4-0.3-0.8-0.6-1.1c-0.2-0.3-0.3-0.3-0.1,0
		c0.2,0.3,0.4,0.8,0.6,1.3c-0.1,0.5-0.3,0.9-0.4,1.2c-0.1-0.2-0.3-0.3-0.4-0.4c-0.1-0.1-0.1,0,0,0.1c0.1,0.1,0.2,0.3,0.3,0.4
		c-0.1,0.3-0.3,0.6-0.5,0.8c-0.2,0.2-0.4,0.4-0.6,0.6c0.2-0.4,0.3-0.8,0.2-1.3c0-0.1,0.1-0.1,0.2-0.2c0.1-0.1,0.2-0.1,0.1-0.2
		c-0.1-0.2-0.2-0.4-0.2-0.5c0.1,0,0.2,0,0.4,0c0.1-0.1,0.1-0.2,0-0.4c-0.2-0.2-0.3-0.4-0.3-0.7c0-0.2,0.1-0.3,0.4-0.2
		c0.1,0,0.1-0.1,0-0.4l-0.3-0.4c-0.2-0.4-0.1-0.6,0.2-0.4l0.4,0.2c0.3,0.1,0.4-0.1,0.4-0.5c0-0.1,0.1-0.1,0.2-0.1
		c0.2,0.1,0.3-0.1,0.4-0.4c0.1-0.1,0.2,0,0.3,0.4c0,0.5,0.1,0.8,0.4,0.8C25.1,16.3,25.1,16.4,25,16.7z M25.5,15.4
		c0,0.1,0,0.2-0.1,0.3c-0.1,0.1-0.2,0.1-0.4,0.2l-0.2-0.3c0-0.2-0.1-0.5-0.2-0.7c0.1-0.1,0.2-0.1,0.3-0.2c0.1-0.1,0.1,0-0.1,0
		c-0.2,0-0.3,0.2-0.4,0.2h0c0.1-0.4,0.2-0.7,0.4-1c0.1-0.1,0-0.2-0.1,0c-0.2,0.2-0.3,0.5-0.5,0.8c-0.1-0.1-0.1-0.2-0.1-0.3
		c0-0.2-0.1-0.2-0.1,0c0,0.2,0.1,0.4,0.1,0.5c-0.2,0.4-0.4,0.5-0.5,0.4c0.1-0.5,0.2-1,0.3-1.6c0.2-0.2,0.4-0.3,0.6-0.2
		c0.2-0.2,0.5-0.2,0.6-0.1c0.1,0.2,0.1,0.3,0.1,0.5c0,0.1-0.1,0.3-0.2,0.5c0.2,0,0.3,0.1,0.3,0.2c-0.1,0.4-0.2,0.6-0.5,0.8
		C25.4,15.2,25.5,15.2,25.5,15.4z"/>
	<path class="st4" d="M3.9,25.2C3.9,25.2,3.9,25.2,3.9,25.2c0.2,0.2,0.4,0.1,0.5-0.1c0.1-0.2,0.1-0.3-0.1-0.4
		c-0.1-0.1-0.1-0.1-0.1,0L3.9,25.2L3.9,25.2z M1.8,23.8c0.2,0.1,0.3,0.2,0.5,0c0.1-0.1,0.1-0.3,0-0.4c0,0-0.1-0.1-0.1-0.1
		c0,0,0,0-0.1,0L1.8,23.8L1.8,23.8z M4.8,25.3c0-0.1,0.1-0.2-0.1-0.3l0,0C4.8,24.9,4.9,25,5,25c0.1,0,0.1,0.1,0.3,0.1l0,0
		c0,0-0.1-0.1-0.2,0c0,0.1-0.1,0.4-0.1,0.5l-0.1,0.6L5.2,26c0.1-0.1,0.3-0.3,0.4-0.4c0.1-0.1,0-0.1,0-0.2l0-0.1
		c0.1,0.1,0.1,0.1,0.2,0.1c0.1,0,0.1,0.1,0.2,0.1l0,0c-0.1-0.1-0.3,0.1-0.4,0.2l-0.9,0.8l-0.1,0L4.8,25.3L4.8,25.3z M3.7,25.5
		c0,0.1-0.1,0.2-0.1,0.3c0,0.1,0,0.1,0.1,0.2l0,0c-0.1-0.1-0.1-0.1-0.3-0.2c-0.1,0-0.1-0.1-0.2-0.1l0-0.1c0.1,0,0.1,0.1,0.2,0
		c0.1,0,0.2-0.2,0.2-0.3l0.3-0.5c0-0.1,0.1-0.2,0.2-0.3c0-0.1,0-0.1-0.1-0.2l0,0c0.1,0.1,0.2,0.1,0.3,0.2c0.1,0,0.1,0.1,0.2,0.1
		c0.2,0.1,0.3,0.3,0.2,0.5c-0.2,0.3-0.4,0.2-0.6,0.1c0,0-0.1-0.1-0.1-0.1L3.7,25.5L3.7,25.5z M2.9,24.3C2.9,24.2,3,24,3,24
		c0-0.1,0-0.1-0.1-0.2l0.1,0l0.8,0.5l-0.2,0.3l0,0c0.1-0.2,0.1-0.3-0.1-0.4l-0.1-0.1c0,0,0,0-0.1,0l-0.3,0.5
		c0.2,0.2,0.3,0.1,0.4-0.1l0,0c-0.1,0.1-0.1,0.2-0.2,0.3C3.1,24.9,3.1,25,3,25l0,0c0.1-0.2,0.1-0.3-0.1-0.4l-0.2,0.3
		c0,0.1-0.1,0.1-0.1,0.2c0,0.1,0.1,0.2,0.2,0.2c0.2,0.1,0.3,0.1,0.5-0.1l0,0L3,25.6L2.1,25l0,0c0,0,0.1,0.1,0.2,0
		c0,0,0.1-0.2,0.2-0.3L2.9,24.3L2.9,24.3z M2,24.7c0,0.1,0,0.1,0.1,0.2l0,0C2,25,2,24.9,2,24.9c0,0-0.1,0-0.1-0.1l0-0.2l0-0.6
		c0-0.1,0-0.1-0.1-0.2l-0.2,0.2c0,0.1-0.1,0.2-0.2,0.3c0,0.1,0,0.1,0.1,0.1l0,0c-0.1,0-0.1-0.1-0.2-0.1c-0.1-0.1-0.1-0.1-0.3-0.2
		l0,0c0.1,0,0.1,0.1,0.2,0c0.1,0,0.2-0.2,0.2-0.3l0.4-0.5c0,0,0.1-0.2,0.2-0.3c0-0.1,0-0.1-0.1-0.1l0-0.1c0.1,0.1,0.2,0.1,0.3,0.2
		c0.1,0,0.1,0.1,0.2,0.1c0.2,0.1,0.3,0.3,0.2,0.5C2.4,24.1,2.2,24.1,2,24L2,24.7L2,24.7z M12.1,25.2l-0.3-0.5l-0.1,0.6L12.1,25.2
		L12.1,25.2z M7.6,26.2c0,0.1,0,0.2,0.1,0.2c0,0.1,0.1,0.1,0.2,0.1C8,26.5,8,26.4,8,26.2C8,26,7.9,26,7.9,25.9c-0.1,0-0.2,0-0.2,0
		l-0.1,0L7.6,26.2L7.6,26.2z M7.5,25.8L7.5,25.8c0.1,0,0.2,0,0.2-0.1c0.1-0.1,0.1-0.2,0.1-0.3c0-0.2-0.1-0.2-0.2-0.2
		c0,0-0.1,0-0.1,0s0,0.1,0,0.1L7.5,25.8L7.5,25.8z M6.5,26.4c0,0.1,0,0.2,0.1,0.3c0,0.1,0.1,0.1,0.2,0c0.2,0,0.2-0.1,0.2-0.3
		c0-0.1-0.1-0.2-0.2-0.2c-0.1,0-0.2,0-0.3,0l0,0L6.5,26.4L6.5,26.4z M6.4,26L6.4,26c0.1,0,0.2,0,0.2-0.1c0.1-0.1,0.1-0.1,0.1-0.2
		c0-0.2-0.1-0.3-0.3-0.2c0,0-0.1,0-0.1,0l0,0.1L6.4,26L6.4,26z M11.6,25.4c0,0.1-0.1,0.3,0,0.3c0,0.1,0.1,0.1,0.2,0.1l0,0.1
		c-0.1,0-0.1,0-0.2,0c-0.1,0-0.1,0-0.2,0l0,0c0.1,0,0.1-0.1,0.2-0.2c0-0.2,0-0.3,0.1-0.4l0.1-0.9l0.1,0l0.5,1c0,0.1,0.1,0.2,0.1,0.2
		c0,0,0.1,0,0.2,0l0,0.1c-0.1,0-0.2,0-0.2,0c-0.1,0-0.2,0-0.3,0l0,0c0,0,0.1,0,0.1-0.1c0,0,0-0.1,0-0.1l-0.1-0.2L11.6,25.4
		L11.6,25.4L11.6,25.4z M11,24.5L11,24.5l0.1,0.4l0,0c-0.1-0.2-0.3-0.4-0.5-0.4c-0.3,0-0.4,0.5-0.3,0.8c0.1,0.3,0.2,0.7,0.6,0.6
		c0.2-0.1,0.3-0.3,0.3-0.6l0,0l0.1,0.5l-0.1-0.1C11.1,26,11,26,10.8,26.1c-0.4,0.1-0.7-0.2-0.8-0.6c0-0.4,0.2-0.8,0.5-0.9
		c0.2,0,0.3,0,0.4,0.1L11,24.5L11,24.5z M9.6,25.2c0-0.1,0-0.2,0-0.3c-0.1-0.1-0.1-0.1-0.2-0.1l0,0c0.1,0,0.2,0,0.3,0
		c0.1,0,0.2,0,0.3,0l0,0c0,0-0.1,0-0.1,0.1c0,0.1,0,0.2,0,0.3l0.1,0.6c0,0.1,0,0.2,0.1,0.3c0,0.1,0.1,0.1,0.2,0.1l0,0.1
		c-0.1,0-0.2,0-0.3,0c-0.1,0-0.2,0-0.3,0l0,0c0.1,0,0.1,0,0.1-0.1c0-0.1,0-0.2,0-0.3L9.6,25.2L9.6,25.2z M8.4,25.4
		c0-0.1,0-0.2,0-0.3c0-0.1-0.1-0.1-0.2,0l0-0.1c0.1,0,0.2,0,0.3,0c0.1,0,0.2,0,0.3,0l0,0.1c-0.1,0-0.1,0-0.2,0.1c0,0.1,0,0.2,0,0.3
		L8.7,26c0,0.3,0.1,0.3,0.4,0.3c0.1,0,0.2,0,0.2-0.1c0.1-0.1,0.1-0.2,0.1-0.3l0.1,0l0,0.4c0,0-0.1,0-0.1,0c-0.3,0-0.7,0.1-1,0.2l0,0
		c0.1,0,0.1,0,0.1-0.1c0-0.1,0-0.2,0-0.3L8.4,25.4L8.4,25.4z M7.3,25.6c0-0.1,0-0.2-0.1-0.3c0-0.1-0.1-0.1-0.2-0.1l0,0
		c0.1,0,0.2,0,0.3,0c0.1,0,0.1,0,0.2,0c0.2,0,0.4,0,0.5,0.3c0,0.2-0.1,0.3-0.2,0.4c0.1,0,0.2,0,0.3,0.1c0.1,0.1,0.2,0.2,0.2,0.3
		c0,0.2-0.1,0.3-0.1,0.3c-0.1,0.1-0.2,0.1-0.3,0.1c0,0-0.1,0-0.2,0c-0.1,0-0.2,0-0.3,0.1l0-0.1c0,0,0.1,0,0.1-0.1c0-0.1,0-0.2,0-0.3
		L7.3,25.6L7.3,25.6z M6.1,25.8c0-0.1,0-0.2,0-0.3c0-0.1-0.1-0.1-0.2,0l0-0.1c0.1,0,0.2,0,0.2,0c0.1,0,0.2,0,0.2,0
		c0.2,0,0.4,0,0.5,0.3c0,0.2-0.1,0.3-0.2,0.4c0.1,0,0.2,0,0.3,0c0.1,0.1,0.2,0.2,0.2,0.3c0,0.1,0,0.2-0.1,0.3
		c-0.1,0.1-0.2,0.1-0.3,0.1c-0.1,0-0.2,0-0.2,0c-0.1,0-0.2,0-0.3,0l0,0c0.1,0,0.1,0,0.2-0.1c0-0.1,0-0.2,0-0.3L6.1,25.8L6.1,25.8z
		 M17.8,26l-0.1-0.6l-0.3,0.6L17.8,26L17.8,26z M20.1,25.8c0-0.1,0-0.2,0-0.3c0-0.1-0.1-0.1-0.2-0.1v-0.1c0.1,0,0.2,0,0.3,0
		c0.1,0,0.2,0,0.3,0v0.1c-0.1,0-0.1,0-0.2,0.1c0,0.1,0,0.2,0,0.3l0.1,0.6c0,0.1,0,0.2,0,0.3c0,0.1,0.1,0.1,0.2,0.1v0
		c-0.1,0-0.2,0-0.3,0c-0.1,0-0.2,0-0.3,0v0c0,0,0.1,0,0.1-0.1c0-0.1,0-0.2,0-0.3L20.1,25.8L20.1,25.8z M18.7,25.7c0-0.1,0-0.2,0-0.3
		c0-0.1-0.1-0.1-0.2-0.1l0,0c0.1,0,0.2,0,0.2,0c0.1,0,0.2,0,0.3,0l0,0.1c0,0-0.1,0-0.2,0c0,0.1,0,0.2-0.1,0.3l-0.1,0.7
		c0,0.3,0,0.3,0.2,0.4c0.1,0,0.2,0,0.3,0c0.1-0.1,0.1-0.1,0.2-0.3h0.1l-0.1,0.4c0,0-0.1,0-0.1,0c-0.3-0.1-0.7-0.1-1-0.2v0
		c0.1,0,0.1,0,0.2-0.1c0,0,0-0.2,0.1-0.3L18.7,25.7L18.7,25.7z M17.3,26.1c0,0.1-0.1,0.2-0.1,0.3c0,0.1,0.1,0.1,0.1,0.1v0
		c-0.1,0-0.1,0-0.2,0c-0.1,0-0.1,0-0.2,0l0,0c0.1,0,0.1,0,0.2-0.1c0.1-0.1,0.1-0.3,0.2-0.4l0.4-0.8l0.1,0l0.2,1.2
		c0,0.1,0,0.2,0.1,0.3c0,0.1,0.1,0.1,0.1,0.1v0c-0.1,0-0.2,0-0.3,0c-0.1,0-0.2,0-0.3,0l0-0.1c0,0,0.1,0,0.1,0c0-0.1,0-0.1,0-0.2
		l0-0.2H17.3L17.3,26.1L17.3,26.1z M17.1,25.4L17.1,25.4c0-0.2-0.1-0.3-0.2-0.3c-0.1,0-0.2,0-0.2,0l-0.2,1.1c0,0.2,0,0.2,0.2,0.3v0
		c-0.1,0-0.2,0-0.3-0.1c-0.1,0-0.2,0-0.3,0v0c0.2,0,0.2,0,0.3-0.2l0.1-1.1c0,0-0.1-0.1-0.1-0.1c-0.2,0-0.3,0-0.3,0.2l-0.1,0l0.1-0.3
		l1.2,0.2L17.1,25.4L17.1,25.4z M15.4,25.1c0-0.1,0-0.2,0-0.3c0-0.1-0.1-0.1-0.1-0.1v-0.1c0.1,0,0.2,0.1,0.3,0.1c0.1,0,0.2,0,0.3,0
		l0,0c0,0-0.1,0-0.2,0.1c0,0.1,0,0.2-0.1,0.3l-0.1,0.7c0,0.1,0,0.2,0,0.3c0,0.1,0.1,0.1,0.1,0.1v0.1c-0.1,0-0.2,0-0.3-0.1
		c-0.1,0-0.2,0-0.3,0v0c0.1,0,0.1,0,0.2-0.1c0,0,0.1-0.2,0.1-0.3L15.4,25.1L15.4,25.1z M23.8,24.1l-0.5-0.3l0.2,0.6L23.8,24.1
		L23.8,24.1z M21.4,25.8L21,25.3l0.1,0.6L21.4,25.8L21.4,25.8z M23.5,24.5c0,0.1,0.1,0.3,0.1,0.3c0.1,0.1,0.1,0,0.2,0l0,0.1
		c0,0-0.1,0.1-0.2,0.1c0,0-0.1,0.1-0.1,0.1l0-0.1c0.1-0.1,0.1-0.1,0.1-0.2c-0.1-0.2-0.1-0.3-0.1-0.5l-0.3-0.9l0,0l1,0.7
		c0,0,0.2,0.1,0.2,0.1c0.1,0,0.1,0,0.2,0v0.1c-0.1,0-0.1,0.1-0.2,0.1c-0.1,0.1-0.1,0.1-0.2,0.2l0,0c0,0,0.1-0.1,0.1-0.2
		c0,0-0.1-0.1-0.1-0.1l-0.2-0.1L23.5,24.5L23.5,24.5L23.5,24.5z M21.7,24.7c-0.1,0-0.2,0-0.2,0l0-0.1c0.1,0,0.1,0,0.1-0.1
		c0,0,0.1,0,0.1-0.1l1.4,0.5l-0.4-0.5c-0.1-0.1-0.1-0.2-0.2-0.3c-0.1-0.1-0.1,0-0.2,0l0,0c0.1,0,0.1-0.1,0.2-0.1
		c0-0.1,0.1-0.1,0.1-0.1l0,0c0,0.1-0.1,0.1-0.1,0.2c0,0.1,0.2,0.2,0.2,0.3l0.6,0.8l0,0c-0.1,0-0.1,0-0.2-0.1l-1.2-0.4l0.5,0.6
		c0,0.1,0.1,0.2,0.2,0.2c0.1,0,0.1,0,0.2,0v0c0,0.1-0.1,0.1-0.2,0.1c-0.1,0-0.1,0.1-0.2,0.1l0,0c0.1-0.1,0.1-0.1,0.1-0.2
		c0-0.1-0.1-0.2-0.2-0.2L21.7,24.7L21.7,24.7z M21.1,26.1c0,0.1,0,0.2,0.1,0.3c0,0.1,0.1,0,0.2,0l0,0c-0.1,0-0.1,0.1-0.2,0.1
		c-0.1,0-0.1,0.1-0.2,0.1l0,0c0.1-0.1,0.1-0.1,0.1-0.2c0-0.1,0-0.3-0.1-0.5L20.8,25h0.1l0.9,0.8c0,0,0.1,0.1,0.2,0.2
		c0.1,0,0.1,0,0.2,0l0,0c-0.1,0-0.2,0.1-0.2,0.1c-0.1,0-0.2,0.1-0.2,0.1l0-0.1c0.1,0,0.1-0.1,0.1-0.1c0,0-0.1-0.1-0.1-0.1l-0.2-0.1
		L21.1,26.1L21.1,26.1L21.1,26.1z"/>
	<g>
		<path class="st0" d="M3.4,16.2c-0.1-0.3-0.2-0.6-0.2-0.7l0-0.1L4,15c-0.1-0.4-0.1-0.8-0.2-1.1l-0.9-0.2l0-0.1c0-0.2,0-1,0-1.2
			l0-0.1l0.9-0.2c0-0.4,0.1-0.7,0.2-1.1l-0.4-0.2l0.3,0L4.2,11l0,0.1C4.1,11.5,4,11.9,4,12.3l0,0.1l-0.9,0.2c0,0.2,0,0.8,0,1L4,13.7
			l0,0.1c0,0.4,0.1,0.8,0.2,1.2l0,0.1l-0.8,0.4c0,0.1,0.1,0.3,0.2,0.5L3.4,16.2z M5,18.8c0.1,0.1,0.1,0.2,0.2,0.3L6,18.7l0,0
			c0.3,0.3,0.5,0.6,0.9,0.9l0,0l-0.4,0.8c0.2,0.1,0.6,0.5,0.8,0.6l0.7-0.6l0.1,0c0.4,0.2,0.7,0.4,1.1,0.6l0.1,0L9.2,22
			c0.2,0.1,0.7,0.2,1,0.3l0.4-0.8l0.1,0c0.4,0.1,0.8,0.2,1.2,0.2l0.1,0l0.2,0.9c0.1,0,0.3,0,0.5,0c0.2,0,0.4,0,0.5,0l0.2-0.9l0.1,0
			c0.4,0,0.8-0.1,1.2-0.2l0.1,0l0.4,0.8c0.2-0.1,0.8-0.2,1-0.3l-0.1-0.9l0.1,0c0.4-0.2,0.8-0.4,1.1-0.6l0.1,0l0.7,0.6
			c0.2-0.1,0.6-0.5,0.8-0.6l-0.4-0.8l0.1,0c0.3-0.3,0.6-0.6,0.9-0.9l0-0.1l0.8,0.4c0.1-0.2,0.5-0.6,0.6-0.8l-0.6-0.7l0-0.1
			c0.2-0.4,0.4-0.7,0.6-1.1l0-0.1l0.9,0.1c0.1-0.2,0.3-0.7,0.3-1l-0.8-0.4l0-0.1c0.1-0.4,0.2-0.8,0.2-1.2l0-0.1l0.9-0.2
			c0-0.2,0-0.8,0-1l-0.9-0.2l0-0.1c0-0.4-0.1-0.8-0.2-1.2l0-0.1l0.8-0.4c-0.1-0.2-0.2-0.8-0.3-1l-0.9,0.1l0-0.1
			c-0.2-0.4-0.3-0.7-0.6-1.1l0-0.1l0.6-0.7c-0.1-0.2-0.5-0.6-0.6-0.8l-0.8,0.4l0-0.1c-0.3-0.3-0.6-0.6-0.9-0.9l-0.1,0l0.4-0.8
			c-0.2-0.1-0.6-0.5-0.8-0.6l-0.7,0.6l-0.1,0c-0.4-0.2-0.7-0.4-1.1-0.6l-0.1,0L16.2,4c-0.2-0.1-0.7-0.3-1-0.3l-0.4,0.8l-0.1,0
			c-0.4-0.1-0.8-0.2-1.2-0.2l-0.1,0l-0.2-0.9c-0.1,0-0.3,0-0.5,0c-0.2,0-0.4,0-0.5,0L12,4.3l-0.1,0c-0.4,0-0.8,0.1-1.2,0.2l-0.1,0
			l-0.5-0.8C10,3.8,9.5,4,9.2,4l0.1,0.9L9.3,5C8.9,5.1,8.5,5.3,8.2,5.5l-0.1,0L7.5,4.9C7.4,5,7.2,5.1,7.1,5.2l0-0.2
			c0.1-0.1,0.3-0.2,0.3-0.2l0.1,0l0.7,0.6c0.3-0.2,0.7-0.4,1-0.5L9.1,3.9l0.1,0c0.2-0.1,0.9-0.3,1.1-0.4l0.1,0l0.5,0.8
			c0.3-0.1,0.7-0.1,1.1-0.2L12,3.2l0.1,0h0l0,0l0,0l0,0h0l0,0l0,0l0,0l0,0h0l0,0h0v0l0.1,0c0,0,0,0,0,0l0,0v0c0,0,0,0,0,0h0.1
			c0.1,0,0.3,0,0.4,0c0.2,0,0.5,0,0.6,0l0.1,0l0.2,0.9c0.4,0,0.7,0.1,1.1,0.2l0.4-0.8l0.1,0c0.2,0,0.9,0.3,1.1,0.4l0.1,0l-0.1,0.9
			c0.3,0.1,0.7,0.3,1,0.5l0.7-0.6l0.1,0c0.2,0.1,0.8,0.6,1,0.7l0.1,0l-0.4,0.8c0.3,0.3,0.6,0.5,0.8,0.8l0.8-0.4l0,0.1
			c0.1,0.1,0.6,0.8,0.7,1l0,0.1l-0.6,0.7c0.2,0.3,0.4,0.7,0.5,1l0.9-0.1l0,0.1c0.1,0.2,0.3,0.9,0.4,1.1l0,0.1l-0.8,0.5
			c0.1,0.3,0.1,0.7,0.2,1.1l0.9,0.2l0,0.1c0,0.2,0,1,0,1.2l0,0.1l-0.9,0.2c0,0.4-0.1,0.7-0.2,1.1l0.8,0.5l0,0.1
			c0,0.2-0.3,0.9-0.4,1.1l0,0.1l-0.9-0.1c-0.2,0.3-0.3,0.7-0.5,1l0.6,0.7l0,0.1c-0.1,0.2-0.6,0.8-0.7,0.9l0,0.1l-0.8-0.4
			c-0.2,0.3-0.5,0.5-0.8,0.8l0.4,0.8l-0.1,0c-0.2,0.1-0.8,0.6-0.9,0.7l-0.1,0l-0.7-0.6c-0.3,0.2-0.7,0.4-1,0.5l0.1,0.9l-0.1,0
			c-0.2,0.1-0.9,0.3-1.1,0.4l-0.1,0l-0.5-0.8c-0.3,0.1-0.7,0.1-1.1,0.2l-0.2,0.9l-0.1,0c-0.1,0-0.4,0-0.6,0c-0.2,0-0.5,0-0.6,0
			l-0.1,0l-0.2-0.9c-0.4,0-0.7-0.1-1.1-0.2l-0.4,0.8l-0.1,0c-0.2-0.1-0.9-0.3-1.1-0.4l-0.1,0l0.1-0.9c-0.3-0.1-0.7-0.3-1-0.5
			l-0.7,0.6l-0.1,0c-0.2-0.1-0.8-0.6-0.9-0.7l-0.1,0l0.4-0.8c-0.3-0.3-0.6-0.5-0.8-0.8l-0.8,0.4l0-0.1c0-0.1-0.1-0.2-0.2-0.3L5,18.8
			z"/>
		<path class="st0" d="M12.7,20.2c-1.1,0-2.1-0.2-3-0.7l-0.1-0.1l3.2-4l3.1,4l-0.1,0.1C14.7,20,13.7,20.2,12.7,20.2z M9.9,19.4
			c0.9,0.4,1.8,0.6,2.8,0.6c0.9,0,1.9-0.2,2.7-0.6l-2.7-3.6L9.9,19.4z M17.9,18l-2.8-4.2l4.8-1.7l0,0.1c0.2,2.1-0.5,4.1-1.9,5.7
			L17.9,18z M15.4,13.9l2.5,3.8c1.3-1.4,1.9-3.3,1.7-5.3L15.4,13.9z M7.5,18l-0.1-0.1c-1.4-1.6-2.1-3.6-1.8-5.7l0-0.1l4.7,1.8
			L7.5,18z M5.7,12.3c-0.2,1.9,0.4,3.8,1.7,5.3l2.5-3.7L5.7,12.3z M14.2,11L14,5.9l0.1,0c2,0.4,3.8,1.7,4.8,3.5l0.1,0.1L14.2,11z
			 M14.3,6.2l0.1,4.5l4.3-1.2C17.8,7.8,16.2,6.6,14.3,6.2z M11.2,11L6.4,9.6l0.1-0.1c1-1.8,2.8-3.1,4.9-3.5l0.1,0L11.2,11z M6.7,9.4
			l4.3,1.3l0.2-4.5C9.3,6.6,7.7,7.8,6.7,9.4z"/>
		<path class="st0" d="M12.7,6.5l-1.5,4.3l0,0.1l-0.1,0L6.5,11l3.7,2.8l0.1,0l0,0.1l-1.3,4.4l3.8-2.6l0.1,0l0.1,0l3.8,2.6l-1.3-4.4
			l0-0.1l0.1,0l3.7-2.8l-4.6-0.1l-0.1,0l0-0.1L12.7,6.5L12.7,6.5z M11,10.7l1.6-4.6l0.1-0.3l0.1,0.3l1.6,4.6l4.8,0.1l0.3,0L19.3,11
			l-3.8,2.9l1.4,4.6l0.1,0.3l-0.2-0.2l-4-2.7l-4,2.7l-0.2,0.2l0.1-0.3l1.4-4.6L6.1,11l-0.2-0.2l0.3,0L11,10.7L11,10.7z"/>
		<g>
			<polygon class="st4" points="4.2,20.4 4.2,20.4 4.2,20.4 			"/>
			<polygon class="st4" points="3.8,19.5 4.2,20.4 4.2,20.4 			"/>
		</g>
	</g>
</g>
</svg>
