<?xml version="1.0" encoding="utf-8"?>
<!-- Generator: Adobe Illustrator 23.0.4, SVG Export Plug-In . SVG Version: 6.00 Build 0)  -->
<svg version="1.1" id="Livello_1" xmlns="http://www.w3.org/2000/svg" xmlns:xlink="http://www.w3.org/1999/xlink" x="0px" y="0px"
	 viewBox="0 0 347.9 98.6" style="enable-background:new 0 0 347.9 98.6;" xml:space="preserve">
<g>
	<path style="fill-rule:evenodd;clip-rule:evenodd;fill:#2864AE;" d="M67.2,64.7c0.4,0,1,0.2,0.9,0.6c-0.1,0.4-0.3,1-0.7,1
		c-0.3,0-1-0.4-1-0.9C66.4,65,66.8,64.7,67.2,64.7L67.2,64.7z"/>
	<path style="fill-rule:evenodd;clip-rule:evenodd;fill:#2864AE;" d="M30.2,76.3c0.5,0.2,0.9,0.2,1.4,0l-0.4-0.6l-0.8-0.7
		c-0.4-0.2-0.8,0-1.1,0.6L30.2,76.3L30.2,76.3z"/>
	<path style="fill-rule:evenodd;clip-rule:evenodd;fill:#707072;" d="M54.2,92.5c-0.1,0.2-0.1,0.5,0.3,0.7c0.3,0.2,0.5,0.3,0.7,0.2
		L54.2,92.5L54.2,92.5z"/>
	<path style="fill-rule:evenodd;clip-rule:evenodd;fill:#FFFFFF;" d="M86.5,46.3c0.3-1.8,0.1-2.9-0.5-3.4c-0.7-0.5-1.5-0.3-2.5,0.4
		c-0.6-0.3-1.3,0-2.3,0.9c0.2-0.4,0.2-0.8,0.1-1.2c0.9-0.4,1.4-0.8,1.7-1.3c0.3-0.5,0.4-1.2,0.4-2.3c0.1-0.6,0.7-1.8,1.8-3.4
		c0.7-1.6,0.2-2.2-1.6-1.7c1-0.9,1.5-1.6,1.5-2.3c0.1-0.6-0.2-1.4-0.8-2.3c-0.2-0.5-0.6-0.6-1.1-0.3c0.2-0.3,0.3-0.7,0.3-1.2
		c0-0.5-0.3-1.5-0.9-3c-0.1-2-0.6-2.8-1.4-2.5c-0.1-1-0.5-2-1-3c-0.8-1.2-1.4-1.5-1.9-1c-1.3-1.9-2.5-2.7-3.7-2.4
		c0-0.8-0.3-1.6-0.9-2.3c-0.3-1.3-0.7-2.2-1.1-2.7c-0.6-0.2-1,0.1-1.3,1c-0.1-0.7-0.3-1.5-0.7-2.3c-0.4-0.8-1-1.2-1.8-1.3
		c-0.3,0-0.6,0-0.9,0.2c-0.5-0.3-1-0.5-1.4-0.5c-1.1-1.2-2.2-1.3-3.1-0.3l-0.2-1.1c-0.3-1.2-1-1.5-2-0.8c-1.6-1.7-3-2.8-4.2-3.4
		c-1-0.3-1.6-0.3-1.9,0.3c-0.5-0.5-1-0.8-1.6-1c-0.6-0.1-1.1-0.3-1.6-0.5c-0.8,0-1.1,0.4-1,1.3c-1.2,0.1-2,0.3-2.5,0.6
		c-0.4,0.4-0.6,0.8-0.3,1.5C48.6,6.1,49,6.6,49.8,7c-0.2,0.2-0.3,0.6-0.3,1.1c0,0.5,0.6,0.9,1.6,1.3c0.8,0.2,1.5,0.2,2.3,0.1
		c-0.2,0.8,0.1,1.3,0.8,1.5c1,1,2.2,1.3,3.6,0.8l-0.2,1l2,0.8c0.1,0.9,0.5,1.6,1.3,2l0.8,0.3c-0.2,0-0.9,0.6-0.9,0.7
		c-0.2,0.2-0.6,1.1,0.5,1.3c0.8,0.1,1.7,0.2,2.5,0.2c0,0.2,0.2,0.6,0.3,0.9c0.1,0.3,0.5,0.7,1.1,1.4c0.5,0.6,1.6,1.2,2.4,1.5
		c-0.1,0.1-0.3,0.7-0.5,1.3c-0.3,0.7-0.4,1.9,0.1,2.6c-0.1-0.1-0.6,0.3-0.8,0.5c-0.6,1,0.7,2.3,0.9,2.8c-0.1,0-0.5,0.2-0.7,0.3
		c-0.5,0.3-0.3,2,1,2.3c0.3,0.2,1.8,1,2.6,1.8c0.1,0.2,0.6,0.9,1.2,1.7c0.3,0.4,0.7,1.1,1.5,1.2c0.7,2.3,1.9,4.6,3.3,6.8
		c0,0.1,1.3,1.5,1.8,2.7c-0.2,0.8-0.1,1.5-0.1,1.6c-0.2,1.6-0.5,3.1-0.9,4.4c-1.4-0.7-1.7,0.2-1.9,1.2c0,0-0.7-0.1-0.8,0.2
		c0.1-0.6-0.9-1-1.3-0.7c0,0-0.5,0.3-0.7,0.5c-0.1,0.1-0.2-0.5-0.2-0.9c0-0.3-0.1-1.2,0.1-1.6c0-0.1,0.4-0.5,0.6-0.8
		c0.4-0.8,0.1-3.1-0.4-4.8c-0.2-0.5-0.5-0.7-0.8-0.8c-0.1,0-0.9,0-1,0.6c0-0.3-0.6-0.5-1-0.6c-1.1-0.3-2.3,1.8-2.1,3.8
		c-0.8-0.6-1.8-0.4-1.7,0.7c0.2,1.5,2.5,4.3,2.6,5.5c-0.7-0.6-2.3-0.6-2.3,0.9c0,0.5,0.4,1.2,0.5,1.6c-0.3,1.6,1.5,2.8,3,4.3
		c0,0.7,0.2,0.7,0.4,1c-0.3,0.4-2,3.1-2,3.1c-0.1,0-1.2-0.6-1.6-0.3c-0.4,0.4-0.7,0.8-0.9,1.1l0.2,1.9c0.1,0.8-0.3,1.6-1.2,2.6
		c-1,1-1.6,1.8-1.9,2.6c-0.2,0.6-0.8,1.3-2,2c-0.1-0.2-0.3-0.5-0.8-1c-0.1-0.1-0.2-0.2-0.4-0.1c-1.1,0.3-3.4,1.6-6.9,3.3
		c-0.6,0.3-1.4,1.1-2.5,3h-2c-0.5-0.6-1.1-1-1.7-1.6c-0.4-0.3-1.2-0.4-2.3,0.2c-1-0.2-2.1-0.1-3.1,0.6c-0.6,0.2-1.1,0.2-1.4,0.1
		l-2.5-2.7c-5.1-2.1-7.8-3.1-8.3-2.9c-0.5,0.3-0.9,0.7-1.1,1.3c-0.5-0.2-1.3-0.9-2.3-1.9l-1.6-1.8c-1.1-1.3-1.6-2.5-1.4-3.6l0.3-1.6
		c0-0.2,0-0.4-0.1-0.6c-0.4-0.4-1-0.6-1.4-0.7c-0.1,0-0.3-0.1-0.5,0.8c0.1,0.2-1.6-2.2-1.6-2.3c0.4-0.5,1.2-1.9,1.7-3.6
		c0.5-1.9,0.8-3.9,0.7-4.7c0.1-0.1,0.1-0.2,0.2-0.3c0.8-0.6,1.8-6.2,1.5-7.5c-0.1-0.5-0.2-0.8-0.4-0.8s-0.3,0-0.4,0.1l0.3-0.6
		c0.2-0.4,0.2-0.7,0-0.9c-0.1-0.1-1-0.1-1.8,0.3c-0.1-0.9-0.5-2.1-0.7-2.6c-0.1-0.2-0.3,0-0.3,0c-1.4,0.8-2,2.7-2.5,5l-0.4,0.4
		c-1.8,2.3-3.2,4.9-3.8,7.8c-0.3-0.5-0.5-1.1-0.7-2c-0.3-0.9-0.3-1.5-0.3-1.8c0.3-0.5,0.2-0.9-0.3-1.3c-0.3-0.3-0.8-1.8-1.3-4.5
		c0-0.7,0.3-1.8,0.9-3.2c0.5-1.4,1.4-3.2,2.6-5.2c0.1-0.1,0.6-0.6,0.7-0.7c1.7-0.4,9.4-10.4,8.6-15c-0.1,0.6,3.3-5.5,3.6-6.7
		l0.4-0.1l0.5-0.2c1.7-0.7,3.1-1.4,4.4-2l2-1.1c1.4-0.6,2.7-1.4,4-2.5c1.3-1.2,2.1-2.4,2.2-3.7c-0.2-0.3-0.9-0.5-2.1-0.5
		c0.6-0.7,0.9-1.4,1-2.1c-0.4-0.6-1.7-0.7-3.9-0.3c-2.3,0.6-4.3,1.5-6,2.7c-1.7,1.1-3.3,2.4-4.7,4c-1.4,1.6-2.5,3.2-3.3,4.9l1-2.3
		c0.5-1.1,1-2.4,1.6-3.9c0.2-0.7,0.2-1.2,0-1.5c-0.1-0.3-0.5-0.4-1-0.3c-0.5,0.1-1.5,0.8-2.9,2.1c-1.5,1.6-2.9,3.5-4.1,5.8
		c-1.2,2.3-2,4.1-2.4,5.5c0.2-1.5,0.2-2.8-0.1-3.9c-0.2-0.4-0.5-0.6-1.1-0.4c-0.5,0.4-1.1,0.9-1.6,1.7c-0.5,0.7-1.1,1.4-1.6,2.1
		c-0.5,0.7-1.1,1.7-1.8,2.9c-0.7,1.3-1.3,2.8-1.8,4.5c-0.5,1.7-0.9,4-1.2,6.9c-0.2,1.8,0,3.8,0.4,5.9c0.5,2.1,1.1,3.7,1.6,4.7
		c0.5,1,1,1.6,1.5,1.8c0.3,0.7,0.7,2,1.2,3.7c0.3,0.8,0.4,1.4,0.3,1.8c0,0.4,0.1,0.7,0.3,0.9c0.3,0.2,0.5,0.5,0.6,1
		c0.4,1.6,1,3.1,1.8,4.5c-0.1,0.7-0.2,1.5-0.2,2.2c-1.6-4.6-2.9-8.1-3.9-10.5C6.6,45.6,5.1,43.6,4,44c-0.5,0.2-0.9,0.7-1,1.5
		c0,0.3,0,1.1,0,2.3c0,1.2,0.1,2.5,0.3,3.9c1,4.4,2.7,8.1,5.2,11.1l3.7,4.3c0.7,0.7,1.4,1.3,2.1,1.6c0.7,0.4,1.3,0.4,1.9,0.3
		c0.8,1.3,1.9,2.7,3.2,4.2c0.8,1.2,1.6,1.8,2.5,1.8c0.4,0.8,0.9,1.2,1.7,1.2l0.8-0.1c1,1,2,1.8,2.8,2.4l-1,2.7
		c-1.7,0.2-3.2,0.4-4.6,0.4c-1.3-0.9-3.1-2.2-5.5-3.8l-0.2-3c-0.1-1,0.1-1.9,0.6-2.6c0.1-0.6-0.2-1.1-1-1.6c-1.1-0.5-1.6-0.8-2-0.7
		c-0.2,0.1,0,0.3,0,0.6v0.2c0-0.2,0.1-0.2,0.3-0.1c1.4,0.4,2,0.8,1.9,1.4c-0.4,0.7-0.6,1.6-0.6,2.5l0,2.6c-1.8-1.2-3.7-2.2-5.7-3.1
		c0.2,0,0.5-0.1,0.8-0.1c0.3,0,0.5-0.1,0.6-0.3c0.1-0.2-0.1-0.3-0.6-0.4c-1,0-1.7,0.1-2,0.3c-0.2,0.3-0.2,0.5,0.2,0.8
		c2.4,1.2,4.5,2.4,6.4,3.6c2.9,1.8,5.2,3.3,6.8,4.5c1.6,0,3.8-0.3,6.6-0.7l4.3-0.8c1.8-0.3,3.6-0.6,5.5-0.9c0.7-0.1,1.6-0.2,2.7-0.2
		c1.1,0,2.1-0.1,3-0.3c0.9,1.6,1.4,3.1,1.6,4.3c0.1,0.6,0,1-0.3,1.1c-4,1.5-6.8,2.4-8.6,2.8c-1.7,0.4-3.3,0.7-4.7,1
		c-3.5,0.6-7,1.2-10.4,1.6c-0.9-0.2-3.4-1.5-7.5-3.9c-2.9-1.8-5-3.2-6.2-4.3c-1.3-1.4-1.9-2.3-1.6-2.6c0.9-1.4,1.5-2.7,1.8-3.8
		c0.1-0.5,0.2-0.8,0.1-1.1c-0.4-1.1-0.1-1.7,0.8-1.8c2.2-0.1,3.7-0.2,4.5-0.1c0.3,0,0.6-0.1,0.7-0.3l0.8-1.5l-0.5-0.2l-0.6,1l0-1
		v1.3l-5.1,0.1c-0.4,0-1,0.2-1.2,0.5c-0.3,0.3-0.4,1-0.1,2c0,0.4,0,0.7-0.1,1c-0.2,1.1-0.9,2.4-1.9,3.9c-0.1,0.2-0.1,0.6,0.2,1.1
		C5.4,81.1,6,81.8,7,82.8c0.4,0.4,1.1,1,2,1.6c0.9,0.6,2.4,1.6,4.7,2.9c2.6,1.6,5.2,2.9,7.6,3.9c0.5,0,3.8-0.4,10-1.4l0.1,0.5
		c-1.8,1.3-2.9,1.9-3.4,1.7c-0.7,0.1-0.9,0.6-0.7,1.6c0.2,0.4,0.6,0.7,1.1,0.9l0.7,0.8l1.9,1.1c0.7,0.2,1.4,0.2,2,0
		c0.6-0.2,1-0.8,1.2-1.6l0.2-0.2l2-2l1.5-1.1c1.1-0.2,1.9-0.6,2.2-1.2c0.1-0.5,0.2-0.9,0.4-1l1.8-1.2c0.1-0.2,0.8,0.1,2.2,0.9
		c0.7,0.2,1.3,0.1,1.8-0.1l1.3-0.8c1.2,0.3,3.2,1.7,6.2,4.4c0,0.3,0.2,0.6,0.6,1.1c0.2,0.3,0.9,0.5,1.9,0.7l0.7,1.3l0.7,0.3
		c1,0,2-0.3,2.9-1.1l1.1-0.4c0.6-0.4,0.8-0.9,0.8-1.3l-0.5-0.5l-1-0.2c-1.2-0.6-2.4-1.3-3.7-2.3l-0.8-0.6c3.6,0.6,8.2,1.1,13.6,1.5
		c0.7,0.1,1.6-0.2,2.7-1c1.1-0.8,4.5-3.2,10.1-7.2c0.8-0.9,1.5-1.9,2-3.1c-0.5-0.5-0.9-1.1-1.3-2c-0.4-0.9-0.6-1.6-0.7-2.2
		c-0.1-0.6-0.2-1.1-0.1-1.5c0.1-0.4-0.1-0.9-0.4-1.3c-0.2-0.2-0.6-0.4-1.2-0.4c-1.1-0.1-2.3-0.1-3.6,0c-0.6-0.1-1-0.2-1.1-0.5
		l0.1-1.2c0.1-0.5-0.1-0.8-0.4-0.7c-1.5,0.4-2.4,0.7-2.7,1.1c-0.4,0.5-0.4,1,0.1,1.5c0.4,0.3,0.5,0.7,0.5,1.2
		c-0.2,2.2-0.4,3.7-0.5,4.5c-2.4,1.9-4.1,3.1-5,3.6c-0.7,0.2-2.3,0.1-4.7-0.3c-0.5-0.5-0.9-1.3-1.2-2.4c0.8-0.5,1.7-1.1,2.7-1.8
		c0.6-0.1,1.2-0.2,1.6-0.4c0.4-0.1,0.7-0.6,0.7-1.2c0.4-0.2,0.8-0.5,1-1.1l2.9-3.5c0.9-0.8,2-1.3,3.1-1.4c1.3-0.1,3.1-0.9,5.2-2.3
		c0.3-0.4,0.3-0.9,0-1.6c0.6-0.4,1.7-1.4,3.1-3.1c0.6-0.8,0.7-1.7,0.4-2.7c1.3-1.6,2.1-2.9,2.3-3.8c0.1-0.8,0.1-1.7-0.1-2.7
		c0.6-0.4,1.1-0.7,1.3-1c0.3-0.3,0.4-0.7,0.4-1.2c0-0.5-0.2-0.9-0.6-1.3C87.2,48.6,87.3,47.4,86.5,46.3z M39.9,6.4
		c0,0.6-0.3,1.3-1.1,2.1c-1.2,1.1-2.6,2.1-4.3,3c-1.8,0.9-4.1,2-6.6,3.2v-0.3c3.2-2.5,6.4-4.6,9.3-6.2c0.8-0.5,0.5-0.6-0.4-0.4
		c-1,0.5-2.1,1.1-3.3,1.9c-2,1.3-3.9,2.6-5.8,3.9l0.1-0.6c3.8-3.3,6.9-5.5,9.4-6.5C38.2,6.1,39.2,6.1,39.9,6.4z M28.6,7.6
		c1.8-1.5,4-2.7,6.5-3.5c1.2-0.3,2.3-0.5,3.2-0.4c0.4,0.1,0.6,0.3,0.4,0.8l-1.1,1.5c-1,0.1-2.3,0.7-4,1.7c-1.7,1-3.5,2.3-5.4,3.9
		l-0.7,0.5c-0.4-0.3-1-0.2-2,0.3c3.1-2.6,5.7-4.5,8-5.9C34.9,5.5,35.8,5,36,4.7c-0.7,0.2-1.8,0.7-3.1,1.4s-3.5,2.2-6.6,4.5l-3,2.7
		C25,10.9,26.8,9.1,28.6,7.6z M25.5,13.1c0.5-0.3,0.9-0.4,1.1-0.4c0.1,0.3,0.2,0.8,0.1,1.4s-0.5,1.8-1.3,3.7l-1.9,3.6
		c-1.3,0.2-2.5,0.8-3.7,1.8c0.6-1,1.3-2.2,2.2-3.6c0.9-1.3,2.2-3.3,4-6c0.3-0.5,0.3-0.6,0-0.4c-0.3,0.3-1,1.2-2.3,2.9
		c-1.2,1.7-2.9,4.3-5,7.8c-0.6,0.9-1.9,3-4.2,6.4l0.3-0.8l3-5.3l2.9-5.4C22.2,16.4,23.7,14.5,25.5,13.1z M13.2,25.4
		c1.3-2.2,2.9-5.2,4.8-9.2c0.6-1.2,1.4-2.5,2.5-4c0.3-0.8,0.2-0.8-0.6,0.1c-1.6,2-3.5,5.3-5.7,9.7l1-2.4c0.2-0.5,0.7-1.7,1.6-3.6
		c0.9-1.9,1.8-3.4,2.7-4.5s1.5-1.8,1.8-2.2c1.2-1,1.9-1.5,2.1-1.5c0.2,0.1,0.2,0.4,0.2,0.7l-2.5,6.3c-1.6,3.1-3.7,6.3-6.3,9.7
		c-1.1,1.2-1.8,2-2.1,2.3c-0.3,0.3-0.5,0.7-0.7,1l0.2-0.9L13.2,25.4z M14.6,31.1c-0.7,1.3-1.2,2.5-1.6,3.5l-0.4-0.1l1.1-3.3
		L14.6,31.1z M10.9,39.6l0.3-1.5l0.3-1.5l0.8-0.2l-1,2.7l-0.7,2.4L10.9,39.6z M10.7,34.1c0.2-1.5,0.6-2.9,1-4.1l0.4,0.5L10.7,34.1z
		 M8.8,44.1l-0.2-0.4c-0.2-0.3,0.1-2.3,1.1-5.9C9.3,40.5,9,42.6,8.8,44.1z M8,41.2c-0.3-1.4-0.1-4.2,0.5-8.6
		c0.6-4.4,1.3-7.5,2.2-9.4c0.4-1,0.4-1.1-0.1-0.5c-2,3.5-3.2,8.6-3.6,15.4c-0.1,2.4,0.1,4.1,0.4,5.1c0.3,1.1,0.7,1.7,1.2,1.8
		c0.2,0.1,0.5,0.1,0.8-0.1c0,0-0.2,0.9-0.2,1.1c-0.9-0.4-1.5-1.1-1.9-2c-0.4-1-0.8-2.2-1.1-3.7c-0.4-1.5-0.5-3.4-0.4-5.5
		c0.2-2.5,0.5-5,1.1-7.4C7.7,24.1,9.4,21,12,18c0.6-0.6,0.9-0.8,1.1-0.5c0.1,1.3,0.1,2.6,0,3.9c-0.2,1.3-0.5,2.6-1,4.2
		c-1.3,4.3-2.1,7.3-2.4,8.8C9.2,36.1,8.6,38.4,8,41.2z M9.5,46v-0.8c1.3-1.4,1.1-2.7,1.6-3.9l1.8-4.5l2-4.8c1.1-2.1,2.7-4.6,4.6-7.3
		c1.2-1.4,2.2-2.1,3.1-2.2c0.2,0.3,0.2,1,0,2.1c-0.2,1-0.6,2.1-1.2,3.3c0,0-0.1,0,0,0.1c-2.2,4-4.2,6.9-6.3,8.6l3.5-5.6l1.6-3
		c0.6-1.1,0.7-1.5,0.3-1.2c-3.4,5.1-5.4,8.3-6.1,9.6c-0.7,1.3-1.3,2.5-2,3.7c-0.6,1.1-1.3,2-1.5,2.7S10.8,44.4,9.5,46z M22.9,48.1
		c-0.1,1.5-0.4,3.4-1,5.6c0-1.8-0.1-3.1-0.3-3.7l0.5-1.3c0-0.4-0.1-0.5-0.3-0.1l-0.3,0.5l-0.1-1l0.8-1C22.8,46.8,23,47.1,22.9,48.1z
		 M22.2,45.4c0.4-0.1,0.5,0.1,0.3,0.6l-1,1.4c-0.1-0.6-0.2-1.1-0.3-1.5C21.6,45.7,21.9,45.5,22.2,45.4z M18.2,47.7
		c0.7-2.8,1.4-4.2,2-4.4c0.4,1,0.7,2.8,0.9,5.4c0.2,2.6,0.2,5,0,7.1c-0.3,2.7-0.8,4.5-1.4,5.4l-0.7,1.4c0-2.1,0-3.8,0.1-5.1
		c0.1-1.3,0.1-3,0.2-5.2c0.1-2.2,0.2-4.6,0.4-7.3c0.1-0.7,0.1-0.8-0.1-0.4c-0.5,2.8-0.9,6.3-1,10.7l-0.1,2.9L18.6,62l-0.7-0.8
		c-0.5-2.3-0.7-4.8-0.6-7.4C17.4,52,17.7,49.9,18.2,47.7z M13.8,56.1c0.6-2.5,1.8-5,3.8-7.6c-0.3,1.4-0.5,2.4-0.6,3.1
		c-1.5,2.5-2.6,5.1-3.4,7.6c-0.2,0.8-0.4,1.7-0.5,2.8C13,60.5,13.3,58.6,13.8,56.1z M17.1,60.3L16,58.9l0.8-2
		C16.8,58,16.9,59.1,17.1,60.3z M27.2,81l0.7-2l2.3,1.5L27.2,81z M32.7,80l-3.8-2.3l-3.5-2.3l-0.7-0.9c-0.2-0.2-0.5-0.3-0.8-0.1
		c-0.4,0.1-0.6-0.1-0.8-0.6c-0.9,0.5-1.8,0.3-2.8-0.6l-1.7-2l-1.6-2.7l-0.6-0.4c-0.3,0.2-0.7,0.3-1.1,0.2c-0.7-0.1-1.4-0.5-2.2-1.3
		c-0.5-0.4-1.5-2.2-3-5.2c-2-3.9-3.4-6.8-4.2-8.8c-0.5-1.6-0.9-2.7-1.1-3.1c-0.2-0.4-0.2-0.4-0.2,0c0,0.4,0.3,1.4,0.8,2.8
		c0.5,1.5,1.3,3.6,2.6,6.4c1.1,2.3,2.2,4.3,3.3,6.2c-2.5-2.7-4.3-5.2-5.4-7.5c-1.1-2.3-1.8-4.4-2.2-6.4c-0.2-0.7-0.3-1.8-0.3-3.2
		c0-1.5,0-2.3,0.1-2.4c0.2-0.5,0.4-0.7,0.7-0.7c0.2,0,0.7,0.5,1.4,1.4c0.7,1,1.7,3.1,2.9,6.4c1.2,3.3,2,5.5,2.3,6.5
		c0.3,1,0.6,1.9,0.9,2.7c0.3,0.8,0.6,1.6,1,2.4c0.6,1.2,1.2,2,1.8,2.5c0.8,0.6,1.4,0.7,1.7,0.3l-1.8-3.3c-0.2-0.1-0.4-0.1-0.6,0
		c0,0-0.1,0-0.1,0c0,0,0,0,0,0c-0.1,0-0.1,0-0.2,0c-0.1,0-0.2,0-0.2,0c-0.1,0-0.1-0.1-0.1-0.1c-0.1,0-0.1-0.1-0.2-0.1
		c0-0.1-0.1-0.1-0.1-0.2c0-0.1-0.1-0.1-0.1-0.2c0-0.2,0-0.4,0-0.6c0.1-0.6,0.3-1.6,0.7-3.1c0.7-2.5,1.8-4.9,3.2-7.4
		c-0.2,1.1-0.3,2-0.3,2.7c-1.2,2.8-2.1,5-2.7,6.7c-0.3,1.2-0.3,1.8,0.1,1.8l0.4-0.2l-0.3-0.7l0.2-0.6l0.6,1.1l0.4-0.3l0.3,0.5
		l-0.3,0.5l2.3,3.3l0.6-0.4l0.4,0.4c-0.7,0.7-0.9,1.1-0.8,1.3c0.6,1.1,1.2,2,1.7,2.7c1,1.5,1.8,1.9,2.5,1.3c0.2-0.2,0.5-0.1,0.8,0.1
		c0.3,0.2,0.6,0.7,1,1.5l-0.1-1.2l-1.9-1.8l-1.1-2.1c-0.9-1.2-1.5-2.2-1.9-2.9c-0.4-0.7-0.8-1.5-1.4-2.4c-0.6-0.9-1.2-2-2-3.2
		l0.2-0.6l1.6,2c1.4,1.8,2.4,3.2,3,4.2c0.6,1,0.9,1.2,1,0.7l0.3-1l0.4,0.3l-0.3,2l-0.1,0.6c0,0.5,0.1,0.7,0.3,0.8
		c0.2,0.1,0.4,0.4,0.6,0.9c0.1,0.3,0.6,1,1.6,2.1c1,1.1,2,1.9,3,2.7c1.1,0.7,1.9,1.3,2.6,1.8c0.7,0.4,1,0.9,1,1.3l1,0.2L31.3,77
		l0.6-0.2c0.3,0.2,0.6,0.6,0.8,1.1c0.9,0.7,1.6,1.2,2.3,1.6L32.7,80z M16.3,63.7l0.3-0.3l1.4,2.4l-0.2,0.3L16.3,63.7z M18.6,68.4
		l0.6-0.7l1.3,1.9l0.8,1.4l0.3,0.7c-0.5-0.2-0.9-0.6-1.2-1.1l-0.8-1L18.6,68.4z M36.1,79.4l-2.2-1.5c-0.9-1-1.5-1.8-1.9-2.3
		c-0.4-0.5-0.8-0.8-1.2-1c-0.5-0.3-1-0.4-1.3-0.3c-0.2,0.1-0.5,0.4-0.8,1l-0.1-0.1c0.1-0.6,0.3-0.9,0.6-1.1c0.3-0.1,0.6-0.1,1.1,0.1
		l2.4,1.2l4.1,1.6c1,1.1,1.6,1.8,1.9,2.2C37.9,79.3,37,79.3,36.1,79.4z M37.4,89.8c-1.4,1.4-3,2.7-4.8,3.9L32,93.5
		c1-0.6,2.5-1.7,4.4-3.1l0.9-1l-0.5,0c-0.6,0.6-1.4,1.1-2.2,1.7c-0.8,0.6-1.8,1.1-2.8,1.7l-1.5,0.7l0.3,0.3l1.1,0.1
		c0.6,0.4,0.9,0.8,0.8,1.2c-0.3,0.5-0.9,0.6-1.6,0.2l-1.2-0.7c-0.4-0.4-0.9-0.7-1.3-0.9l-0.5-0.4l0.2-0.5l1.5,0.6H30l-0.3-0.9
		l1.8-1.1c0.5-0.2,0.7-0.5,0.6-0.9l0.2-0.9c0.8,0.2,1.6,0,2.5-0.4c0.9-0.4,1.8-0.7,2.6-0.7C37.9,89,37.9,89.4,37.4,89.8z M58.3,11.9
		l0.1-1.2l-1,0.2c-0.9,0.3-1.8,0-2.7-0.8c-0.6,0.1-0.9-0.1-0.8-0.7c0.2-0.5,0.2-0.8-0.2-0.8l-1.5,0.2c-0.9-0.1-1.6-0.4-1.9-0.8
		c-0.2-0.3-0.1-0.8,0.4-1.3c-0.9-0.4-1.5-0.8-1.7-1.2c-0.2-0.4-0.1-0.8,0.4-1.1c0.5-0.3,1.4-0.3,2.7-0.1C52,3.9,51.9,3.6,52,3.2
		c0-0.4,0.9-0.2,2.6,0.7l1,0.6C55.9,3.9,56.3,3.8,57,4c0.8,0.4,1.5,0.8,2.2,1.3c0.7,0.5,1.4,1.3,2.3,2.2c0.7-0.5,1.2-0.4,1.5,0.3
		L63,9c-0.7-0.7-1.6-0.8-2.7-0.1l-0.7-0.3c-1-1.2-1.6-2.1-1.8-2.7c-0.2-0.8-0.3-0.8-0.3-0.2c0,0.7,0.4,1.5,1.2,2.6
		c-1.5-0.5-2.5-1.1-3.2-1.8c-0.7-0.7-1.2-1.4-1.6-1.9c-0.4-0.6-0.5-0.6-0.4,0c0.4,0.7,1,1.4,1.7,2.1c-0.5-0.2-1-0.5-1.5-0.7
		c-1.2-0.5-2.1-0.8-2.9-0.8c-0.4,0-0.4,0.1-0.1,0.2C52,5.7,53,6,53.5,6.3c0.6,0.3,1,0.5,1.2,0.8c-0.9,0.4-1.9,0.6-2.9,0.6
		c-0.6,0-0.9,0-0.9,0.1c0.1,0.1,0.3,0.1,0.6,0.2c1.2,0.1,2.4,0,3.7-0.4c0.9,0.5,2,0.9,3.2,1.4c-0.7,0.2-1.5,0.5-2.2,1
		c-0.3,0.3-0.1,0.3,0.4,0.1C57.2,9.5,58,9.2,59,9.1l0.9,0.3c-0.1,0.9,0.2,1.8,0.7,2.8L60,12.4L58.3,11.9z M64,17.2
		c-1.9,0-2.2,0-2.4-0.3c-0.1-0.2-0.1-0.4,0.5-0.8l0.3-0.6c-1.1-0.5-2.1-1.1-2.1-2.4l0.9-0.4c0.4-0.5,0.4-0.8,0-1.1
		c-0.4-0.2-0.6-0.9-0.6-1.9c0.4-0.8,1.3-0.8,2.7,0c0.6-1.2,1.4-1.6,2.3-1.1c-1,0-1.5,0.4-1.7,1.3c-0.1,0.5-0.1,1.2,0,2
		c-0.3-0.5-0.7-0.9-1.2-1.2c-0.9-0.5-1.1-0.4-0.5,0.1c0.6,0.6,1.1,1.2,1.5,1.8c-0.7,0.6-1.5,0.9-2.4,0.8c-0.3,0.1-0.3,0.2,0.1,0.3
		c0.4,0.1,0.9,0.1,1.4-0.1c-0.1,0.5,0.1,1.4,0.3,2c0.3,0.5,0.7,0.9,1.2,1.2C64.3,16.9,64.1,17,64,17.2z M65,18.2
		c0-0.4,0.3-0.6,1.1-0.7c0.7-0.1,0.9-0.3,0.4-0.6c-1-0.3-1.8-0.9-2.4-1.7c-0.4-0.6-0.4-1,0-1.2l0.8-0.2l0.4-0.5l-0.4-1.8
		c-0.1-0.9,0.1-1.5,0.7-1.9c0.9-0.1,1.8,0.1,2.7,0.8c0-0.5,0.3-0.6,0.9-0.4c0.6,0.2,1.1,1.4,1.6,3.7l0.8,0.3c0.3-0.6,0.5-1,0.7-1
		c0.3,0,0.5,0.6,0.8,1.7c0.7,0.6,1,1.6,1,3c-0.4,0.6-0.7,1.3-0.7,2.1l-0.4-0.9c-0.2-1-0.3-2.1-0.3-3.2c0-0.5-0.1-0.5-0.1,0
		c-0.1,1-0.1,1.8-0.1,2.5c-0.9-1.2-1.9-2.2-2.9-3.2c-0.2-0.7-0.3-1.6-0.2-2.5c-0.1-0.8-0.2-1-0.3-0.6c-0.1,1,0,1.9,0.1,2.8
		c-0.8-0.8-1.7-1.9-2.7-3.4c-0.3-0.5-0.4-0.6-0.3-0.3c0.6,1.2,1.3,2.2,2,3c0.7,0.8,1.3,1.4,1.7,1.9c-0.9-0.3-1.6-0.4-2.3-0.5
		c-0.6-0.1-1.2-0.3-1.8-0.5c-0.5-0.1-0.5,0,0,0.3c0.3,0.2,0.9,0.4,1.8,0.6c0.9,0.2,1.8,0.5,2.6,0.9c0.4,0.3,1,1,1.8,2.1l0.6,1.4
		c-0.9-0.5-2-0.9-3.1-1.1c-1.1-0.2-1.8-0.4-2-0.6c-0.9-0.4-1-0.3-0.3,0.1c0.2,0.2,0.9,0.4,2.1,0.7c1.2,0.3,2.4,0.7,3.5,1.4l0.1,0.3
		c-0.2,0.3-0.3,0.6-0.3,1.1l0.4,1c-0.3-0.4-0.7-0.2-1.3,0.5c0.2-0.4,0.1-0.8-0.2-1.2c-0.5-0.7-1.6-1.5-3.4-2.3l-0.3,0.6
		C66.3,20.3,65.4,19.4,65,18.2z M77.2,43.1c-0.3-0.5-0.9-1.3-1.5-2.4c-0.6-1.1-1.1-1.9-1.4-2.6c-0.3-0.7-0.4-1.4-0.2-2.1
		c0.2-0.7,0.4-1.2,0.5-1.6c0.1-0.4,0.1-0.4-0.1-0.2c-0.4,0.7-0.7,1.4-0.9,2.1l-1-2.9c0.1-1.1,0.7-2.6,1.8-4.4
		c0.3-0.6,0.3-0.7-0.1-0.2c-1,1.3-1.7,2.7-2,4.1l-1.6-3.5c0-0.6,0.4-1.8,1.2-3.6c0.4-0.9,0.3-0.9-0.3,0.1c-0.5,1-0.9,1.9-1.2,2.8
		c-0.5-1.9-0.9-3.5-1.4-4.9L69,23.9l0.2,0.6c0.3,1.7,0.6,3.1,1.1,4.4c-0.6-0.6-1.4-1-2.2-1.4c-0.4-0.2-0.4-0.2,0,0.2
		c1,0.6,1.7,1.1,2.2,1.7c0.4,0.9,0.8,1.8,1.1,2.6c-0.6-0.4-1.6-0.9-3.1-1.5c-0.5-0.1-0.5,0,0,0.2c1.8,0.7,2.9,1.5,3.4,2.2l1,2.7
		c-0.4,0-0.9-0.6-1.5-1.7c-0.5-0.9-1.8-1.8-3.8-2.7c-0.4-0.2-0.6-0.5-0.6-1.1c0.1-0.4,0.4-0.5,1.2-0.5c-0.2-0.6-0.4-1-0.7-1.4
		L67,27.5c-0.5-1.1-0.2-1.7,1-1.7c-0.4-0.7-0.6-1.2-0.4-1.6c0-0.6,0.1-1.3,0.4-1.9c0.2-0.4,0.4-0.8,0.5-1.2c0.6,0.4,1.2,0.7,1.7,0.9
		c0.5,0.3,0.8,0.7,0.8,1.4l-0.2,1.6c0.1,0.3,0.4,0.2,0.8-0.3c0.4-0.6,0.8-1,1.1-1.1c0.4,0.2,0.7,0.5,1.1,0.9
		c0.3,0.6,0.2,1.8-0.3,3.5l-0.6,1.4c1.1-1.5,2.1-2.2,2.8-2.2c0.2,0.2,0.3,0.5,0.2,1c-0.1,0.5-0.1,1.1,0,1.6c0.1,0.6-0.1,1.1-0.6,1.5
		c-0.5,0.4-0.8,1.1-1,2c1.1-0.8,1.5-0.7,1.3,0.5l-0.6,2.2c-0.2,1,0,1.5,0.5,1.5c0.5-0.1,0.8,0,0.9,0.2c0.1,0.2,0.1,0.6,0.1,1.1
		c-0.3,0.7-0.4,1.2-0.4,1.4c0,0.2,0.1,0.4,0.3,0.6c0.2,0.2,0.5,0.1,1-0.1c0.5-0.2,0.8-0.1,0.8,0.4c0,0.5,0,1,0,1.5
		c0,0.5,0.2,1,0.5,1.4c0.2,0.3,0.5,0.6,0.9,0.7l0.5-0.6c-0.7,0-1-0.4-0.9-1.3c0-0.9,0-1.6,0-2.1c-0.3-0.6-0.5-1-0.8-1.1
		c-0.3-0.1-0.9-1.7-1.9-5l1.1,0.1c0.8,2.8,1.4,4.3,1.9,4.5c0.5,0.2,0.7,0.5,0.7,0.8c0,0.3,0.1,0.9,0.3,1.8c0.6-0.2,1-0.7,1.1-1.7
		c0.2-0.9-0.1-1.5-0.8-2c-0.7-0.4-1.1-0.8-1.2-1.1c-0.2-0.6,0-0.9,0.7-1.1c0.4-0.2-0.5-1-2.7-2.4c-1.1-0.8-1.4-1.5-1-2.1
		c0.2-0.3,0.5-0.3,0.9,0c0.4,0.3,0.7,0.4,0.9,0.2c0.2-0.5,0.1-0.8-0.5-1c-0.6-0.2-0.9-0.4-0.9-0.6c0-1,0-1.7,0-2.1
		c0.1-0.4,0-0.8-0.1-1.3c-0.4-0.5-1.1-0.5-2.1,0.1c0.2-0.6,0.3-1.1,0.2-1.7c-0.1-0.5-0.4-1.1-0.8-1.6l-0.5-1.6
		c-0.1-0.5,0.2-0.9,0.9-1.1c-0.2-1-0.2-1.8,0-2.2c0.2-0.5,0.4-0.9,0.5-1.2c0.1-0.3,0.4-0.3,0.9-0.1c0.5,0.2,1.3,1.1,2.4,2.7
		c0.5-0.6,1.1-0.4,1.6,0.7c0.6,0.9,0.8,2.1,0.7,3.4c1.2-0.7,1.7-0.2,1.3,1.4c0.5,1.1,0.9,2,1,2.6c0.1,0.6,0,1.2-0.3,1.7
		c-0.3,0.5-0.5,0.9-0.4,1.2c0,0.3,0.1,0.3,0.4,0c0.2-0.3,0.7-0.6,1.3-0.8c0.4,0.9,0.6,1.6,0.6,1.9c0,0.4-0.2,0.8-0.7,1.2
		c-0.5,0.4-0.7,1-0.8,1.6c0,0.3,0.2,0.4,0.5,0.4l0.9-0.3c0.5-0.1,0.5,0.3,0.1,1.1c-0.5,0.9-0.8,1.6-1,2.2s-0.3,1.1-0.3,1.5
		c0,0.8-0.2,1.2-0.4,1.4c0.1-1,0-2-0.1-3c-0.1-1.1-0.3-2.2-0.6-3.5c0.3-0.2,0.6-1,1.1-2.4c0.2-0.7,0.2-0.8-0.1-0.3
		c-0.4,1-0.7,1.6-1.1,1.9c-0.4-1.2-0.8-2.7-1.2-4.5c0.5-0.8,0.8-1.9,1-3.2c0-1.1,0-1.2-0.2-0.3c-0.2,1.3-0.6,2.3-1.1,3
		c-0.4-1.4-0.9-2.7-1.4-4c0.2-0.7,0.2-1.5,0.2-2.5c0-0.9-0.1-1-0.3-0.1c0,0.7-0.1,1.3-0.3,1.8L77,21.5l-0.7-1.6
		c-0.2-0.5-0.3-0.5-0.3,0l0.6,2.1c-0.5-0.6-1-1-1.4-1.3c-0.4-0.3-0.5-0.3-0.3,0.1c0.7,0.6,1.4,1.3,1.9,2.1c0.4,1.1,0.9,2.2,1.3,3.3
		c-1.3-1.1-2.2-1.7-2.7-1.8c-0.6-0.2-0.6-0.1,0,0.3c0.9,0.6,2,1.6,3.2,3c0.4,1.2,0.8,2.3,1.2,3.4c-0.6-0.4-1.4-1.1-2.3-2.2
		c-0.4-0.4-0.4-0.3,0,0.2c0.7,1.1,1.6,2.1,2.6,2.9l0.8,3.1c-0.8-0.8-1.8-1.6-3-2.4c-0.5-0.3-0.6-0.3-0.1,0.2
		c1.1,0.8,2.2,1.9,3.4,3.4c0.3,0.9,0.5,2.7,0.4,5.2c0,0.6-0.5,1.1-1.4,1.4L80,45.2l-1.3,0.1C78.1,44.4,77.6,43.6,77.2,43.1z
		 M78.8,45.5c0.2-0.1,0.6,0,1.1,0c-0.5,2.5-1,5.3-1.4,7l-0.7-0.4C78.4,49.7,78.7,47,78.8,45.5z M70,59.7c-0.2-0.1-0.7-0.6-1.7-1.4
		c-0.8-0.7-1.1-1.4-0.8-2c-0.2-0.3-0.4-0.7-0.6-1.1c-0.2-0.4-0.1-0.8,0.1-1.2c0.3-0.4,0.9-0.2,1.9,0.5c0.2-0.6,0.2-1.1,0-1.6
		c-0.2-0.5-0.4-1-0.6-1.5c-0.4-0.8-0.9-1.5-1.3-2.1c-0.4-0.8-0.5-1.2-0.3-1.3c0.2-0.1,0.5,0,1,0.4c0.8-0.9,1.4-1.2,1.7-0.8
		c0.3,0.4,0.5,1,0.7,1.9c0.2,0.9,0.2,1.8,0.1,2.8l-0.2,0.2l0.2,0.2c0.1,0.2,0,1-0.3,2.3c0,0.3,0.1,0.5,0.3,0.8
		c-0.1-0.4-0.1-0.7-0.1-0.9c0-0.2,0.1-0.6,0.3-1.2c0.2-0.6,0.3-1,0.3-1.1c0-0.1,0-0.1-0.3-0.2c0.3-0.1,0.3-0.2,0.4-0.4
		c0.1-0.2,0.1-0.4,0.1-0.6c-0.1-0.2-0.1-0.7-0.1-1.6c0-0.9-0.1-1.5-0.3-2c-0.1-0.4-0.2-0.8-0.3-1.1c0-0.3-0.2-0.4-0.6-0.4
		c-0.4,0-0.9,0.3-1.6,1.1c0.3-1.4,0.6-2.4,0.9-2.9c0.3-0.5,0.6-0.6,1-0.4c0.3,0.2,0.6,0.4,0.6,0.7c0.1,0.2,0.3,0.2,0.5-0.1
		c0.2-0.3,0.4-0.4,0.5-0.3c0.1,0.1,0.3,0.3,0.4,0.6c0.1,0.3,0.3,0.6,0.3,1c0.1,0.3,0.1,0.9,0.2,1.8c0.1,0.9-0.1,1.5-0.3,1.8
		c-0.3,0.3-0.4,0.7-0.4,1.1c0.1,1.7,0.2,2.6,0.4,2.6c0.2,0,0.4-0.2,0.7-0.4c0.3-0.3,0.5-0.3,0.8-0.3c0.2,0.1,0.3,0.6,0.4,1.5
		c0,0.9,0.1,1,0.3,0.3c0.1-0.7,0.4-1.1,0.8-1.1s0.4,1,0.2,2.9c-1.3,1.2-2.2,2.1-2.8,2.9c-0.2-0.8-0.2-1.4,0-1.8
		c0.2-0.3,0.3-0.7,0.5-1.1c0.2-0.4,0.3-0.8,0.4-1.1c0.3-0.8,0.2-0.9-0.2-0.2c-0.2,0.4-0.4,0.8-0.5,1.1c-0.2,0.3-0.3,0.6-0.5,0.9
		c-0.1-0.5-0.3-1.5-0.7-2.9c-0.3-0.9-0.4-0.9-0.3,0c0.3,1.6,0.4,3.1,0.5,4.6c-0.6-0.6-1.1-1.1-1.7-1.6c-0.6-0.4-1.1-0.9-1.5-1.4
		c-0.4-0.2-0.4-0.2-0.2,0.1c0.4,0.5,1,1.2,1.8,1.9c0.8,0.7,1.3,1.2,1.4,1.4c0.2,0.2,0.3,0.4,0.3,0.6c-0.3,0.4-0.6,0.8-1.1,1.3
		c-0.2-0.1-0.4-0.4-0.4-0.7C70.2,60.1,70.1,59.9,70,59.7z M52,78c0.4-0.5,0.9-0.9,1.6-1.3c2.8-1.4,4.7-2.2,5.7-2.5
		c0.2-0.1,0.3,0,0.5,0.1l0.4,0.5l-0.5,0.3c-0.3,0.3-0.8,0.4-1.3,0.4c-0.4,0-1,0.1-1.8,0.4c-0.7,0.3-1.1,0.8-1.2,1.3
		c-0.1,0.4-0.3,0.7-0.6,0.8c-0.7,0.4-1.4,0.8-2,1.1l-1.6-0.1L52,78z M56.3,79.7H56l0-0.1c-0.2,0.1-0.4,0.1-0.5,0.2l-1.7-0.2l1.8-0.9
		l0.4,0.8c0.1,0,0.2-0.1,0.2-0.1L56,78.5c-0.2-0.6,0-1.1,0.6-1.4c0.5-0.4,1.1-0.6,1.8-0.5c0.3,0,0.3,0.5,0.1,1.4
		c-0.2,0.4-0.9,1-2.2,1.5L56.3,79.7z M49,86.1l-0.3-0.8L47.4,87l-1.1,0.7c-0.5,0.4-1,0.6-1.6,0.5L43,87.4l0.9-0.5l0.2,0.2
		c-0.2,0.5,0,0.4,0.6-0.2l1.6-1.5c0.1-0.9-0.1-2.1-0.7-3.5c-0.5-1.4-0.9-2.3-1.2-2.7c-0.1-0.3-0.8-0.4-2.3-0.2
		c0.9-0.4,1.9-0.5,3.1-0.1l1.2,0.5l0.7-0.3l-0.1-0.1l-1.1-0.5l0.6,0.1l0.5,0.5l0.1,0.1l0,0l0.3,0.3c1.7,1.8,2.7,3.1,2.9,3.8
		c0.2,0.7,0.2,1.3,0.1,2C49.7,86.1,49.2,86.4,49,86.1z M60.9,93.3l0.5,0.1l-0.2,0.2L60,94.1c-0.6,0.5-1.2,0.8-2,1l-0.8-0.2l-0.2-0.6
		c0.2-0.3,0.5-0.5,0.8-0.7c0.3-0.1,0.7-0.2,1.2-0.4l1.2,0.2L60.9,93.3z M59.1,93.1c-0.9,0-1.5,0.6-1.7,0.6h-0.7
		c-1-1.3-1.7-1.6-2.3-2.1l-2.4-2c0.4-0.2,1.4-0.1,2.8,0.3L59.1,93.1z M66.2,82.6c1,0.1,1.7,0,2.2-0.1c0.9-0.4,2.8-1.7,5.6-4.1
		c2.7-2,5-3.5,6.9-4.3c0.6-0.3,0.6-0.6,0.1-0.7c-0.5-0.1-1.3-0.2-2.3-0.2c-0.3,0.3-0.3,0.5,0.1,0.7c0.5,0,0.8,0,1,0.1
		c-2.2,1.2-4.1,2.3-5.6,3.5c0.1-0.8,0.2-2.1,0.3-4c0-0.6-0.2-1.1-0.6-1.6c-0.2-0.3,0.1-0.6,0.9-0.9l0.7-0.2v1.1l-0.9-0.2l0.1,0.5
		c0.2,0.4,0.6,0.6,1.1,0.8l2.7,0.1l1.2,0c1.4,0,2.1,0.4,2.1,1c0,0.6,0,1.3,0.1,1.8c0.2,1.4,0.8,2.8,1.7,4.1
		c-0.2,0.6-0.6,1.3-1.3,2.1l-2.6,1.7c-2.2,1.6-5.3,3.7-9.1,6.3c-2.7,0.1-6-0.2-9.9-0.7c-2.8-0.4-6-1.1-9.6-2.1L50.3,87l0.4-0.4
		c0.6-0.7,0.9-1.2,0.9-1.5c0.1-0.3,0-0.8-0.3-1.7c-0.2-0.9-0.6-1.9-1.9-3.1v-0.3l0.8-0.1c2.1,0.1,3.9,0.4,5.5,0.8
		c1.6,0.4,3.5,0.8,5.8,1.1C63.7,82.3,65.3,82.5,66.2,82.6z M62.5,81.3c-0.9-0.1-2.3-0.4-4.2-0.8l1.8-0.6c0.9,0.2,1.5,0,1.6-0.6
		C61.8,80,62,80.7,62.5,81.3z M72.9,66.5c-0.7,0.7-0.9,1.5-0.6,2.3c-0.9,0.5-1.8,1.2-2.7,2.2c-0.9,1-1.5,1.8-2,2.5
		c-0.4,0.7-0.9,1.1-1.4,1.2c-0.6,0.3-1.2,0.1-2-0.4L64,75.5l-3.4,2.1L59,78.3c0.1-0.3,0.2-0.9,0.3-1.7l0.6-0.5
		c2.3-1.2,3.6-2.3,4-3.3c0.5-0.8,1-1.5,1.5-2.1c0.5-0.6,0.9-1.2,1.2-2l0.1-1.2l-0.1-1.3c0.5,0.6,1,0.7,1.5,0.4
		c0.7-1.3,1.5-2.5,2.3-3.6c0.8-1.1,1.7-2.2,2.6-3.1c0.9-1,1.7-1.8,2.3-2.5l0,1.3c-2,2.5-3.3,4.2-3.8,5.1c-1.7,2.6-2.9,4.6-3.5,6.1
		c-0.4,0.8-0.9,1.5-1.6,2c-0.5,0.3-0.9,0.6-1.2,0.9c-0.2,0.4-0.1,0.5,0.4,0.3c0.3-0.3,0.7-0.6,1.1-0.7c0.7-0.4,2.3-2.1,4.7-5.2
		l-0.1-1.8l0.6-1c0,1,0,1.5,0.3,1.6c0.2,0.1,0.5-0.2,0.8-0.8c0.3-0.6,1.2-2.4,2.6-5.4c-0.3,0.9-0.3,1.7-0.1,2.4
		c-0.8,0.6-1,1.5-0.6,2.9L72.9,66.5z M84.2,55.4c-0.1,0.8-0.4,1.6-0.8,2.2c-1.4,1.6-1.9,2.5-1.7,2.8c0.4,0.6,0.3,1.4-0.2,2.2
		c-0.7,0.9-1.7,1.9-2.9,3c0.3,0.7,0.1,1.2-0.8,1.7c-1,0.5-2,1-3.2,1.4c2.2-1.6,3.5-3.4,4-5.3c0.7-0.6,1.3-1.1,1.9-1.3
		c0.5-0.3,0.6-0.4,0.3-0.4c-0.6,0.2-1.2,0.6-1.9,1.1c0.6-1.3,1.1-2.6,1.4-4.1c1.3-1.3,2.1-2.3,2.5-3c0.5-0.7,0.5-0.8,0.1-0.4
		c-0.5,0.8-1.3,1.7-2.3,2.7c0.5-1.4,0.9-3,1.3-4.8c0.2-1,0.1-1.2-0.2-0.5l-0.5,1.8c-0.2-0.7-0.5-1.2-0.8-1.6l0.7,2.1
		c-0.1,0.8-0.5,2-1,3.6c-0.5-1.3-1.1-2.5-1.9-3.6c-0.7-0.9-0.8-0.9-0.4-0.1c0.8,1.1,1.4,2.6,1.9,4.4c-0.4,1.6-0.9,2.9-1.4,4
		c-0.4-0.6-0.8-1-1.3-1.3c-0.3-0.2-0.3-0.1,0,0.3c0.4,0.4,0.8,0.9,1.1,1.3c-0.4,1-0.9,1.8-1.6,2.6c-0.7,0.7-1.3,1.4-1.9,1.9
		c0.8-1.2,1.1-2.6,0.8-4.1c0-0.3,0.2-0.5,0.6-0.7c0.4-0.2,0.6-0.4,0.4-0.6c-0.4-0.7-0.6-1.3-0.6-1.8c0.3-0.1,0.7-0.1,1.2,0
		c0.4-0.3,0.4-0.7-0.1-1.3c-0.5-0.6-0.8-1.3-1-2.4c0-0.6,0.4-0.8,1.2-0.7c0.4,0,0.4-0.5,0.1-1.3L76.3,54c-0.6-1.3-0.4-1.8,0.8-1.5
		l1.3,0.8c0.9,0.3,1.3-0.3,1.3-1.8c0-0.3,0.3-0.4,0.8-0.2c0.5,0.2,1-0.2,1.4-1.2c0.4-0.5,0.8,0,1,1.3c-0.1,1.8,0.3,2.6,1.3,2.5
		C84.3,54.1,84.3,54.6,84.2,55.4z M85.7,51.1c0.1,0.3,0,0.6-0.2,0.8c-0.2,0.2-0.6,0.4-1.2,0.6l-0.6-1c0-0.8-0.2-1.6-0.8-2.3
		c0.2-0.2,0.6-0.4,1.1-0.6c0.4-0.2,0.3,0-0.2,0.1c-0.5,0.1-1,0.6-1.3,0.6h-0.1c0.3-1.3,0.8-2.3,1.5-3.3c0.2-0.4,0.1-0.5-0.3,0
		c-0.6,0.8-1.1,1.6-1.5,2.5c-0.2-0.2-0.4-0.6-0.5-1.1c-0.1-0.6-0.2-0.7-0.3-0.1c0.1,0.8,0.2,1.3,0.4,1.6c-0.7,1.1-1.3,1.6-1.8,1.3
		c0.3-1.6,0.6-3.3,1.1-5.1c0.8-0.8,1.4-1,2-0.8c0.8-0.6,1.5-0.8,2.1-0.4c0.3,0.5,0.4,1,0.4,1.5c0,0.5-0.2,1-0.5,1.6
		c0.6,0,1,0.3,1,0.8c-0.3,1.1-0.8,2-1.6,2.5C85.2,50.5,85.6,50.8,85.7,51.1z"/>
	<path style="fill-rule:evenodd;clip-rule:evenodd;fill:#FFFFFF;" d="M15.6,83.1c0,0.1,0.1,0.1,0.2,0.2c0.5,0.3,0.9,0.2,1.2-0.4
		c0.4-0.6,0.3-1-0.2-1.3c-0.2-0.2-0.2-0.2-0.5,0.1L15.6,83.1L15.6,83.1z M9,78.6c0.6,0.4,1,0.7,1.6-0.1c0.3-0.5,0.3-1-0.1-1.2
		c-0.1-0.1-0.3-0.2-0.3-0.2c-0.1,0-0.1,0.1-0.2,0.1L9,78.6L9,78.6z M18.5,83.3c0.1-0.5,0.2-0.8-0.2-1.1l0.1-0.1
		c0.2,0.1,0.5,0.3,0.7,0.4c0.2,0.1,0.5,0.3,0.8,0.4L19.8,83c-0.1-0.1-0.5-0.2-0.6,0c-0.1,0.2-0.4,1.4-0.5,1.7l-0.3,1.9l1.4-1.2
		c0.2-0.2,1.1-1.1,1.2-1.3c0.2-0.4,0-0.5-0.1-0.6l0-0.2c0.2,0.2,0.5,0.3,0.6,0.4c0.2,0.1,0.5,0.2,0.6,0.3l0,0.1
		c-0.5-0.3-0.9,0.3-1.3,0.6l-2.8,2.6l-0.2-0.1L18.5,83.3L18.5,83.3z M14.8,84c-0.1,0.2-0.4,0.7-0.4,0.9c-0.1,0.2,0.1,0.3,0.4,0.6
		l-0.1,0.1c-0.2-0.2-0.5-0.3-0.8-0.5c-0.2-0.1-0.5-0.3-0.7-0.4l0-0.2c0.2,0.1,0.5,0.3,0.6,0.1c0.2-0.1,0.5-0.6,0.6-0.8l1-1.7
		c0.1-0.2,0.4-0.7,0.5-0.8c0.1-0.3-0.1-0.4-0.4-0.5l0.1-0.1c0.2,0.2,0.6,0.3,0.8,0.5c0.2,0.1,0.5,0.3,0.7,0.4c0.6,0.3,1.1,1,0.5,1.8
		c-0.5,0.9-1.4,0.8-2,0.3c-0.1,0-0.4-0.2-0.4-0.2L14.8,84L14.8,84z M12.3,80c0.1-0.2,0.4-0.7,0.5-0.8c0.1-0.3-0.1-0.4-0.4-0.5
		l0.2-0.1l2.5,1.6L14.5,81l-0.1-0.1c0.4-0.7,0.2-0.9-0.4-1.3l-0.4-0.2c-0.1-0.1-0.1-0.1-0.3,0.1L12.4,81c0.7,0.5,1,0.2,1.4-0.2
		l0.1,0c-0.2,0.4-0.4,0.6-0.5,0.8c-0.2,0.4-0.3,0.6-0.5,0.8l-0.1-0.1c0.4-0.7,0.2-0.9-0.4-1.2l-0.6,1.1c-0.1,0.2-0.3,0.5-0.3,0.7
		c0,0.3,0.3,0.6,0.5,0.7c0.6,0.3,0.9,0.4,1.5-0.2l0.1,0l-0.6,1L10,82.5l0.1-0.1c0.1,0.1,0.4,0.2,0.6,0.1c0.1-0.1,0.4-0.6,0.6-0.8
		L12.3,80L12.3,80z M9.6,81.5c0,0.3,0,0.5,0.3,0.7l-0.1,0.1c-0.1-0.1-0.2-0.2-0.4-0.3c-0.1-0.1-0.4-0.1-0.5-0.2L9,81.2l0-1.8
		c0-0.3,0-0.3-0.3-0.6l-0.5,0.7c-0.1,0.2-0.4,0.7-0.5,0.9c0,0.2,0.1,0.3,0.4,0.4L8,81.1c-0.2-0.1-0.5-0.3-0.7-0.4
		c-0.2-0.2-0.5-0.4-0.8-0.5L6.6,80c0.2,0.1,0.4,0.2,0.6,0.1c0.2-0.1,0.5-0.6,0.6-0.8l1.2-1.8c0.1-0.1,0.4-0.6,0.5-0.8
		c0.1-0.2-0.1-0.3-0.3-0.4l0-0.2c0.4,0.2,0.6,0.4,0.9,0.6c0.2,0.1,0.5,0.3,0.6,0.4c0.6,0.4,1.1,1,0.5,1.8c-0.5,0.7-1.1,0.7-1.7,0.4
		L9.6,81.5L9.6,81.5z M42.1,83l-0.9-1.7l-0.3,1.9L42.1,83L42.1,83z M27.6,86.3c0.1,0.2,0.1,0.6,0.2,0.8c0.1,0.2,0.3,0.2,0.6,0.2
		c0.4-0.1,0.7-0.6,0.5-1.1c0-0.4-0.2-0.7-0.5-0.9c-0.3-0.1-0.5,0-0.8,0l-0.2,0L27.6,86.3L27.6,86.3z M27.4,85l0.1,0
		c0.2-0.1,0.4-0.1,0.5-0.2c0.2-0.2,0.2-0.6,0.2-0.9c-0.1-0.5-0.4-0.8-0.8-0.7c-0.1,0.1-0.3,0.1-0.3,0.1s0,0.2,0,0.3L27.4,85L27.4,85
		z M24,86.9c0,0.2,0.1,0.7,0.2,0.9c0.1,0.2,0.3,0.2,0.6,0.1c0.6,0,0.8-0.5,0.6-1.1c-0.1-0.3-0.2-0.7-0.6-0.8c-0.2-0.1-0.6-0.1-0.9,0
		l-0.1,0L24,86.9L24,86.9z M23.7,85.7l0.2-0.1c0.2,0,0.4,0,0.5-0.2c0.2-0.2,0.2-0.5,0.2-0.8c-0.1-0.6-0.4-0.9-0.9-0.8
		c0,0-0.2,0-0.3,0.1l0,0.2L23.7,85.7L23.7,85.7z M40.7,83.7c0,0.3-0.2,0.9-0.1,1.1c0,0.3,0.3,0.2,0.6,0.2l0,0.2c-0.2,0-0.4,0-0.7,0
		c-0.2,0.1-0.4,0.1-0.7,0.1l0-0.1c0.3-0.1,0.4-0.2,0.5-0.6c0.1-0.6,0.1-1,0.2-1.4l0.5-3l0.2,0l1.8,3.4c0.1,0.2,0.3,0.5,0.5,0.8
		c0.1,0.1,0.3,0.1,0.6,0.1l0,0.2c-0.2,0-0.6,0-0.8,0.1c-0.3,0-0.7,0.1-0.9,0.1l0-0.1c0.1-0.1,0.4-0.1,0.3-0.5c0-0.1-0.1-0.3-0.1-0.4
		l-0.5-0.8l-1.4,0.3L40.7,83.7L40.7,83.7z M38.6,80.9l0.1,0l0.3,1.4l-0.1,0c-0.2-0.8-0.8-1.3-1.5-1.2c-1.1,0.1-1.2,1.5-1,2.6
		c0.3,1.1,0.7,2.2,1.8,2.1c0.8-0.2,1-0.9,1-1.8l0.1-0.1l0.3,1.7l-0.2-0.3c-0.3,0.5-0.8,0.6-1.2,0.7c-1.2,0.3-2.2-0.6-2.5-2
		c-0.2-1.4,0.5-2.7,1.7-2.8c0.6-0.1,0.9,0,1.3,0.2L38.6,80.9L38.6,80.9z M34.1,83c0-0.2-0.1-0.7-0.1-0.9c-0.2-0.2-0.4-0.2-0.6-0.2
		l-0.1-0.1c0.3-0.1,0.7-0.1,0.9-0.1c0.3,0,0.7-0.1,0.9-0.1l0,0.1c-0.1,0-0.3,0.1-0.4,0.3c0,0.2,0,0.7,0.1,0.9L35,85
		c0,0.2,0.1,0.8,0.2,0.9c0.1,0.2,0.3,0.2,0.6,0.2l0,0.2c-0.3,0-0.6,0-0.9,0c-0.2,0.1-0.6,0.1-0.9,0.1l0-0.1c0.2,0,0.4,0,0.4-0.3
		c0.1-0.2,0-0.7,0-0.9L34.1,83L34.1,83z M30.2,83.7c0-0.2-0.1-0.8-0.1-1c-0.1-0.2-0.4-0.2-0.6-0.1l-0.1-0.2c0.3,0,0.7,0,0.9-0.1
		c0.3,0,0.7,0,0.9-0.1l0.1,0.2c-0.2,0-0.4,0-0.5,0.2c0,0.2,0.1,0.8,0.1,1l0.3,2.1c0.1,0.9,0.4,1.1,1.1,1c0.2-0.1,0.6-0.1,0.8-0.4
		c0.2-0.2,0.2-0.6,0.2-0.9l0.2-0.1l0.1,1.3c-0.1,0-0.2,0-0.3,0c-1,0.1-2.1,0.4-3.1,0.5l0-0.1c0.2-0.1,0.4-0.1,0.4-0.3
		c0.1-0.2,0-0.8,0-1L30.2,83.7L30.2,83.7z M26.6,84.4c0-0.2-0.1-0.8-0.2-0.9c-0.1-0.2-0.3-0.2-0.6-0.2l0-0.1
		c0.3-0.1,0.6-0.1,0.9-0.1c0.2,0,0.4-0.1,0.7-0.1c0.7-0.1,1.4,0,1.6,0.8c0.1,0.7-0.3,1-0.7,1.2c0.3,0,0.7,0,0.9,0.2
		c0.3,0.2,0.6,0.5,0.7,0.9c0,0.6-0.2,0.9-0.4,1.1c-0.3,0.3-0.8,0.4-1.1,0.4c-0.1,0.1-0.4,0.1-0.7,0.1c-0.3,0-0.7,0.1-1,0.2l0-0.2
		c0.1,0,0.4,0,0.4-0.3c0-0.2-0.1-0.7-0.1-0.9L26.6,84.4L26.6,84.4z M22.9,85c0-0.2-0.1-0.8-0.1-1c-0.1-0.2-0.3-0.2-0.6-0.1l0-0.2
		c0.2,0,0.6,0,0.8-0.1c0.3,0,0.6,0,0.8-0.1c0.6-0.1,1.4,0,1.6,1c0.1,0.7-0.2,1-0.6,1.2c0.3,0,0.7,0,0.9,0.1c0.3,0.2,0.6,0.5,0.6,1
		c0.1,0.4-0.1,0.8-0.4,1.1c-0.2,0.2-0.7,0.3-1,0.4c-0.3,0-0.6,0-0.8,0.1c-0.5,0-0.7,0.1-1.1,0.1l0-0.1c0.2-0.1,0.4-0.1,0.6-0.3
		c0-0.2-0.1-0.8-0.1-1L22.9,85L22.9,85z M60.6,85.6l-0.3-2l-0.9,1.8L60.6,85.6L60.6,85.6z M68.1,85.1c0-0.2-0.1-0.8-0.1-0.9
		c-0.1-0.3-0.3-0.2-0.6-0.2v-0.2c0.2,0,0.6,0,0.9,0c0.2,0,0.6-0.1,0.9-0.1v0.2c-0.2,0-0.5,0-0.6,0.2c0,0.2,0,0.8,0,1l0.2,2
		c0,0.2,0,0.8,0.1,1c0.1,0.2,0.3,0.2,0.6,0.2v0.1c-0.3,0-0.6,0-0.9,0c-0.3,0.1-0.6,0.1-0.9,0.1v-0.1c0.1,0,0.5,0,0.5-0.3
		c0.1-0.2,0-0.7,0-0.9L68.1,85.1L68.1,85.1z M63.7,84.7c0-0.2,0.1-0.8,0.1-1c-0.1-0.2-0.3-0.3-0.6-0.3l0.1-0.1
		c0.2,0,0.6,0.1,0.8,0.1c0.3,0.1,0.7,0.1,1,0.1L65,83.7c-0.1,0-0.5-0.1-0.6,0.1c-0.1,0.2-0.1,0.8-0.2,1l-0.3,2.2
		c-0.1,0.9,0,1.1,0.7,1.2c0.3,0,0.7,0.1,0.9,0c0.5-0.2,0.5-0.5,0.6-0.9h0.2l-0.3,1.4c0-0.1-0.2-0.1-0.2-0.1
		c-1.1-0.2-2.1-0.3-3.3-0.6v-0.1c0.2,0,0.4,0,0.7-0.2c0-0.1,0.1-0.7,0.2-0.9L63.7,84.7L63.7,84.7z M59,85.8c-0.1,0.2-0.3,0.8-0.4,1
		c0,0.3,0.3,0.3,0.4,0.5v0.1c-0.2,0-0.4-0.1-0.7-0.1c-0.2,0-0.5-0.1-0.7-0.1l0.1-0.1c0.3,0,0.4-0.1,0.7-0.5c0.2-0.5,0.4-0.9,0.7-1.4
		l1.3-2.7l0.2,0.1l0.7,3.8c0.1,0.2,0.1,0.7,0.2,0.9c0.1,0.2,0.2,0.2,0.4,0.3v0.1c-0.2,0-0.6-0.1-0.9-0.1c-0.2-0.1-0.6-0.1-0.9-0.1
		l0.1-0.2c0.1,0,0.4,0.1,0.4-0.1c0-0.2,0-0.5,0-0.7l-0.1-0.8l-1.6-0.2L59,85.8L59,85.8z M58.6,83.5l-0.1-0.1c0.1-0.7-0.1-0.9-0.7-1
		c-0.3,0-0.7-0.1-0.7,0.1L56.5,86c0,0.6,0,0.7,0.6,0.9V87c-0.3,0-0.7-0.1-1-0.2c-0.3,0-0.7,0-1-0.1v-0.1c0.7,0,0.8-0.1,0.9-0.7
		l0.4-3.5c0.1-0.1-0.2-0.2-0.4-0.2c-0.7-0.1-0.9-0.1-1,0.8l-0.2-0.1l0.2-1.1l3.8,0.7L58.6,83.5L58.6,83.5z M52.9,82.8
		c0-0.2,0.1-0.7,0-0.9c0-0.2-0.2-0.3-0.4-0.3v-0.2c0.3,0.1,0.7,0.2,0.9,0.2c0.3,0,0.7,0.1,1,0.1l-0.1,0.1c-0.1,0-0.4,0-0.6,0.2
		c-0.1,0.2-0.1,0.7-0.2,0.9L53.2,85c-0.1,0.2-0.1,0.8-0.1,0.9c0,0.3,0.2,0.3,0.4,0.3v0.2c-0.3-0.1-0.6-0.1-0.9-0.2
		c-0.3,0-0.6,0-0.9-0.1V86c0.2,0,0.4,0,0.6-0.2c0.1-0.1,0.2-0.7,0.2-0.9L52.9,82.8L52.9,82.8z M80,79.4l-1.7-1.1l0.7,1.9L80,79.4
		L80,79.4z M72.4,84.8l-1.5-1.4l0.3,1.9L72.4,84.8L72.4,84.8z M79.1,80.6c0,0.3,0.2,0.9,0.3,1.1c0.2,0.2,0.4,0,0.6-0.1l0.1,0.2
		c-0.1,0.1-0.3,0.2-0.6,0.3c-0.1,0.1-0.3,0.2-0.5,0.5L79,82.4c0.2-0.2,0.2-0.3,0.2-0.7c-0.2-0.6-0.3-1-0.4-1.5l-0.9-2.9l0.1-0.1
		l3.3,2.3c0.1,0.1,0.6,0.5,0.7,0.5c0.2,0.1,0.4,0,0.7-0.1v0.2c-0.2,0.1-0.5,0.2-0.7,0.4c-0.2,0.2-0.5,0.3-0.7,0.6L81.1,81
		c0.1-0.1,0.3-0.3,0.2-0.6c-0.1-0.1-0.3-0.2-0.4-0.3l-0.7-0.5L79,80.5L79.1,80.6L79.1,80.6z M73.5,81.4c-0.3-0.1-0.6-0.1-0.8,0.1
		l-0.1-0.2c0.2-0.1,0.3-0.1,0.5-0.3c0.1,0,0.3-0.1,0.4-0.2l4.4,1.5l-1.2-1.7c-0.2-0.2-0.4-0.7-0.7-0.9c-0.3-0.2-0.5-0.1-0.8,0
		L75,79.5c0.2-0.1,0.4-0.2,0.7-0.3c0.1-0.2,0.2-0.3,0.4-0.5l0.1,0.1c-0.1,0.2-0.3,0.2-0.2,0.6c0.1,0.2,0.6,0.8,0.8,1.1l1.8,2.5
		l-0.1,0.1c-0.2,0-0.4-0.1-0.7-0.2l-4-1.4l1.5,2c0.1,0.2,0.5,0.6,0.7,0.8c0.2,0.1,0.5,0,0.7-0.1v0.1c-0.1,0.2-0.3,0.3-0.6,0.5
		c-0.2,0.1-0.3,0.2-0.6,0.5l-0.1-0.1c0.2-0.2,0.3-0.3,0.2-0.7c-0.1-0.2-0.3-0.6-0.6-0.8L73.5,81.4L73.5,81.4z M71.4,86
		c0,0.2,0.1,0.8,0.2,1.1c0.1,0.2,0.4,0.1,0.6,0l0.1,0.1c-0.2,0.1-0.3,0.2-0.6,0.3c-0.2,0.1-0.5,0.2-0.6,0.3l-0.1-0.1
		c0.2-0.2,0.3-0.3,0.2-0.8c0-0.5-0.1-1-0.2-1.5l-0.6-3h0.2l2.9,2.6c0.1,0.1,0.5,0.5,0.7,0.6c0.2,0.1,0.4,0,0.6,0l0.1,0.1
		c-0.2,0.1-0.6,0.2-0.8,0.5c-0.2,0.1-0.6,0.2-0.8,0.5l-0.1-0.2c0.2,0,0.5-0.2,0.3-0.4c-0.1-0.1-0.2-0.3-0.4-0.5L72.6,85l-1.3,0.7
		L71.4,86L71.4,86z"/>
	<g>
		<path style="fill:#FFFFFF;" d="M14.1,53.9c-0.3-0.9-0.6-2-0.7-2.3l-0.1-0.2l2.6-1.5c-0.3-1.3-0.5-2.5-0.6-3.6l-2.9-0.6l0-0.2
			c0-0.6,0-3.2,0-3.8l0-0.2l2.9-0.6c0.1-1.1,0.3-2.3,0.6-3.6l-1.4-0.8l1-0.1l1.1,0.6l0,0.2c-0.3,1.4-0.5,2.7-0.6,4l0,0.2L13,41.9
			c0,0.8,0,2.5,0,3.3l2.9,0.6l0,0.2c0.1,1.2,0.3,2.5,0.6,4l0,0.2L14,51.6c0.1,0.4,0.3,1,0.5,1.7L14.1,53.9z M19.3,62.3
			c0.3,0.3,0.5,0.7,0.6,0.9l2.7-1.2l0.1,0.2c0.8,0.9,1.8,1.9,2.8,2.8l0.2,0.1l-1.2,2.7c0.6,0.5,2,1.5,2.7,1.9l2.2-2l0.2,0.1
			c1.2,0.7,2.4,1.3,3.6,1.8l0.2,0.1L33,72.7c0.7,0.3,2.4,0.8,3.2,1l1.4-2.5l0.2,0c1.4,0.3,2.7,0.5,4,0.6l0.2,0l0.6,2.9
			c0.4,0,1,0,1.7,0c0.7,0,1.3,0,1.6,0l0.6-2.9l0.2,0c1.4-0.1,2.7-0.4,4-0.6l0.2,0l1.5,2.6c0.7-0.2,2.4-0.8,3.2-1l-0.3-2.9l0.2-0.1
			c1.2-0.5,2.5-1.2,3.6-1.8l0.2-0.1l2.2,2c0.6-0.4,2.1-1.5,2.7-1.9l-1.2-2.7l0.2-0.1c1.1-1,2-1.9,2.8-2.8l0.1-0.2l2.7,1.2
			c0.5-0.6,1.5-2,1.9-2.7l-2-2.2l0.1-0.2c0.7-1.1,1.3-2.3,1.8-3.6l0.1-0.2l2.9,0.3c0.3-0.7,0.8-2.4,1-3.1l-2.5-1.5l0-0.2
			c0.3-1.4,0.5-2.7,0.6-4l0-0.2l2.9-0.6c0-0.8,0-2.5,0-3.3l-2.9-0.6l0-0.2c-0.1-1.4-0.3-2.7-0.6-4L71.8,37l2.6-1.5
			c-0.2-0.7-0.8-2.4-1-3.1l-2.9,0.4l-0.1-0.2c-0.5-1.2-1.1-2.4-1.8-3.6l-0.1-0.2l2-2.2c-0.4-0.6-1.5-2.1-1.9-2.7l-2.6,1.2L65.6,25
			c-0.9-1-1.8-1.9-2.8-2.8L62.6,22l1.2-2.7c-0.6-0.5-2-1.5-2.7-2l-2.1,2l-0.2-0.1c-1.2-0.7-2.4-1.3-3.6-1.8l-0.2-0.1l0.3-2.9
			c-0.7-0.3-2.4-0.8-3.1-1L50.8,16l-0.2-0.1c-1.4-0.3-2.6-0.5-4-0.6l-0.2,0l-0.6-2.9c-0.4,0-1,0-1.7,0c-0.7,0-1.3,0-1.7,0L42,15.2
			l-0.2,0c-1.4,0.1-2.7,0.3-4,0.6L37.6,16l-1.5-2.6c-0.7,0.2-2.4,0.8-3.1,1l0.3,2.9l-0.2,0.1c-1.2,0.5-2.4,1.1-3.6,1.8l-0.2,0.1
			l-2.2-2c-0.3,0.2-0.8,0.6-1.3,0.9l0.1-0.8c0.5-0.3,0.9-0.6,1.1-0.8l0.2-0.1l2.2,2c1.1-0.6,2.2-1.2,3.3-1.7L32.3,14l0.2-0.1
			c0.6-0.2,3-1,3.6-1.2l0.2-0.1l1.5,2.6c1.1-0.3,2.3-0.5,3.6-0.6l0.6-2.9l0.2,0h0l0,0l0,0l0,0h0l0,0l0,0l0,0l0,0h0l0,0h0v0l0.2,0
			c0,0,0,0,0,0l0.1,0v0c0,0,0,0,0,0h0.2c0.4,0,0.9,0,1.4,0c0.7,0,1.6,0,1.9,0l0.2,0l0.6,2.9c1.2,0.1,2.4,0.3,3.6,0.6l1.4-2.6
			l0.2,0.1c0.6,0.2,3.1,0.9,3.6,1.2L56,14L55.7,17c1.1,0.5,2.2,1,3.3,1.7l2.1-2l0.2,0.1c0.6,0.3,2.6,1.9,3.1,2.3l0.2,0.1l-1.2,2.7
			c0.9,0.8,1.8,1.7,2.6,2.6l2.7-1.2l0.1,0.2c0.4,0.5,1.9,2.6,2.3,3.1l0.1,0.2l-2,2.2c0.6,1.1,1.2,2.2,1.7,3.3l2.9-0.4l0.1,0.2
			c0.2,0.6,1,3,1.2,3.6l0.1,0.2l-2.6,1.5c0.3,1.1,0.5,2.3,0.6,3.6l2.9,0.6l0,0.2c0,0.6,0,3.2,0,3.8l0,0.2L73,46.3
			c-0.1,1.1-0.3,2.3-0.6,3.6l2.5,1.5l0,0.2c-0.1,0.6-1,3.1-1.2,3.6l-0.1,0.2l-3-0.3c-0.5,1.1-1,2.2-1.7,3.3l2,2.2L71,60.7
			c-0.3,0.5-1.8,2.6-2.2,3.1l-0.1,0.2l-2.7-1.2c-0.8,0.9-1.6,1.7-2.6,2.6l1.2,2.7l-0.2,0.1c-0.5,0.4-2.5,1.9-3.1,2.2l-0.2,0.1
			l-2.2-2c-1,0.6-2.1,1.2-3.3,1.7l0.3,2.9l-0.2,0.1c-0.6,0.2-3,1-3.6,1.2L52,74.4l-1.5-2.6c-1.1,0.3-2.3,0.4-3.6,0.6l-0.6,2.9
			l-0.2,0c-0.3,0-1.2,0-1.9,0c-0.7,0-1.5,0-1.9,0l-0.2,0l-0.6-2.9c-1.1-0.1-2.4-0.3-3.6-0.6l-1.4,2.6l-0.2-0.1c-0.6-0.2-3-1-3.6-1.2
			l-0.2-0.1l0.3-2.9c-1.1-0.5-2.2-1-3.3-1.7l-2.2,2L27,70.4c-0.5-0.4-2.6-1.8-3.1-2.2L23.8,68l1.2-2.7c-1-0.9-1.8-1.7-2.6-2.6
			l-2.7,1.2l-0.1-0.2c-0.1-0.2-0.4-0.5-0.7-0.9L19.3,62.3z"/>
		<path style="fill:#FFFFFF;" d="M44.1,66.9c-3.4,0-6.7-0.7-9.8-2.1l-0.4-0.2l10.2-12.9l10,13l-0.4,0.2
			C50.8,66.2,47.4,66.9,44.1,66.9z M35.1,64.3c2.9,1.3,5.9,1.9,9.1,1.9c3,0,6.1-0.6,8.9-1.8l-8.9-11.5L35.1,64.3z M61,59.8
			l-9.1-13.7l15.4-5.5l0,0.4c0.7,6.7-1.5,13.4-6.1,18.4L61,59.8z M53,46.5l8.1,12.2c4.1-4.7,6.2-10.8,5.6-17L53,46.5z M27.1,59.6
			l-0.3-0.3c-4.5-5-6.7-11.8-5.9-18.5l0.1-0.5l15.4,5.7L27.1,59.6z M21.6,41.3C21,47.5,23,53.7,27.1,58.4l8.2-12L21.6,41.3z M49,37
			l-0.5-16.4l0.4,0.1c6.6,1.4,12.3,5.6,15.6,11.5l0.2,0.4L49,37z M49.3,21.5L49.7,36l14.1-3.9C60.6,26.7,55.4,22.9,49.3,21.5z
			 M39.4,36.9l-15.7-4.6l0.2-0.4c3.4-5.9,9.1-10,15.7-11.3l0.4-0.1L39.4,36.9z M24.8,31.9L38.7,36l0.6-14.6
			C33.2,22.8,28,26.5,24.8,31.9z"/>
		<path style="fill:#FFFFFF;" d="M44.2,22.3l-4.9,14.1l-0.1,0.2l-0.2,0L24,37l11.9,9l0.2,0.1L36,46.4l-4.3,14.4L44,52.3l0.2-0.1
			l0.2,0.1l12.3,8.5l-4.3-14.3l-0.1-0.2l0.2-0.1L64.4,37l-14.9-0.3l-0.2,0l-0.1-0.2L44.2,22.3L44.2,22.3z M38.7,36l5.2-14.8l0.3-0.9
			l0.3,0.9L49.7,36l15.7,0.4l1,0l-0.8,0.6l-12.5,9.5l4.5,15l0.3,0.9l-0.8-0.5L44.2,53l-12.9,8.9l-0.8,0.5l0.3-0.9l4.5-15.1
			l-12.5-9.5L22,36.4l1,0L38.7,36L38.7,36z"/>
		<g>
			<polygon style="fill-rule:evenodd;clip-rule:evenodd;fill:#FFFFFF;" points="16.6,67.4 16.6,67.4 16.6,67.4 			"/>
			<polygon style="fill-rule:evenodd;clip-rule:evenodd;fill:#FFFFFF;" points="15.2,64.6 16.6,67.4 16.6,67.4 			"/>
		</g>
	</g>
</g>
<g>
	<g id="uVKf0Z.tif">
		<g>
			<path style="fill:#FFFFFF;" d="M101.3,24.1c0.1-0.1,0.1-0.1,0.2-0.2c0.2-0.3,0.6-0.4,0.9-0.4c0.4,0.1,0.7,0.5,0.6,0.9
				c0,0.2-0.2,0.3-0.4,0.4c-0.2,0.1-0.3,0.1-0.6,0.2c0.1,0.1,0.2,0.2,0.3,0.3c0.2,0.1,0.5,0.2,0.7,0.2c1,0.1,1.9-0.1,2.7-0.7
				c0.9-0.6,1.7-1.4,2.3-2.2c0.7-0.9,1.4-1.9,2-2.8c0.9-1.3,1.9-2.7,3-3.9c0.7-0.7,1.4-1.4,2.3-1.9c0,0,0.1,0,0.1-0.1
				c-0.1-0.1-0.1-0.1-0.2-0.1c-0.6-0.4-1.2-0.5-1.9-0.5c-3.2-0.2-6,0.9-8.6,2.8c-0.6,0.5-1.1,1.1-1.5,1.7c-0.2,0.4-0.4,0.8-0.4,1.3
				c0,0.8,0.5,1.7,1.7,1.7c0.5,0,1-0.1,1.5-0.3c0.5-0.2,1-0.5,1.5-0.8c0.9-0.6,1.6-1.4,2.3-2.3c0.3-0.5,0.7-1,0.8-1.6
				c0-0.1,0-0.1,0.2-0.1c0,0.2,0,0.3-0.1,0.5c0,0.1-0.1,0.3-0.1,0.4c-0.8,2-2.2,3.5-4.3,4.1c-0.7,0.2-1.4,0.3-2.1,0.1
				c-1.4-0.3-1.8-1.4-1.5-2.5c0.2-0.7,0.6-1.3,1.1-1.8c0.9-1,2.1-1.8,3.3-2.3c1.3-0.6,2.6-1,4-1.2c1.2-0.1,2.3-0.2,3.4,0.2
				c0.3,0.1,0.7,0.2,1,0.4c0.1,0.1,0.3,0.1,0.4,0c0.3-0.1,0.6-0.3,0.9-0.4c0,0,0.1,0,0.1,0c0.1,0.1,0.1,0.2,0,0.2
				c-0.2,0.1-0.4,0.1-0.5,0.2c-0.1,0.1-0.2,0.1-0.4,0.2c0.1,0.1,0.1,0.1,0.2,0.2c0.1,0.1,0.3,0.2,0.4,0.3c1.4,1.2,1.2,3.4-0.3,4.5
				c-0.7,0.5-1.5,0.8-2.4,1c-0.6,0.1-1.2,0.1-1.8,0c0,0,0-0.1,0-0.1c0,0,0-0.1,0-0.1c0.4,0,0.7,0,1.1,0c1.4-0.1,2.5-0.7,3.3-1.9
				c0.7-1.1,0.5-2.7-0.5-3.6c-0.1-0.1-0.1-0.1-0.2-0.1c-0.4,0.3-0.8,0.6-1.2,1c-0.9,1-1.6,2.1-2.3,3.2c-0.8,1.3-1.7,2.5-2.6,3.7
				c-0.7,0.9-1.5,1.7-2.4,2.3c-0.8,0.6-1.8,1.1-2.8,1.2c-0.6,0.1-1.2,0.2-1.8,0c-0.6-0.1-1.1-0.4-1.3-0.9c0,0-0.1-0.1-0.1-0.1
				C101.3,24.5,101.3,24.3,101.3,24.1z"/>
			<path style="fill:#FFFFFF;" d="M203.6,23.2c0-0.1,0-0.2,0-0.2c0-0.1,0.1-0.2,0.2-0.3c0.7-0.9,1.6-1.6,2.6-2.1
				c0.4-0.2,0.8-0.3,1.3-0.2c0.5,0.1,0.8,0.3,0.9,0.8c0.1,0.5,0,1-0.2,1.5c-0.2,0.5-0.6,1-1.1,1.4c-1.3,1.1-2.8,1.7-4.6,1.7
				c-0.2,0-0.5,0-0.7-0.1c-0.7-0.2-1.1-0.7-1.2-1.3c-0.1-0.6,0-1.3,0.2-1.9c0.4-1.1,1-2.1,1.8-3c0.1-0.1,0.2-0.2,0.3-0.4
				c-0.1,0-0.2-0.1-0.4-0.1c-0.5-0.1-1-0.3-1.5-0.6c-0.5-0.4-0.9-0.9-0.9-1.6c0-0.3,0-0.6,0-0.9c-0.1,0.1-0.2,0.2-0.2,0.3
				c-1.5,1.7-3.3,3.1-5.3,4.2c-0.3,0.2-0.7,0.3-1,0.4c-0.1,0-0.2,0.1-0.3,0.2c-0.8,1-1.6,1.9-2.4,2.9c-0.2,0.2-0.3,0.5-0.5,0.7
				c-0.1,0.2-0.2,0.3-0.2,0.5c-0.1,0.3,0.1,0.5,0.4,0.5c0.2,0,0.5-0.1,0.7-0.2c0.4-0.2,0.7-0.4,1.1-0.7c0.7-0.6,1.5-1.2,2.2-1.9
				c0.1-0.1,0.2-0.1,0.3-0.2c0.1,0.1,0,0.2-0.1,0.3c-1,0.9-1.9,1.7-3,2.5c-0.2,0.1-0.5,0.3-0.7,0.3c-1.1,0.3-1.5-0.6-1.3-1.3
				c0.1-0.3,0.2-0.6,0.4-0.9c0.4-0.8,1-1.5,1.5-2.2c1.9-2.3,3.9-4.5,6.1-6.4c0.5-0.4,1-0.8,1.6-1.2c0.2-0.1,0.4-0.2,0.7-0.3
				c0.6-0.2,1,0.2,0.9,0.7c0,0.1,0,0.2-0.1,0.4c0.9-0.9,2-1.2,3.1-1.3c1.1-0.1,2.2,0.1,3.3,0.6c-0.1,0.2-0.1,0.2-0.2,0.2
				c-0.4-0.2-0.9-0.4-1.3-0.4c-1-0.2-2-0.2-2.9,0.2c-1,0.4-1.7,1-2,2c-0.1,0.5-0.2,0.9-0.1,1.4c0.2,0.8,0.8,1.3,1.6,1.5
				c0.1,0,0.1,0,0.2,0.1c0.3,0.1,0.5,0,0.7-0.3c1.9-2.3,4.3-4.1,7.1-5.1c0.7-0.3,1.5-0.4,2.3-0.4c0.2,0,0.5,0.1,0.7,0.1
				c0.7,0.2,0.9,0.7,0.7,1.4c-0.1,0.3-0.3,0.6-0.5,0.8c-0.4,0.5-0.9,0.9-1.5,1.2c-1.5,0.9-3.1,1.6-4.8,2c-1,0.3-2,0.4-3,0.5
				c-0.2,0-0.3,0.1-0.3,0.2c-0.6,0.8-1.3,1.6-1.9,2.4c-0.4,0.5-0.8,1.1-1,1.8c-0.1,0.3-0.2,0.6-0.2,1c0,0.4,0.2,0.7,0.5,0.9
				c0.2,0.1,0.5,0.2,0.7,0.2c0.5,0.1,1,0,1.4-0.1c1.4-0.4,2.6-1.2,3.6-2.2c0.3-0.3,0.5-0.6,0.7-0.9c0.2-0.3,0.3-0.6,0.2-1
				c0-0.5-0.4-0.8-0.8-0.8c-0.3,0-0.7,0-1,0.2c-0.6,0.2-1.2,0.6-1.7,1.1c-0.4,0.4-0.7,0.8-1.1,1.2C203.7,23,203.7,23.1,203.6,23.2z
				 M204.7,18.9c0.3,0,0.5,0,0.7,0c1.2-0.1,2.4-0.4,3.5-0.8c1.3-0.4,2.6-1,3.8-1.8c0.5-0.3,0.9-0.7,1.2-1.1c0.1-0.2,0.3-0.4,0.4-0.7
				c0.1-0.5,0-0.8-0.5-1c-0.1,0-0.2-0.1-0.3-0.1c-0.6-0.1-1.1,0-1.6,0.1c-0.9,0.2-1.7,0.7-2.4,1.2c-1.7,1.2-3.2,2.6-4.6,4.1
				C204.8,18.8,204.8,18.8,204.7,18.9z M194,20.4C194.1,20.5,194.1,20.5,194,20.4c0.1,0,0.2,0,0.3,0c0.5-0.2,1-0.5,1.4-0.8
				c1.6-1,3.1-2.2,4.3-3.7c0.3-0.4,0.6-0.8,0.8-1.3c0.1-0.2,0.2-0.5,0.1-0.7c0-0.2-0.2-0.4-0.4-0.3c-0.2,0.1-0.3,0.1-0.5,0.2
				c-0.3,0.3-0.7,0.5-1,0.8c-1.4,1.2-2.6,2.6-3.7,4C195,19.3,194.5,19.9,194,20.4z"/>
			<path style="fill:#FFFFFF;" d="M301.1,22.6c0-0.1-0.1-0.2-0.1-0.2c0-0.1,0.1-0.2,0.1-0.2c0.5-0.9,1.2-1.6,2.1-2
				c0.4-0.2,0.8-0.3,1.2-0.2c0.4,0.1,0.7,0.4,0.8,0.9c0.1,0.5,0,0.9-0.2,1.3c-0.3,0.8-0.8,1.4-1.4,2c-0.8,0.8-1.8,1.3-2.9,1.5
				c-0.3,0.1-0.6,0.1-1,0.1c-0.9,0-1.5-0.6-1.6-1.5c0-0.5,0.1-1,0.3-1.5c0.3-0.8,0.8-1.5,1.3-2.2c1.1-1.6,2.4-3,3.7-4.3
				c0.8-0.8,1.7-1.7,2.5-2.5c0.1-0.1,0.2-0.2,0.2-0.3c-0.1-0.1-0.2-0.1-0.3-0.1c-0.4,0-0.8,0.2-1.1,0.5c-0.7,0.4-1.3,1-1.8,1.5
				c-1,1-1.9,2-2.9,3c-1.5,1.6-2.9,3.3-4.3,4.9c-0.6,0.7-1.3,1.4-2.1,2c-0.2,0.2-0.4,0.3-0.7,0.4c-0.2,0.1-0.4,0.1-0.5,0.1
				c-0.3,0-0.5-0.2-0.5-0.5c0-0.3,0.1-0.5,0.2-0.8c0.2-0.6,0.5-1.2,0.9-1.7c0.9-1.1,1.7-2.2,2.6-3.3c1.5-1.9,3.2-3.6,4.9-5.3
				c0.2-0.2,0.4-0.4,0.5-0.7c-0.1,0-0.2-0.1-0.2,0c-0.2,0.1-0.5,0.1-0.7,0.3c-0.6,0.4-1.2,0.8-1.7,1.3c-1.2,1.2-2.5,2.4-3.6,3.6
				c-1.4,1.4-2.8,2.9-4.2,4.4c-0.7,0.7-1.4,1.3-2.1,1.9c-0.8,0.7-1.6,1-2.7,1c-0.3,0-0.6-0.1-0.9-0.2c-0.5-0.3-0.8-1.1-0.4-1.6
				c0.1-0.3,0.5-0.4,0.8-0.3c0.3,0.1,0.5,0.3,0.5,0.6c0.1,0.5-0.2,0.8-0.7,0.9c-0.1,0-0.2,0-0.3,0c0.2,0.3,0.4,0.4,0.7,0.4
				c0.7,0.1,1.3,0,1.9-0.3c0.5-0.3,0.9-0.6,1.3-1c1.1-1,2.1-2.1,3.1-3.1c1.7-1.7,3.3-3.5,5-5.2c0.8-0.8,1.6-1.5,2.5-2.2
				c0.4-0.3,0.7-0.5,1.2-0.6c0.2,0,0.4,0,0.5,0c0.3,0.1,0.4,0.3,0.3,0.5c-0.1,0.2-0.2,0.4-0.3,0.5c-0.4,0.5-0.8,1-1.2,1.5
				c-2,2.4-4.1,4.8-6,7.2c-0.5,0.6-0.9,1.2-1.3,1.8c-0.1,0.2-0.2,0.4-0.3,0.6c-0.1,0.1,0,0.2,0.2,0.2c0.2,0,0.3-0.1,0.5-0.2
				c0.3-0.2,0.5-0.4,0.8-0.6c1-0.9,1.9-1.9,2.8-2.9c1.6-1.8,3.1-3.5,4.7-5.3c0.9-1,1.9-2,3.1-2.8c0.4-0.3,0.8-0.6,1.4-0.7
				c0.1,0,0.3,0,0.4,0c0.4,0,0.5,0.3,0.4,0.6c-0.1,0.2-0.2,0.3-0.3,0.5c-0.5,0.6-1,1.1-1.5,1.7c-1.5,1.7-3.1,3.4-4.4,5.3
				c-0.5,0.6-0.9,1.3-1.3,2c-0.2,0.3-0.3,0.6-0.4,0.9c-0.1,0.2-0.1,0.4-0.1,0.6c0,0.5,0.4,0.8,0.9,0.9c0.4,0.1,0.8,0,1.2-0.2
				c0.7-0.3,1.3-0.7,1.9-1.2c0.7-0.5,1.3-1.1,1.8-1.8c0.2-0.3,0.4-0.6,0.5-1c0.2-0.7-0.1-1.1-0.8-1.2c-0.4,0-0.7,0.1-1,0.2
				c-0.8,0.5-1.4,1.1-1.9,1.9C301.2,22.4,301.2,22.5,301.1,22.6z"/>
			<path style="fill:#FFFFFF;" d="M159.1,25.1c-0.2,0.1-0.5,0.3-0.7,0.4c-0.4,0.2-0.8,0.3-1.3,0.3c-0.7,0-1.1-0.7-0.8-1.3
				c0.3-0.6,1-1,1.7-0.8c0.4,0.1,0.7,0.2,1,0.4c0.1,0.1,0.3,0.2,0.4,0.3c0.6-0.6,1.2-1.3,1.7-2c-0.2,0-0.4,0.1-0.5,0.1
				c-0.1,0-0.3,0-0.4,0c-0.4-0.1-0.6-0.4-0.4-0.8c0.1-0.2,0.2-0.3,0.3-0.5c0-0.1,0.1-0.1,0.1-0.2c0.1-0.1,0.1-0.2,0-0.3
				c-0.1,0-0.2,0-0.3,0c-0.4,0.2-0.8,0.5-1.1,0.8c-0.1,0.1-0.1,0.2-0.3,0.1c0.1-0.1,0.1-0.1,0.1-0.2c0.4-0.3,0.7-0.5,1.1-0.8
				c0.2-0.1,0.5-0.2,0.7-0.3c0.2-0.1,0.4,0,0.5,0.1c0.2,0.2,0.3,0.4,0.1,0.7c-0.1,0.2-0.3,0.3-0.4,0.5c-0.1,0.1-0.2,0.2-0.2,0.4
				c-0.1,0.2,0,0.3,0.2,0.3c0.3,0,0.5-0.1,0.7-0.3c0.4-0.4,0.8-0.8,1.2-1.2c0.2-0.2,0.4-0.4,0.7-0.5c0.2,0,0.3,0,0.4,0.1
				c0.1,0.1,0.1,0.3,0,0.5c-0.1,0.2-0.3,0.4-0.5,0.5c-0.4,0.2-0.7,0.5-1.1,0.6c-0.5,0.2-0.9,0.5-1.3,1c-0.3,0.4-0.7,0.8-1.1,1.3
				c-0.1,0.1-0.1,0.2-0.2,0.3c0.5,0.3,1,0.7,1.6,0.8c0.2,0,0.4,0,0.6-0.1c0.3-0.2,0.6-0.4,0.8-0.7c0.5-0.5,1-1.1,1.5-1.5
				c0.6-0.5,1.1-1,1.7-1.5c0.6-0.4,1.3-0.8,2-1.1c0.4-0.1,0.8-0.3,1.2-0.2c0.1,0,0.3,0,0.4,0.1c0.4,0.1,0.5,0.4,0.5,0.8
				c0,0.1,0,0.1,0,0.2c0.2-0.2,0.4-0.4,0.6-0.6c0.2-0.2,0.4-0.3,0.7-0.3c0.2,0,0.5,0,0.8,0c-0.1,0.1-0.1,0.1-0.2,0.2
				c-1.3,1.4-2.6,2.7-3.8,4.1c-0.1,0.1-0.2,0.2-0.3,0.4c-0.1,0.3,0,0.5,0.3,0.5c0.2,0,0.4,0,0.6-0.1c0.4-0.2,0.8-0.4,1.1-0.6
				c1-0.6,1.8-1.3,2.7-2.1c0.1-0.1,0.2-0.2,0.3,0c-0.2,0.2-0.5,0.4-0.7,0.6c-0.8,0.8-1.7,1.5-2.7,2c-0.3,0.2-0.7,0.3-1,0.4
				c-0.1,0-0.3,0-0.4,0c-0.4,0-0.6-0.3-0.6-0.7c0-0.2,0-0.4,0.1-0.6c-0.1,0.1-0.1,0.1-0.2,0.1c-0.4,0.3-0.8,0.7-1.3,0.9
				c-0.4,0.2-0.7,0.3-1.1,0.3c-0.6,0-1-0.4-1-1c0-0.4,0.1-0.8,0.2-1.1c0-0.1,0.1-0.2,0.1-0.3c0,0,0,0-0.1,0
				c-0.1,0.1-0.2,0.2-0.3,0.3c-0.5,0.5-1.1,1-1.6,1.5c-0.1,0.1-0.2,0.1-0.3,0.2c-0.6,0.5-1.2,0.5-1.8,0.1
				C159.6,25.4,159.4,25.3,159.1,25.1z M164.8,25.6c0.1,0,0.4-0.1,0.6-0.1c0.3-0.1,0.5-0.2,0.8-0.4c1.3-0.9,2.4-2,3.2-3.3
				c0.1-0.2,0.2-0.4,0.3-0.6c0.1-0.3,0-0.6-0.3-0.7c-0.2-0.1-0.3-0.1-0.5-0.1c-0.5,0-0.8,0.3-1.2,0.6c-1.1,1-2.2,2.1-3.2,3.2
				c-0.1,0.1-0.2,0.2-0.2,0.3c-0.1,0.2-0.2,0.3-0.2,0.5c-0.1,0.3,0.1,0.5,0.4,0.6C164.5,25.6,164.6,25.6,164.8,25.6z M158.9,24.9
				c-0.2-0.1-0.4-0.3-0.6-0.4c-0.3-0.2-0.6-0.4-1-0.4c-0.4-0.1-0.8,0.2-0.9,0.7c-0.1,0.4,0.2,0.7,0.7,0.7c0.6,0,1.2-0.2,1.7-0.5
				C158.8,25,158.8,25,158.9,24.9z M161.7,21.9C161.8,22,161.8,22,161.7,21.9c0.6-0.2,1.2-0.5,1.6-0.8c0.1-0.1,0.2-0.2,0.3-0.3
				c0.1-0.2,0-0.3-0.2-0.3c-0.2,0-0.4,0.1-0.5,0.2C162.5,21.1,162.1,21.5,161.7,21.9z"/>
			<path style="fill:#FFFFFF;" d="M227.9,20.6c0.2,0.3,0.4,0.5,0.5,0.8c0.4,0.6,0.4,1.3,0,2c-0.1,0.3-0.3,0.5-0.5,0.8
				c0.3-0.1,0.5-0.1,0.7-0.2c0.2-0.1,0.5-0.2,0.7-0.3c0.2-0.1,0.4-0.3,0.6-0.4c0.2-0.1,0.3-0.4,0.6-0.5c-0.1,0.1-0.1,0.2-0.1,0.2
				c-0.6,0.8-1.5,1.2-2.5,1.3c-0.2,0-0.3,0.1-0.4,0.2c-0.4,0.3-0.9,0.6-1.3,0.9c-0.5,0.3-1,0.4-1.6,0.4c-0.8,0-1.3-0.6-1.2-1.4
				c0-0.2,0.1-0.3,0.1-0.5c-0.5,0.4-0.9,0.7-1.3,1c-0.3,0.2-0.7,0.5-1,0.7c-0.2,0.1-0.4,0.2-0.5,0.2c-0.4,0.1-0.8-0.2-0.8-0.6
				c0-0.3,0.1-0.6,0.2-0.9c0.3-0.5,0.7-1,1.2-1.5c0.4-0.4,0.8-0.8,1.2-1.2c0.1-0.1,0.2-0.2,0.3-0.4c0.2-0.3,0-0.7-0.4-0.7
				c-0.2,0-0.5,0-0.7,0.1c-0.5,0.2-0.9,0.5-1.3,0.8c-1.5,1.1-2.8,2.4-4,3.8c-0.2,0.2-0.3,0.3-0.5,0.2c-0.3,0-0.6,0-0.9,0
				c0.1-0.1,0.1-0.2,0.2-0.2c1.5-1.6,2.9-3.1,4.4-4.7c0.1-0.1,0.2-0.2,0.4-0.2c0.3,0,0.5,0,0.8,0c-0.4,0.5-0.9,1-1.3,1.5
				c0.1,0,0.1-0.1,0.2-0.1c0.5-0.4,1-0.7,1.6-1.1c0.2-0.1,0.5-0.2,0.7-0.3c0.6-0.2,1.4,0.3,1.2,1.2c0,0.2-0.1,0.4-0.3,0.6
				c-0.3,0.4-0.6,0.9-1,1.3c-0.4,0.4-0.8,0.8-1.2,1.3c-0.2,0.2-0.3,0.3-0.4,0.5c-0.1,0.2,0,0.4,0.2,0.4c0.1,0,0.3,0,0.4-0.1
				c0.3-0.2,0.7-0.4,1-0.7c0.7-0.6,1.4-1.2,2.1-1.8c0.2-0.2,0.4-0.4,0.7-0.4c0.4,0,0.6,0.2,0.6,0.6c0,0.4-0.3,0.7-0.6,0.7
				c-0.2,0-0.4-0.1-0.5-0.3c0-0.1-0.1-0.2-0.1-0.3c-0.3,0.2-0.4,0.5-0.6,0.7c-0.1,0.4-0.2,0.7,0,1.1c0.2,0.5,0.6,0.7,1,0.4
				c0.1-0.1,0.3-0.1,0.4-0.2c1-0.7,1.9-1.6,2.6-2.7c0.1-0.1,0.1-0.2,0.2-0.3c0.3-0.6,0.3-1-0.2-1.6c-0.1,0-0.1,0.1-0.2,0.1
				c-0.4,0.3-0.7,0.7-1.1,1c-0.1,0.1-0.1,0.2-0.3,0.1c0.5-0.5,1-0.9,1.4-1.4c-0.1-0.4-0.1-0.8,0.1-1.2c0.1-0.2,0.3-0.4,0.6-0.4
				c0.3,0,0.4,0.1,0.4,0.4c0,0.2-0.1,0.3-0.2,0.5C228.3,20.1,228.1,20.4,227.9,20.6z"/>
			<path style="fill:#FFFFFF;" d="M240.5,21.2c0.2-0.3,0.4-0.5,0.6-0.7c0.1-0.1,0.1-0.1,0.2-0.1c0.3,0,0.7,0,1.1,0
				c-1.5,1.7-2.9,3.3-4.3,5c0.1,0,0.2-0.1,0.3-0.1c1.4-0.6,2.8-1.4,3.9-2.4c0.1-0.1,0.1-0.1,0.3-0.1c-0.1,0.1-0.2,0.2-0.3,0.3
				c-1.3,1.1-2.7,1.9-4.2,2.5c-0.2,0.1-0.4,0.2-0.5,0.3c-1,1.1-2,2.2-3.1,3.1c-0.6,0.5-1.1,0.9-1.8,1.2c-0.4,0.2-0.9,0.4-1.4,0.4
				c-0.8,0-1.2-0.7-0.8-1.4c0.2-0.3,0.5-0.6,0.7-0.8c0.8-0.7,1.7-1.2,2.7-1.6c0.8-0.3,1.5-0.6,2.3-0.9c0.2-0.1,0.4-0.2,0.5-0.3
				c0.2-0.3,0.5-0.5,0.7-0.8c-0.2,0.2-0.5,0.3-0.7,0.5c-0.4,0.3-0.9,0.5-1.4,0.4c-0.7,0-1.1-0.5-1-1.1c0-0.4,0.2-0.7,0.3-1
				c0.4-0.7,0.9-1.3,1.6-1.9c0.8-0.7,1.7-1.3,2.8-1.5c0.4-0.1,0.7-0.1,1.1-0.1c0.5,0.1,0.7,0.4,0.6,0.9
				C240.6,21,240.6,21.1,240.5,21.2z M239.7,20.3c-0.2,0-0.4,0.1-0.5,0.2c-0.3,0.1-0.5,0.3-0.8,0.4c-0.9,0.6-1.7,1.3-2.4,2.1
				c-0.4,0.4-0.7,0.9-1.1,1.4c-0.1,0.2-0.2,0.4-0.2,0.7c0,0.2,0.1,0.4,0.3,0.4c0.2,0,0.5,0.1,0.7,0c0.4-0.1,0.8-0.3,1.1-0.5
				c1.3-0.9,2.4-2.1,3.3-3.4c0.1-0.1,0.2-0.3,0.2-0.4C240.5,20.6,240.2,20.3,239.7,20.3z M236.2,26.2
				C236.2,26.2,236.2,26.2,236.2,26.2c-0.1,0-0.2,0-0.3,0c-0.8,0.3-1.5,0.6-2.3,1c-0.7,0.3-1.4,0.7-2.1,1.2
				c-0.3,0.2-0.6,0.5-0.8,0.8c-0.2,0.2-0.2,0.4-0.2,0.6c0,0.3,0.1,0.5,0.5,0.6c0.4,0.1,0.8,0,1.1-0.2c0.2-0.1,0.5-0.3,0.7-0.5
				c0.5-0.4,0.9-0.9,1.4-1.3C234.8,27.7,235.5,26.9,236.2,26.2z"/>
			<path style="fill:#FFFFFF;" d="M270.6,22.6c0,0.1,0.1,0.1,0.1,0.2c0,0-0.1,0.1-0.1,0.1c-0.8,0.7-1.6,1.4-2.5,2.1
				c-0.3,0.3-0.7,0.4-1.1,0.6c-0.3,0.2-0.7,0.2-1.1,0.2c-0.5,0-0.8-0.3-0.7-0.9c0-0.1,0-0.3,0.1-0.5c-0.1,0.1-0.2,0.2-0.3,0.2
				c-0.4,0.3-0.7,0.5-1.1,0.8c-0.3,0.2-0.7,0.3-1,0.3c-0.6,0-0.9-0.4-1-0.9c0-0.4,0.1-0.8,0.2-1.1c0.2-0.5,0.5-0.9,0.9-1.3
				c0.8-0.9,1.8-1.6,2.9-2c0.5-0.2,0.9-0.3,1.4-0.2c0.1,0,0.2,0,0.2,0.1c0.4,0.1,0.5,0.3,0.4,0.7c0,0.1,0,0.2-0.1,0.3c0,0,0,0,0.1,0
				c0.1-0.1,0.1-0.2,0.2-0.3c1.8-1.9,3.6-3.8,5.3-5.7c0.2-0.2,0.4-0.3,0.7-0.3c0.2,0,0.5,0,0.8,0c-0.1,0.1-0.1,0.2-0.2,0.2
				c-2.8,2.9-5.6,5.8-8.3,8.7c-0.2,0.3-0.5,0.5-0.7,0.8c-0.1,0.1-0.2,0.3-0.2,0.5c0.1,0.2,0.3,0.2,0.5,0.2c0.4,0,0.8-0.1,1.1-0.3
				c0.6-0.3,1.2-0.7,1.7-1.2c0.5-0.4,1-0.8,1.4-1.3C270.4,22.8,270.5,22.7,270.6,22.6z M263,25.6c0.2-0.1,0.4-0.1,0.5-0.2
				c0.2-0.1,0.5-0.3,0.7-0.4c1.3-0.9,2.3-2,3.2-3.3c0.1-0.2,0.2-0.3,0.3-0.5c0.2-0.4-0.1-0.8-0.5-0.8c-0.1,0-0.2,0-0.3,0.1
				c-0.2,0.1-0.5,0.2-0.7,0.3c-0.7,0.4-1.4,1-2,1.5c-0.6,0.6-1.2,1.2-1.7,1.9c-0.1,0.2-0.2,0.4-0.3,0.6c-0.1,0.3,0,0.5,0.3,0.6
				C262.7,25.6,262.9,25.6,263,25.6z"/>
			<path style="fill:#FFFFFF;" d="M179.2,24.5c-0.4,0.3-0.7,0.6-1.1,0.9c-0.3,0.2-0.6,0.3-0.9,0.4c-0.8,0.2-1.4-0.2-1.4-1.2
				c0-0.3,0.2-0.7,0.3-1c0.3-0.6,0.8-1.2,1.3-1.6c0.8-0.8,1.8-1.4,2.9-1.6c0.3-0.1,0.7-0.1,1,0c0.6,0.1,0.8,0.5,0.6,1
				c0,0,0,0.1,0,0.2c0.1-0.1,0.2-0.2,0.2-0.2c1.8-1.9,3.6-3.9,5.4-5.8c0.1-0.1,0.3-0.2,0.5-0.2c0.3,0,0.6,0,0.9,0
				c-0.1,0.1-0.2,0.2-0.3,0.3c-2.2,2.3-4.4,4.6-6.7,7c-0.7,0.7-1.4,1.4-2.1,2.2c-0.1,0.1-0.2,0.3-0.3,0.4c-0.2,0.3-0.1,0.5,0.2,0.5
				c0.4,0,0.7,0,1-0.2c0.7-0.3,1.2-0.7,1.8-1.1c0.5-0.4,1-0.9,1.5-1.3c0.1-0.1,0.2-0.2,0.4-0.3c0,0,0,0,0.1,0c0,0.1,0,0.1,0,0.2
				c-0.1,0.1-0.2,0.2-0.4,0.3c-0.7,0.6-1.3,1.2-2,1.7c-0.4,0.3-0.8,0.5-1.2,0.7c-0.3,0.2-0.7,0.2-1.1,0.2c-0.6,0-0.9-0.3-0.8-0.9
				C179.1,24.8,179.2,24.7,179.2,24.5z M177,25.6c0.1,0,0.3,0,0.4-0.1c0.2-0.1,0.5-0.2,0.7-0.4c1.3-0.9,2.4-2,3.3-3.3
				c0.1-0.2,0.2-0.3,0.3-0.5c0.2-0.4-0.1-0.7-0.5-0.8c-0.3,0-0.5,0.1-0.7,0.2c-0.5,0.3-1,0.6-1.4,1c-0.9,0.7-1.8,1.5-2.4,2.5
				c-0.1,0.2-0.2,0.3-0.3,0.5C176.1,25.2,176.4,25.6,177,25.6z"/>
			<path style="fill:#FFFFFF;" d="M147.9,15.2c-0.1,0.1-0.2,0.2-0.3,0.3c-2.7,2.8-5.4,5.7-8.1,8.5c-0.2,0.3-0.5,0.5-0.7,0.8
				c-0.1,0.2-0.4,0.3-0.2,0.6c0.1,0.2,0.4,0.2,0.6,0.1c0.4,0,0.8-0.2,1.1-0.4c0.6-0.4,1.2-0.8,1.8-1.3c0.4-0.4,0.9-0.8,1.3-1.1
				c0.1-0.1,0.2-0.1,0.2-0.2c0.1,0.1,0.1,0.2,0,0.2c-1,0.8-1.9,1.7-2.9,2.4c-0.4,0.3-0.9,0.5-1.3,0.5c-0.2,0-0.5,0-0.7,0
				c-0.3-0.1-0.5-0.3-0.4-0.6c0-0.2,0-0.4,0.1-0.6c-0.2,0.2-0.4,0.4-0.7,0.6c-0.4,0.3-0.8,0.6-1.3,0.7c-0.2,0-0.3,0-0.5,0
				c-0.5,0-0.8-0.3-0.9-0.8c-0.1-0.4,0-0.8,0.1-1.1c0.2-0.4,0.3-0.7,0.6-1c0.9-1.1,2-2,3.3-2.5c0.5-0.2,0.9-0.3,1.4-0.2
				c0.1,0,0.2,0.1,0.3,0.1c0.3,0.1,0.4,0.4,0.4,0.7c0,0.1-0.1,0.2-0.1,0.4c0,0,0,0,0.1,0c0.1-0.1,0.1-0.2,0.2-0.3
				c1.8-1.9,3.6-3.8,5.4-5.8c0.1-0.1,0.3-0.2,0.4-0.2C147.2,15.2,147.5,15.2,147.9,15.2z M135.8,25.6c0.3,0,0.5-0.1,0.8-0.3
				c0.5-0.4,1-0.7,1.5-1.1c0.8-0.7,1.5-1.4,2-2.3c0.1-0.2,0.3-0.4,0.4-0.6c0.2-0.5,0-0.8-0.6-0.8c-0.1,0-0.2,0-0.3,0.1
				c-0.2,0.1-0.4,0.2-0.6,0.3c-0.7,0.4-1.4,1-2,1.5c-0.6,0.6-1.2,1.2-1.7,1.9c-0.1,0.2-0.2,0.4-0.3,0.6c-0.1,0.4,0.1,0.6,0.5,0.7
				C135.7,25.6,135.8,25.6,135.8,25.6z"/>
			<path style="fill:#FFFFFF;" d="M124.8,23.3c-0.6,0.4-0.8,1.1-0.6,1.7c0.2,0.5,0.6,0.7,1.1,0.5c0.2-0.1,0.4-0.2,0.6-0.4
				c0.9-0.6,1.6-1.4,2.2-2.2c0.1-0.2,0.3-0.4,0.4-0.6c0.3-0.5,0.4-0.9-0.2-1.5c-0.2,0.2-0.5,0.4-0.7,0.7c-0.2,0.2-0.5,0.4-0.7,0.6
				c0,0,0,0-0.1-0.1c0-0.1,0.1-0.1,0.1-0.2c0.3-0.3,0.7-0.6,1-1c0.1-0.1,0.2-0.2,0.2-0.2c0-0.3,0-0.6,0-0.9c0-0.2,0.1-0.3,0.2-0.5
				c0.1-0.2,0.3-0.3,0.5-0.3c0.3,0,0.5,0.2,0.4,0.4c-0.1,0.2-0.2,0.4-0.3,0.6c-0.1,0.1-0.2,0.2-0.2,0.3c-0.1,0.1-0.2,0.2-0.3,0.3
				c0.2,0.2,0.3,0.5,0.5,0.7c0.5,0.7,0.5,1.5,0,2.2c-0.1,0.2-0.3,0.4-0.4,0.6c0.8-0.1,1.5-0.4,2.1-1c0.1-0.1,0.2-0.2,0.3-0.3
				c0,0,0.1,0,0.2,0c0,0.1,0,0.1,0,0.1c-0.7,0.8-1.5,1.3-2.5,1.5c-0.1,0-0.3,0.1-0.4,0.2c-0.4,0.3-0.9,0.6-1.3,0.9
				c-0.5,0.3-1,0.4-1.5,0.4c-1.1,0-1.4-0.8-1.2-1.5c0-0.1,0-0.2,0.1-0.3c-0.1,0.1-0.2,0.1-0.2,0.1c-0.8,0.6-1.7,1.2-2.7,1.5
				c-0.4,0.1-0.9,0.2-1.3,0.2c-0.2,0-0.3,0-0.5-0.1c-0.4-0.1-0.6-0.4-0.6-0.8c0-0.4,0.1-0.7,0.3-1c0.3-0.7,0.8-1.3,1.3-1.8
				c0.7-0.7,1.5-1.3,2.4-1.7c0.4-0.2,0.8-0.3,1.2-0.3c0.5,0,0.7,0.3,0.8,0.8c0,0.5-0.2,0.8-0.5,1.1c-0.4,0.4-0.9,0.6-1.4,0.9
				c-0.7,0.3-1.5,0.5-2.2,0.6c-0.2,0-0.3,0.1-0.4,0.2c-0.2,0.3-0.5,0.5-0.7,0.8c-0.1,0.1-0.2,0.3-0.3,0.4c-0.2,0.4,0,0.6,0.4,0.6
				c0.4,0,0.8,0,1.2-0.1c0.6-0.2,1.1-0.4,1.6-0.7c0.6-0.4,1.1-0.7,1.7-1.1c0.1-0.1,0.2-0.2,0.3-0.3c0.2-0.2,0.3-0.3,0.5-0.5
				c0.1-0.1,0.2-0.2,0.3-0.2c0.3-0.1,0.6,0,0.8,0.2c0.2,0.3,0.1,0.6-0.2,0.8c-0.3,0.2-0.6,0.1-0.8-0.2
				C124.8,23.5,124.8,23.4,124.8,23.3z M120.6,23.2c0.1,0,0.1,0,0.2,0c0.1,0,0.1,0,0.2,0c1.2-0.2,2.3-0.8,3-1.8
				c0.1-0.1,0.2-0.3,0.2-0.4c0.1-0.2,0.1-0.3,0-0.5c-0.1-0.2-0.3-0.1-0.5-0.1c-0.4,0.1-0.7,0.4-1,0.6c-0.7,0.7-1.3,1.4-2,2
				C120.7,23.1,120.6,23.2,120.6,23.2z"/>
			<path style="fill:#FFFFFF;" d="M325.9,20.6c-0.2-0.5-0.1-0.9,0.2-1.2c0.1-0.2,0.3-0.3,0.5-0.3c0.3,0,0.4,0.1,0.4,0.4
				c0,0.1-0.1,0.3-0.2,0.4c-0.2,0.3-0.4,0.5-0.6,0.8c0.2,0.2,0.3,0.5,0.5,0.8c0.2,0.3,0.3,0.6,0.3,1c0,0.4-0.1,0.7-0.3,1
				c-0.2,0.2-0.3,0.5-0.5,0.7c0.9-0.1,1.6-0.5,2.2-1.2c0.1-0.1,0.1-0.2,0.3-0.2c0,0,0,0.1-0.1,0.1c-0.7,0.8-1.5,1.3-2.5,1.4
				c-0.1,0-0.3,0.1-0.4,0.2c-0.4,0.3-0.9,0.6-1.3,0.9c-0.4,0.3-0.9,0.4-1.5,0.4c-1,0-1.5-0.7-1.2-1.6c0.1-0.2,0.1-0.4,0.2-0.7
				c-0.3,0.3-0.6,0.5-0.8,0.7c-0.6,0.4-1.2,0.9-1.8,1.3c-0.2,0.1-0.5,0.3-0.7,0.3c-0.6,0.2-1.1-0.2-1.1-0.9c0-0.2,0.1-0.4,0.2-0.6
				c0.1-0.3,0.3-0.5,0.5-0.7c0.9-1,1.8-2,2.7-3.1c0.1-0.1,0.2-0.2,0.4-0.2c0.3,0,0.5,0,0.8,0c0,0.1-0.1,0.2-0.2,0.3
				c-1.1,1.2-2.2,2.4-3.2,3.6c-0.2,0.3-0.5,0.5-0.7,0.8c-0.2,0.3-0.1,0.5,0.2,0.5c0.2,0,0.4,0,0.6-0.1c0.4-0.2,0.7-0.4,1-0.6
				c0.9-0.7,1.7-1.4,2.6-2.1c0.3-0.2,0.6-0.2,0.9-0.1c0.3,0.1,0.4,0.4,0.3,0.7c-0.1,0.3-0.3,0.5-0.6,0.5c-0.2,0-0.4-0.1-0.5-0.3
				c0-0.1-0.1-0.2-0.1-0.3c-0.6,0.4-0.9,1.4-0.5,2c0.2,0.3,0.5,0.5,0.9,0.3c0.2-0.1,0.3-0.1,0.4-0.2c1.1-0.7,2-1.7,2.8-2.8
				c0.1-0.1,0.1-0.2,0.2-0.3c0.3-0.6,0.2-1-0.2-1.5c-0.5,0.4-0.9,0.9-1.5,1.3c0-0.2,0.2-0.3,0.4-0.5c0.2-0.2,0.3-0.3,0.5-0.5
				C325.6,20.9,325.7,20.7,325.9,20.6z"/>
			<path style="fill:#FFFFFF;" d="M247.2,22.6c0.1,0.2,0,0.3-0.1,0.4c-0.9,0.8-1.8,1.6-2.8,2.3c-0.3,0.2-0.6,0.4-0.9,0.5
				c-0.7,0.2-1.4-0.1-1.3-1.1c0-0.3,0.1-0.5,0.2-0.7c0.4-0.8,0.9-1.5,1.4-2.2c2-2.5,4.1-4.9,6.6-7c0.4-0.4,0.9-0.7,1.4-1
				c0.2-0.1,0.4-0.2,0.6-0.3c0.5-0.2,0.9,0.1,0.9,0.7c0,0.3-0.1,0.6-0.3,0.9c-0.3,0.5-0.6,0.9-0.9,1.3c-1.4,1.6-3.1,2.9-5,3.9
				c-0.4,0.2-0.8,0.3-1.1,0.5c-0.1,0.1-0.2,0.1-0.3,0.2c-0.8,1-1.6,1.9-2.4,2.9c-0.2,0.3-0.4,0.6-0.5,0.9c-0.1,0.2-0.2,0.5,0,0.7
				c0.2,0.2,0.5,0.1,0.7,0.1c0.2-0.1,0.5-0.2,0.7-0.3c0.6-0.4,1.1-0.8,1.6-1.3C246.2,23.5,246.7,23.1,247.2,22.6z M246,20.5
				c0.2-0.1,0.3-0.1,0.4-0.2c2.3-1.1,4.2-2.6,5.8-4.6c0.3-0.3,0.5-0.7,0.7-1.1c0.1-0.2,0.1-0.4,0.2-0.7c0-0.3-0.2-0.5-0.5-0.4
				c-0.3,0.1-0.5,0.3-0.7,0.4c-0.6,0.5-1.3,1.1-1.8,1.7c-1.4,1.4-2.7,3-3.9,4.6C246.1,20.4,246.1,20.4,246,20.5z"/>
			<path style="fill:#FFFFFF;" d="M318.3,22.6c0.1,0.1,0,0.2-0.1,0.3c-0.9,0.9-1.8,1.7-2.9,2.4c-0.3,0.2-0.6,0.3-0.9,0.4
				c-0.5,0.2-0.9-0.1-0.9-0.6c0-0.3,0.1-0.6,0.2-0.9c0.3-0.5,0.7-1,1.2-1.5c0.4-0.4,0.8-0.8,1.1-1.2c0.1-0.1,0.2-0.3,0.3-0.4
				c0.2-0.3,0-0.6-0.4-0.7c-0.2,0-0.4,0-0.6,0.1c-0.3,0.1-0.7,0.3-1,0.5c-0.9,0.6-1.7,1.3-2.4,2c-0.7,0.7-1.4,1.5-2.1,2.2
				c-0.1,0.1-0.2,0.2-0.4,0.2c-0.3,0-0.6,0-1,0c0.1-0.1,0.1-0.1,0.1-0.2c1.5-1.6,3-3.2,4.4-4.8c0.1-0.1,0.2-0.2,0.4-0.2
				c0.3,0,0.5,0,0.9,0c-0.5,0.5-0.9,1-1.3,1.4c0,0,0,0,0,0c0.1-0.1,0.3-0.2,0.4-0.3c0.5-0.4,1-0.8,1.6-1c0.3-0.1,0.5-0.2,0.8-0.2
				c0.7,0.1,1,0.6,0.9,1.3c0,0.2-0.1,0.4-0.2,0.5c-0.3,0.4-0.6,0.8-0.9,1.2c-0.3,0.4-0.7,0.8-1.1,1.2c-0.2,0.2-0.4,0.4-0.6,0.7
				c-0.1,0.1-0.2,0.2-0.1,0.4c0.1,0.1,0.3,0.1,0.4,0.1c0.2-0.1,0.4-0.1,0.6-0.2c0.5-0.3,0.9-0.7,1.4-1c0.6-0.5,1.1-1,1.7-1.5
				C318.2,22.8,318.2,22.7,318.3,22.6z"/>
			<path style="fill:#FFFFFF;" d="M157.2,22.6c0.1,0.1,0,0.2-0.1,0.3c-0.9,0.8-1.8,1.7-2.9,2.4c-0.3,0.2-0.6,0.3-0.9,0.5
				c-0.5,0.2-0.9-0.1-0.9-0.6c0-0.3,0.1-0.6,0.2-0.9c0.3-0.5,0.7-1,1.2-1.5c0.4-0.4,0.8-0.8,1.1-1.2c0.1-0.1,0.2-0.3,0.3-0.4
				c0.2-0.3,0-0.6-0.4-0.7c-0.2,0-0.4,0-0.6,0.1c-0.3,0.1-0.7,0.3-1,0.5c-0.9,0.6-1.7,1.3-2.4,2c-0.7,0.7-1.4,1.5-2.1,2.2
				c-0.1,0.1-0.2,0.2-0.4,0.2c-0.3,0-0.6,0-1,0c0.1-0.1,0.1-0.2,0.2-0.2c1.4-1.6,2.9-3.1,4.3-4.7c0.1-0.1,0.3-0.2,0.4-0.2
				c0.2,0,0.5,0,0.8,0c-0.5,0.5-0.9,1-1.3,1.4c0,0,0,0,0,0c0.1-0.1,0.3-0.2,0.4-0.3c0.5-0.4,1-0.8,1.6-1c0.3-0.1,0.5-0.2,0.8-0.2
				c0.7,0.1,1,0.6,0.9,1.3c0,0.2-0.1,0.4-0.2,0.5c-0.3,0.4-0.6,0.8-0.9,1.2c-0.3,0.4-0.7,0.8-1.1,1.2c-0.2,0.2-0.4,0.4-0.6,0.7
				c-0.1,0.1-0.2,0.2-0.1,0.4c0.1,0.1,0.3,0.1,0.4,0.1c0.2-0.1,0.4-0.1,0.6-0.2c0.5-0.3,0.9-0.7,1.4-1c0.6-0.5,1.1-1,1.7-1.5
				C157,22.8,157.1,22.7,157.2,22.6z"/>
			<path style="fill:#FFFFFF;" d="M332.3,19.4c-0.4,0-0.7,0-1,0c0-0.2,0.1-0.2,0.3-0.2c0.2,0,0.5,0,0.7,0c0.2,0,0.3-0.1,0.4-0.2
				c0.6-0.7,1.2-1.3,1.8-2c0.1-0.2,0.3-0.2,0.5-0.2c0.3,0,0.5,0,0.8,0c0,0,0,0,0,0.1c-0.7,0.8-1.4,1.5-2.1,2.3c0.4,0,0.7,0,1,0
				c0,0.2-0.1,0.2-0.2,0.2c-0.2,0-0.5,0-0.7,0c-0.2,0-0.3,0-0.4,0.2c-1.6,1.8-3.2,3.5-4.9,5.3c-0.1,0.1-0.2,0.3-0.3,0.4
				c-0.1,0.2,0,0.3,0.2,0.3c0.2,0,0.4,0,0.5,0c0.3-0.1,0.6-0.3,0.9-0.4c0.9-0.6,1.8-1.3,2.6-2c0.2-0.2,0.4-0.3,0.6-0.5
				c0,0.1,0.1,0.1,0.1,0.2c0,0-0.1,0.1-0.1,0.1c-0.9,0.8-1.8,1.6-2.8,2.2c-0.4,0.3-0.9,0.6-1.4,0.7c-0.7,0.2-1.1-0.2-0.9-0.9
				c0.1-0.4,0.2-0.7,0.4-1c0.3-0.4,0.6-0.7,0.9-1.1c1-1.1,2-2.1,2.9-3.2C332.2,19.6,332.2,19.5,332.3,19.4z"/>
			<path style="fill:#FFFFFF;" d="M258.6,22.4c0.1,0.1,0.1,0.1,0,0.2c-0.5,0.4-1,0.7-1.6,0.5c-0.2,0-0.4-0.2-0.6-0.3
				c-0.1,0.1-0.1,0.1-0.2,0.2c-0.6,0.7-1.2,1.3-1.8,1.8c-0.6,0.4-1.2,0.8-1.9,0.9c-0.3,0-0.6,0-0.9-0.1c-0.4-0.2-0.5-0.6-0.5-1
				c0-0.4,0.2-0.8,0.4-1.1c0.5-0.8,1.1-1.5,1.8-2.1c0.5-0.4,1-0.8,1.6-1c0.2-0.1,0.5-0.2,0.8-0.2c0.5-0.1,0.7,0,1.1,0.3
				c0.4,0,0.5,0.1,0.5,0.4c0,0.4-0.1,0.7-0.3,1.1c-0.1,0.3-0.3,0.5-0.5,0.8C257.3,23.3,257.9,22.8,258.6,22.4z M256.2,22.7
				c-0.2-0.4-0.2-0.7-0.2-1.1c0-0.4,0.2-0.7,0.5-1c-0.1-0.2-0.2-0.3-0.4-0.3c-0.2,0-0.3,0.1-0.5,0.2c-0.3,0.2-0.5,0.4-0.8,0.6
				c-0.4,0.4-0.9,0.9-1.3,1.4c-0.5,0.6-1,1.1-1.5,1.7c-0.2,0.2-0.4,0.5-0.5,0.8c-0.1,0.3,0.1,0.6,0.5,0.6c0.1,0,0.2,0,0.3,0
				c0.5,0,0.9-0.2,1.3-0.4C254.7,24.5,255.5,23.6,256.2,22.7z"/>
			<path style="fill:#FFFFFF;" d="M214.8,22.7c0.7,0.6,1.4,0.2,2-0.2c0.1,0,0.1,0.1,0,0.2c-0.4,0.3-0.9,0.6-1.4,0.5
				c-0.2,0-0.5-0.2-0.8-0.3c0,0.1-0.1,0.1-0.2,0.2c-0.6,0.7-1.1,1.3-1.8,1.8c-0.6,0.4-1.2,0.8-1.9,0.9c-0.3,0-0.6,0-0.9-0.1
				c-0.4-0.2-0.6-0.6-0.6-1.1c0.1-0.4,0.2-0.7,0.4-1.1c0.5-0.8,1.1-1.5,1.9-2.1c0.5-0.4,1-0.8,1.6-1c0.3-0.1,0.6-0.2,0.9-0.3
				c0.4-0.1,0.7,0,1,0.3c0.4,0,0.6,0.1,0.6,0.5c0,0.4-0.1,0.7-0.3,1C215.1,22.1,215,22.4,214.8,22.7z M214.7,20.6
				c-0.1-0.2-0.2-0.3-0.4-0.3c-0.2,0-0.4,0.1-0.5,0.2c-0.3,0.2-0.6,0.4-0.8,0.7c-0.4,0.4-0.8,0.8-1.1,1.2c-0.5,0.6-1,1.1-1.5,1.7
				c-0.2,0.2-0.4,0.5-0.5,0.8c-0.1,0.4,0.1,0.6,0.5,0.7c0.2,0,0.4,0,0.6-0.1c0.4-0.1,0.8-0.3,1.2-0.6c0.8-0.5,1.4-1.1,1.9-1.8
				c0.1-0.1,0.2-0.3,0.3-0.4C214.1,21.9,214.2,21.2,214.7,20.6z"/>
			<path style="fill:#FFFFFF;" d="M276.9,22.7c0,0.1,0,0.1-0.1,0.2c-1.2,1-2.5,2-4,2.6c-0.5,0.2-1,0.3-1.5,0.3c-0.1,0-0.1,0-0.2,0
				c-0.7-0.1-1-0.5-0.9-1.2c0.1-0.3,0.2-0.7,0.4-0.9c0.9-1.6,2.2-2.7,3.9-3.4c0.3-0.1,0.6-0.2,0.9-0.2c0.4,0,0.8,0.3,0.8,0.9
				c0,0.4-0.2,0.7-0.4,0.9c-0.4,0.4-0.8,0.6-1.3,0.9c-0.8,0.3-1.5,0.6-2.4,0.6c-0.2,0-0.3,0.1-0.4,0.2c-0.2,0.3-0.5,0.5-0.7,0.8
				c-0.1,0.1-0.2,0.3-0.3,0.5c-0.1,0.3,0,0.5,0.4,0.6c0.4,0.1,0.8,0,1.2-0.1c0.6-0.2,1.1-0.4,1.7-0.8c0.9-0.5,1.7-1.2,2.5-1.8
				C276.6,22.8,276.7,22.7,276.9,22.7C276.8,22.7,276.8,22.7,276.9,22.7z M272.2,23.2c0.1,0,0.2,0,0.3,0c1.2-0.2,2.2-0.7,2.9-1.7
				c0.1-0.2,0.2-0.4,0.3-0.6c0.1-0.4-0.1-0.6-0.5-0.5c-0.3,0.1-0.6,0.3-0.9,0.5C273.6,21.6,272.9,22.4,272.2,23.2
				C272.2,23.2,272.2,23.2,272.2,23.2z"/>
			<path style="fill:#FFFFFF;" d="M149.7,22.7c0,0.1-0.1,0.2-0.1,0.2c-1.2,1-2.5,2-4,2.6c-0.5,0.2-1,0.3-1.5,0.3
				c-0.2,0-0.3,0-0.5-0.1c-0.4-0.1-0.6-0.4-0.6-0.8c0-0.3,0.1-0.7,0.2-1c0.3-0.7,0.8-1.3,1.4-1.9c0.7-0.7,1.5-1.2,2.4-1.6
				c0.4-0.2,0.8-0.3,1.2-0.3c0.5,0,0.7,0.3,0.8,0.8c0,0.5-0.2,0.8-0.5,1.1c-0.5,0.5-1.2,0.8-1.8,1c-0.6,0.2-1.2,0.3-1.8,0.4
				c-0.1,0-0.2,0-0.3,0.1c-0.3,0.3-0.5,0.6-0.8,1c-0.1,0.1-0.2,0.3-0.2,0.4c-0.1,0.3,0,0.5,0.4,0.6c0.4,0.1,0.8,0,1.2-0.1
				c0.6-0.2,1.1-0.4,1.6-0.7c0.9-0.5,1.7-1.2,2.5-1.8C149.5,22.8,149.6,22.8,149.7,22.7C149.7,22.7,149.7,22.7,149.7,22.7z
				 M145,23.2c0.4,0,0.7,0,1-0.1c0.9-0.3,1.7-0.7,2.3-1.5c0.2-0.2,0.3-0.5,0.4-0.7c0.1-0.4-0.1-0.6-0.5-0.5
				c-0.2,0.1-0.5,0.2-0.7,0.4C146.5,21.5,145.8,22.3,145,23.2z"/>
			<path style="fill:#FFFFFF;" d="M190.8,22.7c0,0.1,0,0.1-0.1,0.2c-1.2,1-2.4,2-3.9,2.6c-0.5,0.2-1,0.3-1.6,0.3
				c-0.2,0-0.3,0-0.5-0.1c-0.4-0.1-0.6-0.4-0.6-0.8c0-0.4,0.1-0.7,0.3-1c0.3-0.7,0.8-1.3,1.4-1.8c0.7-0.7,1.5-1.3,2.4-1.7
				c0.4-0.2,0.8-0.3,1.3-0.3c0.4,0,0.7,0.3,0.7,0.7c0,0.5-0.2,0.8-0.5,1.1c-0.4,0.4-0.9,0.6-1.4,0.9c-0.7,0.3-1.5,0.5-2.2,0.6
				c-0.2,0-0.3,0.1-0.4,0.2c-0.2,0.3-0.5,0.6-0.7,0.9c-0.1,0.1-0.2,0.3-0.2,0.5c-0.1,0.3,0,0.5,0.3,0.6c0.4,0.1,0.8,0,1.2-0.1
				c0.6-0.2,1.1-0.4,1.6-0.7c0.9-0.5,1.7-1.2,2.5-1.8C190.5,22.8,190.6,22.8,190.8,22.7C190.8,22.7,190.8,22.7,190.8,22.7z
				 M186.1,23.2c0.2,0,0.3,0,0.5,0c0.8-0.1,1.5-0.5,2.1-0.9c0.3-0.3,0.6-0.6,0.9-0.9c0.1-0.2,0.2-0.4,0.2-0.5
				c0.1-0.3-0.2-0.5-0.4-0.4c-0.2,0-0.4,0.1-0.5,0.2c-0.3,0.2-0.6,0.4-0.9,0.7c-0.6,0.6-1.1,1.1-1.6,1.7
				C186.2,23.1,186.2,23.1,186.1,23.2z"/>
			<path style="fill:#FFFFFF;" d="M112.1,25.5c0.6-0.7,1.1-1.3,1.7-1.9c0.9-1,1.8-2,2.7-3.1c0.1-0.1,0.2-0.2,0.4-0.2
				c0.3,0,0.6,0,0.9,0c-0.7,0.8-1.4,1.5-2,2.2c0.1,0,0.1,0,0.1,0c0.5-0.3,1.1-0.5,1.6-0.7c0.2-0.1,0.3-0.2,0.3-0.3
				c0.2-0.5,0.5-0.9,1-1.2c0.2-0.1,0.4-0.2,0.6-0.1c0.2,0.1,0.3,0.2,0.2,0.3c0,0.2-0.1,0.3-0.2,0.5c-0.3,0.4-0.7,0.6-1.1,0.8
				c-0.1,0-0.2,0.1-0.3,0.1c-0.1,0.8,0.3,1.1,1.3,0.7c0,0.1,0,0.1,0,0.2c-0.5,0.4-1.3,0.4-1.5-0.5c0-0.1,0-0.2-0.1-0.3
				c-0.6,0.1-1.2,0.4-1.7,0.7c-0.6,0.4-1.2,0.9-1.7,1.4c-0.3,0.3-0.6,0.7-0.9,1c-0.2,0.2-0.3,0.3-0.6,0.3
				C112.7,25.5,112.4,25.5,112.1,25.5z"/>
			<path style="fill:#FFFFFF;" d="M336.8,20.4c-0.7,0.8-1.4,1.5-2.1,2.3c0.6-0.4,1.3-0.6,1.9-0.8c0.1,0,0.2-0.1,0.2-0.3
				c0.2-0.5,0.5-0.9,1-1.2c0.2-0.1,0.3-0.2,0.5-0.1c0.2,0.1,0.3,0.2,0.3,0.4c0,0.2-0.1,0.3-0.2,0.5c-0.3,0.3-0.7,0.6-1.1,0.8
				c-0.1,0-0.2,0.1-0.3,0.1c0,0.1,0,0.1,0,0.2c0.1,0.6,0.5,0.9,1.1,0.6c0.1,0,0.1-0.1,0.2-0.1c0,0,0.1,0,0.1,0.1
				c-0.3,0.3-0.8,0.4-1.1,0.2c-0.4-0.2-0.5-0.6-0.5-1c-0.7,0.2-1.4,0.5-2,0.9c-0.6,0.4-1.1,0.9-1.6,1.5c-0.3,0.3-0.5,0.6-0.8,0.9
				c-0.1,0.1-0.2,0.2-0.4,0.2c-0.3,0-0.5,0-0.9,0c0.2-0.2,0.3-0.4,0.5-0.5c1.3-1.4,2.5-2.9,3.8-4.3c0.2-0.2,0.3-0.3,0.5-0.3
				C336.2,20.4,336.5,20.4,336.8,20.4C336.8,20.4,336.8,20.4,336.8,20.4z"/>
			<path style="fill:#FFFFFF;" d="M234.9,22.7c-0.5,0.4-0.9,0.8-1.4,1.2c-0.7,0.5-1.3,1-2,1.5c-0.2,0.2-0.5,0.3-0.8,0.4
				c-0.2,0.1-0.4,0-0.5,0c-0.3,0-0.5-0.3-0.5-0.5c-0.1-0.3,0-0.6,0.2-0.9c0.2-0.3,0.3-0.5,0.5-0.7c0.9-1,1.8-2,2.7-3.1
				c0.1-0.1,0.2-0.2,0.4-0.2c0.3,0,0.5,0,0.9,0c-0.1,0.1-0.2,0.2-0.2,0.3c-1.1,1.2-2.2,2.4-3.2,3.6c-0.2,0.2-0.4,0.5-0.6,0.7
				c-0.1,0.1-0.1,0.1-0.1,0.2c-0.1,0.2,0,0.3,0.2,0.4c0.3,0,0.5,0,0.7-0.1c0.3-0.2,0.7-0.4,1-0.6c0.8-0.7,1.7-1.4,2.5-2
				c0.1-0.1,0.2-0.1,0.3-0.2C234.8,22.6,234.8,22.6,234.9,22.7C234.9,22.6,234.9,22.7,234.9,22.7z"/>
			<path style="fill:#FFFFFF;" d="M281.2,22.6c-0.1,0.1-0.1,0.1-0.1,0.1c-0.9,0.8-1.8,1.6-2.8,2.3c-0.3,0.2-0.7,0.4-1,0.6
				c-0.2,0.1-0.5,0.2-0.7,0.2c-0.4,0-0.7-0.2-0.7-0.7c0-0.3,0-0.6,0.2-0.8c0.2-0.2,0.4-0.5,0.5-0.7c0.9-1,1.8-2,2.6-3
				c0.1-0.1,0.2-0.2,0.4-0.2c0.3,0,0.5,0,0.9,0c-0.1,0.1-0.2,0.2-0.3,0.3c-1.1,1.2-2.1,2.4-3.2,3.6c-0.2,0.2-0.4,0.4-0.5,0.6
				c-0.1,0.1-0.1,0.2-0.2,0.2c-0.1,0.2-0.1,0.4,0.2,0.4c0.2,0,0.5,0,0.7-0.1c0.3-0.2,0.7-0.4,1-0.6c0.8-0.7,1.7-1.3,2.5-2
				c0.1-0.1,0.2-0.2,0.3-0.2C281,22.6,281.1,22.6,281.2,22.6z"/>
			<path style="fill:#FFFFFF;" d="M310.7,22.6c-0.1,0.1-0.1,0.1-0.2,0.2c-0.9,0.7-1.8,1.5-2.7,2.2c-0.3,0.3-0.7,0.5-1.1,0.7
				c-0.2,0.1-0.5,0.2-0.8,0.1c-0.3-0.1-0.5-0.3-0.6-0.6c0-0.3,0-0.6,0.2-0.9c0.2-0.3,0.4-0.5,0.6-0.7c0.9-1,1.8-2,2.6-3
				c0.1-0.1,0.2-0.2,0.4-0.2c0.3,0,0.5,0,0.9,0c-0.1,0.1-0.2,0.2-0.3,0.3c-1.1,1.2-2.1,2.4-3.2,3.6c-0.2,0.2-0.4,0.5-0.6,0.7
				c-0.1,0.1-0.1,0.2-0.2,0.2c-0.1,0.2,0,0.3,0.2,0.4c0.3,0.1,0.5,0,0.7-0.1c0.3-0.2,0.7-0.4,1-0.6c0.8-0.7,1.7-1.3,2.5-2
				c0.1-0.1,0.2-0.2,0.3-0.2C310.5,22.6,310.6,22.6,310.7,22.6z"/>
			<path style="fill:#FFFFFF;" d="M342.1,20.4c-0.2,0.3-0.5,0.5-0.7,0.8c-1,1.2-2.1,2.3-3.1,3.5c-0.1,0.1-0.2,0.3-0.3,0.4
				c-0.2,0.2-0.1,0.4,0.2,0.4c0.2,0,0.5,0,0.7-0.1c0.4-0.2,0.7-0.4,1-0.6c0.8-0.7,1.7-1.4,2.5-2c0.1-0.1,0.2-0.1,0.3-0.2
				c0,0,0.1,0,0.2,0c-0.1,0.1-0.1,0.1-0.1,0.2c-0.9,0.8-1.9,1.5-2.8,2.3c-0.3,0.2-0.7,0.4-1,0.6c-0.2,0.1-0.5,0.2-0.7,0.2
				c-0.4,0-0.6-0.3-0.7-0.6c0-0.3,0-0.6,0.2-0.8c0.2-0.3,0.3-0.5,0.5-0.7c0.9-1,1.8-2,2.7-3.1c0.1-0.1,0.2-0.2,0.4-0.2
				C341.6,20.4,341.8,20.4,342.1,20.4C342.1,20.4,342.1,20.4,342.1,20.4z"/>
			<path style="fill:#FFFFFF;" d="M134.7,20.4c-0.3,0.4-0.7,0.7-1,1.1c-1,1.1-2,2.2-2.9,3.3c-0.1,0.1-0.2,0.2-0.2,0.3
				c-0.1,0.2,0,0.4,0.2,0.4c0.2,0,0.4,0,0.6-0.1c0.4-0.2,0.7-0.4,1-0.6c0.9-0.7,1.8-1.5,2.7-2.2c0.1,0,0.1-0.1,0.2-0.1
				c0,0,0.1,0,0.2,0c-0.1,0.1-0.1,0.1-0.1,0.1c-0.9,0.8-1.9,1.6-2.9,2.3c-0.3,0.2-0.6,0.4-1,0.6c-0.2,0.1-0.4,0.2-0.7,0.2
				c-0.5,0-0.7-0.2-0.8-0.7c0-0.3,0-0.5,0.2-0.7c0.1-0.2,0.3-0.5,0.5-0.7c0.9-1,1.8-2.1,2.7-3.1c0.1-0.2,0.3-0.3,0.5-0.2
				C134.2,20.4,134.4,20.4,134.7,20.4C134.7,20.4,134.7,20.4,134.7,20.4z"/>
			<path style="fill:#FFFFFF;" d="M250.9,20.4c-0.1,0.2-0.3,0.3-0.4,0.5c-1.1,1.2-2.2,2.4-3.2,3.6c-0.2,0.2-0.3,0.4-0.5,0.6
				c-0.2,0.2-0.1,0.4,0.2,0.4c0.2,0,0.5,0,0.7-0.1c0.4-0.2,0.8-0.4,1.1-0.7c0.8-0.7,1.7-1.4,2.5-2c0.1-0.1,0.1-0.2,0.3-0.1
				c0,0.1-0.1,0.1-0.1,0.1c-0.9,0.8-1.8,1.6-2.8,2.3c-0.3,0.2-0.6,0.4-1,0.6c-0.2,0.1-0.4,0.2-0.7,0.2c-0.5,0-0.7-0.2-0.8-0.7
				c0-0.3,0-0.5,0.2-0.7c0.1-0.2,0.3-0.4,0.5-0.6c0.9-1.1,1.9-2.1,2.8-3.2c0.1-0.2,0.3-0.2,0.5-0.2
				C250.4,20.4,250.6,20.4,250.9,20.4C250.9,20.4,250.9,20.4,250.9,20.4z"/>
			<path style="fill:#FFFFFF;" d="M343.8,16.8c0.3,0,0.6,0.3,0.6,0.6c0,0.4-0.3,0.6-0.6,0.6c-0.4,0-0.6-0.3-0.6-0.6
				C343.2,17.1,343.5,16.8,343.8,16.8z"/>
			<path style="fill:#FFFFFF;" d="M324.5,17.5c0,0.4-0.3,0.6-0.6,0.6c-0.3,0-0.6-0.3-0.6-0.6c0-0.4,0.3-0.6,0.6-0.6
				C324.2,16.8,324.5,17.1,324.5,17.5z"/>
			<path style="fill:#FFFFFF;" d="M311.7,16.8c0.4,0,0.6,0.3,0.6,0.6c0,0.3-0.3,0.6-0.6,0.6c-0.4,0-0.6-0.3-0.6-0.6
				C311,17.1,311.3,16.9,311.7,16.8z"/>
			<path style="fill:#FFFFFF;" d="M282.2,16.8c0.3,0,0.6,0.3,0.6,0.6c0,0.4-0.3,0.6-0.6,0.6c-0.4,0-0.6-0.3-0.6-0.6
				C281.6,17.1,281.8,16.8,282.2,16.8z"/>
			<path style="fill:#FFFFFF;" d="M235.9,16.8c0.3,0,0.6,0.3,0.6,0.6c0,0.4-0.3,0.6-0.6,0.6c-0.4,0-0.6-0.3-0.6-0.7
				C235.3,17.1,235.6,16.8,235.9,16.8z"/>
			<path style="fill:#FFFFFF;" d="M253.3,17.5c0,0.3-0.3,0.6-0.6,0.6c-0.4,0-0.6-0.3-0.6-0.6c0-0.4,0.3-0.6,0.6-0.6
				C253,16.9,253.3,17.1,253.3,17.5z"/>
			<path style="fill:#FFFFFF;" d="M137,17.5c0,0.3-0.3,0.6-0.6,0.6c-0.4,0-0.7-0.3-0.7-0.6c0-0.4,0.3-0.6,0.6-0.6
				C136.7,16.8,137,17.1,137,17.5z"/>
		</g>
	</g>
	<g>
		<path style="fill:#FFFFFF;" d="M108.3,57.1h-7V36.3h7c1.5,0,3,0.1,4.4,0.5c1.1,0.3,2,1,2.7,1.9c0.7,0.9,1.1,1.9,1.3,3.1
			c0.3,1.5,0.4,3,0.4,4.6c0,1.6-0.1,3.1-0.3,4.7c-0.2,1.2-0.6,2.3-1.3,3.3c-0.6,1-1.6,1.7-2.7,2.1C111.4,56.9,109.8,57.1,108.3,57.1
			z M112.7,48.8c0-0.7,0-1.6,0-2.7c0-0.9,0-1.8-0.1-2.8c-0.1-0.7-0.3-1.3-0.6-1.9c-0.3-0.6-0.8-1-1.4-1.2c-0.8-0.2-1.6-0.3-2.4-0.3
			h-2.7v13.4h2.8c1.2,0.1,2.4-0.3,3.3-1.2C112.3,51.3,112.7,50.1,112.7,48.8z"/>
		<path style="fill:#FFFFFF;" d="M120.4,39.9v-4.2h4.2v4.2H120.4z M120.4,57.1V41.8h4.2v15.3H120.4z"/>
		<path style="fill:#FFFFFF;" d="M128.2,63.5V41.8h4.2v0.8c1-0.7,2.2-1.1,3.5-1.2c1.7-0.1,3.4,0.5,4.5,1.9c1.1,1.9,1.7,4.1,1.5,6.3
			c0.2,2.2-0.3,4.4-1.6,6.1c-1.5,1.3-3.4,1.9-5.3,1.7c-0.7,0-1.4-0.1-2.1-0.2h-0.4v6.3L128.2,63.5z M135,45.1
			c-0.8,0-1.6,0.2-2.3,0.5l-0.4,0.1v8c0.7,0.1,1.5,0.2,2.2,0.2c0.9,0.1,1.9-0.3,2.4-1c0.5-1.1,0.8-2.3,0.7-3.6
			C137.7,46.5,136.8,45.1,135,45.1L135,45.1z"/>
		<path style="fill:#FFFFFF;" d="M156.6,46.6v6.3c0,0.4,0.1,0.7,0.2,1c0.2,0.2,0.5,0.4,0.8,0.4l-0.1,3.1c-0.8,0-1.7,0-2.5-0.2
			c-0.7-0.2-1.3-0.5-1.9-0.9c-1.4,0.7-2.9,1.1-4.5,1.1c-3.2,0-4.7-1.7-4.7-5c-0.1-1.3,0.4-2.6,1.3-3.5c1.2-0.8,2.6-1.2,4.1-1.2
			l3.3-0.2v-0.9c0.1-0.5-0.1-1-0.4-1.3c-0.4-0.3-0.9-0.4-1.4-0.4l-5.7,0.3l-0.1-2.8c2.1-0.6,4.2-0.9,6.3-0.9c1.5-0.1,3,0.3,4.2,1.2
			C156.4,43.8,156.8,45.2,156.6,46.6z M149.7,50.6c-0.9,0-1.7,0.7-1.7,1.6c0,0.1,0,0.1,0,0.2c0,1.1,0.5,1.7,1.5,1.7
			c0.9,0,1.7-0.1,2.5-0.4l0.4-0.1v-3.2L149.7,50.6z"/>
		<path style="fill:#FFFFFF;" d="M160.5,57.1V41.8h4.1v1.6c1.5-0.9,3.2-1.6,4.9-2v4.2c-1.4,0.3-2.8,0.6-4.2,1.1l-0.6,0.2v10.2
			L160.5,57.1z"/>
		<path style="fill:#FFFFFF;" d="M180.3,45.3h-3.7v6.3c0,0.6,0,1.1,0,1.3c0,0.2,0.2,0.5,0.3,0.7c0.3,0.2,0.6,0.3,0.9,0.3h2.3
			l0.2,3.3c-1,0.3-2.1,0.4-3.1,0.5c-1.4,0.2-2.7-0.3-3.7-1.2c-0.9-1.4-1.3-3.1-1.1-4.7v-6.3h-1.8v-3.5h1.8v-4.2h4.2v4.2h3.7
			L180.3,45.3z"/>
		<path style="fill:#FFFFFF;" d="M183,39.9v-4.2h4.2v4.2H183z M183,57.1V41.8h4.2v15.3H183z"/>
		<path style="fill:#FFFFFF;" d="M194.9,57.1h-4.1V41.8h4v0.8c1.1-0.7,2.3-1.1,3.6-1.2c1.4-0.1,2.8,0.4,3.8,1.4
			c1.6-0.9,3.3-1.4,5.1-1.4c1.6-0.2,3.2,0.5,4.2,1.8c0.9,1.7,1.3,3.7,1.2,5.6v8.3h-4.2v-8.2c0.1-1-0.1-2-0.4-2.9
			c-0.3-0.6-1-1-1.7-0.9c-0.8,0-1.6,0.2-2.4,0.4l-0.5,0.2c0.1,1.5,0.1,2.7,0.1,3.5v7.9h-4v-7.9c0.1-1.1-0.1-2.2-0.4-3.2
			c-0.3-0.6-1-1-1.7-0.9c-0.8,0-1.6,0.1-2.4,0.4l-0.4,0.1L194.9,57.1z"/>
		<path style="fill:#FFFFFF;" d="M220.6,53.2c0.6,0.5,1.3,0.7,2.1,0.6c1.9,0,3.6,0,5.1-0.2h0.8v3c-2.1,0.5-4.2,0.8-6.3,0.9
			c-1.9,0.2-3.7-0.5-5-1.8c-1.2-1.7-1.7-3.9-1.6-6c0-5.5,2.2-8.2,6.7-8.2s6.7,2.3,6.7,6.9l-0.3,2.8h-9
			C219.8,52,220.1,52.7,220.6,53.2z M225.1,48.1c0.1-0.9-0.1-1.8-0.6-2.5c-1.2-1-2.9-1-4.1,0c-0.5,0.8-0.7,1.6-0.6,2.5L225.1,48.1z"
			/>
		<path style="fill:#FFFFFF;" d="M236.1,57.1H232V41.8h4v0.8c1.1-0.7,2.5-1.2,3.8-1.2c1.6-0.2,3.2,0.5,4.2,1.8
			c0.9,1.7,1.3,3.6,1.2,5.6v8.3h-4.1v-8.2c0-1-0.1-2-0.5-2.9c-0.4-0.6-1.1-1-1.8-0.9c-0.8,0-1.6,0.1-2.4,0.4l-0.4,0.1L236.1,57.1z"
			/>
		<path style="fill:#FFFFFF;" d="M257.4,45.3h-3.7v6.3c0,0.6,0,1.1,0,1.3c0,0.3,0.1,0.5,0.3,0.7c0.3,0.2,0.6,0.3,0.9,0.3h2.3
			l0.2,3.3c-1,0.3-2.1,0.4-3.1,0.5c-1.4,0.2-2.8-0.3-3.8-1.2c-0.8-1.4-1.2-3-1-4.6v-6.5h-1.8v-3.5h1.8v-4.2h4.1v4.2h3.7L257.4,45.3z
			"/>
		<path style="fill:#FFFFFF;" d="M260.8,43.5c3.1-2.8,7.8-2.8,10.8,0c1.2,1.8,1.8,3.9,1.6,6c0,5.3-2.4,8-7,8c-4.7,0-7-2.7-7-8
			C259.1,47.4,259.6,45.3,260.8,43.5z M264,52.9c1,1.2,2.8,1.5,4,0.5c0.2-0.1,0.3-0.3,0.5-0.5c0.5-1.1,0.7-2.3,0.6-3.5
			c0.1-1.2-0.1-2.4-0.6-3.4c-1-1.2-2.8-1.4-4.1-0.4c-0.2,0.1-0.3,0.3-0.4,0.4c-0.5,1.1-0.7,2.3-0.6,3.5
			C263.3,50.7,263.5,51.8,264,52.9L264,52.9z"/>
		<path style="fill:#FFFFFF;" d="M295.9,35.7v21.4h-4.1v-0.7c-1.1,0.6-2.4,0.9-3.7,1c-1.8,0.2-3.5-0.5-4.7-1.9c-1-1.9-1.5-4-1.3-6.1
			c-0.2-2.1,0.4-4.3,1.6-6.1c1.2-1.3,2.9-2.1,4.7-1.9c0.9,0,1.8,0.1,2.7,0.3l0.6,0.1v-6.2H295.9z M291.4,53.4l0.4-0.1v-8
			c-1-0.2-2-0.3-3-0.3c-1.7,0-2.5,1.5-2.5,4.4c-0.1,1.2,0.1,2.3,0.5,3.4c0.4,0.7,1.1,1.1,1.8,1C289.6,53.8,290.5,53.6,291.4,53.4z"
			/>
		<path style="fill:#FFFFFF;" d="M303.8,53.2c0.6,0.5,1.3,0.7,2.1,0.6c1.9,0,3.6,0,5.1-0.2h0.9v3c-2.1,0.5-4.2,0.8-6.3,0.9
			c-1.9,0.2-3.7-0.5-5-1.8c-1.2-1.7-1.7-3.9-1.6-6c0-5.5,2.3-8.2,6.8-8.2s6.7,2.3,6.7,6.9l-0.3,2.8h-9
			C303.1,52,303.3,52.7,303.8,53.2z M308.3,48.1c0.1-0.9-0.1-1.8-0.6-2.5c-0.5-0.6-1.3-0.8-2.1-0.7c-0.8-0.1-1.6,0.2-2.1,0.7
			c-0.5,0.8-0.7,1.6-0.6,2.5H308.3z"/>
		<path style="fill:#FFFFFF;" d="M315.6,57.1V35.7h4.1v21.4H315.6z"/>
		<path style="fill:#FFFFFF;" d="M323.7,57.1V35.7h4.1v21.4H323.7z"/>
		<path style="fill:#FFFFFF;" d="M343.5,46.6v6.3c0,0.4,0.1,0.7,0.3,1c0.2,0.2,0.5,0.4,0.8,0.4l-0.1,3.1c-0.8,0-1.7,0-2.5-0.2
			c-0.7-0.2-1.3-0.5-1.9-0.9c-1.4,0.7-2.9,1.1-4.5,1.1c-3.2,0-4.7-1.7-4.7-5c-0.1-1.3,0.4-2.6,1.3-3.5c1.2-0.8,2.6-1.2,4-1.2
			l3.3-0.2v-0.9c0.1-0.5-0.1-1-0.4-1.3c-0.4-0.3-0.9-0.4-1.4-0.4l-5.7,0.3l-0.1-2.8c2.1-0.6,4.2-0.9,6.3-0.9c1.5-0.1,3,0.3,4.2,1.2
			C343.2,43.7,343.6,45.2,343.5,46.6z M336.6,50.6c-0.9,0-1.7,0.7-1.7,1.6c0,0.1,0,0.1,0,0.2c0,1.1,0.5,1.7,1.5,1.7
			c0.9,0,1.7-0.1,2.5-0.4l0.5-0.1v-3.3L336.6,50.6z"/>
		<path style="fill:#FFFFFF;" d="M101.3,85V63.7h13.6v3.8h-9.3v6.3h7.6v3.8h-7.6V85L101.3,85z"/>
		<path style="fill:#FFFFFF;" d="M126.4,69.3h4.3V85h-4.3v-0.9c-1.2,0.7-2.5,1.2-3.9,1.3c-1.7,0.2-3.3-0.5-4.3-1.8
			c-0.9-1.9-1.3-4-1.1-6.1v-8.2h4.3v8.3c-0.1,1.1,0.1,2.1,0.4,3.2c0.3,0.6,0.9,0.8,1.8,0.8c0.9,0,1.8-0.1,2.6-0.4l0.4-0.1
			L126.4,69.3z"/>
		<path style="fill:#FFFFFF;" d="M138.7,85h-4.3V69.3h4.3v0.9c1.2-0.8,2.5-1.2,3.9-1.3c1.7-0.2,3.3,0.5,4.3,1.9
			c0.9,1.8,1.3,3.7,1.2,5.7V85h-4.3v-8.4c0.1-1-0.1-2-0.5-3c-0.4-0.7-1.1-1-1.9-1c-0.8,0-1.7,0.1-2.5,0.4l-0.4,0.1L138.7,85z"/>
		<path style="fill:#FFFFFF;" d="M151.2,73.1v-3.8h11.6v3.8l-6.5,8.1h6.5V85h-11.6v-3.8l6.5-8.1L151.2,73.1z"/>
		<path style="fill:#FFFFFF;" d="M166,67.3V63h4.3v4.3H166z M166,85V69.3h4.3V85H166z"/>
		<path style="fill:#FFFFFF;" d="M175,71.1c3.1-2.9,8-2.9,11.1,0c1.2,1.8,1.8,4,1.7,6.1c0,5.5-2.4,8.2-7.2,8.2s-7.2-2.7-7.2-8.2
			C173.2,75.1,173.8,72.9,175,71.1z M178.2,80.7c1,1.3,2.8,1.5,4.1,0.5c0.2-0.1,0.4-0.3,0.5-0.5c0.5-1.1,0.7-2.3,0.6-3.5
			c0.1-1.2-0.1-2.4-0.6-3.5c-1-1.3-2.9-1.5-4.2-0.4c-0.2,0.1-0.3,0.3-0.4,0.4c-0.5,1.1-0.7,2.3-0.6,3.5
			C177.5,78.4,177.7,79.6,178.2,80.7z"/>
		<path style="fill:#FFFFFF;" d="M195,85h-4.2V69.3h4.2v0.9c1.2-0.8,2.5-1.2,3.9-1.3c1.7-0.2,3.3,0.5,4.3,1.9
			c0.9,1.8,1.3,3.7,1.2,5.7V85h-4.1v-8.4c0.1-1-0.1-2-0.5-3c-0.4-0.7-1.1-1-1.9-1c-0.8,0-1.7,0.1-2.5,0.4l-0.4,0.1L195,85z"/>
		<path style="fill:#FFFFFF;" d="M212.4,81c0.6,0.5,1.4,0.7,2.2,0.6c1.9,0,3.7-0.1,5.2-0.2h0.9v3.1c-2.1,0.5-4.3,0.8-6.5,0.9
			c-1.9,0.2-3.8-0.5-5.1-1.9c-1.2-1.8-1.8-4-1.6-6.1c0-5.6,2.3-8.4,6.9-8.4s6.8,2.4,6.8,7.1l-0.3,2.9h-9.2
			C211.6,79.8,211.9,80.5,212.4,81z M217,75.8c0.1-0.9-0.1-1.8-0.6-2.6c-0.6-0.6-1.4-0.9-2.2-0.7c-0.8-0.1-1.6,0.2-2.2,0.8
			c-0.5,0.8-0.7,1.7-0.6,2.6H217z"/>
		<path style="fill:#FFFFFF;" d="M239.2,78.8h-3.5V85h-4.3V63.7h7.8c5.1,0,7.6,2.5,7.6,7.4c0.1,2.1-0.6,4.1-1.9,5.7
			C243.3,78.2,241.2,78.9,239.2,78.8z M235.7,75.1h3.4c2.2,0,3.2-1.3,3.2-4c0.1-1-0.2-2-0.8-2.8c-0.6-0.6-1.5-0.9-2.4-0.9h-3.5
			L235.7,75.1z"/>
		<path style="fill:#FFFFFF;" d="M258.7,69.3h4.2V85h-4.1v-0.9c-1.2,0.7-2.5,1.2-3.9,1.3c-1.7,0.2-3.3-0.5-4.3-1.8
			c-0.9-1.9-1.3-4-1.1-6.1v-8.2h4.2v8.3c-0.1,1.1,0.1,2.2,0.4,3.2c0.2,0.6,0.9,0.8,1.8,0.8c0.9,0,1.8-0.1,2.6-0.4l0.4-0.1
			L258.7,69.3z"/>
		<path style="fill:#FFFFFF;" d="M274.4,69c1.8-0.2,3.6,0.5,4.8,1.8c1.2,1.9,1.7,4.2,1.5,6.5c0.3,2.3-0.4,4.6-1.8,6.5
			c-1.7,1.4-3.9,2-6.1,1.8c-0.9,0-2.6,0-4.9-0.3l-1.2-0.1v-22h4.2v6.7C272.1,69.3,273.2,69,274.4,69z M272.9,81.6
			c1,0.1,2.1-0.2,2.8-1c0.6-1.1,0.9-2.4,0.7-3.7c0-2.8-0.9-4.3-2.6-4.3c-0.8,0-1.6,0.1-2.4,0.3H271v8.7
			C272,81.6,272.6,81.6,272.9,81.6z"/>
		<path style="fill:#FFFFFF;" d="M291.4,69c1.8-0.2,3.6,0.5,4.8,1.8c1.2,1.9,1.8,4.2,1.5,6.5c0.3,2.3-0.4,4.6-1.8,6.5
			c-1.7,1.4-3.9,2-6.1,1.8c-0.9,0-2.6,0-4.9-0.3l-1.2-0.1v-22h4.2v6.7C289.1,69.3,290.3,69,291.4,69z M290,81.6c1,0.1,2.1-0.2,2.8-1
			c0.6-1.1,0.8-2.4,0.7-3.7c0-2.8-0.9-4.3-2.6-4.3c-0.8,0-1.6,0.1-2.4,0.3h-0.5v8.7C289,81.6,289.7,81.6,290,81.6z"/>
		<path style="fill:#FFFFFF;" d="M301.1,85V63.1h4.2V85H301.1z"/>
		<path style="fill:#FFFFFF;" d="M309.4,67.3V63h4.3v4.3H309.4z M309.4,85V69.3h4.3V85H309.4z"/>
		<path style="fill:#FFFFFF;" d="M323.3,69c1.4,0,2.8,0.2,4.1,0.5l0.9,0.2l-0.1,3.3c-1.7-0.2-2.9-0.3-3.7-0.3
			c-1-0.1-2.1,0.2-2.9,0.9c-0.6,1.1-0.8,2.3-0.7,3.5c-0.1,1.2,0.1,2.4,0.7,3.5c0.8,0.7,1.9,1.1,2.9,1l3.6-0.3l0.1,3.4
			c-1.7,0.4-3.4,0.6-5.1,0.6c-1.9,0.2-3.7-0.5-5-2c-1.2-1.9-1.7-4.1-1.5-6.3c-0.2-2.2,0.4-4.4,1.6-6.3
			C319.6,69.5,321.4,68.8,323.3,69z"/>
		<path style="fill:#FFFFFF;" d="M343.4,74.2v6.5c0,0.4,0.1,0.7,0.3,1.1c0.2,0.2,0.5,0.4,0.8,0.4l-0.1,3.2c-0.9,0-1.7-0.1-2.6-0.2
			c-0.7-0.2-1.3-0.5-1.9-0.9c-1.4,0.7-3,1.1-4.6,1.1c-3.2,0-4.9-1.7-4.9-5.1c-0.1-1.3,0.4-2.6,1.4-3.5c1.2-0.8,2.7-1.3,4.1-1.3
			l3.4-0.2v-1c0.1-0.5-0.1-1-0.4-1.3c-0.4-0.3-0.9-0.4-1.4-0.4l-5.9,0.3l-0.1-2.9c2.1-0.6,4.3-0.9,6.5-0.9c1.5-0.1,3.1,0.3,4.3,1.3
			C343.1,71.3,343.6,72.8,343.4,74.2z M336.4,78.4c-0.9,0-1.7,0.7-1.8,1.7c0,0.1,0,0.2,0,0.2c0,1.1,0.5,1.7,1.5,1.7
			c0.9,0,1.7-0.1,2.6-0.4l0.5-0.1v-3.4L336.4,78.4z"/>
	</g>
</g>
</svg>
