<?xml version="1.0" encoding="utf-8"?>
<!-- Generator: Adobe Illustrator 23.0.4, SVG Export Plug-In . SVG Version: 6.00 Build 0)  -->
<svg version="1.1" id="Livello_1" xmlns="http://www.w3.org/2000/svg" xmlns:xlink="http://www.w3.org/1999/xlink" x="0px" y="0px"
	 viewBox="0 0 347.9 98.6" style="enable-background:new 0 0 347.9 98.6;" xml:space="preserve">
<g>
	<g id="Livello_1-2">
		<rect x="250.2" y="61.3" style="fill:#FFFFFF;" width="4" height="2.7"/>
		<path style="fill:#FFFFFF;" d="M51.6,10.3H8.3v62.4c0,8.2,6.3,15,14.5,15.6V66.7h28.8c7.2,0,13.1-5.8,13.1-13.1v0V23.4
			C64.7,16.2,58.9,10.3,51.6,10.3 M50.3,52.2H22.9V24.8h27.4L50.3,52.2z"/>
		<path style="fill:#FFFFFF;" d="M180.3,10.3h-40.7v49.1c0,4,3.2,7.3,7.2,7.3c0.1,0,0.2,0,0.4,0c3.9-0.3,6.9-3.7,6.8-7.6V24.8h27.4
			V59c-0.1,4,2.9,7.3,6.9,7.6c4,0.2,7.4-2.9,7.6-6.9c0-0.1,0-0.3,0-0.4V26C196,17.3,188.9,10.3,180.3,10.3
			C180.3,10.3,180.3,10.3,180.3,10.3"/>
		<path style="fill:#FFFFFF;" d="M128.2,36.4h-21.8c-1.2,0-2.2-0.9-2.2-2.1c0,0,0,0,0,0V12.5c0-1.2,1-2.2,2.1-2.2c0,0,0.1,0,0.1,0
			h11c7.1,0,12.9,5.7,12.9,12.8v11C130.4,35.4,129.4,36.4,128.2,36.4C128.2,36.4,128.2,36.4,128.2,36.4"/>
		<path style="fill:#FFFFFF;" d="M117.5,66.7h-11c-1.2,0-2.2-0.9-2.2-2.1c0,0,0,0,0,0V42.8c0-1.2,1-2.1,2.2-2.1h21.8
			c1.2,0,2.2,1,2.2,2.2c0,0,0,0,0,0v11C130.4,61,124.6,66.7,117.5,66.7"/>
		<path style="fill:#FFFFFF;" d="M76.1,36.4h21.8c1.2,0,2.1-1,2.1-2.1c0,0,0,0,0,0V12.5c0-1.2-1-2.2-2.1-2.2c0,0,0,0-0.1,0h-11
			c-7.1,0-12.9,5.7-12.9,12.8c0,0,0,0,0,0v11C73.9,35.4,74.9,36.4,76.1,36.4C76.1,36.4,76.1,36.4,76.1,36.4"/>
		<path style="fill:#FFFFFF;" d="M86.8,66.7h11c1.2,0,2.1-1,2.1-2.1V42.8c0-1.2-1-2.2-2.1-2.2H76.1c-1.2,0-2.2,1-2.2,2.2v0v11.1
			C73.9,61,79.7,66.7,86.8,66.7C86.8,66.7,86.8,66.7,86.8,66.7"/>
		<path style="fill:#FFFFFF;" d="M220.8,21.5h-2.3l-0.1-1.1c-0.8,0.9-2,1.4-3.3,1.3c-2.8,0.1-5.2-2.1-5.3-4.9c0-0.2,0-0.5,0-0.7
			c-0.2-3,2-5.6,4.9-5.8c0.2,0,0.5,0,0.7,0c2.5-0.2,4.8,1.5,5.1,4h-3.3c-0.2-0.8-1-1.4-1.8-1.4c-1.4,0-2,1.3-2,3.2
			c0,1.5,0.5,2.9,2.3,2.9c0.8,0,1.5-0.5,1.8-1.2h-1.7v-2.3h4.8L220.8,21.5z"/>
		<path style="fill:#FFFFFF;" d="M233.7,16c0.2,3-2,5.6-5,5.8c-0.2,0-0.5,0-0.7,0c-2.9,0.2-5.5-2-5.7-4.9c0-0.3,0-0.6,0-0.9
			c0.2-3.1,2.8-5.5,6-5.4C231.2,10.7,233.6,13,233.7,16 M225.9,16c0,1.5,0.4,3.1,2.1,3.1s2.1-1.3,2.1-3.1c0-1.5-0.6-3-2.2-3
			C226.4,13,225.9,14.6,225.9,16"/>
		<polygon style="fill:#FFFFFF;" points="234.6,10.6 238.2,10.6 240.1,17.8 242.1,10.6 245.6,10.6 241.9,21.4 238.3,21.4 		"/>
		<polygon style="fill:#FFFFFF;" points="247.1,21.4 247.1,10.6 255.9,10.6 255.9,13.1 250.7,13.1 250.7,14.7 255.1,14.7 
			255.1,17.2 250.7,17.2 250.7,18.9 256.1,18.9 256.1,21.4 		"/>
		<path style="fill:#FFFFFF;" d="M261.3,17.6v3.8h-3.6V10.6h5.1c3.6,0,4.8,1,4.8,3.1c0.1,1.2-0.7,2.3-1.8,2.7
			c1.2,0.4,1.8,0.7,1.8,2.9c0,1.5,0,1.9,0.4,1.9v0.3h-3.6c-0.2-0.6-0.3-1.2-0.2-1.9c0-1.5-0.2-1.9-1.9-1.9L261.3,17.6z M261.3,15.3
			h1.4c1.1,0,1.7-0.3,1.7-1c0-0.8-0.6-1.1-1.5-1.1h-1.6L261.3,15.3z"/>
		<polygon style="fill:#FFFFFF;" points="276.7,16.5 276.6,14.1 276.6,10.6 280,10.6 280,21.4 276.7,21.4 272.8,15.5 272.9,18 
			272.9,21.4 269.5,21.4 269.5,10.6 272.9,10.6 		"/>
		<path style="fill:#FFFFFF;" d="M281.2,21.4l3.8-10.8h3.6l3.9,10.8H289l-0.4-1.5H285l-0.4,1.5H281.2z M286.9,13.9l-1.1,3.9h2.2
			L286.9,13.9z"/>
		<polygon style="fill:#FFFFFF;" points="300.9,16.5 300.8,14.1 300.8,10.6 304.2,10.6 304.2,21.4 300.9,21.4 297,15.5 297.1,18 
			297.1,21.4 293.7,21.4 293.7,10.6 297.1,10.6 		"/>
		<path style="fill:#FFFFFF;" d="M313,14.7c0-1-0.8-1.8-1.8-1.8c0,0-0.1,0-0.1,0c-1.2,0-2,1.1-2,3.1c0,1.5,0.3,2.9,2.1,2.9
			c1.1,0,1.7-0.8,1.8-1.8h3.4c-0.2,2.7-2.5,4.7-5.2,4.5c0,0,0,0,0,0c-2.9,0.3-5.5-1.9-5.8-4.8c0-0.3,0-0.6,0-0.9
			c-0.1-2.9,2.1-5.4,5.1-5.6c0.1,0,0.3,0,0.4,0c3.3,0,5.2,1.6,5.4,4.4H313z"/>
		<polygon style="fill:#FFFFFF;" points="318,21.4 318,10.6 326.8,10.6 326.8,13.1 321.6,13.1 321.6,14.7 326,14.7 326,17.2 
			321.6,17.2 321.6,18.9 327.1,18.9 327.1,21.4 		"/>
		<polygon style="fill:#FFFFFF;" points="210.4,36.4 210.4,25.6 219.2,25.6 219.2,28.1 214,28.1 214,29.7 218.4,29.7 218.4,32.2 
			214,32.2 214,33.9 219.4,33.9 219.4,36.4 		"/>
		<path style="fill:#FFFFFF;" d="M232.9,29.8c0-1-0.8-1.8-1.8-1.8c-0.1,0-0.1,0-0.2,0c-1.3,0-2,1.1-2,3.1c0,1.5,0.3,2.9,2.1,2.9
			c1.1,0,1.7-0.8,1.8-1.8h3.4c-0.2,2.7-2.5,4.7-5.2,4.5c-2.9,0.3-5.5-1.9-5.8-4.8c0-0.3,0-0.6,0-0.9c-0.2-2.9,2-5.5,5-5.7
			c0.2,0,0.3,0,0.5,0c3.3,0,5.1,1.6,5.4,4.4L232.9,29.8z"/>
		<path style="fill:#FFFFFF;" d="M237,36.4l3.9-10.8h3.6l3.8,10.8h-3.5l-0.4-1.5h-3.5l-0.4,1.5H237z M242.6,28.9l-1.1,3.9h2.2
			L242.6,28.9z"/>
		<path style="fill:#FFFFFF;" d="M249.3,36.4V25.6h5.2c3.1,0,4.6,1.5,4.6,3.6s-1.4,3.8-4.5,3.8h-1.7v3.4H249.3z M254.3,30.5
			c0.8,0,1.5-0.3,1.5-1.3c0-0.9-1.1-1.1-1.9-1.1h-1v2.4H254.3z"/>
		<path style="fill:#FFFFFF;" d="M258.4,36.4l3.9-10.8h3.6l3.9,10.8h-3.5l-0.4-1.5h-3.6l-0.4,1.5H258.4z M264,28.9l-1.1,3.9h2.3
			L264,28.9z"/>
		<path style="fill:#FFFFFF;" d="M277.7,29.8c0-1-0.8-1.8-1.8-1.8c-0.1,0-0.1,0-0.2,0c-1.2,0-2,1.1-2,3.1c0,1.5,0.3,2.9,2.1,2.9
			c1.1,0,1.7-0.8,1.8-1.8h3.5c-0.2,2.7-2.5,4.7-5.2,4.5c-2.9,0.3-5.5-1.9-5.7-4.8c0-0.3,0-0.6,0-0.9c-0.2-2.9,2-5.5,4.9-5.7
			c0.2,0,0.3,0,0.5,0c3.3,0,5.2,1.6,5.4,4.4L277.7,29.8z"/>
		<rect x="282.7" y="25.6" style="fill:#FFFFFF;" width="3.6" height="10.8"/>
		<polygon style="fill:#FFFFFF;" points="287.9,25.6 297.8,25.6 297.8,28.5 294.6,28.5 294.6,36.4 291.1,36.4 291.1,28.5 
			287.9,28.5 		"/>
		<path style="fill:#FFFFFF;" d="M297.3,36.4l3.9-10.8h3.6l3.9,10.8h-3.6l-0.4-1.5h-3.6l-0.4,1.5H297.3z M303.1,22.4l1.5,2.2h-2
			l-2.6-2.2H303.1z M303,28.9l-1.1,3.9h2.2L303,28.9z"/>
		<rect x="210.4" y="40.6" style="fill:#FFFFFF;" width="3.6" height="10.8"/>
		<path style="fill:#FFFFFF;" d="M221.8,43.8c0-0.3-0.2-0.6-0.5-0.7c-0.3-0.2-0.6-0.2-0.9-0.2c-0.8,0-1.1,0.2-1.1,0.6
			c0,1.6,6.2,0.6,6.2,4.5c0,2.5-2.1,3.7-5.1,3.7s-4.7-1.7-4.8-3.6h3.4c0.1,0.4,0.3,0.7,0.6,0.9c0.3,0.2,0.7,0.3,1,0.3
			c0.9,0,1.5-0.3,1.5-0.8c0-1.7-6.2-0.5-6.2-4.7c0-2.3,2-3.5,4.7-3.5c3,0,4.4,1.5,4.6,3.4L221.8,43.8z"/>
		<polygon style="fill:#FFFFFF;" points="226.4,40.6 236.3,40.6 236.3,43.5 233.2,43.5 233.2,51.5 229.6,51.5 229.6,43.5 
			226.4,43.5 		"/>
		<rect x="237.9" y="40.6" style="fill:#FFFFFF;" width="3.6" height="10.8"/>
		<polygon style="fill:#FFFFFF;" points="243.1,40.6 253,40.6 253,43.5 249.8,43.5 249.8,51.5 246.3,51.5 246.3,43.5 243.1,43.5 		
			"/>
		<path style="fill:#FFFFFF;" d="M254.5,40.6h3.5v6.5c0,1,0.2,2,1.7,2s1.7-0.8,1.7-2v-6.5h3.5v6.1c0,3.5-1.6,5-5.2,5
			c-3.4,0-5.2-1.3-5.2-5V40.6z"/>
		<polygon style="fill:#FFFFFF;" points="266.5,51.5 266.5,48.9 271.7,43.2 266.7,43.2 266.7,40.6 276.1,40.6 276.1,43.1 
			270.8,48.9 276.3,48.9 276.3,51.5 		"/>
		<rect x="278" y="40.6" style="fill:#FFFFFF;" width="3.5" height="10.8"/>
		<path style="fill:#FFFFFF;" d="M294.6,46c0.2,3-2,5.6-4.9,5.8c-0.2,0-0.5,0-0.7,0c-2.9,0.2-5.5-2-5.7-4.9c0-0.3,0-0.6,0-0.9
			c0-3.1,2.5-5.7,5.7-5.7S294.6,42.9,294.6,46 M286.8,46c0,1.5,0.4,3.1,2.1,3.1c1.7,0,2.1-1.3,2.1-3.1c0-1.5-0.6-3-2.2-3
			S286.8,44.6,286.8,46"/>
		<polygon style="fill:#FFFFFF;" points="303.4,46.5 303.3,44.1 303.3,40.6 306.7,40.6 306.7,51.5 303.4,51.5 299.5,45.6 299.6,48 
			299.6,51.5 296.2,51.5 296.2,40.6 299.6,40.6 		"/>
		<path style="fill:#FFFFFF;" d="M307.9,51.5l3.8-10.8h3.6l3.9,10.8h-3.5l-0.4-1.5h-3.5l-0.4,1.5H307.9z M313.5,43.9l-1.1,3.9h2.2
			L313.5,43.9z"/>
		<polygon style="fill:#FFFFFF;" points="320.5,51.5 320.5,40.6 324.1,40.6 324.1,48.9 328.9,48.9 328.9,51.5 		"/>
		<polygon style="fill:#FFFFFF;" points="330.5,51.5 330.5,40.6 339.4,40.6 339.4,43.2 334.1,43.2 334.1,44.7 338.5,44.7 
			338.5,47.2 334.1,47.2 334.1,48.9 339.6,48.9 339.6,51.5 		"/>
		<path style="fill:#FFFFFF;" d="M210.1,66.5c-0.1-1.1,0.4-2.3,1.2-3c1.8-1.8,4.6-2.6,4.6-4.4c-0.1-0.6-0.6-1.1-1.3-1.1c0,0,0,0,0,0
			c-1.2,0-1.5,1-1.5,2h-2.8c0-3.1,1.7-4.4,4.5-4.4c2.2,0,4.3,1,4.3,3.4c0,1.8-1.5,2.6-2.8,3.5c-0.8,0.5-1.6,0.9-2.1,1.3h4.9v2.6
			H210.1z"/>
		<path style="fill:#FFFFFF;" d="M224.3,55.7c2.8,0,4.6,1.8,4.6,5.3c0,3-1.2,5.6-4.6,5.6c-3.4,0-4.6-2.6-4.6-5.6
			C219.7,57.2,221.9,55.7,224.3,55.7 M225.8,61.2c0-1.1,0.1-3.1-1.5-3.1c-1.5,0-1.5,2.2-1.5,3.2c0,1.9,0.3,3.1,1.5,3.1
			C225.5,64.4,225.8,63,225.8,61.2"/>
		<path style="fill:#FFFFFF;" d="M236.3,66.5h-3.1v-6.2h-2.5v-2.1c1.6,0,2.9-0.6,3.2-2.4h2.4V66.5z"/>
		<path style="fill:#FFFFFF;" d="M239.7,61.8l4.9-5.8h2.9V62h1.3v2.3h-1.3v2.1h-3v-2.2h-4.9L239.7,61.8z M242.1,61.9h2.5v-3.2
			L242.1,61.9z"/>
		<path style="fill:#FFFFFF;" d="M255.2,66.5c-0.1-1.1,0.4-2.2,1.2-3c1.8-1.8,4.6-2.6,4.6-4.4c-0.1-0.6-0.6-1.1-1.3-1.1
			c-1.2,0-1.5,1-1.5,2h-2.8c0-3.1,1.7-4.4,4.5-4.4c2.2,0,4.3,1,4.3,3.4c0,1.8-1.5,2.6-2.8,3.5c-0.8,0.5-1.6,0.9-2.1,1.3h4.9v2.6
			H255.2z"/>
		<path style="fill:#FFFFFF;" d="M269.4,55.7c2.8,0,4.6,1.8,4.6,5.3c0,3-1.1,5.6-4.6,5.6s-4.6-2.6-4.6-5.6
			C264.8,57.2,267,55.7,269.4,55.7 M270.8,61.2c0-1.1,0.1-3.1-1.5-3.1s-1.5,2.2-1.5,3.2c0,1.9,0.3,3.1,1.5,3.1S270.8,63,270.8,61.2"
			/>
		<path style="fill:#FFFFFF;" d="M275.2,66.5c0-1.1,0.4-2.2,1.3-3c1.8-1.8,4.6-2.6,4.6-4.4c-0.1-0.6-0.6-1.1-1.3-1.1c0,0,0,0,0,0
			c-1.2,0-1.6,1-1.5,2h-2.8c0-3.1,1.7-4.4,4.5-4.4c2.2,0,4.3,1,4.3,3.4c0,1.8-1.5,2.6-2.8,3.5c-0.8,0.5-1.6,0.9-2.1,1.3h4.9v2.6
			H275.2z"/>
		<path style="fill:#FFFFFF;" d="M289.4,55.7c2.8,0,4.6,1.8,4.6,5.3c0,3-1.2,5.6-4.6,5.6s-4.6-2.6-4.6-5.6
			C284.8,57.2,287,55.7,289.4,55.7 M290.8,61.2c0-1.1,0-3.1-1.5-3.1s-1.5,2.2-1.5,3.2c0,1.9,0.3,3.1,1.5,3.1
			C290.6,64.4,290.8,63,290.8,61.2"/>
	</g>
</g>
</svg>
