<?xml version="1.0" encoding="utf-8"?>
<svg version="1.1" id="WAI" xmlns="http://www.w3.org/2000/svg" xmlns:xlink="http://www.w3.org/1999/xlink" x="0px" y="0px"
	 viewBox="0 0 226.8 217.3" style="enable-background:new 0 0 226.8 217.3;" xml:space="preserve">
<style type="text/css">
	.st0{fill:#0066CC;}
	.st1{fill:#FFFFFF;}
</style>
<rect y="0" class="st0" width="226.9" height="217.3"/>
<path class="st1" d="M115,18.8L115,18.8 M113.3,19.6l82.5,42.2H30.7L113.3,19.6 M113.3,10.6c-0.8,0-1.5,0.2-2.3,0.5L13.8,60.9
	c-2.4,1.2-3.4,4.2-2.3,6.6c0.8,1.7,2.6,2.8,4.5,2.8h194.7c2.7,0,5-2.2,5.1-4.9c0-1.9-1.1-3.7-2.8-4.5l-97.4-49.7
	C114.9,10.8,114.1,10.6,113.3,10.6z"/>
<path class="st1" d="M179.4,78.9L179.4,78.9c3.5,0,6.4,2.9,6.4,6.4v81c0,3.5-2.9,6.4-6.4,6.4l0,0c-3.5,0-6.4-2.9-6.4-6.4v-81
	C173,81.8,175.9,78.9,179.4,78.9z"/>
<path class="st1" d="M145.3,172.6L145.3,172.6c-3.5,0-6.3-2.8-6.4-6.2V93.8c-0.1-3.5,2.7-6.4,6.2-6.5h0.1l0,0c3.5,0,6.4,2.9,6.4,6.4
	v72.5C151.7,169.8,148.9,172.6,145.3,172.6C145.4,172.6,145.3,172.6,145.3,172.6z"/>
<path class="st1" d="M111.2,172.6L111.2,172.6c-3.4,0.1-6.3-2.7-6.4-6.1v-55.8c0-3.5,2.9-6.3,6.3-6.2l0,0l0,0
	c3.5-0.1,6.3,2.7,6.4,6.2l0,0v55.8C117.5,169.9,114.6,172.6,111.2,172.6z"/>
<path class="st1" d="M77,172.6L77,172.6c-3.5,0-6.4-2.9-6.4-6.4v-42.6c0.1-3.5,2.9-6.3,6.4-6.3l0,0c3.5,0,6.4,2.9,6.4,6.5l0,0v42.6
	C83.4,169.8,80.6,172.6,77,172.6z"/>
<path class="st1" d="M43,125.7L43,125.7c3.5,0,6.4,2.9,6.4,6.4v34.1c0,3.5-2.9,6.4-6.4,6.4l0,0c-3.5,0-6.4-2.9-6.4-6.4v-34.1
	C36.6,128.5,39.4,125.7,43,125.7z"/>
<path class="st1" d="M15.3,181.1h196c2.3,0,4.2,1.9,4.2,4.2l0,0c0,2.3-1.9,4.2-4.2,4.2h-196c-2.3,0-4.2-1.9-4.2-4.2l0,0
	C11,183,12.9,181.1,15.3,181.1z"/>
<path class="st1" d="M15.3,198.2h196c2.3,0,4.2,1.9,4.2,4.2l0,0c0,2.3-1.9,4.2-4.2,4.2h-196c-2.3,0-4.2-1.9-4.2-4.2l0,0
	C11,200.1,12.9,198.2,15.3,198.2z"/>
</svg>
