<?xml version="1.0" encoding="utf-8"?>
<svg version="1.1" id="WAI" xmlns="http://www.w3.org/2000/svg" xmlns:xlink="http://www.w3.org/1999/xlink" x="0px" y="0px"
	 viewBox="0 0 226.8 217.3" style="enable-background:new 0 0 226.8 217.3;" xml:space="preserve">
<style type="text/css">
	.white{fill:#FFFFFF;}
</style>
<path class="white" d="M115.2,9L115.2,9 M113.4,9.9l91.4,46.8H21.9L113.4,9.9 M113.4,0c-0.9,0-1.7,0.2-2.5,0.6L3.1,55.7
	C0.4,57-0.7,60.3,0.6,63c0.9,1.9,2.9,3.1,5,3.1h215.7c3,0,5.5-2.4,5.6-5.4c0-2.1-1.2-4.1-3.1-5L115.9,0.6C115.1,0.2,114.3,0,113.4,0
	z"/>
<path class="white" d="M186.6,75.6L186.6,75.6c3.9,0,7.1,3.2,7.1,7.1v89.7c0,3.9-3.2,7.1-7.1,7.1l0,0c-3.9,0-7.1-3.2-7.1-7.1V82.7
	C179.5,78.8,182.7,75.6,186.6,75.6z"/>
<path class="white" d="M148.8,179.5L148.8,179.5c-3.9,0-7-3.1-7.1-6.9V92.2c-0.1-3.9,3-7.1,6.9-7.2h0.1l0,0c3.9,0,7.1,3.2,7.1,7.1
	v80.3C155.9,176.3,152.8,179.5,148.8,179.5C148.9,179.5,148.8,179.5,148.8,179.5z"/>
<path class="white" d="M111,179.5L111,179.5c-3.8,0.1-7-3-7.1-6.8v-61.8c0-3.9,3.2-7,7-6.9l0,0l0,0c3.9-0.1,7,3,7.1,6.9l0,0v61.8
	C118,176.5,114.8,179.5,111,179.5z"/>
<path class="white" d="M73.2,179.5L73.2,179.5c-3.9,0-7.1-3.2-7.1-7.1v-47.2c0.1-3.9,3.2-7,7.1-7l0,0c3.9,0,7.1,3.2,7.1,7.2l0,0v47.2
	C80.2,176.4,77.1,179.5,73.2,179.5z"/>
<path class="white" d="M35.5,127.5L35.5,127.5c3.9,0,7.1,3.2,7.1,7.1v37.8c0,3.9-3.2,7.1-7.1,7.1l0,0c-3.9,0-7.1-3.2-7.1-7.1v-37.8
	C28.4,130.6,31.5,127.5,35.5,127.5z"/>
<path class="white" d="M4.8,188.9H222c2.6,0,4.7,2.1,4.7,4.7l0,0c0,2.6-2.1,4.7-4.7,4.7H4.8c-2.6,0-4.7-2.1-4.7-4.7l0,0
	C0,191,2.1,188.9,4.8,188.9z"/>
<path class="white" d="M4.8,207.8H222c2.6,0,4.7,2.1,4.7,4.7l0,0c0,2.6-2.1,4.7-4.7,4.7H4.8c-2.6,0-4.7-2.1-4.7-4.7l0,0
	C0,209.9,2.1,207.8,4.8,207.8z"/>
</svg>
