<?xml version="1.0" encoding="utf-8"?>
<svg version="1.1" xmlns="http://www.w3.org/2000/svg" viewBox="0 0 234 161">
    <style type="text/css">
        .st0{fill:#FFFFFF;stroke:#6FD6F4;}
        .st1{opacity:0.2;fill:none;stroke:url(#SVGID_1_);stroke-width:0.5;enable-background:new;}
        .st2{opacity:0.2;fill:none;stroke:url(#SVGID_2_);stroke-width:0.5;enable-background:new;}
        .st3{opacity:0.2;fill:none;stroke:url(#SVGID_3_);stroke-width:0.5;enable-background:new;}
        .st4{fill:#F1F7FD;}
        .st5{opacity:0.2;fill:#6FD6F4;enable-background:new;}
        .st6{fill:#6FD6F4;}
        .st7{opacity:0.4;fill:#249EDB;stroke:#249EDB;enable-background:new;}
        .st8{opacity:0.2;fill:#249EDB;stroke:#249EDB;enable-background:new;}
        .st9{opacity:0.1;fill:#249EDB;stroke:#249EDB;enable-background:new;}
        .st10{opacity:0.2;fill:#6FD6F4;}
        .st11{opacity:0.4;fill:none;stroke:url(#SVGID_4_);stroke-width:0.25;enable-background:new;}
        .st12{opacity:0.4;fill:none;stroke:url(#SVGID_5_);stroke-width:0.25;enable-background:new;}
        .st13{opacity:0.4;fill:none;stroke:url(#SVGID_6_);stroke-width:0.25;enable-background:new;}
        .st14{opacity:0.4;fill:none;stroke:url(#SVGID_7_);stroke-width:0.25;enable-background:new;}
        .st15{opacity:0.4;fill:none;stroke:url(#SVGID_8_);stroke-width:0.38;enable-background:new;}
        .st16{opacity:0.4;fill:none;stroke:url(#SVGID_9_);stroke-width:0.38;enable-background:new;}
        .st17{opacity:0.4;fill:none;stroke:url(#SVGID_10_);stroke-width:0.38;enable-background:new;}
        .st18{opacity:0.4;fill:none;stroke:url(#SVGID_11_);stroke-width:0.38;enable-background:new;}
        .st19{opacity:0.2;fill:none;stroke:url(#SVGID_12_);stroke-width:0.5;enable-background:new;}
        .st20{fill:url(#SVGID_13_);}
        .st21{fill:none;stroke:url(#SVGID_14_);stroke-width:7.92;}
        .st22{fill:#2469B9;}
    </style>
    <circle class="st0" cx="89.7" cy="31.6" r="2.8"/>
    <circle class="st0" cx="198.6" cy="138.8" r="2"/>
    <linearGradient id="SVGID_1_" gradientUnits="userSpaceOnUse" x1="-155.2917" y1="476.5134" x2="-154.2078" y2="477.4919" gradientTransform="matrix(7.27 0 0 -13.94 1208.0599 6692.6943)">
        <stop  offset="0" style="stop-color:#6FD6F4"/>
        <stop  offset="3.000000e-02" style="stop-color:#6DD4F3"/>
        <stop  offset="1" style="stop-color:#249EDB"/>
    </linearGradient>
    <path class="st1" d="M86.7,36.3c-2.9,4.4-5.3,9.1-7.3,13.9"/>
    <linearGradient id="SVGID_2_" gradientUnits="userSpaceOnUse" x1="-178.0512" y1="487.3275" x2="-177.7662" y2="489.4035" gradientTransform="matrix(112.73 0 0 -26.8024 20205.2695 13112.082)">
        <stop  offset="0" style="stop-color:#6FD6F4"/>
        <stop  offset="3.000000e-02" style="stop-color:#6DD4F3"/>
        <stop  offset="1" style="stop-color:#249EDB"/>
    </linearGradient>
    <path class="st2" d="M206.6,20C181.9-1.7,144.9-6.1,115.9,9.6c-8.3,4.5-15.7,10.4-22,17.4"/>
    <linearGradient id="SVGID_3_" gradientUnits="userSpaceOnUse" x1="-170.5343" y1="496.3032" x2="-169.0625" y2="496.9595" gradientTransform="matrix(18.4604 0 0 -71.72 3357.8455 35684.1953)">
        <stop  offset="0" style="stop-color:#6FD6F4"/>
        <stop  offset="3.000000e-02" style="stop-color:#6DD4F3"/>
        <stop  offset="1" style="stop-color:#249EDB"/>
    </linearGradient>
    <path class="st3" d="M231.1,100.4c6.1-25.1,0.1-51.6-16.1-71.7"/>
    <path class="st4" d="M107.8,109.8c-4.1,1.6-8,3.7-11.6,6.3c12.5,19.7,34.1,31.6,57.4,31.6s45-11.9,57.4-31.6
        c-3.6-2.6-7.5-4.7-11.6-6.3C174.2,99.7,133.1,99.7,107.8,109.8z"/>
    <path class="st5" d="M187.5,88.7c0,1.3,1.1,2.4,2.4,2.4h30.9c0.3-1.6,0.5-3.2,0.6-4.8h-31.5c-0.6,0-1.3,0.3-1.7,0.7
        C187.7,87.4,187.5,88,187.5,88.7z"/>
    <path class="st5" d="M204.1,93.5c-0.9,0-1.7,0.5-2.1,1.2c-0.4,0.7-0.4,1.7,0,2.4c0.4,0.7,1.2,1.2,2.1,1.2h15
        c0.4-1.6,0.9-3.2,1.2-4.8H204.1z"/>
    <circle class="st6" cx="211.1" cy="23.9" r="1.4"/>
    <path class="st7" d="M65.2,22.9c-1-7-7-12.1-14-12.1c-0.6,0-1.2,0-1.8,0.1C44,5.4,35.9,3.6,28.6,6.1S16.1,15.3,15.4,23h-3.5
        C5.6,23,0.5,28.1,0.5,34.3s5.1,11.3,11.4,11.3h53.4c6.3,0,11.3-5.1,11.3-11.3S71.5,23,65.2,22.9L65.2,22.9z"/>
    <path class="st8" d="M25.5,111c0.5-3.4,3.4-5.9,6.8-5.9c0.3,0,0.6,0,0.9,0.1c2.7-2.7,6.6-3.6,10.2-2.4c3.6,1.3,6.1,4.5,6.5,8.3h1.8
        c3,0.1,5.3,2.6,5.3,5.6s-2.4,5.4-5.3,5.6H25.5c-2,0.1-4-1-5-2.7s-1-3.9,0-5.7S23.4,111,25.5,111z"/>
    <path class="st9" d="M189.7,46.2c0.2-1.6,1.6-2.7,3.2-2.8c0.1,0,0.3,0,0.4,0c1.2-1.2,3.1-1.7,4.7-1.1c1.7,0.6,2.8,2.1,3,3.8h0.8
        c1.4,0.1,2.4,1.2,2.4,2.6c0,1.4-1.1,2.5-2.4,2.6h-12.1c-1,0.1-1.9-0.4-2.4-1.2s-0.5-1.9,0-2.7S188.8,46.1,189.7,46.2L189.7,46.2z"/>
    <path class="st10" d="M90.2,65c2.2,0,4-1.8,4-4c0-2.2-1.8-4-4-4H23.9c-2.2,0-4,1.8-4,4c0,2.2,1.8,4,4,4H90.2z"/>
    <path class="st10" d="M103.8,77.1c2.2,0,4-1.8,4-4c0-2.2-1.8-4-4-4H47.5c-2.2,0-4,1.8-4,4c0,2.2,1.8,4,4,4H103.8z"/>
    <linearGradient id="SVGID_4_" gradientUnits="userSpaceOnUse" x1="-178.1765" y1="497.8603" x2="-178.1765" y2="496.8601" gradientTransform="matrix(136.0025 0 0 -84.3709 24386.168 42068.7422)">
        <stop  offset="0" style="stop-color:#6FD6F4"/>
        <stop  offset="1" style="stop-color:#249EDB"/>
    </linearGradient>
    <path class="st11" d="M85.7,80.1c-0.1,26.3,15.1,50.3,38.8,61.5c23.7,11.3,51.9,7.9,72.2-8.8s29.3-43.5,23-69"/>
    <linearGradient id="SVGID_5_" gradientUnits="userSpaceOnUse" x1="-174.5273" y1="492.4824" x2="-174.5273" y2="491.4771" gradientTransform="matrix(35.96 0 0 -36.13 6383.8213 17810.8086)">
        <stop  offset="0" style="stop-color:#6FD6F4"/>
        <stop  offset="1" style="stop-color:#249EDB"/>
    </linearGradient>
    <path class="st12" d="M127,17.5c-16.2,7-29.1,19.9-36,36.1"/>
    <linearGradient id="SVGID_6_" gradientUnits="userSpaceOnUse" x1="-173.5197" y1="312.0743" x2="-173.5197" y2="310.9294" gradientTransform="matrix(30.1 0 0 -1.7905 5377.1113 570.7287)">
        <stop  offset="0" style="stop-color:#6FD6F4"/>
        <stop  offset="1" style="stop-color:#249EDB"/>
    </linearGradient>
    <path class="st13" d="M169.2,13.9c-9.9-2.3-20.2-2.4-30.1-0.2"/>
    <linearGradient id="SVGID_7_" gradientUnits="userSpaceOnUse" x1="-173.4016" y1="487.8393" x2="-173.4016" y2="486.8315" gradientTransform="matrix(29.64 0 0 -24.19 5335.4097 11818.2324)">
        <stop  offset="0" style="stop-color:#6FD6F4"/>
        <stop  offset="1" style="stop-color:#249EDB"/>
    </linearGradient>
    <path class="st14" d="M209.9,41.7c-7.4-10.7-17.7-19.1-29.6-24.2"/>
    <linearGradient id="SVGID_8_" gradientUnits="userSpaceOnUse" x1="-176.9843" y1="496.2814" x2="-176.9843" y2="497.284" gradientTransform="matrix(69.1 0 0 -73.82 12337.7168 36789.5781)">
        <stop  offset="0" style="stop-color:#6FD6F4"/>
        <stop  offset="3.000000e-02" style="stop-color:#6DD4F3"/>
        <stop  offset="1" style="stop-color:#249EDB"/>
    </linearGradient>
    <path class="st15" d="M79.7,80.1c0,39,30.2,71.3,69.1,73.8"/>
    <linearGradient id="SVGID_9_" gradientUnits="userSpaceOnUse" x1="-176.1789" y1="492.2802" x2="-176.1789" y2="493.287" gradientTransform="matrix(53.13 0 0 -39.5 9471.041 19491.875)">
        <stop  offset="0" style="stop-color:#6FD6F4"/>
        <stop  offset="3.000000e-02" style="stop-color:#6DD4F3"/>
        <stop  offset="1" style="stop-color:#249EDB"/>
    </linearGradient>
    <path class="st16" d="M140.8,7.2c-22.9,4.1-42.6,18.7-53.1,39.5"/>
    <linearGradient id="SVGID_10_" gradientUnits="userSpaceOnUse" x1="-176.4402" y1="498.2299" x2="-176.4402" y2="499.2325" gradientTransform="matrix(60.5423 0 0 -127.88 10884.7715 63848.9805)">
        <stop  offset="0" style="stop-color:#6FD6F4"/>
        <stop  offset="3.000000e-02" style="stop-color:#6DD4F3"/>
        <stop  offset="1" style="stop-color:#249EDB"/>
    </linearGradient>
    <path class="st17" d="M203.1,135.2c21-18.8,29.5-48,21.9-75.1c-7.6-27.2-30-47.6-57.8-52.8"/>
    <linearGradient id="SVGID_11_" gradientUnits="userSpaceOnUse" x1="-169.9507" y1="462.0121" x2="-169.9507" y2="463.0509" gradientTransform="matrix(18.9 0 0 -8.75 3397.0188 4193.7354)">
        <stop  offset="0" style="stop-color:#6FD6F4"/>
        <stop  offset="3.000000e-02" style="stop-color:#6DD4F3"/>
        <stop  offset="1" style="stop-color:#249EDB"/>
    </linearGradient>
    <path class="st18" d="M175,150.9c6.7-2,13-5,18.9-8.8"/>
    <linearGradient id="SVGID_12_" gradientUnits="userSpaceOnUse" x1="-178.3404" y1="496.8435" x2="-178.1294" y2="497.4432" gradientTransform="matrix(134.35 0 0 -81.8484 24076.7617 40817.0938)">
        <stop  offset="0" style="stop-color:#6FD6F4"/>
        <stop  offset="3.000000e-02" style="stop-color:#6DD4F3"/>
        <stop  offset="1" style="stop-color:#249EDB"/>
    </linearGradient>
    <path class="st19" d="M73.8,78.2c0,0.6,0,1.2,0,1.8c0,31.8,18.8,60.6,48,73.3s63,7,86.4-14.6"/>
    <linearGradient id="SVGID_13_" gradientUnits="userSpaceOnUse" x1="-177.1263" y1="496.3532" x2="-177.1263" y2="495.3532" gradientTransform="matrix(75.83 0 0 -61.41 13585.1299 30554.1094)">
        <stop  offset="0" style="stop-color:#229EDB"/>
        <stop  offset="0.14" style="stop-color:#258ED1"/>
        <stop  offset="0.51" style="stop-color:#2A6BBB"/>
        <stop  offset="0.81" style="stop-color:#2E55AD"/>
        <stop  offset="1" style="stop-color:#2F4DA8"/>
    </linearGradient>
    <path class="st20" d="M123.7,73.1h59.8c4.4,0,8,3.6,8,8v45.4c0,4.4-3.6,8-8,8h-59.8c-4.4,0-8-3.6-8-8V81.1
        C115.7,76.6,119.3,73.1,123.7,73.1z"/>
    <linearGradient id="SVGID_14_" gradientUnits="userSpaceOnUse" x1="-176.2117" y1="495.468" x2="-176.2117" y2="496.5311" gradientTransform="matrix(54.74 0 0 -62.71 9799.7695 31145.1562)">
        <stop  offset="0" style="stop-color:#229EDB"/>
        <stop  offset="0.14" style="stop-color:#258ED1"/>
        <stop  offset="0.51" style="stop-color:#2A6BBB"/>
        <stop  offset="0.81" style="stop-color:#2E55AD"/>
        <stop  offset="1" style="stop-color:#2F4DA8"/>
    </linearGradient>
    <path class="st21" d="M181.3,74.4V39c0-15.1-12.3-27.4-27.4-27.4S126.6,23.9,126.6,39v18.6"/>
    <rect x="122.3" y="80.6" class="st6" width="62.8" height="47.4"/>
    <path class="st22" d="M160.6,96.5c0-3.4-2.4-6.3-5.7-6.9c-3.3-0.6-6.6,1.3-7.7,4.5c-1.1,3.2,0.2,6.7,3.1,8.4v10.2h6.8v-10.2
        C159.2,101.3,160.6,99,160.6,96.5z"/>
    <circle class="st6" cx="96.6" cy="116.4" r="2"/>
</svg>
