<?xml version="1.0" standalone="no"?>
<!DOCTYPE svg PUBLIC "-//W3C//DTD SVG 20010904//EN"
 "http://www.w3.org/TR/2001/REC-SVG-20010904/DTD/svg10.dtd">
<svg version="1.0" xmlns="http://www.w3.org/2000/svg"
 width="700.000000pt" height="700.000000pt" viewBox="0 0 700.000000 700.000000"
 preserveAspectRatio="xMidYMid meet">
<metadata>
Created by potrace 1.11, written by Peter Selinger 2001-2013
</metadata>
<g transform="translate(0.000000,700.000000) scale(0.100000,-0.100000)"
fill="#000000" stroke="none">
<path d="M3434 6271 c-5 -5 -153 -81 -329 -171 -176 -89 -383 -195 -460 -235
-77 -40 -275 -141 -440 -225 -165 -84 -388 -198 -495 -253 -107 -55 -310 -158
-450 -229 -490 -250 -605 -310 -623 -327 -74 -64 -51 -188 42 -227 50 -21
5598 -21 5639 0 67 35 99 106 76 171 -22 65 12 45 -539 325 -187 95 -412 210
-500 255 -88 45 -286 147 -440 225 -154 78 -356 182 -450 230 -93 48 -309 158
-480 245 -170 87 -335 171 -365 188 -41 22 -71 31 -116 33 -34 2 -65 -1 -70
-5z m229 -325 c89 -46 266 -136 392 -201 127 -65 307 -157 400 -205 257 -132
554 -284 810 -415 289 -148 559 -287 564 -292 2 -1 -1048 -3 -2335 -3 l-2339
1 50 25 c528 270 1708 875 2085 1068 113 58 206 105 208 106 1 0 75 -38 165
-84z"/>
<path d="M5333 4340 c-48 -11 -103 -57 -124 -106 -19 -41 -19 -84 -17 -1236
l3 -1194 28 -43 c75 -114 239 -103 312 20 20 33 20 52 21 1219 0 795 -3 1196
-10 1220 -25 82 -126 139 -213 120z"/>
<path d="M4355 4094 c-56 -14 -119 -73 -128 -121 -3 -16 -5 -504 -5 -1085 l-1
-1057 25 -49 c73 -147 299 -120 333 40 4 18 7 508 6 1088 l0 1055 -23 40 c-43
76 -124 111 -207 89z"/>
<path d="M3368 3606 c-42 -18 -78 -53 -97 -95 -15 -35 -17 -107 -16 -867 0
-810 1 -830 20 -863 33 -57 85 -91 142 -96 81 -6 167 46 191 114 6 16 10 351
10 849 l0 823 -25 49 c-15 31 -37 56 -60 70 -42 25 -126 33 -165 16z"/>
<path d="M2428 3249 c-49 -13 -93 -47 -118 -90 l-23 -43 0 -645 c0 -717 -3
-681 66 -744 86 -77 227 -46 278 60 22 45 22 48 21 662 0 339 -1 630 -1 646
-1 42 -47 109 -90 133 -42 23 -95 32 -133 21z"/>
<path d="M1456 3009 c-48 -14 -95 -52 -116 -95 -19 -39 -20 -62 -20 -562 0
-570 -1 -561 58 -617 102 -96 264 -49 299 85 5 19 9 263 9 545 -1 497 -2 511
-22 550 -38 73 -132 116 -208 94z"/>
<path d="M705 1442 c-39 -5 -90 -44 -102 -79 -12 -33 -8 -64 11 -102 33 -62
-191 -58 2889 -57 2667 1 2814 2 2840 19 75 49 69 165 -10 202 -32 15 -267 17
-2816 18 -1530 1 -2795 1 -2812 -1z"/>
<path d="M663 945 c-90 -39 -87 -173 4 -211 46 -20 5624 -21 5663 -1 13 7 35
28 48 47 41 61 16 136 -55 166 -49 21 -5613 20 -5660 -1z"/>
</g>
</svg>
