<?xml version="1.0" encoding="utf-8"?>
<svg version="1.1" id="Livello_1" xmlns="http://www.w3.org/2000/svg" xmlns:xlink="http://www.w3.org/1999/xlink" x="0px" y="0px"
	 viewBox="0 0 340 185" style="enable-background:new 0 0 340 185;" xml:space="preserve">
<style type="text/css">
	.st0{fill:#00366A;}
	.st1{fill:#FFFFFF;}
	.st2{fill:#D6DEE8;}
	.st3{fill:#F7F9FA;}
    .st4{opacity:0.9756;fill:none;stroke:#E7ECEF;stroke-width:7;stroke-linecap:round;stroke-linejoin:round;enable-background:new    ;}
	.st5{fill-rule:evenodd;clip-rule:evenodd;fill:#0066CC;}
	.st6{fill-rule:evenodd;clip-rule:evenodd;fill:#FFFFFF;}
	.st7{fill:none;stroke:#E8ECEF;stroke-width:9.9;stroke-linecap:round;stroke-linejoin:round;}
	.st8{fill:none;stroke:#E8ECEF;stroke-width:4.5;stroke-linecap:round;stroke-linejoin:round;}
	.st9{fill-rule:evenodd;clip-rule:evenodd;fill:#003666;}
	.st10{filter:url(#Adobe_OpacityMaskFilter);}
	.st11{mask:url(#mask-2_1_);fill-rule:evenodd;clip-rule:evenodd;fill:#003666;}
</style>
<g>
	<path class="st0" d="M230.9,143.8H66.4V34.1c0-5,4.1-9.1,9.1-9.1h146.2c5,0,9.1,4.1,9.1,9.1V143.8L230.9,143.8z"/>
	<path class="st1" d="M223.6,134.9H73.7c-0.9,0-1.6-0.7-1.6-1.6V32.5c0-0.9,0.7-1.6,1.6-1.6h149.8c0.9,0,1.6,0.7,1.6,1.6v100.8
		C225.2,134.2,224.4,134.9,223.6,134.9z"/>
	<path class="st2" d="M243.1,140.8h-189c0,5,4.1,9.1,9.1,9.1h170.8C239,149.9,243.1,145.8,243.1,140.8L243.1,140.8L243.1,140.8z"/>
	<path class="st3" d="M156.8,145.6h-16.3c-1.5,0-2.9-0.8-3.6-2l-1.6-2.8h26.5l-1.6,2.8C159.7,144.8,158.3,145.6,156.8,145.6z"/>
</g>
<g>
	<path class="st4" d="M144.3,43.9c24.6-5.7,28.8,10.6,28.8,10.6c3.5,1.5,6.3,52.4-9.4,51.9"/>
	<path class="st5" d="M159,108.5H12.5C5.6,108.5,0,102.9,0,95.9V55.2c0-6.9,5.6-12.5,12.5-12.5H159c6.9,0,12.5,5.6,12.5,12.5v40.8
		C171.6,102.9,166,108.5,159,108.5"/>
	<path class="st6" d="M60.4,77.5c0-12.2-9.9-22.2-22.2-22.2c-12.2,0-22.2,9.9-22.2,22.2c0,12.2,9.9,22.2,22.2,22.2
		C50.5,99.7,60.4,89.8,60.4,77.5"/>
	<path class="st5" d="M45.8,88.9H30.7c0-4.2,3.4-7.6,7.6-7.6S45.8,84.7,45.8,88.9"/>
	<path class="st5" d="M45.8,71.1c0-4.2-3.4-7.6-7.6-7.6s-7.6,3.4-7.6,7.6c0,4.2,3.4,7.6,7.6,7.6S45.8,75.2,45.8,71.1"/>
	<path class="st6" d="M89.9,70.9c-2.2,0-3.3,0.8-3.3,2.3c0,0.8,0.3,1.3,0.8,1.7c0.5,0.3,1.6,0.7,3.4,1.2c1.8,0.5,3,1.1,3.7,1.7
		c0.7,0.7,1.1,1.7,1.1,3.2c0,1.8-0.5,3.2-1.6,4.1c-1.1,0.9-2.5,1.4-4.3,1.4c-1.5,0-3.1-0.2-4.8-0.5L84,85.8l0.3-2.3
		c2.3,0.3,4.1,0.5,5.3,0.5c2.1,0,3.2-0.9,3.2-2.8c0-0.7-0.2-1.3-0.7-1.6c-0.5-0.4-1.6-0.7-3.2-1.2c-1.7-0.4-2.9-1-3.7-1.7
		c-0.8-0.7-1.2-1.9-1.2-3.5c0-1.6,0.5-2.8,1.6-3.6c1-0.8,2.5-1.2,4.3-1.2c1.3,0,2.9,0.2,4.7,0.5l0.9,0.2L95,71.3
		C92.6,71,90.9,70.9,89.9,70.9"/>
	<path class="st6" d="M101.5,78.3h3.6c2.1,0,3.1-1.2,3.1-3.7c0-1.2-0.2-2.1-0.7-2.6c-0.5-0.5-1.3-0.8-2.3-0.8h-3.6V78.3z
		 M105.1,80.8h-3.6v5.5h-2.8V68.7h6.4c4,0,6,2,6,5.9c0,2-0.5,3.6-1.5,4.6C108.6,80.3,107.1,80.8,105.1,80.8L105.1,80.8z"/>
	<polygon class="st6" points="113.9,86.2 116.7,86.2 116.7,68.7 113.9,68.7 	"/>
	<path class="st6" d="M130.9,77.2c0-2.1-0.3-3.7-0.8-4.6c-0.5-0.9-1.6-1.4-3.3-1.4h-3.2v12.6h3.2c1.7,0,2.8-0.6,3.4-1.9
		c0.3-0.6,0.5-1.3,0.6-2C130.9,79.1,130.9,78.2,130.9,77.2 M126.9,86.2h-6.1V68.7h6.1c2.7,0,4.6,0.7,5.5,2.1c1,1.4,1.5,3.5,1.5,6.4
		c0,1.5-0.1,2.8-0.3,3.8c-0.2,1-0.5,2-1,2.8C131.6,85.4,129.7,86.2,126.9,86.2"/>
</g>
<g>
	<path class="st7" d="M275,14.2c6.9-8.8,23.5-10.8,32.6-6.9c2.9,1.2,6.4,0.9,9,2.6c3.8,2.5,5.4,7.1,6.6,11.4c4,13.8,6,28.1,6,42.4
		c0,1.8,0,3.7-0.6,5.5c-0.7,2.1-2.1,4-3.3,5.9c-6.5,10.2-8.4,23.1-5.2,34.7c2.1,7.6,6.3,14.4,9.3,21.7c5.9,14.7,6.5,31.4,1.7,46.5"
		/>
	<path class="st8" d="M323.6,85.5c-2.9,3.4-5.9,6.8-8.8,10.2c-3.1,3.6-6.3,8.6-3.8,12.6c1.2,1.8,3.2,2.8,5,4
		c8.6,5.9,10.6,17.5,11.7,27.9c1.3,12.1,2.2,24.4-0.5,36.2c0.7,0.7,2,0.7,2.7,0"/>
	<path class="st9" d="M254.8,63.5c-3.3,0-5.9,2.6-5.9,5.9c0,3.3,2.7,5.9,5.9,5.9h0L254.8,63.5z M258.7,79.2h-3.9
		c-5.4,0-9.8-4.4-9.8-9.8c0-5.4,4.4-9.8,9.8-9.8h3.9V79.2z"/>
	<path class="st9" d="M323.8,62.7c-1.1,0-1.9-0.9-1.9-1.9V34.2c0-13.9-11.3-25.2-25.2-25.2c-8.8,0-17.1,4.7-21.7,12.4l-0.9,1.4
		l-1.5-0.6c-1.7-0.7-3.4-1-5.2-1c-7.5,0-13.7,6.1-13.7,13.7v25.7c0,1.1-0.9,1.9-1.9,1.9c-1.1,0-1.9-0.9-1.9-1.9V34.8
		c0-9.7,7.9-17.5,17.5-17.5c1.8,0,3.5,0.3,5.2,0.8c5.4-8,14.5-12.9,24.1-12.9c16,0,29,13,29,29v26.6
		C325.8,61.8,324.9,62.7,323.8,62.7"/>
	<path class="st9" d="M287.9,124.2c-7.4,0-13.5-6.1-13.5-13.5v-2.7c0-1.1,0.9-1.9,1.9-1.9s1.9,0.9,1.9,1.9v2.7
		c0,5.3,4.3,9.7,9.7,9.7c5.3,0,9.7-4.3,9.7-9.7v-2.7c0-1.1,0.9-1.9,1.9-1.9c1.1,0,1.9,0.9,1.9,1.9v2.7
		C301.4,118.1,295.3,124.2,287.9,124.2"/>
	<defs>
		<filter id="Adobe_OpacityMaskFilter" filterUnits="userSpaceOnUse" x="244" y="107.1" width="87.7" height="77.1">
			<feFlood  style="flood-color:white;flood-opacity:1" result="back"/>
			<feBlend  in="SourceGraphic" in2="back" mode="normal"/>
		</filter>
	</defs>
	<mask maskUnits="userSpaceOnUse" x="244" y="107.1" width="87.7" height="77.1" id="mask-2_1_">
		<g class="st10">
			<polygon id="path-1_1_" class="st6" points="244,107.1 331.7,107.1 331.7,184.2 244,184.2 			"/>
		</g>
	</mask>
	<path class="st11" d="M331.7,151.2l-1.9,33h-84.1l-1.7-33v-1.9c0-19.5,13.1-36.8,31.7-42.1c1-0.3,2.1,0.3,2.4,1.3
		c0.3,1-0.3,2.1-1.3,2.4c-16.4,4.7-28.1,19.6-28.9,36.5l2.1,33h75.8l2.1-33c-0.8-17-12.5-31.8-28.9-36.5c-1-0.3-1.6-1.4-1.3-2.4
		c0.3-1,1.4-1.6,2.4-1.3c18.7,5.4,31.7,22.7,31.7,42.1V151.2z"/>
	<path class="st9" d="M320.9,75.3L320.9,75.3c3.3,0,5.9-2.6,5.9-5.9c0-3.3-2.6-5.9-5.9-5.9h0V75.3z M320.9,79.2H317V59.7h3.9
		c5.4,0,9.8,4.4,9.8,9.8C330.6,74.8,326.3,79.2,320.9,79.2L320.9,79.2z"/>
	<path class="st9" d="M276.6,67.4c0,1.8-1.5,3.3-3.3,3.3c-1.8,0-3.3-1.5-3.3-3.3s1.5-3.3,3.3-3.3C275.1,64.1,276.6,65.6,276.6,67.4"
		/>
	<path class="st9" d="M305.7,67.4c0,1.8-1.5,3.3-3.3,3.3c-1.8,0-3.3-1.5-3.3-3.3s1.5-3.3,3.3-3.3C304.3,64.1,305.7,65.6,305.7,67.4"
		/>
	<path class="st9" d="M287.9,81.4c-3,0-5.5-2.4-5.5-5.5v-9c0-1.1,0.9-1.9,1.9-1.9c1.1,0,1.9,0.9,1.9,1.9v9c0,0.9,0.7,1.6,1.6,1.6
		c0.9,0,1.6-0.7,1.6-1.6v-9c0-1.1,0.9-1.9,1.9-1.9c1.1,0,1.9,0.9,1.9,1.9v9C293.3,78.9,290.9,81.4,287.9,81.4"/>
	<path class="st9" d="M280.1,87.4v2c0,4.3,3.5,7.7,7.7,7.7c4.3,0,7.7-3.5,7.7-7.7v-2H280.1z M287.9,100.9c-6.4,0-11.6-5.2-11.6-11.6
		v-5.8h23.2v5.8C299.4,95.7,294.2,100.9,287.9,100.9L287.9,100.9z"/>
	<path class="st9" d="M278.7,60.8c-0.4,0-0.7-0.1-1.1-0.3c-0.2-0.1-4.8-3-8.8-0.3c-0.9,0.6-2.1,0.3-2.7-0.5
		c-0.6-0.9-0.3-2.1,0.5-2.7c6.2-4.1,12.8,0.1,13.1,0.3c0.9,0.6,1.1,1.8,0.5,2.7C280,60.5,279.4,60.8,278.7,60.8"/>
	<path class="st9" d="M297,60.8c-0.6,0-1.2-0.3-1.6-0.9c-0.6-0.9-0.4-2.1,0.5-2.7c0.3-0.2,6.9-4.5,13.1-0.3c0.9,0.6,1.1,1.8,0.5,2.7
		c-0.6,0.9-1.8,1.1-2.7,0.5c-4.1-2.7-8.8,0.3-8.8,0.3C297.7,60.7,297.3,60.8,297,60.8"/>
	<path class="st9" d="M270.1,133.5c-0.4,0-0.7-0.1-1-0.3c-0.6-0.4-0.9-1-0.9-1.6v-19.8c0-1.1,0.9-1.9,1.9-1.9c1.1,0,1.9,0.9,1.9,1.9
		v16.7l15-7.3c1-0.5,2.1-0.1,2.6,0.9c0.5,1,0.1,2.1-0.9,2.6l-17.8,8.7C270.6,133.4,270.3,133.5,270.1,133.5"/>
	<path class="st9" d="M305.7,133.5c-0.3,0-0.6-0.1-0.8-0.2l-17.8-8.7c-1-0.5-1.4-1.6-0.9-2.6c0.5-1,1.6-1.4,2.6-0.9l15,7.3v-16.7
		c0-1.1,0.9-1.9,1.9-1.9c1.1,0,1.9,0.9,1.9,1.9v19.8c0,0.7-0.3,1.3-0.9,1.6C306.4,133.4,306,133.5,305.7,133.5"/>
	<path class="st9" d="M272.8,32c-8.5,4.1-14.1,12.8-14.1,22.3V82c0,13.8,11.3,25.1,25.1,25.1h8.2c13.8,0,25.1-11.3,25.1-25.1V54.3
		c0-0.6,0-1.3-0.1-1.9h-15.4C288.6,52.4,277.1,44.1,272.8,32 M291.9,110.9h-8.2c-16,0-28.9-13-28.9-28.9V54.3
		c0-11.8,7.4-22.5,18.5-26.7l2-0.7l0.6,2c3.2,11.5,13.8,19.6,25.8,19.6h18.7l0.2,1.6c0.2,1.5,0.3,2.8,0.3,4.1V82
		C320.9,97.9,307.9,110.9,291.9,110.9"/>
	<path class="st9" d="M302.6,146c0.1-0.3,0.4-0.4,0.7-0.4c2.4,0.8,4.6,2.2,6.2,4.1c0.1-1.1,0.6-2.1,1.6-2.7c0.1-0.1,0.2-0.1,0.4-0.1
		c0.1,0,0.3,0.1,0.3,0.2c1.1,1.6,0.8,3.7-0.7,4.9c0.3,0.6,0.6,1.2,0.9,1.8c0.4-0.8,1.1-1.5,2-1.8c0.1,0,0.3,0,0.4,0s0.2,0.2,0.3,0.3
		c0.7,1.8-0.1,3.8-1.8,4.7c0.1,0.6,0.1,1.2,0.1,1.8c0,0.1,0,0.1,0,0.2c0.7-0.7,1.8-1.1,2.9-1.1c0.3,0,0.5,0.3,0.5,0.5
		c-0.2,1.9-1.8,3.4-3.7,3.4c0,0,0,0,0,0c-0.2,0.7-0.4,1.5-0.7,2.2c0.2-0.1,0.5-0.2,0.7-0.2c1-0.2,2,0.1,2.7,0.7
		c0.2,0.2,0.3,0.5,0.1,0.7c-0.7,1-1.9,1.5-3,1.5c-0.6,0-1.2-0.1-1.8-0.5c-0.1,0.2-0.2,0.3-0.3,0.5c-0.3,0.4-0.6,0.8-0.9,1.1
		c0.9-0.2,1.7-0.3,2.5-0.5c0.2,0,0.4,0,0.5,0.1c0.1,0.1,0.1,0.3,0.1,0.5c-0.3,0.6-0.5,1.3-0.8,1.9c0.5,0.5,1.1,0.9,1.6,1.4
		c0.1,0.1,0.2,0.3,0.1,0.5c0,0.2-0.2,0.3-0.4,0.3c-1.1,0.3-2.3,0.5-3.4,0.7l0.1,0.7c0,0.1,0,0.2-0.1,0.3c-0.1,0.1-0.2,0.2-0.4,0.2
		c-2.2,0.4-4.5,0.6-6.7,0.7c0,0-0.1,0.1-0.1,0.1l-1.7,0.9l0.7,0.4c0.2,0.1,0.3,0.4,0.2,0.6c-0.1,0.2-0.2,0.2-0.4,0.2
		c-0.1,0-0.2,0-0.2-0.1l-1.2-0.7l-1.2,0.7c-0.1,0-0.2,0.1-0.2,0.1c-0.2,0-0.3-0.1-0.4-0.2c-0.1-0.2,0-0.5,0.2-0.6l0.7-0.4l-1.7-0.9
		l0,0c-2.7-0.1-5.4-0.4-8.1-0.8c-0.1,0-0.3-0.1-0.4-0.2c-0.1-0.1-0.1-0.2-0.1-0.3l0.1-0.7c-1.1-0.2-2.3-0.4-3.4-0.7
		c-0.2,0-0.3-0.2-0.4-0.3c-0.1-0.2,0-0.3,0.1-0.5c0.5-0.4,1.1-0.9,1.6-1.4c-0.3-0.6-0.6-1.3-0.8-1.9c-0.1-0.2,0-0.3,0.1-0.5
		c0.1-0.1,0.3-0.2,0.5-0.1c0.8,0.2,1.5,0.3,2.3,0.5c-0.3-0.3-0.6-0.7-0.8-1.1c-0.1-0.2-0.2-0.3-0.3-0.5c-0.6,0.3-1.2,0.5-1.8,0.5
		c-1.1,0-2.3-0.5-3-1.5c-0.2-0.2-0.1-0.5,0.1-0.7c0.8-0.6,1.8-0.8,2.7-0.7c0.3,0,0.5,0.1,0.7,0.2c-0.3-0.7-0.5-1.4-0.7-2.2h0
		c-1.9,0-3.5-1.5-3.7-3.4c0-0.3,0.2-0.5,0.5-0.5c1.1-0.1,2.1,0.3,2.9,1.1c0-0.1,0-0.1,0-0.2c0-0.6,0-1.2,0.1-1.8
		c-1.7-0.8-2.5-2.9-1.8-4.7c0-0.1,0.1-0.2,0.3-0.3c0.1-0.1,0.3-0.1,0.4,0c0.9,0.3,1.6,1,2,1.8c0.2-0.6,0.5-1.2,0.9-1.8
		c-1.4-1.2-1.8-3.4-0.7-4.9c0.1-0.1,0.2-0.2,0.3-0.2c0.1,0,0.3,0,0.4,0.1c1,0.7,1.5,1.7,1.6,2.8c0.6-0.7,1.4-1.4,2.2-2
		c0,0,0.1-0.1,0.1-0.1c0.1-0.1,0.3-0.2,0.4-0.3l-0.3,0.2c0.1-0.1,0.2-0.1,0.2-0.2l0,0c0,0,0,0,0,0c1.1-0.7,2.3-1.3,3.6-1.7
		c0.3-0.1,0.6,0.1,0.7,0.4c0.1,0.3-0.1,0.6-0.4,0.7c-2.5,0.8-4.7,2.3-6.2,4.4c0.9-0.3,1.8-0.2,2.6,0.1c0.3,0.1,0.4,0.4,0.3,0.7
		c-0.4,0.9-1.1,1.6-2,2c-0.4,0.2-0.9,0.3-1.4,0.3c-0.4,0-0.8-0.1-1.2-0.2c-0.3,0.8-0.6,1.7-0.8,2.6c0.1-0.1,0.2-0.2,0.3-0.3
		c0.8-0.6,1.7-0.9,2.7-0.8c0.3,0,0.5,0.3,0.5,0.6c-0.1,1-0.6,1.9-1.4,2.5c-0.7,0.5-1.5,0.8-2.3,0.8c0,0,0,0-0.1,0
		c0,1.2,0.2,2.4,0.6,3.6c0-0.1,0-0.1,0.1-0.2c0.4-0.9,1.1-1.6,2.1-1.9c0.3-0.1,0.6,0,0.7,0.3c0.6,1.7-0.1,3.6-1.6,4.5
		c0.2,0.3,0.3,0.5,0.5,0.8c0.5,0.7,2,2.3,2.9,3.3c2.5,0.3,5,0.5,7.5,0.5c2.4,0,4.9-0.2,7.3-0.5c1-0.9,2.4-2.6,3-3.3
		c0.2-0.2,0.3-0.5,0.5-0.8c-1.5-0.9-2.2-2.8-1.6-4.5c0.1-0.3,0.4-0.4,0.7-0.3c0.9,0.3,1.7,1,2.1,1.9c0,0.1,0,0.1,0.1,0.2
		c0.4-1.1,0.6-2.4,0.6-3.6c0,0,0,0-0.1,0c-0.8,0-1.6-0.3-2.3-0.8c-0.8-0.6-1.3-1.5-1.4-2.5c0-0.3,0.2-0.5,0.4-0.6
		c1-0.1,1.9,0.2,2.7,0.8c0.1,0.1,0.2,0.2,0.3,0.3c-0.2-0.9-0.4-1.8-0.8-2.6c-0.4,0.1-0.8,0.2-1.2,0.2c-0.5,0-0.9-0.1-1.4-0.3
		c-0.9-0.4-1.6-1.1-2-2c-0.1-0.3,0-0.6,0.3-0.7c0.8-0.4,1.8-0.4,2.6-0.1c-1.6-2.1-3.8-3.6-6.3-4.4
		C302.6,146.6,302.5,146.3,302.6,146L302.6,146z M299.3,174.9L299.3,174.9l0.6,0.4l0.8-0.4C300.2,174.9,299.7,174.9,299.3,174.9
		L299.3,174.9z M308.3,170.2c-3,0.5-6,0.7-9,0.7c-3,0-6-0.2-9-0.7l-0.5,3c3.1,0.5,6.3,0.7,9.5,0.7s6.4-0.2,9.5-0.7L308.3,170.2z
		 M311.3,168.5c-0.8,0.2-1.5,0.3-2.3,0.4l0.5,2.9c0.8-0.1,1.6-0.3,2.4-0.5c-0.4-0.3-0.8-0.7-1.2-1c-0.1-0.1-0.2-0.3-0.1-0.5
		C310.9,169.4,311.1,169,311.3,168.5L311.3,168.5z M287.2,168.5c0.2,0.5,0.4,0.9,0.6,1.4c0.1,0.2,0,0.4-0.1,0.5
		c-0.4,0.3-0.8,0.7-1.2,1c0.8,0.2,1.6,0.3,2.4,0.5l0.5-2.9C288.7,168.8,288,168.7,287.2,168.5L287.2,168.5z M314.2,165.1
		c-0.5-0.2-1-0.3-1.5-0.2c-0.5,0.1-1,0.3-1.4,0.6C312.3,165.9,313.5,165.8,314.2,165.1L314.2,165.1z M285.6,164.9
		c-0.5-0.1-1,0-1.5,0.2c0.8,0.7,1.9,0.9,2.9,0.4C286.5,165.2,286.1,165,285.6,164.9L285.6,164.9z M299.6,150.9l2.1,4.3l4.8,0.7
		c0.2,0,0.4,0.2,0.4,0.4c0.1,0.2,0,0.4-0.1,0.6l-3.5,3.4l0.8,4.8c0,0.2,0,0.4-0.2,0.5c-0.1,0.1-0.2,0.1-0.3,0.1
		c-0.1,0-0.2,0-0.2-0.1l-4.3-2.3l-4.3,2.3c-0.2,0.1-0.4,0.1-0.6,0c-0.2-0.1-0.3-0.3-0.2-0.5l0.8-4.8l-3.5-3.4
		c-0.1-0.1-0.2-0.4-0.1-0.6c0.1-0.2,0.2-0.3,0.4-0.4l4.8-0.7l2.1-4.3C298.9,150.5,299.5,150.5,299.6,150.9L299.6,150.9z
		 M309.3,161.9c-0.1,1,0.3,2.1,1.2,2.6c0.1-0.5,0-1-0.2-1.5S309.7,162.2,309.3,161.9L309.3,161.9z M289,161.9
		c-0.4,0.3-0.8,0.7-1,1.1c-0.2,0.5-0.3,1-0.2,1.5C288.7,164,289.2,162.9,289,161.9L289,161.9z M299.2,152.4l-1.8,3.6
		c-0.1,0.2-0.2,0.3-0.4,0.3l-4,0.6l2.9,2.8c0.1,0.1,0.2,0.3,0.2,0.5l-0.7,4l3.6-1.9c0.1,0,0.2-0.1,0.3-0.1c0.1,0,0.2,0,0.3,0.1
		l3.6,1.9l-0.7-4c0-0.2,0-0.4,0.2-0.5l2.9-2.8l-4-0.6c-0.2,0-0.3-0.1-0.4-0.3L299.2,152.4z M283.2,159c0.1,0.5,0.4,0.9,0.8,1.3
		c0.4,0.3,0.9,0.5,1.4,0.6c-0.1-0.5-0.4-0.9-0.8-1.3C284.2,159.3,283.7,159.1,283.2,159L283.2,159z M315.1,159
		c-0.5,0.1-1,0.3-1.4,0.6c-0.4,0.3-0.7,0.8-0.8,1.3c0.5-0.1,1-0.3,1.4-0.6C314.7,159.9,315,159.5,315.1,159L315.1,159z M289,156.4
		c-0.5,0.1-1,0.2-1.4,0.6c-0.4,0.3-0.7,0.7-0.9,1.2c0.5-0.1,1-0.2,1.4-0.6C288.6,157.3,288.9,156.8,289,156.4L289,156.4z
		 M309.3,156.4c0.2,0.5,0.5,0.9,0.9,1.2c0.4,0.3,0.9,0.5,1.4,0.6c-0.2-0.5-0.5-0.9-0.9-1.2C310.3,156.6,309.8,156.4,309.3,156.4
		L309.3,156.4z M284.5,153.3c-0.2,1,0.3,2.1,1.2,2.6C285.8,154.9,285.4,153.8,284.5,153.3L284.5,153.3z M313.8,153.3
		c-0.9,0.6-1.3,1.6-1.2,2.6C313.5,155.3,314,154.3,313.8,153.3L313.8,153.3z M309,152.1c-0.5-0.2-1-0.2-1.5-0.1
		c0.3,0.4,0.7,0.7,1.2,0.9c0.5,0.2,1,0.2,1.5,0.1C309.9,152.6,309.5,152.3,309,152.1L309,152.1z M290.8,151.9
		c-0.5-0.1-1-0.1-1.5,0.1c-0.5,0.2-0.9,0.5-1.2,0.9c0.5,0.1,1,0.1,1.5-0.1C290.1,152.7,290.5,152.3,290.8,151.9L290.8,151.9z
		 M287.1,148.2c-0.4,1-0.2,2.1,0.5,2.8C288,150.1,287.8,149,287.1,148.2L287.1,148.2z M311.2,148.2c-0.7,0.8-0.9,1.9-0.5,2.8
		C311.4,150.3,311.6,149.2,311.2,148.2L311.2,148.2z"/>
</g>
</svg>
