<?xml version="1.0" encoding="utf-8"?>
<svg version="1.1" id="Livello_1" xmlns="http://www.w3.org/2000/svg" xmlns:xlink="http://www.w3.org/1999/xlink" x="0px" y="0px"
	 viewBox="0 0 382 164" style="enable-background:new 0 0 382 164;" xml:space="preserve">
<style type="text/css">
	.st0{fill-rule:evenodd;clip-rule:evenodd;fill:#E8ECEF;}
	.st1{fill-rule:evenodd;clip-rule:evenodd;fill:#00366A;}
	.st2{fill-rule:evenodd;clip-rule:evenodd;fill:#FFFFFF;}
	.st3{fill:none;stroke:#003666;}
	.st4{fill-rule:evenodd;clip-rule:evenodd;fill:#003666;}
	.st5{fill:none;stroke:#E8ECEF;stroke-width:7.2;stroke-linecap:round;}
	.st6{fill-rule:evenodd;clip-rule:evenodd;fill:#FFFFFF;stroke:#003666;stroke-width:0.72;}
	.st7{fill:#0066CC;}
	.st8{fill-rule:evenodd;clip-rule:evenodd;fill:#4FCFE1;}
</style>
<g>
	<path class="st0" d="M171.4,15.6c13.1,1.1,26.4,0.5,39.5,0.3c21.7-0.2,43.3-0.6,65-1c20.5-0.3,41-0.7,61.5-0.8c7,0,14-0.1,21,0.1
		c1.9,0,4.6-0.3,6.4,0.3c1.4,0.4,2.1,1.6,3.1,2.9c2.5,3.2,3.1,4.4,3,8.5c-0.5,44.7-1,89.4-1.5,134.1c0,3.3,2.8,4.5,5.5,3.2
		c3.2-1.6,5.3-5.8,5.3-9.2c0.5-40.7,0.9-81.4,1.4-122.2c0.1-7.7,2-16.9-2.7-23.5c-2.5-3.5-5-7-9.5-7.6c-5.6-0.6-11.4-0.3-17-0.3
		c-42.5-0.1-85,1.2-127.6,1.7c-16,0.2-32.3,1.1-48.3-0.2C170.8,1.4,164.8,15,171.4,15.6"/>
	<path class="st1" d="M367.6,158.5H172.1c-2,0-3.6-1.7-3.6-3.7v-144c0-2.1,1.6-3.7,3.6-3.7h195.4c2,0,3.6,1.7,3.6,3.7v144
		C371.2,156.8,369.6,158.5,367.6,158.5"/>
	<path class="st2" d="M362.6,158.5H167.1c-2,0-3.6-1.6-3.6-3.6V14.6c0-2,1.6-3.6,3.6-3.6h195.4c2,0,3.6,1.6,3.6,3.6v140.2
		C366.2,156.8,364.6,158.5,362.6,158.5"/>
	<path class="st3" d="M362.6,158.5H167.1c-2,0-3.6-1.6-3.6-3.6V14.6c0-2,1.6-3.6,3.6-3.6h195.4c2,0,3.6,1.6,3.6,3.6v140.2
		C366.2,156.8,364.6,158.5,362.6,158.5z"/>
	<path class="st4" d="M194.4,37.5c0.1-0.2,0.2-0.3,0.4-0.2c1.5,0.5,2.8,1.3,3.8,2.5c0.1-0.7,0.4-1.3,1-1.7c0.1,0,0.2-0.1,0.2,0
		c0.1,0,0.2,0.1,0.2,0.1c0.7,1,0.5,2.3-0.4,3c0.2,0.4,0.4,0.7,0.5,1.1c0.2-0.5,0.7-0.9,1.2-1.1c0.1,0,0.2,0,0.2,0
		c0.1,0,0.1,0.1,0.2,0.2c0.4,1.1-0.1,2.4-1.1,2.9c0,0.4,0.1,0.7,0.1,1.1c0,0,0,0.1,0,0.1c0.5-0.4,1.1-0.7,1.8-0.6
		c0.2,0,0.3,0.2,0.3,0.3c-0.1,1.2-1.1,2.1-2.3,2.1c0,0,0,0,0,0c-0.1,0.5-0.2,0.9-0.4,1.3c0.1-0.1,0.3-0.1,0.5-0.1
		c0.6-0.1,1.2,0,1.7,0.4c0.1,0.1,0.2,0.3,0.1,0.4c-0.4,0.6-1.1,0.9-1.8,0.9c-0.4,0-0.7-0.1-1.1-0.3c-0.1,0.1-0.1,0.2-0.2,0.3
		c-0.2,0.2-0.4,0.5-0.5,0.7c0.5-0.1,1-0.2,1.6-0.3c0.1,0,0.2,0,0.3,0.1c0.1,0.1,0.1,0.2,0,0.3c-0.2,0.4-0.3,0.8-0.5,1.2
		c0.3,0.3,0.7,0.6,1,0.8c0.1,0.1,0.1,0.2,0.1,0.3c0,0.1-0.1,0.2-0.2,0.2c-0.7,0.2-1.4,0.3-2.1,0.4l0.1,0.4c0,0.1,0,0.1,0,0.2
		c-0.1,0.1-0.1,0.1-0.2,0.1c-1.4,0.2-2.8,0.4-4.1,0.5c0,0,0,0-0.1,0.1l-1,0.6l0.4,0.2c0.1,0.1,0.2,0.3,0.1,0.4
		c-0.1,0.1-0.2,0.1-0.3,0.1c0,0-0.1,0-0.1,0l-0.7-0.4l-0.7,0.4c0,0-0.1,0-0.1,0c-0.1,0-0.2-0.1-0.3-0.1c-0.1-0.1,0-0.3,0.1-0.4
		l0.4-0.2l-1-0.6l0,0c-1.7-0.1-3.3-0.2-5-0.5c-0.1,0-0.2-0.1-0.2-0.1c0-0.1-0.1-0.1,0-0.2l0.1-0.4c-0.7-0.1-1.4-0.3-2.1-0.4
		c-0.1,0-0.2-0.1-0.2-0.2c0-0.1,0-0.2,0.1-0.3c0.3-0.3,0.7-0.6,1-0.8c-0.2-0.4-0.3-0.8-0.5-1.2c0-0.1,0-0.2,0.1-0.3
		c0.1-0.1,0.2-0.1,0.3-0.1c0.5,0.1,0.9,0.2,1.4,0.3c-0.2-0.2-0.4-0.4-0.5-0.7c-0.1-0.1-0.1-0.2-0.2-0.3c-0.3,0.2-0.7,0.3-1.1,0.3
		c-0.7,0-1.4-0.3-1.8-0.9c-0.1-0.1-0.1-0.3,0.1-0.4c0.5-0.4,1.1-0.5,1.7-0.4c0.2,0,0.3,0.1,0.5,0.1c-0.2-0.4-0.3-0.9-0.4-1.3h0
		c-1.2,0-2.2-0.9-2.3-2.1c0-0.2,0.1-0.3,0.3-0.3c0.7-0.1,1.3,0.2,1.8,0.6c0,0,0-0.1,0-0.1c0-0.4,0-0.8,0.1-1.1
		c-1.1-0.5-1.6-1.8-1.1-2.9c0-0.1,0.1-0.1,0.2-0.2c0.1,0,0.2,0,0.2,0c0.6,0.2,1,0.6,1.2,1.1c0.1-0.4,0.3-0.8,0.5-1.1
		c-0.9-0.7-1.1-2.1-0.4-3c0-0.1,0.1-0.1,0.2-0.1c0.1,0,0.2,0,0.2,0.1c0.6,0.4,0.9,1,1,1.7c0.4-0.5,0.8-0.9,1.3-1.2l0.1-0.1
		c0.1-0.1,0.2-0.1,0.2-0.2l-0.2,0.1c0.1,0,0.1-0.1,0.2-0.1l0,0c0,0,0,0,0,0c0.7-0.5,1.4-0.8,2.2-1.1c0.2-0.1,0.4,0,0.4,0.2
		c0.1,0.2,0,0.4-0.2,0.4c-1.5,0.5-2.9,1.4-3.8,2.7c0.5-0.2,1.1-0.1,1.6,0.1c0.2,0.1,0.2,0.3,0.2,0.4c-0.2,0.6-0.7,1-1.2,1.2
		c-0.3,0.1-0.6,0.2-0.8,0.2c-0.2,0-0.5,0-0.7-0.1c-0.2,0.5-0.4,1-0.5,1.6c0.1-0.1,0.1-0.1,0.2-0.2c0.5-0.4,1.1-0.5,1.7-0.5
		c0.2,0,0.3,0.2,0.3,0.3c-0.1,0.6-0.4,1.1-0.8,1.5c-0.4,0.3-0.9,0.5-1.4,0.5c0,0,0,0,0,0c0,0.8,0.1,1.5,0.4,2.2c0,0,0-0.1,0-0.1
		c0.3-0.6,0.7-1,1.3-1.2c0.2-0.1,0.3,0,0.4,0.2c0.4,1,0,2.2-1,2.7c0.1,0.2,0.2,0.3,0.3,0.5c0.3,0.4,1.2,1.4,1.8,2
		c1.5,0.2,3.1,0.3,4.6,0.3c1.5,0,3-0.1,4.5-0.3c0.6-0.6,1.5-1.6,1.8-2c0.1-0.2,0.2-0.3,0.3-0.5c-0.9-0.6-1.3-1.7-1-2.7
		c0.1-0.2,0.2-0.2,0.4-0.2c0.6,0.2,1,0.6,1.3,1.2c0,0,0,0.1,0,0.1c0.2-0.7,0.4-1.4,0.4-2.2c0,0,0,0,0,0c-0.5,0-1-0.2-1.4-0.5
		c-0.5-0.4-0.8-0.9-0.8-1.5c0-0.2,0.1-0.3,0.3-0.3c0.6-0.1,1.2,0.1,1.7,0.5c0.1,0.1,0.1,0.1,0.2,0.2c-0.1-0.5-0.3-1.1-0.5-1.6
		c-0.2,0.1-0.5,0.1-0.7,0.1c-0.3,0-0.6-0.1-0.8-0.2c-0.6-0.2-1-0.7-1.2-1.2c-0.1-0.2,0-0.3,0.2-0.4c0.5-0.2,1.1-0.2,1.6-0.1
		c-1-1.3-2.3-2.2-3.8-2.7C194.4,37.9,194.3,37.7,194.4,37.5L194.4,37.5z M192.4,55.3L192.4,55.3l0.4,0.2l0.5-0.3
		C192.9,55.3,192.6,55.3,192.4,55.3L192.4,55.3z M197.9,52.4c-1.8,0.3-3.7,0.4-5.5,0.4c-1.8,0-3.7-0.1-5.5-0.4l-0.3,1.9
		c1.9,0.3,3.9,0.5,5.8,0.5s3.9-0.2,5.8-0.5L197.9,52.4z M199.8,51.4c-0.5,0.1-0.9,0.2-1.4,0.3l0.3,1.8c0.5-0.1,1-0.2,1.5-0.3
		c-0.2-0.2-0.5-0.4-0.7-0.6c-0.1-0.1-0.1-0.2-0.1-0.3C199.5,51.9,199.6,51.7,199.8,51.4L199.8,51.4z M185,51.4
		c0.1,0.3,0.3,0.6,0.4,0.8c0.1,0.1,0,0.2-0.1,0.3c-0.2,0.2-0.5,0.4-0.7,0.6c0.5,0.1,1,0.2,1.5,0.3l0.3-1.8
		C185.9,51.6,185.4,51.5,185,51.4L185,51.4z M201.6,49.3c-0.3-0.1-0.6-0.2-0.9-0.1c-0.3,0-0.6,0.2-0.8,0.4
		C200.4,49.8,201.1,49.7,201.6,49.3L201.6,49.3z M183.9,49.1c-0.3,0-0.6,0-0.9,0.1c0.5,0.4,1.2,0.5,1.8,0.3
		C184.5,49.3,184.3,49.2,183.9,49.1L183.9,49.1z M192.6,40.6l1.3,2.7l2.9,0.4c0.1,0,0.2,0.1,0.3,0.2c0,0.1,0,0.3-0.1,0.3l-2.1,2.1
		l0.5,2.9c0,0.1,0,0.2-0.1,0.3c-0.1,0-0.1,0.1-0.2,0.1c-0.1,0-0.1,0-0.2,0l-2.6-1.4l-2.6,1.4c-0.1,0.1-0.2,0-0.3,0
		c-0.1-0.1-0.2-0.2-0.1-0.3l0.5-2.9l-2.1-2.1c-0.1-0.1-0.1-0.2-0.1-0.3c0-0.1,0.1-0.2,0.3-0.2l2.9-0.4l1.3-2.7
		C192.1,40.3,192.5,40.3,192.6,40.6L192.6,40.6z M198.5,47.3c-0.1,0.6,0.2,1.3,0.7,1.6c0-0.3,0-0.6-0.1-0.9
		C199,47.7,198.8,47.5,198.5,47.3L198.5,47.3z M186.1,47.3c-0.3,0.2-0.5,0.4-0.6,0.7c-0.1,0.3-0.2,0.6-0.1,0.9
		C185.9,48.6,186.2,48,186.1,47.3L186.1,47.3z M192.3,41.5l-1.1,2.2c0,0.1-0.1,0.2-0.2,0.2l-2.5,0.4l1.8,1.7
		c0.1,0.1,0.1,0.2,0.1,0.3l-0.4,2.4l2.2-1.2c0,0,0.1,0,0.2,0c0.1,0,0.1,0,0.2,0l2.2,1.2l-0.4-2.4c0-0.1,0-0.2,0.1-0.3l1.8-1.7
		l-2.5-0.4c-0.1,0-0.2-0.1-0.2-0.2L192.3,41.5z M182.5,45.5c0.1,0.3,0.3,0.6,0.5,0.8c0.2,0.2,0.5,0.3,0.8,0.4
		c-0.1-0.3-0.3-0.6-0.5-0.8C183.1,45.7,182.8,45.6,182.5,45.5L182.5,45.5z M202.1,45.5c-0.3,0-0.6,0.2-0.8,0.4
		c-0.2,0.2-0.4,0.5-0.5,0.8c0.3,0,0.6-0.2,0.8-0.4C201.8,46.1,202,45.8,202.1,45.5L202.1,45.5z M186.1,43.9c-0.3,0-0.6,0.2-0.9,0.4
		c-0.2,0.2-0.4,0.5-0.5,0.8c0.3,0,0.6-0.2,0.9-0.3S186,44.2,186.1,43.9L186.1,43.9z M198.5,43.9c0.1,0.3,0.3,0.6,0.5,0.8
		c0.2,0.2,0.5,0.3,0.9,0.4c-0.1-0.3-0.3-0.6-0.5-0.8C199.1,44.1,198.8,43.9,198.5,43.9L198.5,43.9z M183.3,42
		c-0.1,0.6,0.2,1.3,0.7,1.6C184.1,43,183.8,42.4,183.3,42L183.3,42z M201.3,42c-0.5,0.4-0.8,1-0.7,1.6
		C201.1,43.3,201.4,42.6,201.3,42L201.3,42z M198.3,41.3c-0.3-0.1-0.6-0.1-0.9-0.1c0.2,0.3,0.4,0.5,0.7,0.6c0.3,0.1,0.6,0.1,0.9,0.1
		C198.9,41.6,198.6,41.4,198.3,41.3L198.3,41.3z M187.2,41.2c-0.3-0.1-0.6,0-0.9,0.1c-0.3,0.1-0.5,0.3-0.7,0.6
		c0.3,0.1,0.6,0,0.9-0.1C186.7,41.6,187,41.4,187.2,41.2L187.2,41.2z M184.9,38.9c-0.2,0.6-0.1,1.3,0.3,1.7
		C185.5,40.1,185.3,39.4,184.9,38.9L184.9,38.9z M199.7,38.9c-0.4,0.5-0.6,1.2-0.3,1.7C199.8,40.2,200,39.5,199.7,38.9L199.7,38.9z"
		/>
	<g>
		<polygon class="st4" points="182.1,103.3 291.2,103.3 291.2,81.7 182.1,81.7 		"/>
		<polygon class="st4" points="182.1,122.7 260.8,122.7 260.8,112.9 182.1,112.9 		"/>
		<polygon class="st4" points="182.1,140.7 260.8,140.7 260.8,130.9 182.1,130.9 		"/>
		<path class="st4" d="M181.9,19.6c0-2-1.6-3.6-3.6-3.6s-3.6,1.6-3.6,3.6s1.6,3.6,3.6,3.6C180.3,23.2,181.9,21.6,181.9,19.6"/>
		<path class="st4" d="M192,19.6c0-2-1.6-3.6-3.6-3.6s-3.6,1.6-3.6,3.6s1.6,3.6,3.6,3.6C190.3,23.2,192,21.6,192,19.6"/>
		<path class="st4" d="M202,19.6c0-2-1.6-3.6-3.6-3.6s-3.6,1.6-3.6,3.6s1.6,3.6,3.6,3.6S202,21.6,202,19.6"/>
		<polygon class="st4" points="307,53 353.8,53 353.8,44.2 307,44.2 		"/>
	</g>
</g>
<g>
	<path class="st5" d="M39.5,13.2c26.8-0.7,45.1,2.4,54.9,9.3s17,17.8,21.5,32.6c0.1,7.4-1.2,16.5-3.9,27.4c-4.1,16.3-7,28-9.8,39.4
		s-3.8,15.1-5.3,21.4c-1.6,6.3-34.1-6-48.1-10.1c-9.3-2.8-20.8-5.6-34.2-8.5"/>
	<polygon class="st6" points="28.8,6.1 94.6,22.5 115.5,57.2 94.2,142.6 0.5,119.3 	"/>
	<path class="st7" d="M42.1,94.8l1.6-6.6l-12.2-7.8l-1.5-1l1.8-0.2L46.2,78l1.6-6.6L24.1,75l-1.4,5.5L42.1,94.8z M50.3,103.7
		l22.8-35.1L66.8,67L44,102.2L50.3,103.7z M68.7,101.4l24.1-3.5l1.4-5.5L74.5,78.1l-1.6,6.5l12.8,8.1l1.3,0.8l-1.6,0.1l-15.1,1.2
		L68.7,101.4z"/>
	<polygon class="st4" points="94.4,22.5 115.4,57.4 87.5,50.4 	"/>
</g>
<polygon class="st8" points="180,76.6 147.9,46.6 147.9,64.1 132,64.1 132,79.9 132,89.2 147.9,89.2 147.9,106.6 "/>
</svg>
