<?xml version="1.0" encoding="utf-8"?>
<svg version="1.1" xmlns="http://www.w3.org/2000/svg" xmlns:xlink="http://www.w3.org/1999/xlink" x="0px" y="0px"
	 viewBox="0 0 272 148" style="enable-background:new 0 0 272 148;" xml:space="preserve">
<style type="text/css">
	.st0{fill-rule:evenodd;clip-rule:evenodd;fill:#E8ECEF;}
	.st1{fill-rule:evenodd;clip-rule:evenodd;fill:#00366A;}
	.st2{fill-rule:evenodd;clip-rule:evenodd;fill:#FFFFFF;}
	.st3{fill:none;stroke:#003666;stroke-width:0.9;}
	.st4{fill-rule:evenodd;clip-rule:evenodd;fill:#003666;}
	.st5{fill-rule:evenodd;clip-rule:evenodd;fill:#00D2E4;}
	.st6{fill-rule:evenodd;clip-rule:evenodd;fill:#0065D3;}
</style>
<g>
	<path class="st0" d="M7.6,13.9c11.8,1,23.7,0.4,35.5,0.3c19.5-0.2,39-0.5,58.5-0.9c18.4-0.3,36.9-0.6,55.3-0.7
		c6.3,0,12.6-0.1,18.9,0.1c1.7,0,4.1-0.3,5.8,0.2c1.2,0.4,1.9,1.5,2.8,2.6c2.3,2.8,2.8,4,2.7,7.7c-0.5,40.2-0.9,80.4-1.4,120.7
		c0,3,2.5,4.1,5,2.9c2.9-1.4,4.7-5.2,4.8-8.3c0.4-36.6,0.8-73.3,1.2-109.9c0.1-6.9,1.8-15.3-2.4-21.2c-2.2-3.1-4.5-6.3-8.5-6.8
		c-5-0.6-10.3-0.3-15.3-0.3c-38.3-0.1-76.6,1-114.8,1.5C41.3,2,26.6,2.8,12.2,1.6C7,1.1,1.6,13.4,7.6,13.9"/>
	<path class="st1" d="M183.7,140H7.8c-1.8,0-3.3-1.5-3.3-3.3V10.6c0-1.8,1.5-3.3,3.3-3.3h175.9c1.8,0,3.3,1.5,3.3,3.3v126.2
		C187,138.6,185.5,140,183.7,140"/>
	<path class="st2" d="M180.1,142.7H4.2c-1.8,0-3.3-1.5-3.3-3.3V13.2C1,11.4,2.4,10,4.2,10h175.9c1.8,0,3.3,1.5,3.3,3.3v126.2
		C183.4,141.3,181.9,142.7,180.1,142.7"/>
	<path class="st3" d="M180.1,142.7H4.2c-1.8,0-3.3-1.5-3.3-3.3V13.2C1,11.4,2.4,10,4.2,10h175.9c1.8,0,3.3,1.5,3.3,3.3v126.2
		C183.4,141.3,181.9,142.7,180.1,142.7z"/>
	<path class="st4" d="M28.7,33.3c0.1-0.2,0.2-0.3,0.4-0.2c1.5,0.5,2.8,1.3,3.8,2.5c0.1-0.7,0.4-1.3,1-1.7c0.1,0,0.2-0.1,0.2,0
		c0.1,0,0.2,0.1,0.2,0.1c0.7,1,0.5,2.3-0.4,3c0.2,0.4,0.4,0.7,0.5,1.1c0.2-0.5,0.7-0.9,1.2-1.1c0.1,0,0.2,0,0.2,0
		c0.1,0,0.1,0.1,0.2,0.2c0.4,1.1-0.1,2.4-1.1,2.9c0,0.4,0.1,0.7,0.1,1.1c0,0,0,0.1,0,0.1c0.5-0.4,1.1-0.7,1.8-0.6
		c0.2,0,0.3,0.2,0.3,0.3c-0.1,1.2-1.1,2.1-2.3,2.1c0,0,0,0,0,0c-0.1,0.5-0.2,0.9-0.4,1.3c0.1-0.1,0.3-0.1,0.5-0.1
		c0.6-0.1,1.2,0,1.7,0.4c0.1,0.1,0.2,0.3,0.1,0.4c-0.4,0.6-1.1,0.9-1.8,0.9c-0.4,0-0.7-0.1-1.1-0.3c-0.1,0.1-0.1,0.2-0.2,0.3
		c-0.2,0.2-0.4,0.5-0.5,0.7c0.5-0.1,1-0.2,1.6-0.3c0.1,0,0.2,0,0.3,0.1c0.1,0.1,0.1,0.2,0,0.3c-0.2,0.4-0.3,0.8-0.5,1.2
		c0.3,0.3,0.7,0.6,1,0.8c0.1,0.1,0.1,0.2,0.1,0.3c0,0.1-0.1,0.2-0.2,0.2c-0.7,0.2-1.4,0.3-2.1,0.4l0.1,0.4c0,0.1,0,0.1,0,0.2
		c0,0.1-0.1,0.1-0.2,0.1c-1.4,0.2-2.8,0.4-4.1,0.5c0,0,0,0-0.1,0.1l-1,0.6l0.4,0.2c0.1,0.1,0.2,0.3,0.1,0.4
		c-0.1,0.1-0.2,0.1-0.3,0.1c0,0-0.1,0-0.1,0L27.1,52l-0.7,0.4c0,0-0.1,0-0.1,0c-0.1,0-0.2-0.1-0.3-0.1c-0.1-0.1,0-0.3,0.1-0.4
		l0.4-0.2l-1-0.6l0,0c-1.7-0.1-3.3-0.2-5-0.5c-0.1,0-0.2-0.1-0.2-0.1c0-0.1-0.1-0.1,0-0.2l0.1-0.4c-0.7-0.1-1.4-0.3-2.1-0.4
		c-0.1,0-0.2-0.1-0.2-0.2c0-0.1,0-0.2,0.1-0.3c0.3-0.3,0.7-0.6,1-0.8c-0.2-0.4-0.3-0.8-0.5-1.2c0-0.1,0-0.2,0.1-0.3
		c0.1-0.1,0.2-0.1,0.3-0.1c0.5,0.1,0.9,0.2,1.4,0.3c-0.2-0.2-0.4-0.4-0.5-0.7c-0.1-0.1-0.1-0.2-0.2-0.3c-0.3,0.2-0.7,0.3-1.1,0.3
		c-0.7,0-1.4-0.3-1.8-0.9c-0.1-0.1-0.1-0.3,0.1-0.4c0.5-0.4,1.1-0.5,1.7-0.4c0.2,0,0.3,0.1,0.5,0.1c-0.2-0.4-0.3-0.9-0.4-1.3h0
		c-1.2,0-2.2-0.9-2.3-2.1c0-0.2,0.1-0.3,0.3-0.3c0.7-0.1,1.3,0.2,1.8,0.6c0,0,0-0.1,0-0.1c0-0.4,0-0.8,0.1-1.1
		c-1.1-0.5-1.6-1.8-1.1-2.9c0-0.1,0.1-0.1,0.2-0.2c0.1,0,0.2,0,0.2,0c0.6,0.2,1,0.6,1.2,1.1c0.1-0.4,0.3-0.8,0.5-1.1
		c-0.9-0.7-1.1-2.1-0.4-3c0-0.1,0.1-0.1,0.2-0.1c0.1,0,0.2,0,0.2,0.1c0.6,0.4,0.9,1,1,1.7c0.4-0.5,0.8-0.9,1.3-1.2l0.1-0.1
		c0.1-0.1,0.2-0.1,0.2-0.2l-0.2,0.1c0.1,0,0.1-0.1,0.2-0.1l0,0c0,0,0,0,0,0c0.7-0.5,1.4-0.8,2.2-1.1c0.2-0.1,0.4,0,0.4,0.2
		c0.1,0.2,0,0.4-0.2,0.4c-1.5,0.5-2.9,1.4-3.8,2.7c0.5-0.2,1.1-0.1,1.6,0.1c0.2,0.1,0.2,0.3,0.2,0.4c-0.2,0.6-0.7,1-1.2,1.2
		c-0.3,0.1-0.6,0.2-0.8,0.2c-0.2,0-0.5,0-0.7-0.1c-0.2,0.5-0.4,1-0.5,1.6c0.1-0.1,0.1-0.1,0.2-0.2c0.5-0.4,1.1-0.5,1.7-0.5
		c0.2,0,0.3,0.2,0.3,0.3c-0.1,0.6-0.4,1.1-0.8,1.5c-0.4,0.3-0.9,0.5-1.4,0.5c0,0,0,0,0,0c0,0.8,0.1,1.5,0.4,2.2c0,0,0-0.1,0-0.1
		c0.3-0.6,0.7-1,1.3-1.2c0.2-0.1,0.3,0,0.4,0.2c0.4,1,0,2.2-1,2.7c0.1,0.2,0.2,0.3,0.3,0.5c0.3,0.4,1.2,1.4,1.8,2
		c1.5,0.2,3.1,0.3,4.6,0.3c1.5,0,3-0.1,4.5-0.3c0.6-0.6,1.5-1.6,1.8-2c0.1-0.2,0.2-0.3,0.3-0.5c-0.9-0.6-1.3-1.7-1-2.7
		c0.1-0.2,0.2-0.2,0.4-0.2c0.6,0.2,1,0.6,1.3,1.2c0,0,0,0.1,0,0.1c0.2-0.7,0.4-1.4,0.4-2.2c0,0,0,0,0,0c-0.5,0-1-0.2-1.4-0.5
		c-0.5-0.4-0.8-0.9-0.8-1.5c0-0.2,0.1-0.3,0.3-0.3c0.6-0.1,1.2,0.1,1.7,0.5c0.1,0.1,0.1,0.1,0.2,0.2c-0.1-0.5-0.3-1.1-0.5-1.6
		c-0.2,0.1-0.5,0.1-0.7,0.1c-0.3,0-0.6-0.1-0.8-0.2c-0.6-0.2-1-0.7-1.2-1.2c-0.1-0.2,0-0.3,0.2-0.4c0.5-0.2,1.1-0.2,1.6-0.1
		c-1-1.3-2.3-2.2-3.8-2.7C28.7,33.7,28.6,33.5,28.7,33.3L28.7,33.3z M26.7,51L26.7,51l0.4,0.2l0.5-0.3C27.2,51,26.9,51,26.7,51
		L26.7,51z M32.2,48.2c-1.8,0.3-3.7,0.4-5.5,0.4c-1.8,0-3.7-0.1-5.5-0.4L20.8,50c1.9,0.3,3.9,0.5,5.8,0.5s3.9-0.2,5.8-0.5L32.2,48.2
		z M34.1,47.1c-0.5,0.1-0.9,0.2-1.4,0.3l0.3,1.8c0.5-0.1,1-0.2,1.5-0.3c-0.2-0.2-0.5-0.4-0.7-0.6c-0.1-0.1-0.1-0.2-0.1-0.3
		C33.8,47.7,33.9,47.4,34.1,47.1L34.1,47.1z M19.3,47.1c0.1,0.3,0.3,0.6,0.4,0.8c0.1,0.1,0,0.2-0.1,0.3c-0.2,0.2-0.5,0.4-0.7,0.6
		c0.5,0.1,1,0.2,1.5,0.3l0.3-1.8C20.2,47.3,19.7,47.2,19.3,47.1L19.3,47.1z M35.9,45c-0.3-0.1-0.6-0.2-0.9-0.1
		c-0.3,0-0.6,0.2-0.8,0.4C34.7,45.5,35.4,45.4,35.9,45L35.9,45z M18.2,44.9c-0.3,0-0.6,0-0.9,0.1c0.5,0.4,1.2,0.5,1.8,0.3
		C18.8,45.1,18.6,44.9,18.2,44.9L18.2,44.9z M26.9,36.3l1.3,2.7l2.9,0.4c0.1,0,0.2,0.1,0.3,0.2c0,0.1,0,0.3-0.1,0.3L29.2,42l0.5,2.9
		c0,0.1,0,0.2-0.1,0.3c-0.1,0-0.1,0.1-0.2,0.1c-0.1,0-0.1,0-0.2,0l-2.6-1.4L24,45.3c-0.1,0.1-0.2,0-0.3,0c-0.1-0.1-0.2-0.2-0.1-0.3
		L24,42L21.9,40c-0.1-0.1-0.1-0.2-0.1-0.3c0-0.1,0.1-0.2,0.3-0.2L25,39l1.3-2.7C26.4,36.1,26.8,36.1,26.9,36.3L26.9,36.3z
		 M32.8,43.1c-0.1,0.6,0.2,1.3,0.7,1.6c0-0.3,0-0.6-0.1-0.9C33.3,43.5,33.1,43.2,32.8,43.1L32.8,43.1z M20.4,43.1
		c-0.3,0.2-0.5,0.4-0.6,0.7c-0.1,0.3-0.2,0.6-0.1,0.9C20.2,44.3,20.5,43.7,20.4,43.1L20.4,43.1z M26.6,37.2l-1.1,2.2
		c0,0.1-0.1,0.2-0.2,0.2L22.8,40l1.8,1.7c0.1,0.1,0.1,0.2,0.1,0.3l-0.4,2.4l2.2-1.2c0,0,0.1,0,0.2,0c0.1,0,0.1,0,0.2,0l2.2,1.2
		L28.5,42c0-0.1,0-0.2,0.1-0.3l1.8-1.7l-2.5-0.4c-0.1,0-0.2-0.1-0.2-0.2L26.6,37.2z M16.8,41.3c0.1,0.3,0.3,0.6,0.5,0.8
		c0.2,0.2,0.5,0.3,0.8,0.4c-0.1-0.3-0.3-0.6-0.5-0.8C17.4,41.4,17.1,41.3,16.8,41.3L16.8,41.3z M36.4,41.3c-0.3,0-0.6,0.2-0.8,0.4
		c-0.2,0.2-0.4,0.5-0.5,0.8c0.3,0,0.6-0.2,0.8-0.4C36.1,41.8,36.3,41.6,36.4,41.3L36.4,41.3z M20.4,39.7c-0.3,0-0.6,0.2-0.9,0.4
		c-0.2,0.2-0.4,0.5-0.5,0.8c0.3,0,0.6-0.2,0.9-0.3S20.3,40,20.4,39.7L20.4,39.7z M32.8,39.7c0.1,0.3,0.3,0.6,0.5,0.8
		c0.2,0.2,0.5,0.3,0.9,0.4c-0.1-0.3-0.3-0.6-0.5-0.8C33.4,39.8,33.1,39.7,32.8,39.7L32.8,39.7z M17.6,37.8c-0.1,0.6,0.2,1.3,0.7,1.6
		C18.4,38.7,18.1,38.1,17.6,37.8L17.6,37.8z M35.6,37.8c-0.5,0.4-0.8,1-0.7,1.6C35.4,39,35.7,38.4,35.6,37.8L35.6,37.8z M32.6,37
		c-0.3-0.1-0.6-0.1-0.9-0.1c0.2,0.3,0.4,0.5,0.7,0.6c0.3,0.1,0.6,0.1,0.9,0.1C33.2,37.3,32.9,37.1,32.6,37L32.6,37z M21.5,36.9
		c-0.3-0.1-0.6,0-0.9,0.1c-0.3,0.1-0.5,0.3-0.7,0.6c0.3,0.1,0.6,0,0.9-0.1C21,37.4,21.3,37.2,21.5,36.9L21.5,36.9z M19.2,34.6
		c-0.2,0.6-0.1,1.3,0.3,1.7C19.8,35.8,19.6,35.1,19.2,34.6L19.2,34.6z M34,34.6c-0.4,0.5-0.6,1.2-0.3,1.7
		C34.1,35.9,34.3,35.2,34,34.6L34,34.6z"/>
	<g>
		<polygon class="st4" points="17.7,93.1 115.9,93.1 115.9,73.7 17.7,73.7 		"/>
		<polygon class="st4" points="17.7,110.5 88.5,110.5 88.5,101.7 17.7,101.7 		"/>
		<polygon class="st4" points="17.7,126.7 88.5,126.7 88.5,117.9 17.7,117.9 		"/>
		<path class="st4" d="M17.5,17.7c0-1.8-1.4-3.2-3.2-3.2s-3.2,1.4-3.2,3.2s1.4,3.2,3.2,3.2C16.1,21,17.5,19.5,17.5,17.7"/>
		<path class="st4" d="M26.6,17.7c0-1.8-1.4-3.2-3.2-3.2c-1.8,0-3.2,1.4-3.2,3.2s1.4,3.2,3.2,3.2C25.1,21,26.6,19.5,26.6,17.7"/>
		<path class="st4" d="M35.6,17.7c0-1.8-1.4-3.2-3.2-3.2s-3.2,1.4-3.2,3.2s1.4,3.2,3.2,3.2C34.2,21,35.6,19.5,35.6,17.7"/>
		<polygon id="Fill-17" class="st4" points="130.1,47.8 172.2,47.8 172.2,39.8 130.1,39.8 		"/>
	</g>
</g>
<g>
	<path class="st2" d="M210.6,101.2l-0.7,2.4c-0.3,1.9-1,3.7-2.1,5.2l-1.1,2.1l1.4,1.8l2.8,3.8c-1.5,1.8-3.1,3.4-4.9,4.9l-3.9-2.8
		l-1.8-1.4l-2.1,1c-1.6,1.1-3.4,1.8-5.2,2.1l-2.4,0.7v2.4l-0.7,4.6h-7l-0.7-4.6V121l-2.4-0.7c-1.9-0.3-3.7-1-5.2-2.1l-2.1-1
		l-1.8,1.4l-3.9,2.8c-1.8-1.5-3.4-3.1-4.9-4.9l2.8-3.8l1.4-1.8l-1.1-2.1c-1.1-1.6-1.8-3.4-2.1-5.2l-0.7-2.4h-2.5l-4.5-0.7
		c-0.3-1.1-0.4-2.3-0.4-3.5c-0.1-1.2,0.1-2.4,0.4-3.5l4.5-0.7h2.5l0.7-2.5c0.3-1.9,1-3.7,2.1-5.2l1.1-2.1l-1.4-1.8l-2.8-3.8l4.9-4.9
		l3.9,2.8l1.8,1.4l2.1-1.1c1.6-1.1,3.4-1.8,5.2-2.1l2.4-0.7v-2.4l0.7-4.6h7l0.7,4.6v2.4l2.4,0.7c1.9,0.3,3.7,1,5.2,2.1l2.1,1.1
		l1.8-1.4l3.9-2.8c1.8,1.5,3.4,3.1,4.9,4.9l-2.8,3.8l-1.4,1.8l1.1,2.1c1.1,1.6,1.8,3.4,2.1,5.2l0.7,2.5h2.5l4.5,0.7
		c0.3,1.1,0.4,2.3,0.4,3.5c0.1,1.2-0.1,2.4-0.4,3.5l-4.5,0.7C213.1,101.2,210.6,101.2,210.6,101.2z"/>
	<path class="st5" d="M186.3,81.3c-8.7,0-15.8,7.1-15.8,15.8s7.1,15.8,15.8,15.8s15.8-7.1,15.8-15.8S195,81.3,186.3,81.3z
		 M186.3,109.4c-5,0-9.5-3-11.4-7.6s-0.9-9.9,2.7-13.4s8.8-4.6,13.4-2.7c4.6,1.9,7.6,6.4,7.6,11.4
		C198.6,103.9,193.1,109.4,186.3,109.4L186.3,109.4z M220.7,103.8c0.4-2.2,0.6-4.4,0.7-6.7c-0.1-2.2-0.3-4.5-0.7-6.7l-7.4-1.1
		c-0.6-2.1-1.4-4.1-2.5-6l4.6-6c-2.4-3.8-5.7-7.1-9.5-9.5l-6,4.6l-6-2.5l-1.1-7.4l-6.7-0.7l-6.7,0.7l-1.1,7.4l-6,2.5l-6-4.6
		c-3.8,2.4-7.1,5.7-9.5,9.5l4.6,6c-1,1.9-1.9,3.9-2.5,6l-7.4,1.1c-0.4,2.2-0.6,4.4-0.7,6.7c0.1,2.2,0.3,4.5,0.7,6.7l7.4,1.1
		c0.6,2.1,1.4,4.1,2.5,6l-4.6,6c2.4,3.8,5.7,7.1,9.5,9.5l6-4.6l6,2.5l1.1,7.4l6.7,0.7l6.7-0.7l1.1-7.4l6-2.5l6,4.6
		c3.8-2.4,7.1-5.7,9.5-9.5l-4.6-6c1-1.9,1.9-3.9,2.5-6L220.7,103.8z M210.5,101.3l-0.7,2.5c-0.3,1.9-1,3.7-2.1,5.3l-1.1,2.1l1.4,1.8
		l2.8,3.9c-1.5,1.8-3.1,3.5-4.9,4.9L202,119l-1.8-1.4l-2.1,1.1c-1.6,1.1-3.4,1.8-5.3,2.1l-2.5,0.7v2.5l-0.7,4.6h-7l-0.7-4.6v-2.5
		l-2.5-0.7c-1.9-0.3-3.7-1-5.3-2.1l-2.1-1.1l-1.8,1.4l-3.9,2.8c-1.8-1.5-3.5-3.1-4.9-4.9l2.8-3.9l1.4-1.8l-1.1-2.1
		c-1.1-1.6-1.8-3.4-2.1-5.3l-0.7-2.5h-2.5l-4.6-0.7c-0.3-1.1-0.4-2.3-0.4-3.5c-0.1-1.2,0.1-2.4,0.4-3.5l4.6-0.7h2.5l0.7-2.5
		c0.3-1.9,1-3.7,2.1-5.3l1.1-2.1l-1.4-1.8l-2.8-3.9l4.9-4.9l3.9,2.8l1.8,1.4l2.1-1.1c1.6-1.1,3.4-1.8,5.3-2.1l2.5-0.7v-2.5l0.7-4.6
		h7l0.7,4.6v2.5l2.5,0.7c1.9,0.3,3.7,1,5.3,2.1l2.1,1.1l1.8-1.4l3.9-2.8c1.8,1.5,3.5,3.1,4.9,4.9l-2.8,3.9l-1.4,1.8l1.1,2.1
		c1.1,1.6,1.8,3.4,2.1,5.3l0.7,2.5h2.5l4.6,0.7c0.3,1.1,0.4,2.3,0.4,3.5c0.1,1.2-0.1,2.4-0.4,3.5l-4.6,0.7
		C213,101.3,210.5,101.3,210.5,101.3z"/>
</g>
<path class="st6" d="M245,47.8c-6.7,0-12.1,5.4-12.1,12.2s5.4,12.2,12.1,12.2s12.1-5.4,12.1-12.2S251.7,47.8,245,47.8z M245,69.4
	c-3.8,0-7.3-2.3-8.7-5.8c-1.5-3.5-0.7-7.6,2-10.3s6.8-3.5,10.3-2s5.8,4.9,5.8,8.7C254.4,65.2,250.2,69.4,245,69.4L245,69.4z
	 M271.5,65.1c0.3-1.7,0.5-3.4,0.5-5.1c0-1.7-0.2-3.4-0.5-5.1l-5.7-0.8c-0.5-1.6-1.1-3.1-1.9-4.6l3.5-4.6c-1.9-2.9-4.4-5.4-7.3-7.3
	l-4.6,3.5l-4.6-1.9l-0.8-5.7L245,33l-5.1,0.5l-0.8,5.7l-4.6,1.9l-4.6-3.5c-2.9,1.9-5.4,4.4-7.3,7.3l3.5,4.6c-0.8,1.5-1.4,3-1.9,4.6
	l-5.7,0.8c-0.3,1.7-0.5,3.4-0.5,5.1c0,1.7,0.2,3.4,0.5,5.1l5.7,0.8c0.5,1.6,1.1,3.1,1.9,4.6l-3.5,4.6c1.9,2.9,4.4,5.4,7.3,7.3
	l4.6-3.5l4.6,1.9l0.8,5.7L245,87l5.1-0.5l0.8-5.7l4.6-1.9l4.6,3.5c2.9-1.9,5.4-4.4,7.3-7.3l-3.5-4.6c0.8-1.5,1.4-3,1.9-4.6
	L271.5,65.1z M263.6,63.2l-0.5,1.9c-0.3,1.4-0.8,2.8-1.6,4.1l-0.8,1.6l1.1,1.3l2.2,3c-1.1,1.4-2.4,2.7-3.8,3.8l-3-2.2l-1.3-1.1
	l-1.6,0.8c-1.2,0.8-2.6,1.4-4,1.6l-1.9,0.5v1.9l-0.5,3.5h-5.4l-0.5-3.5v-1.9l-1.9-0.5c-1.4-0.3-2.8-0.8-4-1.6l-1.6-0.8l-1.3,1.1
	l-3,2.2c-1.4-1.1-2.7-2.4-3.8-3.8l2.2-3l1.1-1.3l-0.8-1.6c-0.8-1.2-1.4-2.6-1.6-4.1l-0.5-1.9h-1.9l-3.5-0.5
	c-0.2-0.9-0.3-1.8-0.3-2.7s0-1.8,0.3-2.7l3.5-0.5h1.9l0.5-1.9c0.3-1.4,0.8-2.8,1.6-4l0.8-1.6l-1.1-1.4l-2.2-3l3.8-3.8l3,2.2l1.3,1.1
	l1.6-0.8c1.2-0.8,2.6-1.4,4-1.6l1.9-0.5v-1.9l0.5-3.5h5.4l0.5,3.5v1.9l1.9,0.5c1.4,0.3,2.8,0.8,4,1.6l1.6,0.8l1.3-1.1l3-2.2
	c1.4,1.1,2.7,2.4,3.8,3.8l-2.2,3l-1.1,1.4l0.8,1.6c0.8,1.2,1.4,2.6,1.6,4l0.5,1.9h1.9l3.5,0.5c0.2,0.9,0.3,1.8,0.3,2.7
	s0,1.8-0.3,2.7l-3.5,0.5C265.5,63.2,263.6,63.2,263.6,63.2z"/>
</svg>
