<svg width="978" height="141" viewBox="0 0 978 141" version="1.1" xmlns="http://www.w3.org/2000/svg" xmlns:xlink="http://www.w3.org/1999/xlink">
<title>Logo-AGID</title>
<g id="Canvas" transform="matrix(3 0 0 3 -444 -3450)">
<g id="Logo-AGID">
<g id="Vector">
<use xlink:href="#path0_fill" transform="translate(340.263 1150.61)" fill="#FFFFFF"/>
</g>
<g id="Vector">
<use xlink:href="#path1_fill" transform="translate(353.74 1154.38)" fill="#FFFFFF"/>
</g>
<g id="Vector">
<use xlink:href="#path2_fill" transform="translate(365.269 1154.38)" fill="#FFFFFF"/>
</g>
<g id="Vector">
<use xlink:href="#path3_fill" transform="translate(377.071 1154.36)" fill="#FFFFFF"/>
</g>
<g id="Vector">
<use xlink:href="#path4_fill" transform="translate(388.604 1154.62)" fill="#FFFFFF"/>
</g>
<g id="Vector">
<use xlink:href="#path5_fill" transform="translate(399.156 1150.24)" fill="#FFFFFF"/>
</g>
<g id="Vector">
<use xlink:href="#path6_fill" transform="translate(403.672 1154.24)" fill="#FFFFFF"/>
</g>
<g id="Vector">
<use xlink:href="#path7_fill" transform="translate(420.505 1154.36)" fill="#FFFFFF"/>
</g>
<g id="Vector">
<use xlink:href="#path8_fill" transform="translate(431.77 1154.38)" fill="#FFFFFF"/>
</g>
<g id="Vector">
<use xlink:href="#path9_fill" transform="translate(443.694 1154.38)" fill="#FFFFFF"/>
</g>
<g id="Vector">
<use xlink:href="#path10_fill" transform="translate(341.366 1176.28)" fill="#FFFFFF"/>
</g>
<g id="Vector">
<use xlink:href="#path11_fill" transform="translate(346.398 1176.77)" fill="#FFFFFF"/>
</g>
<g id="Vector">
<use xlink:href="#path12_fill" transform="translate(352.409 1176.77)" fill="#FFFFFF"/>
</g>
<g id="Vector">
<use xlink:href="#path13_fill" transform="translate(357.195 1177.74)" fill="#FFFFFF"/>
</g>
<g id="Vector">
<use xlink:href="#path14_fill" transform="translate(365.146 1180.4)" fill="#FFFFFF"/>
</g>
<g id="Vector">
<use xlink:href="#path15_fill" transform="translate(377.194 1176.28)" fill="#FFFFFF"/>
</g>
<g id="Vector">
<use xlink:href="#path16_fill" transform="translate(382.715 1176.41)" fill="#FFFFFF"/>
</g>
<g id="Vector">
<use xlink:href="#path17_fill" transform="translate(387.231 1180.4)" fill="#FFFFFF"/>
</g>
<g id="Vector">
<use xlink:href="#path18_fill" transform="translate(404.432 1176.77)" fill="#FFFFFF"/>
</g>
<g id="Vector">
<use xlink:href="#path19_fill" transform="translate(418.174 1176.41)" fill="#FFFFFF"/>
</g>
<g id="Vector">
<use xlink:href="#path20_fill" transform="translate(423.063 1180.66)" fill="#FFFFFF"/>
</g>
<g id="Vector">
<use xlink:href="#path21_fill" transform="translate(435.228 1176.41)" fill="#FFFFFF"/>
</g>
<g id="Vector">
<use xlink:href="#path22_fill" transform="translate(439.646 1177.74)" fill="#FFFFFF"/>
</g>
<g id="Vector">
<use xlink:href="#path23_fill" transform="translate(447.597 1180.4)" fill="#FFFFFF"/>
</g>
<g id="Vector">
<use xlink:href="#path10_fill" transform="translate(459.767 1176.28)" fill="#FFFFFF"/>
</g>
<g id="Vector">
<use xlink:href="#path24_fill" transform="translate(464.53 1180.66)" fill="#FFFFFF"/>
</g>
<g id="Vector">
<use xlink:href="#path25_fill" transform="translate(194.992 1150.73)" fill="#FFFFFF"/>
</g>
<g id="Vector">
<use xlink:href="#path26_fill" transform="translate(233.027 1150)" fill="#FFFFFF"/>
</g>
<g id="Vector">
<use xlink:href="#path27_fill" transform="translate(272.29 1150.73)" fill="#FFFFFF"/>
</g>
<g id="Vector">
<use xlink:href="#path28_fill" transform="translate(289.958 1150.71)" fill="#FFFFFF"/>
</g>
<g id="Vector">
<use xlink:href="#path29_fill" transform="translate(175.852 1177.62)" fill="#FFFFFF"/>
</g>
<g id="Vector">
<use xlink:href="#path30_fill" transform="translate(159.41 1182.2)" fill="#FFFFFF"/>
</g>
<g id="Vector">
<use xlink:href="#path31_fill" transform="translate(170.453 1189.79)" fill="#FFFFFF"/>
</g>
<g id="Vector">
<use xlink:href="#path32_fill" transform="translate(148 1150.36)" fill="#FFFFFF"/>
</g>
<g id="Vector">
<use xlink:href="#path33_fill" transform="translate(149.473 1182.61)" fill="#FFFFFF"/>
</g>
<g id="Vector">
<use xlink:href="#path34_fill" transform="translate(152.049 1154.38)" fill="#FFFFFF"/>
</g>
<g id="Vector">
<use xlink:href="#path35_fill" transform="translate(155.776 1158.27)" fill="#FFFFFF"/>
</g>
<g id="Vector">
<use xlink:href="#path36_fill" transform="translate(156.221 1158.15)" fill="#FFFFFF"/>
</g>
<g id="Vector">
<use xlink:href="#path37_fill" transform="translate(153.889 1178.72)" fill="#FFFFFF"/>
</g>
<g id="Vector">
<use xlink:href="#path38_fill" transform="translate(153.276 1177.62)" fill="#FFFFFF"/>
</g>
<g id="Vector">
<use xlink:href="#path39_stroke" transform="translate(330.937 1150.36)" fill="#FFFFFF"/>
</g>
</g>
</g>
<defs>
<path id="path0_fill" d="M -3.74435e-06 14.967L 3.68084 0L 8.58863 0L 12.3922 14.967L 9.93828 14.967L 9.07942 11.8032L 3.19007 11.8032L 2.33121 14.967L -3.74435e-06 14.967ZM 5.52126 1.94693L 3.68084 9.49126L 8.46595 9.49126L 6.62553 1.94693L 5.52126 1.94693L 5.52126 1.94693Z"/>
<path id="path1_fill" d="M 10.2023 12.655C 10.2023 15.0887 8.48459 16.3055 4.92644 16.3055C 3.6995 16.4272 2.34985 16.1838 1.2456 15.5754C 0.386738 15.0887 -0.104041 14.1152 0.0186535 13.1417C 0.0186535 12.655 0.141352 12.1683 0.386742 11.8032C 0.754826 11.3165 1.12291 10.9515 1.61369 10.5864C 1.12291 10.2214 0.877513 9.61294 0.877513 9.00453C 1.00021 8.5178 1.1229 8.03107 1.49099 7.54434L 1.73639 7.17929C 0.632139 6.44919 0.018661 5.23236 0.141356 3.89385C 0.018661 2.79871 0.50944 1.70356 1.3683 0.973463C 2.34986 0.365049 3.4541 -1.16046e-07 4.55836 -1.16046e-07C 5.17183 -1.16046e-07 5.78531 0.121683 6.52148 0.243366L 6.88957 0.243366L 10.325 0.121683L 10.325 2.06861L 8.4846 1.94693C 8.85269 2.43366 9.09808 3.04207 9.09808 3.77217C 9.22077 4.86731 8.85268 5.96246 7.99381 6.69256C 7.01225 7.30097 5.7853 7.66602 4.55836 7.54434C 4.19027 7.54434 3.9449 7.54434 3.57681 7.42265C 3.45412 7.7877 3.33141 8.15275 3.33141 8.5178C 3.33141 8.76117 3.45411 9.00453 3.6995 9.12621C 4.31297 9.2479 5.04915 9.36958 5.66262 9.2479C 6.88957 9.12621 8.11651 9.36958 9.22076 9.97799C 9.95693 10.8298 10.325 11.6816 10.2023 12.655ZM 2.34987 12.8984C 2.34987 13.3851 2.59525 13.7502 2.96334 13.9935C 3.57681 14.2369 4.31298 14.3586 5.04915 14.3586C 6.76687 14.3586 7.74843 13.8718 7.74843 12.8984C 7.74843 12.29 7.62574 11.9249 7.25766 11.8032C 6.64418 11.5599 6.03071 11.5599 5.41723 11.5599L 3.20872 11.4382C 2.96334 11.6816 2.71794 11.9249 2.47255 12.1683C 2.47255 12.29 2.34987 12.655 2.34987 12.8984ZM 3.08602 5.23236C 3.5768 5.59741 4.06758 5.71909 4.68106 5.71909C 5.29453 5.71909 5.78531 5.59741 6.27609 5.23236C 6.88957 4.38058 6.88957 3.16375 6.27609 2.31197C 5.78531 1.94693 5.29453 1.82524 4.68106 1.82524C 3.6995 1.70356 2.84064 2.31197 2.59525 3.28544C 2.59525 3.40712 2.59525 3.65049 2.59525 3.77217C 2.47256 4.38058 2.71794 4.86731 3.08602 5.23236Z"/>
<path id="path2_fill" d="M 8.48894 9.2479L 9.10242 9.12621L 9.10242 10.9515C 7.63008 11.3165 6.15774 11.4382 4.6854 11.4382C 3.33576 11.5599 2.10882 11.0731 1.12726 10.0997C 0.268395 8.88285 -0.099682 7.30097 0.0230128 5.84078C 0.0230128 1.94693 1.61804 -1.16046e-07 4.8081 -1.16046e-07C 7.99816 -1.16046e-07 9.5932 1.70356 9.47051 4.989L 9.3478 6.69256L 2.59959 6.69256C 2.59959 7.42265 2.72229 8.15275 3.21307 8.63948C 3.82654 9.12621 4.5627 9.36958 5.29887 9.2479C 6.28043 9.36958 7.38469 9.2479 8.48894 9.2479ZM 7.13929 4.86731C 7.26199 4.01553 7.01661 3.28544 6.64852 2.55534C 6.15774 2.06861 5.54428 1.82524 4.9308 1.94693C 4.31733 1.94693 3.58116 2.19029 3.09038 2.67702C 2.5996 3.28544 2.47691 4.13722 2.47691 4.86731L 7.13929 4.86731L 7.13929 4.86731Z"/>
<path id="path3_fill" d="M 2.45389 11.2133L -3.74435e-06 11.2133L -3.74435e-06 0.261869L 2.33121 0.261869L 2.33121 0.991966C 3.19007 0.383552 4.29432 0.140186 5.39858 0.0185033C 6.50283 -0.10318 7.72977 0.383552 8.34324 1.23533C 8.95672 2.45216 9.2021 3.91235 9.2021 5.37255L 9.2021 11.2133L 6.87091 11.2133L 6.87091 5.37255C 6.87091 4.52077 6.74821 3.66899 6.50282 2.81721C 6.13474 2.33048 5.52126 1.96543 4.90779 2.08711C 4.17162 2.08711 3.43545 2.20879 2.69928 2.57384L 2.33121 2.69553L 2.33121 11.2133L 2.45389 11.2133Z"/>
<path id="path4_fill" d="M 7.48869e-06 2.06861L 7.48869e-06 -5.80229e-08L 8.22055 -5.80229e-08L 8.22055 2.19029L 2.94467 8.88285L 8.22055 8.88285L 8.22055 10.9515L 7.48869e-06 10.9515L 7.48869e-06 8.76116L 5.27587 2.06861L 7.48869e-06 2.06861Z"/>
<path id="path5_fill" d="M -3.74435e-06 2.43366L -3.74435e-06 3.62643e-09L 2.45389 3.62643e-09L 2.45389 2.55534L -3.74435e-06 2.55534L -3.74435e-06 2.43366ZM -3.74435e-06 15.332L -3.74435e-06 4.38058L 2.45389 4.38058L 2.45389 15.332L -3.74435e-06 15.332Z"/>
<path id="path6_fill" d="M 8.98022 3.6738L 8.98022 8.6628C 8.98022 8.90616 9.10291 9.14953 9.22561 9.39289C 9.471 9.51458 9.71639 9.63626 9.96178 9.63626L 9.83908 11.4615C 8.85752 11.5832 7.75328 11.2181 6.89442 10.6097C 5.79016 11.0965 4.56322 11.4615 3.33627 11.4615C 1.12777 11.4615 0.023501 10.3664 0.023501 7.9327C -0.0991937 7.08092 0.268906 6.10746 0.882379 5.49904C 1.74124 4.89063 2.6001 4.64726 3.58166 4.64726L 6.40364 4.4039L 6.40364 3.6738C 6.52634 2.9437 6.15825 2.21361 5.42208 2.09192C 5.29939 2.09192 5.05399 2.09192 4.93129 2.09192C 3.94973 2.09192 2.84549 2.09192 1.37315 2.21361L 0.636975 2.21361L 0.759677 0.631729C 2.23201 0.26668 3.70436 0.0233146 5.1767 0.0233146C 6.28095 -0.0983682 7.2625 0.26668 8.12136 0.875094C 8.85753 1.72687 9.10292 2.70034 8.98022 3.6738ZM 4.07243 6.47251C 3.21357 6.47251 2.6001 7.08092 2.6001 7.9327C 2.6001 8.05438 2.6001 8.05438 2.6001 8.17607C 2.6001 9.14953 3.09089 9.63626 3.94975 9.63626C 4.68592 9.63626 5.54477 9.51458 6.28094 9.27121L 6.64903 9.14953L 6.64903 6.22914L 4.07243 6.47251Z"/>
<path id="path7_fill" d="M 7.48869e-06 15.8371L 7.48869e-06 0.261742L 2.4539 0.261742L 2.4539 0.991839C 3.31277 0.383425 4.29431 0.140059 5.27587 0.0183759C 6.50282 -0.103307 7.72977 0.383424 8.46594 1.35689C 9.20211 2.6954 9.5702 4.27728 9.4475 5.85915C 9.5702 7.44103 9.2021 9.02291 8.34324 10.2397C 7.36168 11.2132 5.88935 11.5782 4.53971 11.4566C 3.80354 11.4566 3.19007 11.3349 2.4539 11.2132L 2.4539 15.8371L 7.48869e-06 15.8371ZM 4.9078 2.08698C 4.17163 2.08698 3.43545 2.20867 2.82197 2.57372L 2.4539 2.6954L 2.4539 9.14459C 3.06738 9.26627 3.80353 9.38795 4.41701 9.26627C 5.15318 9.38795 6.01204 9.02291 6.50282 8.41449C 6.99359 7.56271 7.11629 6.46757 7.11629 5.4941C 7.11629 3.30381 6.25744 2.08698 4.9078 2.08698Z"/>
<path id="path8_fill" d="M 8.48894 9.2479L 9.10241 9.12621L 9.10241 10.9515C 7.63008 11.3165 6.15775 11.4382 4.68541 11.4382C 3.33577 11.5599 2.10881 11.0731 1.12725 10.0997C 0.268391 8.88285 -0.0996858 7.30097 0.023009 5.84078C 0.023009 1.94693 1.61803 -1.16046e-07 4.8081 -1.16046e-07C 7.99816 -1.16046e-07 9.5932 1.70356 9.4705 4.989L 9.3478 6.69256L 2.4769 6.69256C 2.4769 7.42265 2.5996 8.15275 3.09038 8.63948C 3.70385 9.12621 4.44002 9.36958 5.29889 9.2479C 6.28045 9.36958 7.38469 9.2479 8.48894 9.2479ZM 7.13931 4.86731C 7.262 4.01553 7.0166 3.28544 6.64852 2.55534C 6.15774 2.06861 5.54427 1.82524 4.9308 1.94693C 4.31733 1.94693 3.58116 2.19029 3.09038 2.67702C 2.5996 3.28544 2.4769 4.13722 2.4769 4.86731L 7.13931 4.86731L 7.13931 4.86731Z"/>
<path id="path9_fill" d="M 0 11.1948L 0 0.243366L 2.33119 0.243366L 2.33119 1.58188C 3.43545 0.85178 4.7851 0.243366 6.13474 -1.16046e-07L 6.13474 2.43366C 5.03049 2.67702 3.92622 2.92039 2.94467 3.40712L 2.4539 3.65049L 2.4539 11.1948L 0 11.1948Z"/>
<path id="path10_fill" d="M 7.48869e-06 15.5754L 7.48869e-06 4.64183e-07L 2.4539 4.64183e-07L 2.4539 15.4537L 7.48869e-06 15.5754Z"/>
<path id="path11_fill" d="M -3.74435e-06 5.11068L 0.981558 0L 3.55816 0L 1.96312 5.11068L -3.74435e-06 5.11068Z"/>
<path id="path12_fill" d="M 7.48869e-06 15.0887L 7.48869e-06 0L 2.4539 0L 2.4539 14.967L 7.48869e-06 14.967L 7.48869e-06 15.0887Z"/>
<path id="path13_fill" d="M 6.74821 5.11068L 3.68084 5.11068L 3.68084 9.97799C 3.68084 10.5864 3.68084 11.1948 3.92623 11.8032C 4.04892 12.0466 4.41701 12.29 4.90779 12.29L 6.74821 12.29L 6.87091 14.2369C 6.13475 14.3586 5.39857 14.4803 4.6624 14.4803C 3.68085 14.6019 2.82198 14.2369 2.08581 13.6285C 1.47233 12.655 1.22696 11.5599 1.34965 10.4647L 1.34965 5.35405L 0 5.35405L 0 3.28544L 1.34965 3.28544L 1.34965 -9.28366e-07L 3.68084 -9.28366e-07L 3.68084 3.16375L 6.74821 3.16375L 6.74821 5.11068Z"/>
<path id="path14_fill" d="M 8.98023 3.79548L 8.98023 8.78448C 8.98023 9.02785 9.10292 9.27121 9.22562 9.51458C 9.47101 9.63626 9.7164 9.75794 9.96179 9.75794L 9.83909 11.5832C 8.73484 11.7049 7.75329 11.3398 6.89442 10.7314C 5.79017 11.2181 4.56321 11.5832 3.33626 11.5832C 1.12776 11.5832 0.0235085 10.3664 0.0235085 8.05438C -0.0991862 7.2026 0.268894 6.22914 0.882368 5.62073C 1.74123 5.01231 2.60009 4.76895 3.58165 4.76895L 6.40363 4.52558L 6.40363 3.79548C 6.52633 3.06539 6.03556 2.33529 5.29939 2.2136C 5.17669 2.2136 4.93129 2.2136 4.8086 2.2136C 3.82704 2.2136 2.72279 2.33529 1.25046 2.33529L 0.51428 2.33529L 0.391597 0.631729C 1.86393 0.26668 3.33626 0.0233146 4.8086 0.0233146C 5.91285 -0.0983682 6.89442 0.266681 7.75328 0.875095C 8.73484 1.84856 9.10292 2.82202 8.98023 3.79548ZM 4.07244 6.59419C 3.21358 6.59419 2.60011 7.2026 2.60011 8.05438C 2.60011 8.17607 2.60011 8.17606 2.60011 8.29775C 2.60011 9.27121 3.09087 9.75794 3.94974 9.75794C 4.68591 9.75794 5.54478 9.63626 6.28095 9.39289L 6.64902 9.27121L 6.64902 6.35082L 4.07244 6.59419Z"/>
<path id="path15_fill" d="M 3.74435e-06 15.5754L 3.74435e-06 4.64183e-07L 2.4539 4.64183e-07L 2.4539 15.4537L 3.74435e-06 15.5754Z"/>
<path id="path16_fill" d="M 3.74435e-06 2.55534L 3.74435e-06 9.28366e-07L 2.4539 9.28366e-07L 2.4539 2.55534L 3.74435e-06 2.55534ZM 3.74435e-06 15.4537L 3.74435e-06 4.50226L 2.4539 4.50226L 2.4539 15.4537L 3.74435e-06 15.4537Z"/>
<path id="path17_fill" d="M 8.98023 3.79548L 8.98023 8.78448C 8.98023 9.02785 9.10292 9.27121 9.22562 9.51458C 9.47101 9.63626 9.7164 9.75794 9.96179 9.75794L 9.83909 11.5832C 8.85753 11.7049 7.75329 11.3398 6.89442 10.7314C 5.79017 11.2181 4.56321 11.5832 3.33626 11.5832C 1.12776 11.5832 0.0235085 10.3664 0.0235085 8.05438C -0.0991862 7.2026 0.268894 6.22914 0.882368 5.62073C 1.74123 5.01231 2.60009 4.76895 3.58165 4.76895L 6.40363 4.52558L 6.40363 3.79548C 6.52633 3.06539 6.15824 2.33529 5.42207 2.2136C 5.29938 2.2136 5.05399 2.2136 4.9313 2.2136C 3.94974 2.2136 2.8455 2.33529 1.37316 2.33529L 0.636982 2.33529L 0.51428 0.631729C 1.98662 0.26668 3.45896 0.0233146 4.9313 0.0233146C 6.03555 -0.0983682 7.0171 0.266681 7.87597 0.875095C 8.73483 1.84856 9.10292 2.82202 8.98023 3.79548ZM 4.07244 6.59419C 3.21358 6.59419 2.6001 7.2026 2.4774 8.05438C 2.4774 8.17607 2.4774 8.17606 2.4774 8.29775C 2.4774 9.27121 2.96819 9.75794 3.82705 9.75794C 4.56322 9.75794 5.42208 9.63626 6.15825 9.39289L 6.52633 9.27121L 6.52633 6.35082L 4.07244 6.59419Z"/>
<path id="path18_fill" d="M 5.15318 15.0887L 0 15.0887L 0 0L 5.27588 0C 7.60708 0 9.2021 0.608414 10.061 1.70356C 11.0425 3.40712 11.4106 5.23236 11.2879 7.17929C 11.2879 8.27443 11.1652 9.36958 11.0425 10.343C 10.9198 11.1948 10.5518 12.0466 10.1837 12.7767C 9.20211 14.3586 7.60707 15.0887 5.15318 15.0887ZM 8.71134 7.30097C 8.83403 5.96246 8.58863 4.62395 7.97516 3.40712C 7.36169 2.55534 6.25743 2.06861 5.15318 2.19029L 2.4539 2.19029L 2.4539 12.8984L 5.27588 12.8984C 6.50283 13.0201 7.60707 12.4116 8.22055 11.3165C 8.46593 10.7081 8.58864 10.2214 8.71134 9.61294C 8.71134 8.88285 8.71134 8.03107 8.71134 7.30097Z"/>
<path id="path19_fill" d="M -3.74435e-06 2.55534L -3.74435e-06 9.28366e-07L 2.45389 9.28366e-07L 2.45389 2.55534L -3.74435e-06 2.55534ZM -3.74435e-06 15.4537L -3.74435e-06 4.50226L 2.45389 4.50226L 2.45389 15.4537L -3.74435e-06 15.4537Z"/>
<path id="path20_fill" d="M 10.2023 12.655C 10.2023 15.0887 8.48459 16.3055 4.92644 16.3055C 3.6995 16.4272 2.34985 16.1838 1.2456 15.5754C 0.386738 15.0887 -0.104041 14.1152 0.0186535 13.1417C 0.0186535 12.655 0.141352 12.1683 0.386742 11.8032C 0.754826 11.3165 1.12291 10.9515 1.61369 10.5864C 1.12291 10.2214 0.877513 9.61294 0.877513 9.00453C 1.00021 8.5178 1.1229 8.03107 1.49099 7.54434L 1.73639 7.17929C 0.632139 6.44919 0.018661 5.23236 0.141356 3.89385C 0.018661 2.7987 0.50944 1.70356 1.3683 0.973463C 2.34986 0.365049 3.4541 9.28366e-07 4.55836 9.28366e-07C 5.17183 9.28366e-07 5.90801 0.121682 6.52148 0.243365L 6.88957 0.243365L 10.325 0.121682L 10.325 2.19029L 8.4846 2.06861C 8.85269 2.55534 9.09808 3.16375 9.09808 3.89385C 9.22077 4.989 8.85268 6.08414 7.99381 6.81424C 7.01225 7.42265 5.7853 7.7877 4.55836 7.66602C 4.19027 7.66602 3.9449 7.66602 3.57681 7.54434C 3.45412 7.90938 3.33142 8.27443 3.20872 8.63948C 3.20872 8.88285 3.33142 9.12621 3.57681 9.2479C 4.19029 9.36958 4.92644 9.49126 5.53992 9.36958C 6.76687 9.2479 7.99382 9.49126 9.09808 10.0997C 9.95694 10.8298 10.2023 11.6816 10.2023 12.655ZM 2.34987 12.8984C 2.34987 13.3851 2.59525 13.7502 2.96334 13.9935C 3.57681 14.2369 4.31298 14.3586 5.04915 14.3586C 6.88957 14.3586 7.74843 13.8718 7.74843 12.8984C 7.74843 12.29 7.62574 11.9249 7.25766 11.8032C 6.64418 11.5599 6.03071 11.5599 5.41723 11.5599L 3.20872 11.4382C 2.96334 11.6816 2.71794 11.9249 2.47255 12.1683C 2.34985 12.29 2.34987 12.655 2.34987 12.8984ZM 2.96334 5.23236C 3.45412 5.59741 3.94488 5.71909 4.55836 5.71909C 5.17183 5.71909 5.66261 5.59741 6.15339 5.23236C 6.52148 4.86731 6.64418 4.2589 6.64418 3.77217C 6.64418 3.28544 6.52148 2.67702 6.15339 2.31197C 5.66261 1.94693 5.17183 1.82524 4.55836 1.82524C 3.5768 1.70356 2.71795 2.31197 2.59525 3.28544C 2.59525 3.40712 2.59525 3.65048 2.59525 3.77217C 2.47256 4.38058 2.59525 4.86731 2.96334 5.23236Z"/>
<path id="path21_fill" d="M 7.48869e-06 2.55534L 7.48869e-06 9.28366e-07L 2.4539 9.28366e-07L 2.4539 2.55534L 7.48869e-06 2.55534ZM 7.48869e-06 15.4537L 7.48869e-06 4.50226L 2.4539 4.50226L 2.4539 15.4537L 7.48869e-06 15.4537Z"/>
<path id="path22_fill" d="M 6.74821 5.11068L 3.68084 5.11068L 3.68084 9.97799C 3.68084 10.5864 3.68084 11.1948 3.92622 11.8032C 4.04892 12.0466 4.41701 12.29 4.90779 12.29L 6.74821 12.29L 6.87091 14.2369C 6.13474 14.3586 5.39857 14.4803 4.6624 14.4803C 3.68084 14.6019 2.82197 14.2369 2.0858 13.6285C 1.47233 12.655 1.22695 11.5599 1.34965 10.4647L 1.34965 5.35405L -3.74435e-06 5.35405L -3.74435e-06 3.28544L 1.34965 3.28544L 1.34965 -9.28366e-07L 3.68084 -9.28366e-07L 3.68084 3.16375L 6.74821 3.16375L 6.74821 5.11068Z"/>
<path id="path23_fill" d="M 8.98023 3.79548L 8.98023 8.78448C 8.98023 9.02785 9.10292 9.27121 9.22561 9.51458C 9.471 9.63626 9.7164 9.75794 9.96179 9.75794L 9.83909 11.5832C 8.73483 11.7049 7.75328 11.3398 6.89442 10.7314C 5.79017 11.2181 4.56321 11.5832 3.33626 11.5832C 1.12775 11.5832 0.0235048 10.3664 0.0235048 8.05438C -0.09919 7.2026 0.268891 6.22914 0.882364 5.62073C 1.74123 5.01231 2.60011 4.76895 3.58166 4.76895L 6.40363 4.52558L 6.40363 3.79548C 6.52632 3.06539 6.03555 2.33529 5.29938 2.2136C 5.17669 2.2136 4.93131 2.2136 4.80861 2.2136C 3.82705 2.2136 2.72279 2.33529 1.25045 2.33529L 0.514295 2.33529L 0.391593 0.631729C 1.86393 0.26668 3.33627 0.0233146 4.80861 0.0233146C 5.91286 -0.0983682 6.89441 0.266681 7.75328 0.875095C 8.73484 1.84856 9.10292 2.82202 8.98023 3.79548ZM 4.07244 6.59419C 3.21357 6.59419 2.6001 7.2026 2.6001 8.05438C 2.6001 8.17607 2.6001 8.17606 2.6001 8.29775C 2.6001 9.27121 3.09087 9.75794 3.94973 9.75794C 4.6859 9.75794 5.54478 9.63626 6.28094 9.39289L 6.64903 9.27121L 6.64903 6.35082L 4.07244 6.59419Z"/>
<path id="path24_fill" d="M 8.48894 9.2479L 9.10241 9.12621L 9.10241 10.9515C 7.63007 11.3165 6.15773 11.4382 4.68539 11.4382C 3.33575 11.5599 2.10881 11.0731 1.12725 10.0997C 0.268387 8.88285 -0.0996895 7.30097 0.0230053 5.84078C 0.0230053 1.94693 1.61803 9.28366e-07 4.80809 9.28366e-07C 7.87546 9.28366e-07 9.47052 1.70356 9.47052 4.989L 9.34781 6.69256L 2.4769 6.69256C 2.4769 7.42265 2.5996 8.15275 3.09037 8.63948C 3.70385 9.12621 4.44 9.36958 5.29887 9.2479C 6.28042 9.36958 7.38468 9.2479 8.48894 9.2479ZM 7.13929 4.86731C 7.26198 4.01554 7.0166 3.28544 6.64852 2.55534C 6.15774 2.06861 5.54427 1.82524 4.9308 1.94692C 4.31732 1.94692 3.58115 2.19029 3.09037 2.67702C 2.5996 3.28544 2.4769 4.13722 2.4769 4.86731L 7.13929 4.86731L 7.13929 4.86731Z"/>
<path id="path25_fill" d="M -9.36087e-07 41.3722L 9.4475 2.90115e-08L 25.5205 2.90115e-08L 34.968 41.3722L 26.5021 41.3722L 24.907 33.9495L 10.1837 33.9495L 8.46594 41.3722L -9.36087e-07 41.3722ZM 15.9503 6.93592L 11.656 26.5269L 23.0666 26.5269L 19.0177 6.93592L 15.9503 6.93592Z"/>
<path id="path26_fill" d="M 19.1404 27.257L 19.1404 19.956L 31.2872 19.956L 31.2872 41.3722C 26.6248 42.2239 21.8397 42.7107 17.0546 42.8324C 10.5517 42.8324 6.01205 41.1288 3.68085 37.7217C 1.34965 34.3146 0.122699 28.8388 3.74435e-06 21.2945C 3.74435e-06 13.7502 1.22695 8.39612 3.80354 4.989C 6.38013 1.58188 10.6744 0 16.8092 0C 20.9808 0 25.0297 0.365049 29.0787 1.21683L 31.2872 1.70356L 31.0418 8.27443C 26.9928 7.7877 23.0666 7.54434 19.0177 7.54434C 15.9503 7.54434 13.7418 7.90938 12.3922 8.63948C 10.9198 9.61294 9.93827 11.0731 9.57019 12.655C 8.83402 15.9405 8.58864 19.3476 8.71133 22.7547C 8.71133 27.5003 9.32481 30.9074 10.4291 32.7327C 11.5333 34.5579 14.1099 35.6531 17.7907 35.6531L 22.9439 35.288L 22.9439 27.257L 19.1404 27.257Z"/>
<path id="path27_fill" d="M 3.74435e-06 41.3722L 3.74435e-06 2.90115e-08L 8.46593 2.90115e-08L 8.46593 41.3722L 3.74435e-06 41.3722Z"/>
<path id="path28_fill" d="M 13.9872 41.395L -3.74435e-06 41.395L -3.74435e-06 0.0228156L 13.9872 0.0228156C 16.9319 -0.0988673 19.9992 0.266181 22.8212 1.11796C 25.0297 1.72638 26.8701 3.06489 28.2198 4.89013C 29.5694 6.71537 30.4283 8.78398 30.9191 10.9743C 31.4099 14.0163 31.6552 17.0584 31.6552 20.1005C 31.6552 23.2642 31.5325 26.3063 30.9191 29.3484C 30.551 31.6604 29.6921 33.9723 28.3425 35.9193C 27.1155 37.8662 25.1524 39.3264 22.9439 40.0565C 20.1219 41.0299 17.0546 41.5167 13.9872 41.395ZM 22.8212 24.9678C 22.9439 23.6293 22.9439 21.9257 22.9439 19.6138C 22.9439 17.7885 22.9439 15.9633 22.6985 14.138C 22.5758 12.7995 22.2078 11.5827 21.5943 10.3659C 20.9808 9.27071 19.9993 8.41893 18.895 8.05388C 17.3 7.56715 15.7049 7.32379 13.9872 7.44547L 8.34324 7.44547L 8.34324 34.2157L 13.9872 34.2157C 17.0546 34.2157 19.2631 33.4856 20.6127 31.9037C 21.8397 30.5652 22.5758 28.2532 22.8212 24.9678Z"/>
<path id="path29_fill" d="M 0.368084 9.28366e-07C 0.613474 9.28366e-07 0.858862 0.121682 0.736168 0.243365C 0.613473 0.365048 0.613474 0.608413 0.49078 0.730096C 0.24539 0.730096 0.122696 0.608414 9.36087e-07 0.365049C 9.36087e-07 0.121683 0.122695 9.28366e-07 0.368084 9.28366e-07Z"/>
<path id="path30_fill" d="M 0.490779 0.534468C 0.736168 0.656151 0.858863 0.656151 1.10425 0.534468L 0.858863 0.291103L 0.490779 0.0477368C 0.245389 -0.0739461 0.122695 0.0477377 2.34022e-07 0.291103L 0.490779 0.534468Z"/>
<path id="path31_fill" d="M -9.36087e-07 9.28366e-07C -9.36087e-07 0.121684 -4.66215e-07 0.243368 0.122694 0.243368C 0.245389 0.36505 0.368085 0.365049 0.49078 0.365049L -9.36087e-07 9.28366e-07Z"/>
<path id="path32_fill" d="M 36.563 19.3476C 36.6857 18.6175 36.563 18.1307 36.3176 17.8874C 36.0723 17.644 35.7042 17.7657 35.2134 18.1307C 34.968 18.0091 34.5999 18.1307 34.2318 18.4958C 34.3545 18.3741 34.3545 18.1307 34.2318 18.0091C 34.5999 17.8874 34.8453 17.7657 34.968 17.4006C 35.0907 17.0356 35.2134 16.7922 35.0907 16.4272C 35.2134 15.9405 35.5815 15.4537 35.8269 14.967C 36.195 14.2369 35.9496 13.9935 35.2134 14.2369C 35.5815 13.8718 35.8269 13.5068 35.8269 13.2634C 35.8269 12.8984 35.7042 12.5333 35.4588 12.29C 35.3361 12.0466 35.2134 12.0466 34.968 12.1683C 35.0907 12.0466 35.0907 11.8032 35.0907 11.6816C 34.968 11.1948 34.8453 10.8298 34.7226 10.343C 34.7226 9.49126 34.4772 9.12621 34.1091 9.2479C 34.1091 8.76117 33.8638 8.39612 33.6184 7.90939C 33.2503 7.42265 33.0049 7.17929 32.7595 7.54434C 32.146 6.69256 31.6552 6.32751 31.1645 6.44919C 31.1645 6.08414 31.0418 5.71909 30.7964 5.47573C 30.9191 4.86731 30.6737 4.50227 30.4283 4.13722C 30.1829 4.01553 29.9375 4.13722 29.8148 4.62395C 29.8148 4.2589 29.6921 3.89385 29.5694 3.65049C 29.4467 3.28544 29.2014 3.04207 28.8333 3.04207C 28.7106 3.04207 28.5879 3.04207 28.4652 3.04207C 28.3425 2.92039 28.0971 2.79871 27.8517 2.79871C 27.3609 2.31197 26.8702 2.19029 26.5021 2.67702L 26.5021 2.19029C 26.3794 1.70356 26.0113 1.58188 25.6432 1.82524C 25.1524 1.33851 24.539 0.85178 23.8028 0.486731C 23.4347 0.365049 23.0666 0.365049 22.9439 0.608414C 22.6985 0.365049 22.4531 0.243366 22.2078 0.243366C 21.9624 0.243366 21.717 0.121683 21.4716 1.45057e-08C 21.1035 1.45057e-08 20.9808 0.121683 20.9808 0.608414C 20.6127 0.608414 20.2446 0.730097 19.8766 0.85178C 19.6312 0.973463 19.6312 1.21683 19.7539 1.46019C 19.8766 1.70356 20.1219 1.94693 20.3673 2.19029C 20.2446 2.31197 20.2446 2.43366 20.2446 2.67702C 20.2446 2.92039 20.49 3.04207 20.9808 3.16375C 21.3489 3.28544 21.5943 3.28544 21.9624 3.16375C 21.8397 3.40712 21.9624 3.65049 22.2078 3.77217L 22.3304 3.77217C 22.6985 4.2589 23.312 4.38058 23.9255 4.13722L 23.8028 4.62395L 24.6616 4.989C 24.6616 5.35405 24.907 5.71909 25.2751 5.84078L 25.7659 5.96246C 25.6432 5.96246 25.3978 6.20583 25.3978 6.20583C 25.2751 6.32751 25.2751 6.57087 25.3978 6.69256C 25.3978 6.69256 25.5205 6.81424 25.6432 6.81424C 26.0113 6.81424 26.3794 6.81424 26.7475 6.81424C 26.7475 6.93592 26.8702 7.0576 26.8702 7.17929C 26.9928 7.42265 27.1155 7.54434 27.3609 7.7877C 27.729 8.03107 27.9744 8.27443 28.4652 8.39612C 28.3425 8.63948 28.3425 8.76116 28.2198 9.00453C 28.0971 9.36958 28.0971 9.73463 28.2198 10.0997C 28.2198 10.0997 27.9744 10.2214 27.8517 10.343C 27.6063 10.7081 28.0971 11.3165 28.2198 11.5599C 28.0971 11.5599 27.9744 11.6816 27.9744 11.6816C 27.729 11.8032 27.8517 12.5333 28.4652 12.655C 28.8333 12.8984 29.2014 13.1417 29.5694 13.5068C 29.5694 13.5068 29.8148 13.8718 30.0602 14.2369C 30.3056 14.6019 30.3056 14.7236 30.6737 14.7236C 31.0418 15.8188 31.5326 16.7922 32.146 17.644C 32.5141 18.0091 32.7595 18.3741 32.8822 18.8608C 32.8822 19.1042 32.7595 19.3476 32.8822 19.5909C 32.8822 20.1994 32.6368 20.9295 32.5141 21.5379C 31.9006 21.2945 31.7779 21.6595 31.6552 22.0246C 31.6552 22.0246 31.4099 21.9029 31.2872 22.1463C 31.2872 21.9029 30.9191 21.6595 30.6737 21.7812C 30.551 21.9029 30.4283 21.9029 30.3056 22.0246C 30.3056 22.0246 30.1829 21.9029 30.1829 21.6595C 30.1829 21.4162 30.1829 21.1728 30.1829 20.9295C 30.3056 20.8078 30.3056 20.6861 30.4283 20.5644C 30.551 19.8343 30.551 19.1042 30.3056 18.4958C 30.3056 18.3741 30.1829 18.1307 29.9375 18.1307C 29.9375 18.1307 29.5694 18.1307 29.4467 18.3741C 29.4467 18.2524 29.2014 18.1307 29.0787 18.1307C 28.5879 18.0091 28.0971 18.8608 28.0971 19.8343C 27.729 19.5909 27.2382 19.7126 27.3609 20.0777C 27.4836 20.6861 28.4652 21.9029 28.4652 22.3896C 28.2198 22.1463 27.4836 22.1463 27.4836 22.7547C 27.4836 22.9981 27.6063 23.2414 27.729 23.4848C 27.6063 24.2149 28.3425 24.7016 29.0787 25.31C 29.0787 25.4317 29.0787 25.6751 29.2014 25.7968C 29.0787 26.0401 28.3425 27.1353 28.3425 27.1353C 28.3425 27.1353 27.729 26.8919 27.6063 27.0136C 27.4836 27.1353 27.3609 27.3786 27.2382 27.5003L 27.3609 28.3521C 27.3609 28.8388 27.2382 29.2039 26.8702 29.4473C 26.5021 29.8123 26.2567 30.1773 26.0113 30.5424C 25.8886 30.9074 25.5205 31.2725 25.1524 31.3942C 25.0297 31.2725 24.907 31.1508 24.7843 31.0291C 24.7843 31.0291 24.6616 30.9074 24.6616 31.0291C 23.6801 31.3942 22.6985 31.8809 21.717 32.4893C 21.2262 32.8544 20.8581 33.2194 20.6127 33.8278L 19.7539 33.8278C 19.5085 33.5845 19.2631 33.3411 19.0177 33.0977C 18.6496 32.9761 18.2815 32.9761 18.0361 33.2194C 17.5454 33.0977 17.0546 33.2194 16.6865 33.4628C 16.4411 33.5845 16.3184 33.5845 16.073 33.5845L 14.9688 32.3676C 13.8645 31.7592 12.5149 31.3942 11.2879 31.1508C 11.0425 31.2725 10.9198 31.5159 10.7971 31.6375C 10.4291 31.3942 10.061 31.1508 9.81558 30.7858L 9.20211 30.0557C 8.83402 29.6906 8.58863 29.0822 8.58863 28.5955L 8.71133 27.9871C 8.71133 27.8654 8.71133 27.7437 8.58863 27.7437C 8.46594 27.622 8.22055 27.5003 7.97516 27.5003C 7.97516 27.5003 7.85246 27.5003 7.72977 27.8654C 7.72977 27.9871 6.9936 26.8919 6.9936 26.8919C 7.36169 26.4052 7.60708 25.9184 7.72977 25.31C 7.85246 24.5799 7.97516 23.9715 8.09785 23.2414C 8.09785 23.2414 8.09785 23.1197 8.22055 23.1197C 8.71133 22.1463 8.95672 20.9295 8.83402 19.8343C 8.71133 19.5909 8.71133 19.4693 8.71133 19.4693L 8.58863 19.4693L 8.71133 19.2259C 8.83402 18.9825 8.83402 18.9825 8.71133 18.8608C 8.46594 18.8608 8.22055 18.8608 7.97516 18.9825C 7.85246 18.6175 7.72977 18.2524 7.60707 17.8874L 7.48438 17.8874C 6.87091 18.4958 6.50282 19.2259 6.38013 20.0777L 6.25743 20.1994C 5.39857 21.1728 4.90779 22.3896 4.53971 23.6065C 4.41701 23.3631 4.29432 22.9981 4.17162 22.7547C 4.04893 22.5113 4.04893 22.268 4.04893 22.0246C 4.17162 21.7812 4.17162 21.5379 3.92623 21.4162C 3.68084 20.8078 3.43545 20.1994 3.31276 19.4693C 3.43545 18.9825 3.55815 18.4958 3.68084 18.1307C 4.04893 17.4006 4.41701 16.5489 4.7851 15.8188C 4.7851 15.8188 5.03048 15.5754 5.15318 15.5754C 5.88935 15.332 9.3248 11.0731 8.95672 9.00453C 9.57019 8.03107 10.061 7.05761 10.5517 6.08414L 10.7971 6.08414L 11.0425 5.96246C 11.7787 5.71909 12.3922 5.35405 13.0056 5.11068L 13.8645 4.62395C 14.478 4.38058 15.0915 4.01553 15.5822 3.5288C 16.073 3.16375 16.4411 2.55534 16.5638 1.94693C 16.4411 1.70356 16.1957 1.70356 15.7049 1.70356C 15.9503 1.46019 16.073 1.09515 16.073 0.730097C 15.8276 0.486731 15.3368 0.486731 14.3553 0.608414C 13.3737 0.85178 12.5149 1.21683 11.656 1.82524C 10.1837 2.79871 8.95672 4.13722 8.22055 5.71909L 8.71133 4.74563C 8.95672 4.2589 9.20211 3.65049 9.4475 3.04207C 9.57019 2.79871 9.57019 2.55534 9.4475 2.31197C 9.3248 2.19029 9.20211 2.19029 8.95672 2.19029C 8.46594 2.43366 7.97516 2.67702 7.60707 3.04207C 6.87091 3.77217 6.25743 4.62395 5.88935 5.59741C 5.39857 6.32751 5.15318 7.05761 4.7851 7.90939C 4.90779 7.42265 4.90779 6.81424 4.7851 6.20583C 4.7851 6.08414 4.53971 5.96246 4.29432 6.08414C 4.04893 6.32751 3.80354 6.57087 3.68084 6.81424C 3.43545 7.17929 3.19006 7.42265 2.94467 7.7877C 2.69928 8.15275 2.4539 8.5178 2.20851 9.00453C 1.84042 9.61294 1.59503 10.2214 1.47234 10.9515C 1.22695 11.9249 0.981558 13.0201 0.981558 13.9935C 0.858863 14.8453 0.981558 15.6971 1.10425 16.5489C 1.22695 17.279 1.47234 17.8874 1.71773 18.6175C 1.84042 18.8608 2.08581 19.1042 2.4539 19.3476C 2.57659 19.7126 2.69928 20.1994 2.94467 20.9295C 3.06737 21.1728 3.06737 21.4162 3.06737 21.7812C 3.06737 21.9029 3.06737 22.0246 3.19006 22.1463C 3.31276 22.268 3.43545 22.3896 3.43545 22.633C 3.55815 23.3631 3.92623 23.9715 4.17162 24.5799C 4.17162 24.945 4.04893 25.1884 4.04893 25.5534C 3.31276 23.6065 2.82198 22.0246 2.3312 20.9295C 1.47234 19.1042 0.858863 18.2524 0.368084 18.3741C 0.24539 18.3741 0 18.6175 0 18.9825C 0 19.3476 0 19.5909 0 19.956C 0 20.5644 0.122695 21.0511 0.122695 21.6595C 0.490779 23.4848 1.22695 25.0667 2.3312 26.5269L 3.92623 28.3521C 4.29432 28.5955 4.6624 28.8388 4.90779 29.0822C 5.15318 29.2039 5.39857 29.3256 5.76665 29.2039C 6.13474 29.8123 6.62552 30.4207 7.1163 31.0291C 7.48438 31.5159 7.85246 31.8809 8.22055 31.7592C 8.34324 32.1243 8.58863 32.246 8.95672 32.246L 9.3248 32.246C 9.69289 32.611 10.061 32.9761 10.5517 33.3411L 10.1837 34.5579C 9.57019 34.6796 8.83402 34.6796 8.22055 34.6796C 7.60707 34.3146 6.87091 33.7062 5.76665 32.9761L 5.76665 31.6375C 5.76665 31.2725 5.76665 30.9074 6.01204 30.5424C 6.01204 30.299 5.88935 30.0557 5.64396 29.8123C 5.39857 29.5689 4.90779 29.4473 4.7851 29.5689C 4.6624 29.6906 4.7851 29.6906 4.7851 29.8123L 4.7851 30.0557C 4.7851 29.934 4.7851 29.934 4.90779 29.934C 5.52126 30.0557 5.76665 30.299 5.76665 30.5424C 5.52126 30.9074 5.52126 31.2725 5.52126 31.6375L 5.52126 32.7327C 4.7851 32.246 3.92623 31.7592 3.06737 31.3942C 3.19006 31.3942 3.31276 31.3942 3.43545 31.3942C 3.55815 31.3942 3.68084 31.3942 3.68084 31.2725C 3.68084 31.1508 3.68084 31.1508 3.43545 31.1508C 3.19006 31.1508 2.82198 31.1508 2.57659 31.2725C 2.4539 31.3942 2.4539 31.5159 2.57659 31.6375C 3.55815 32.1243 4.41701 32.611 5.39857 33.2194C 6.74821 33.9495 7.60708 34.6796 8.34324 35.1663C 9.07941 35.1663 9.93828 35.0447 11.1652 34.923L 13.0056 34.5579C 13.7418 34.4362 14.6007 34.3146 15.4595 34.1929C 15.8276 34.0712 16.1957 34.0712 16.5638 34.0712C 17.0546 34.0712 17.4227 34.0712 17.9134 33.9495C 18.2815 34.5579 18.5269 35.1663 18.6496 35.7748C 18.6496 36.0181 18.6496 36.2615 18.5269 36.2615C 17.3 36.7482 16.073 37.1133 14.8461 37.4783L 12.7603 37.9651C 11.2879 38.2084 9.69289 38.4518 8.22055 38.5735C 7.1163 38.0867 6.01204 37.4783 4.90779 36.8699C 3.92623 36.3832 3.06737 35.6531 2.20851 35.0447C 1.34964 34.4362 1.22695 34.0712 1.22695 33.9495C 1.59503 33.4628 1.84042 32.8544 1.96312 32.246C 1.96312 32.1243 1.96312 31.8809 1.96312 31.7592C 1.84042 31.2725 1.96312 31.0291 2.3312 31.0291C 2.94467 31.0291 3.68084 31.0291 4.29432 31.0291C 4.41701 31.0291 4.53971 31.0291 4.53971 30.9074L 4.90779 30.299L 4.6624 30.1773L 4.41701 30.6641L 4.41701 30.7858L 2.3312 30.7858C 2.08581 30.7858 1.96312 30.9074 1.84042 31.0291C 1.71773 31.2725 1.71773 31.6375 1.84042 31.8809C 1.84042 32.0026 1.84042 32.1243 1.84042 32.246C 1.59503 32.8544 1.34964 33.4628 0.981558 33.9495C 0.981558 34.0712 0.981558 34.1929 1.10425 34.4362C 1.34964 34.8013 1.59503 35.1663 1.96312 35.4097C 2.20851 35.6531 2.57659 35.8964 2.82198 36.1398C 3.19006 36.3832 3.92623 36.8699 4.90779 37.3566C 6.01204 37.9651 7.1163 38.5735 8.22055 39.0602C 8.46594 39.0602 9.93828 38.8168 12.6376 38.4518L 12.6376 38.6951C 11.9014 39.3036 11.4106 39.5469 11.1652 39.4252C 10.9198 39.3036 10.7971 39.6686 10.9198 40.1553C 11.0425 40.3987 11.1652 40.5204 11.4106 40.5204L 11.656 40.7638L 12.3922 41.2505C 12.6376 41.3722 13.0056 41.3722 13.251 41.2505C 13.4964 41.1288 13.7418 40.8854 13.7418 40.6421L 13.8645 40.5204L 14.7234 39.6686L 15.3368 39.1819C 15.7049 39.1819 16.073 38.9385 16.3184 38.6951C 16.3184 38.4518 16.4411 38.3301 16.5638 38.2084L 17.3 37.7217C 17.3 37.6 17.668 37.7217 18.2815 38.0867C 18.5269 38.2084 18.7723 38.2084 19.0177 38.0867L 19.6312 37.7217C 20.6127 38.2084 21.5943 38.8168 22.3304 39.6686C 22.3304 39.7903 22.3304 39.912 22.5758 40.1553C 22.8212 40.3987 23.0666 40.5204 23.4347 40.5204L 23.6801 41.1288L 23.9255 41.2505C 24.4163 41.2505 24.7843 41.1288 25.1524 40.7638L 25.6432 40.6421C 25.8886 40.5204 26.0113 40.277 26.0113 40.0337L 25.7659 39.912L 25.3978 39.7903C 24.7843 39.5469 24.2936 39.1819 23.8028 38.8168L 23.4347 38.5735C 25.0297 38.8168 26.9928 39.0602 29.324 39.1819C 29.8148 39.1819 30.1829 39.0602 30.551 38.6951C 31.0418 38.3301 32.5141 37.235 34.968 35.5314C 35.3361 35.1663 35.5815 34.6796 35.8269 34.1929C 35.5815 33.9495 35.3361 33.7062 35.2134 33.3411C 35.0907 32.9761 34.968 32.7327 34.968 32.3676C 34.968 32.1243 34.968 31.8809 34.968 31.7592C 34.968 31.5159 34.968 31.3942 34.7226 31.2725C 34.5999 31.1508 34.3545 31.0291 34.2318 31.0291C 33.7411 31.0291 33.1276 31.0291 32.6368 31.0291C 32.3914 31.0291 32.146 30.9074 32.146 30.7858L 32.146 30.0557C 32.146 29.8123 32.146 29.6906 31.9006 29.8123C 31.5326 29.934 31.0418 30.0557 30.6737 30.299C 30.551 30.4207 30.4283 30.6641 30.6737 30.9074C 30.7964 31.0291 30.9191 31.1508 30.9191 31.3942C 30.9191 32.0026 30.7964 32.7327 30.6737 33.3411C 30.0602 33.9495 29.324 34.4362 28.4652 34.923C 27.729 35.0447 27.1155 34.923 26.3794 34.8013C 26.134 34.5579 25.8886 34.1929 25.8886 33.7062C 26.2567 33.4628 26.6248 33.2194 27.1155 32.9761L 27.8517 32.8544C 28.0971 32.8544 28.0971 32.611 28.0971 32.3676C 28.3425 32.246 28.4652 32.1243 28.4652 31.8809L 29.6921 30.4207C 30.0602 30.0557 30.551 29.934 31.0418 29.8123C 31.9006 29.6906 32.6368 29.3256 33.373 28.8388C 33.4957 28.5955 33.4957 28.3521 33.373 28.2304C 33.8638 27.8654 34.3545 27.3786 34.7226 26.8919C 34.968 26.5269 35.0907 26.0401 34.8453 25.6751C 35.3361 25.1884 35.7042 24.5799 35.8269 23.9715C 35.9496 23.6065 35.9496 23.1197 35.8269 22.7547C 36.0723 22.633 36.195 22.5113 36.4403 22.268C 36.6857 21.9029 36.6857 21.5379 36.3176 21.1728C 36.8084 20.5644 36.8084 19.8343 36.563 19.3476ZM 16.1957 1.94693C 16.1957 2.31197 15.9503 2.67702 15.7049 2.92039C 15.0915 3.40712 14.478 3.89385 13.7418 4.2589C 13.0056 4.50227 12.0241 4.989 10.9198 5.59741L 10.9198 5.47573C 12.1468 4.50227 13.4964 3.5288 14.9688 2.79871C 15.3368 2.55534 15.2142 2.55534 14.8461 2.67702C 14.478 2.79871 13.8645 3.16375 13.3737 3.5288L 10.6744 5.11068L 10.6744 4.86731C 11.9014 3.77217 13.251 2.79871 14.8461 2.06861C 15.3368 1.82524 15.8276 1.82524 16.1957 1.94693ZM 11.2879 2.43366C 12.1468 1.70356 13.1283 1.21683 14.1099 0.973463C 14.6007 0.85178 14.9688 0.730097 15.4595 0.730097C 15.7049 0.730097 15.7049 0.85178 15.5822 1.09515L 15.0915 1.70356C 14.478 1.82524 13.8645 2.06861 13.3737 2.43366C 12.5149 2.92039 11.7787 3.5288 10.9198 4.13722L 10.7971 4.2589C 10.6744 4.2589 10.4291 4.2589 9.93828 4.50227C 11.0425 3.5288 12.1468 2.67702 13.3737 1.94693C 13.7418 1.82524 14.1099 1.58188 14.478 1.33851C 13.9872 1.46019 13.4964 1.70356 13.1283 1.94693C 12.1468 2.55534 11.1652 3.16375 10.1837 3.89385L 8.83402 5.11068C 9.57019 4.13722 10.3064 3.28544 11.1652 2.43366L 11.2879 2.43366ZM 9.93828 4.86731C 10.061 4.74563 10.1837 4.74563 10.4291 4.74563C 10.4291 4.989 10.4291 5.11068 10.4291 5.35405C 10.3064 5.96246 10.061 6.44919 9.81558 6.93592L 9.07941 8.5178C 8.46594 8.63948 7.85246 8.88285 7.48438 9.2479C 7.72977 8.76117 8.09785 8.27443 8.46594 7.66602C 8.83402 7.05761 9.4475 6.20583 10.1837 5.11068C 10.3064 4.86731 10.3064 4.86731 10.1837 4.989C 10.061 5.11068 9.69289 5.47573 9.20211 6.20583C 8.71133 6.93592 7.97516 8.03107 6.9936 9.61294C 6.74821 9.97799 6.13474 10.8298 5.15318 12.29L 5.27587 11.9249L 6.62552 9.61294L 7.85246 7.30097C 8.34324 6.32751 9.07941 5.59741 9.93828 4.86731L 9.93828 4.86731ZM 4.6624 10.2214C 5.39857 8.88285 6.13474 7.66602 6.74821 6.20583C 6.9936 5.59741 7.36169 5.11068 7.85246 4.50227C 7.97516 4.13722 7.85246 4.13722 7.60707 4.50227C 6.62552 5.84078 5.76665 7.17929 5.15318 8.63948L 5.52126 7.54434C 5.76665 7.05761 5.88935 6.44919 6.25743 5.96246C 6.50282 5.47573 6.87091 4.74563 7.36169 4.13722C 7.72977 3.65049 7.97516 3.40712 8.09785 3.16375C 8.58863 2.67702 8.95672 2.55534 8.95672 2.55534C 9.07941 2.67702 9.07941 2.79871 9.07941 2.79871L 7.97516 5.59741C 7.23899 7.05761 6.25743 8.5178 5.15318 9.85631C 4.6624 10.343 4.41701 10.7081 4.29432 10.8298C 4.17162 10.9515 4.04893 11.0731 4.04893 11.1948L 4.17162 10.8298L 4.6624 10.2214ZM 5.15318 12.655C 4.90779 13.1417 4.6624 13.6285 4.41701 14.1152L 4.29432 14.1152L 4.6624 12.655L 5.15318 12.655ZM 3.55815 16.3055L 3.68084 15.6971L 3.80354 15.0887L 4.17162 14.967L 3.68084 16.1838L 3.43545 17.1573L 3.55815 16.3055ZM 3.31276 13.9935C 3.43545 13.3851 3.55815 12.7767 3.68084 12.1683L 3.80354 12.4117L 3.31276 13.9935ZM 2.4539 18.2524L 2.4539 18.1307C 2.4539 17.279 2.57659 16.4272 2.94467 15.5754C 2.69928 16.7922 2.57659 17.644 2.4539 18.2524ZM 2.20851 17.0356C 2.08581 15.8188 2.20851 14.4803 2.4539 13.2634C 2.57659 11.9249 2.94467 10.5864 3.43545 9.2479C 3.68084 8.88285 3.68084 8.76116 3.43545 9.00453C 2.4539 11.0731 1.84042 13.3851 1.84042 15.6971C 1.84042 16.4272 1.84042 17.1573 1.96312 17.8874C 2.08581 18.3741 2.20851 18.6175 2.4539 18.7392C 2.57659 18.8608 2.69928 18.8608 2.82198 18.7392C 2.82198 18.8608 2.82198 19.1042 2.69928 19.2259C 2.4539 19.1042 2.08581 18.7392 1.96312 18.3741C 1.71773 17.8874 1.59503 17.279 1.47234 16.7922C 1.22695 15.9405 1.22695 15.0887 1.22695 14.2369C 1.34964 13.1417 1.47234 12.0466 1.71773 11.0731C 2.08581 9.49126 2.94467 8.15275 3.92623 6.93592C 4.17162 6.69256 4.29432 6.57087 4.41701 6.69256C 4.41701 7.30097 4.41701 7.7877 4.41701 8.39612C 4.29432 9.00453 4.17162 9.61294 3.92623 10.2214C 3.55815 11.4382 3.19006 12.7767 2.94467 13.9935C 2.69928 14.8453 2.4539 15.9405 2.20851 17.0356ZM 2.82198 19.2259L 2.82198 18.8608C 3.19006 18.3741 3.43545 17.7657 3.55815 17.1573L 4.29432 15.2104L 5.15318 13.1417C 5.76665 12.0466 6.38013 10.9515 7.23899 9.97799C 7.48438 9.49126 7.97516 9.12621 8.58863 9.00453C 8.71133 9.12621 8.71133 9.36958 8.58863 9.85631C 8.46594 10.343 8.22055 10.8298 8.09785 11.3165C 7.36169 12.655 6.50282 13.9935 5.39857 15.0887L 6.87091 12.655L 7.60707 11.3165C 7.85246 10.8298 7.85246 10.5864 7.60707 10.7081C 6.13474 13.0201 5.27587 14.3586 5.03048 14.967C 4.7851 15.5754 4.41701 16.0621 4.17162 16.5489C 3.92623 16.9139 3.68084 17.279 3.55815 17.644C 3.43545 18.2524 3.19006 18.7392 2.82198 19.2259ZM 8.71133 20.0777C 8.58863 20.9295 8.46594 21.6595 8.22055 22.5113C 8.22055 22.0246 8.22055 21.4162 8.09785 20.9295L 8.34324 20.321C 8.34324 20.0777 8.34324 20.0777 8.22055 20.321L 8.09785 20.5644L 8.09785 20.0777L 8.46594 19.7126C 8.71133 19.4693 8.71133 19.5909 8.71133 20.0777ZM 8.34324 18.8608C 8.58863 18.8608 8.58863 18.8608 8.46594 19.1042L 8.09785 19.7126C 8.09785 19.4693 7.97516 19.3476 7.97516 19.1042C 8.09785 18.9825 8.22055 18.9825 8.34324 18.8608ZM 6.62552 19.8343C 6.87091 18.6175 7.23899 18.0091 7.48438 17.8874C 7.72977 18.6175 7.85246 19.4693 7.85246 20.1994C 7.97516 21.1728 7.97516 22.268 7.85246 23.2414C 7.85246 24.0932 7.60708 24.8233 7.23899 25.5534L 6.9936 26.1618C 6.9936 25.31 6.9936 24.5799 6.9936 23.9715C 6.9936 23.3631 6.9936 22.633 6.9936 21.6595C 6.9936 20.6861 7.1163 19.7126 7.23899 18.4958C 7.23899 18.2524 7.23899 18.1307 7.23899 18.3741C 6.9936 19.956 6.87091 21.4162 6.87091 22.9981L 6.87091 24.2149L 6.87091 25.9184L 6.62552 25.5534C 6.38013 24.4583 6.38013 23.4848 6.38013 22.3896C 6.38013 21.6595 6.50282 20.8078 6.62552 19.8343ZM 4.7851 23.4848C 5.15318 22.268 5.64396 21.1728 6.50282 20.1994C 6.25743 20.6861 6.25743 21.1728 6.13474 21.5379C 5.52126 22.633 5.03049 23.7282 4.6624 24.945C 4.53971 25.31 4.53971 25.7968 4.41701 26.1618C 4.41701 25.31 4.53971 24.4583 4.7851 23.4848ZM 6.13474 25.31L 5.64396 24.7016L 6.01204 23.8498C 6.01204 24.3366 6.01204 24.945 6.13474 25.31ZM 10.5517 34.3146L 10.7971 33.4628L 11.7787 34.0712L 10.5517 34.3146ZM 13.0056 33.9495L 11.2879 32.9761L 9.81558 32.0026L 9.57019 31.6375C 9.4475 31.5159 9.3248 31.5159 9.20211 31.5159C 9.07941 31.6375 8.95672 31.5159 8.83402 31.2725C 8.46594 31.5159 7.85246 31.3942 7.60707 31.0291L 6.87091 30.1773L 6.25743 29.0822L 5.88935 28.8388C 5.76665 28.9605 5.64396 28.9605 5.39857 28.9605C 5.03049 28.8388 4.6624 28.7172 4.41701 28.3521C 3.92623 27.622 3.55815 26.8919 3.19006 26.1618C 2.57659 24.945 1.96312 23.6065 1.34964 22.3896C 1.10425 21.6595 0.981558 21.1728 0.858863 21.0511C 0.736169 20.9295 0.736169 20.8078 0.736169 21.0511C 0.858863 21.4162 0.858863 21.9029 1.10425 22.268C 1.47234 23.2414 1.84042 24.0932 2.20851 24.945C 2.69928 25.9184 3.19006 26.7702 3.68084 27.622C 2.69928 26.6485 1.96312 25.5534 1.34964 24.4583C 0.858863 23.6065 0.613474 22.633 0.368084 21.6595C 0.24539 21.1728 0.24539 20.6861 0.24539 20.321C 0.24539 19.956 0.24539 19.5909 0.24539 19.2259C 0.368084 18.9825 0.368084 18.9825 0.490779 18.9825C 0.613474 18.9825 0.736169 19.2259 1.10425 19.5909C 1.59503 20.4427 2.08581 21.4162 2.3312 22.3896C 2.82198 23.8498 3.19006 24.8233 3.31276 25.1884C 3.43545 25.5534 3.55815 26.0401 3.68084 26.4052C 3.80354 26.7702 3.92623 27.0136 4.17162 27.3786C 4.29432 27.7437 4.6624 28.1087 4.90779 28.4738C 5.27587 28.7172 5.52126 28.7172 5.64396 28.5955L 4.90779 27.1353C 4.7851 27.1353 4.7851 27.1353 4.6624 27.1353C 4.6624 27.1353 4.6624 27.1353 4.53971 27.1353L 4.41701 27.1353L 4.6624 27.1353L 4.6624 27.0136C 4.6624 27.0136 4.6624 27.0136 4.6624 26.8919L 4.6624 26.6485C 4.6624 26.4052 4.7851 25.9184 4.90779 25.31C 5.27587 24.2149 5.76665 23.1197 6.25743 22.1463C 6.13474 22.5113 6.13474 22.9981 6.13474 23.3631C 5.64396 24.5799 5.15318 25.5534 4.90779 26.2835C 4.7851 26.7702 4.7851 27.0136 4.90779 27.0136L 5.03048 26.8919L 4.90779 26.5269L 5.03048 26.2835L 5.27587 26.7702L 5.39857 26.6485L 5.52126 26.8919L 5.39857 27.1353L 6.25743 28.3521L 6.50282 28.1087L 6.62552 28.3521C 6.38013 28.5955 6.25743 28.8388 6.25743 28.9605C 6.50282 29.3256 6.74821 29.8123 6.9936 30.1773C 7.48438 30.7858 7.85246 31.0291 8.09785 30.6641C 8.22055 30.5424 8.34324 30.6641 8.46594 30.7858C 8.71133 31.0291 8.83402 31.1508 8.95672 31.3942L 8.95672 30.9074L 8.22055 30.0557L 7.72977 29.0822C 7.48438 28.7172 7.1163 28.2304 6.87091 27.8654L 6.25743 26.7702C 6.01204 26.4052 5.76665 25.9184 5.39857 25.4317L 5.39857 25.1884L 6.13474 26.1618C 6.62552 26.7702 7.1163 27.3786 7.48438 27.9871C 7.72977 28.3521 7.85246 28.4738 7.97516 28.2304L 8.09785 27.8654L 8.34324 27.9871L 8.09785 28.8388L 8.09785 29.0822C 8.09785 29.3256 8.09785 29.4473 8.22055 29.4473C 8.34324 29.4473 8.34324 29.5689 8.46594 29.8123C 8.71133 30.1773 8.95672 30.4207 9.20211 30.7858C 9.57019 31.2725 10.061 31.6375 10.5517 32.0026C 11.0425 32.246 11.4106 32.611 11.656 32.7327C 11.9014 32.8544 12.1468 33.0977 12.0241 33.3411L 12.3922 33.4628L 12.2695 32.9761L 12.5149 32.9761C 12.6376 33.0977 12.7603 33.2194 12.8829 33.4628C 13.251 33.7062 13.4964 33.9495 13.8645 34.1929L 13.0056 33.9495ZM 5.76665 26.8919L 5.88935 26.7702L 6.50282 27.7437L 6.50282 27.8654L 5.76665 26.8919ZM 6.87091 28.9605L 7.1163 28.7172L 7.72977 29.5689L 8.09785 30.1773L 8.22055 30.5424C 7.97516 30.4207 7.85246 30.1773 7.72977 30.0557L 7.36169 29.5689L 6.87091 28.9605ZM 14.478 33.7062L 13.4964 32.9761C 13.1283 32.4893 12.8829 32.246 12.6376 32.0026C 12.5149 31.8809 12.3922 31.6375 12.1468 31.5159C 12.0241 31.3942 11.7787 31.3942 11.5333 31.3942C 11.4106 31.3942 11.2879 31.5159 11.1652 31.8809L 11.0425 31.7592C 11.0425 31.5159 11.1652 31.3942 11.2879 31.2725C 11.4106 31.1508 11.656 31.1508 11.7787 31.2725L 12.8829 31.7592L 14.7234 32.3676C 15.0915 32.611 15.3368 32.9761 15.5822 33.3411C 15.2141 33.5845 14.8461 33.5845 14.478 33.7062ZM 14.9688 38.2084C 14.3553 38.8168 13.6191 39.4252 12.8829 39.912L 12.7603 39.7903C 13.251 39.5469 13.8645 39.0602 14.7234 38.4518L 15.0915 38.0867L 14.8461 38.0867C 14.6007 38.3301 14.2326 38.5735 13.8645 38.8168C 13.4964 39.0602 13.1283 39.3036 12.6376 39.5469L 12.0241 39.7903L 12.1468 39.912L 12.6376 39.912C 12.8829 40.0337 13.0056 40.277 13.0056 40.3987C 13.0056 40.5204 12.6376 40.6421 12.2695 40.5204L 11.7787 40.277C 11.656 40.1553 11.4106 39.912 11.1652 39.912L 10.9198 39.7903L 11.0425 39.5469L 11.656 39.7903L 11.9014 39.7903L 11.7787 39.4252L 12.5149 38.9385C 12.7603 38.8168 12.7603 38.6951 12.7603 38.5735L 12.7603 38.2084C 13.1283 38.3301 13.4964 38.2084 13.8645 38.0867C 14.2326 37.9651 14.6007 37.8434 14.9688 37.8434C 15.3368 37.8434 15.3368 37.9651 14.9688 38.2084ZM 24.1709 4.38058L 24.1709 3.89385L 23.8028 4.01553C 23.312 4.13722 22.8212 4.01553 22.5758 3.65049C 22.3304 3.65049 22.2078 3.5288 22.2078 3.40712C 22.2078 3.28544 22.3304 3.04207 22.0851 3.04207L 21.4716 3.16375C 21.2262 3.16375 20.8581 3.04207 20.7354 2.79871C 20.6127 2.67702 20.7354 2.43366 20.8581 2.19029C 20.6127 2.06861 20.3673 1.94693 20.1219 1.70356C 19.9992 1.58188 20.1219 1.33851 20.2446 1.21683C 20.6127 1.09515 20.9808 1.09515 21.4716 1.21683C 21.3489 1.09515 21.3489 0.85178 21.3489 0.730097C 21.3489 0.608414 21.717 0.608414 22.4531 0.973463L 22.9439 1.21683C 23.0666 0.973463 23.1893 0.973463 23.5574 0.973463C 23.9255 1.09515 24.1709 1.33851 24.539 1.58188C 24.907 1.82524 25.2751 2.19029 25.5205 2.55534C 25.7659 2.31197 26.0113 2.43366 26.134 2.67702L 26.134 3.16375C 25.7659 2.79871 25.2751 2.79871 24.907 3.16375L 24.6616 3.04207C 24.2936 2.67702 24.0482 2.31197 23.9255 1.94693C 23.8028 1.58188 23.8028 1.58188 23.8028 1.82524C 23.9255 2.19029 24.0482 2.55534 24.2936 2.92039C 23.8028 2.79871 23.312 2.43366 22.8212 2.06861C 22.5758 1.82524 22.3304 1.58188 22.0851 1.21683C 21.9624 0.973463 21.8397 0.973463 21.8397 1.21683C 21.9624 1.58188 22.2078 1.82524 22.5758 2.06861L 22.0851 1.94693C 21.717 1.82524 21.2262 1.70356 20.8581 1.58188C 20.7354 1.58188 20.7354 1.58188 20.8581 1.70356C 21.2262 1.82524 21.717 1.94693 22.0851 2.06861C 22.3304 2.06861 22.4531 2.19029 22.6985 2.43366C 22.3304 2.55534 21.8397 2.67702 21.4716 2.67702C 21.2262 2.67702 21.1035 2.67702 21.1035 2.67702C 21.2262 2.67702 21.2262 2.79871 21.3489 2.79871C 21.8397 2.79871 22.4531 2.79871 22.9439 2.67702C 23.4347 2.92039 23.8028 3.04207 24.2936 3.28544C 23.9255 3.16375 23.5574 3.28544 23.312 3.5288C 23.1893 3.65049 23.312 3.65049 23.4347 3.5288C 23.8028 3.40712 24.1709 3.28544 24.539 3.16375L 24.907 3.28544C 24.907 3.65049 25.0297 4.13722 25.1524 4.50227L 24.907 4.62395L 24.1709 4.38058ZM 26.6248 6.69256C 25.8886 6.69256 25.6432 6.69256 25.6432 6.57087C 25.6432 6.44919 25.6432 6.32751 25.8886 6.20583L 26.0113 5.96246C 25.5205 5.71909 25.1524 5.47573 25.0297 4.86731L 25.3978 4.74563C 25.5205 4.50227 25.5205 4.38058 25.3978 4.2589C 25.2751 4.13722 25.1524 3.89385 25.1524 3.40712C 25.2751 3.04207 25.7659 3.04207 26.3794 3.40712C 26.6248 2.92039 26.9928 2.67702 27.3609 2.92039C 26.9928 2.92039 26.6248 3.16375 26.6248 3.40712C 26.6248 3.65049 26.6248 4.01553 26.6248 4.2589C 26.5021 4.01553 26.2567 3.89385 26.134 3.77217C 25.7659 3.65049 25.6432 3.65049 25.8886 3.77217C 26.134 4.01553 26.3794 4.2589 26.5021 4.50227C 26.2567 4.74563 25.8886 4.86731 25.3978 4.86731C 25.2751 4.86731 25.2751 4.989 25.3978 4.989C 25.6432 4.989 25.7659 4.989 26.0113 4.86731C 25.8886 5.47573 26.134 5.96246 26.6248 6.20583C 26.8702 6.44919 26.7475 6.57087 26.6248 6.69256ZM 27.1155 7.05761C 27.1155 6.93592 27.2382 6.81424 27.6063 6.81424C 27.9744 6.81424 27.9744 6.69256 27.729 6.57087C 27.3609 6.32751 26.9928 6.08414 26.7475 5.71909C 26.5021 5.47573 26.5021 5.35405 26.7475 5.23236L 26.9928 5.11068L 27.1155 4.86731L 26.9928 4.13722C 26.8702 3.77217 26.9928 3.5288 27.3609 3.28544C 27.729 3.28544 28.2198 3.40712 28.5879 3.65049C 28.5879 3.40712 28.7106 3.40712 28.956 3.40712C 29.2014 3.40712 29.4467 4.01553 29.6921 4.989L 30.0602 5.11068C 30.1829 4.86731 30.3056 4.74563 30.3056 4.74563C 30.3056 4.74563 30.551 4.989 30.6737 5.47573C 31.0418 5.84078 31.1645 6.32751 31.0418 6.81424C 30.7964 7.05761 30.6737 7.42265 30.7964 7.7877L 30.6737 7.42265C 30.551 6.93592 30.551 6.57087 30.551 6.08414C 30.551 5.84078 30.551 5.84078 30.551 6.08414C 30.551 6.44919 30.551 6.81424 30.551 7.17929C 30.1829 6.69256 29.8148 6.20583 29.324 5.84078C 29.2014 5.47573 29.2014 5.11068 29.2014 4.74563C 29.2014 4.38058 29.0787 4.2589 29.0787 4.50227C 28.956 4.86731 28.956 5.35405 29.0787 5.71909C 28.5879 5.23236 28.2198 4.74563 27.8517 4.2589C 27.729 4.01553 27.729 4.01553 27.729 4.13722C 27.8517 4.50227 28.2198 4.989 28.4652 5.35405C 28.7106 5.71909 29.0787 5.96246 29.2014 6.20583C 28.8333 6.08414 28.5879 6.08414 28.2198 5.96246C 27.9744 5.96246 27.729 5.84078 27.4836 5.71909C 27.2382 5.71909 27.2382 5.71909 27.4836 5.84078C 27.729 5.96246 27.9744 6.08414 28.3425 6.08414C 28.7106 6.20583 29.0787 6.32751 29.4467 6.44919C 29.8148 6.69256 30.0602 6.93592 30.1829 7.30097L 30.4283 7.90939C 30.0602 7.66602 29.5694 7.54434 29.0787 7.42265C 28.7106 7.42265 28.4652 7.30097 28.2198 7.17929C 27.8517 7.0576 27.8517 7.05761 28.0971 7.30097C 28.3425 7.42265 28.7106 7.54434 29.0787 7.54434C 29.5694 7.66602 30.1829 7.90939 30.6737 8.15275L 30.6737 8.27443C 30.551 8.39612 30.551 8.5178 30.551 8.76117L 30.6737 9.2479C 30.551 9.12621 30.4283 9.12621 30.0602 9.49126C 30.1829 9.36958 30.1829 9.12621 30.0602 9.00453C 29.6921 8.5178 29.0787 8.15275 28.5879 8.03107L 28.4652 8.15275C 27.8517 8.15275 27.3609 7.66602 27.1155 7.05761ZM 32.3914 17.8874C 32.2687 17.644 32.0233 17.279 31.7779 16.7922C 31.5326 16.3055 31.2872 15.9405 31.1645 15.6971C 31.0418 15.4537 31.0418 15.0887 31.1645 14.8453C 31.2872 14.6019 31.2872 14.3586 31.4099 14.1152C 31.4099 13.9935 31.4099 13.8718 31.4099 13.9935C 31.2872 14.2369 31.1645 14.6019 31.0418 14.8453L 30.551 13.6285C 30.6737 12.8984 30.9191 12.29 31.2872 11.6816C 31.4099 11.4382 31.4099 11.4382 31.2872 11.5599C 30.9191 12.0466 30.551 12.655 30.4283 13.2634L 29.6921 11.8032C 29.8148 11.1948 29.9375 10.7081 30.1829 10.2214C 30.4283 9.85631 30.3056 9.85631 30.0602 10.2214C 29.8148 10.5864 29.6921 11.0731 29.5694 11.4382C 29.324 10.5864 29.2014 9.85631 28.956 9.36958L 28.8333 9.2479L 28.956 9.49126C 29.0787 10.0997 29.2014 10.8298 29.4467 11.4382C 29.2014 11.1948 28.8333 10.9515 28.4652 10.8298C 28.2198 10.7081 28.2198 10.7081 28.4652 10.8298C 28.8333 11.0731 29.2014 11.3165 29.4467 11.5599C 29.5694 11.9249 29.8148 12.29 29.9375 12.655C 29.5694 12.4117 29.0787 12.1683 28.5879 11.9249C 28.3425 11.9249 28.3425 11.9249 28.5879 12.0466C 29.2014 12.1683 29.6921 12.5333 30.0602 13.0201L 30.551 14.2369C 30.4283 14.2369 30.1829 13.9935 29.9375 13.5068C 29.5694 12.8984 28.956 12.5333 28.3425 12.29C 28.2198 12.1683 28.0971 12.0466 28.0971 11.8032C 28.0971 11.6816 28.2198 11.5599 28.5879 11.5599C 28.4652 11.3165 28.4652 11.1948 28.3425 10.9515L 28.2198 10.7081C 27.9744 10.2214 28.0971 9.97799 28.5879 9.97799C 28.2198 10.0997 28.2198 9.85631 28.2198 9.73463C 28.2198 9.49126 28.2198 9.12621 28.4652 8.88285C 28.5879 8.76117 28.5879 8.5178 28.7106 8.39612C 28.956 8.5178 29.2014 8.63948 29.4467 8.76117C 29.6921 8.88285 29.8148 9.12621 29.8148 9.36958L 29.6921 9.97799C 29.6921 10.0997 29.8148 10.0997 30.0602 9.85631C 30.1829 9.61294 30.3056 9.49126 30.551 9.36958C 30.6737 9.49126 30.9191 9.61295 31.0418 9.73463C 31.1645 10.2214 31.1645 10.8298 30.9191 11.1948L 30.6737 11.8032C 31.1645 11.1948 31.5326 10.8298 31.9006 10.8298C 31.9006 11.0731 31.9006 11.3165 31.9006 11.4382C 31.9006 11.6816 31.9006 11.9249 31.9006 12.1683C 31.9006 12.4117 31.7779 12.655 31.6552 12.7767C 31.4099 13.0201 31.2872 13.2634 31.2872 13.6285C 31.7779 13.2634 31.9006 13.3851 31.9006 13.7502L 31.6552 14.7236C 31.5326 15.2104 31.6552 15.4537 31.9006 15.332C 32.146 15.2104 32.2687 15.332 32.2687 15.4537C 32.2687 15.5754 32.2687 15.8188 32.2687 15.9405C 32.146 16.0621 32.146 16.3055 32.146 16.5489C 32.146 16.6706 32.2687 16.6706 32.2687 16.7922C 32.2687 16.7922 32.5141 16.7922 32.6368 16.7922C 32.7595 16.7922 33.0049 16.7922 33.0049 17.0356L 33.0049 17.644C 33.0049 17.8874 33.1276 18.1307 33.2503 18.2524C 33.373 18.3741 33.4957 18.4958 33.6184 18.4958L 33.8638 18.2524C 33.6184 18.2524 33.4957 18.1307 33.4957 17.644C 33.4957 17.4006 33.4957 17.0356 33.4957 16.6706C 33.373 16.4272 33.2503 16.1838 33.1276 16.1838C 32.7595 15.4537 32.5141 14.7236 32.2687 13.9935L 32.7595 13.9935C 33.1276 15.2104 33.373 15.8188 33.4957 15.9405C 33.6184 16.0621 33.7411 16.1838 33.7411 16.3055C 33.7411 16.5489 33.7411 16.7922 33.8638 17.1573C 34.3545 16.9139 34.4772 16.3055 34.2318 15.8188C 34.2318 15.6971 34.1091 15.6971 33.9864 15.5754C 33.7411 15.4537 33.6184 15.332 33.4957 15.0887C 33.373 14.8453 33.4957 14.7236 33.7411 14.6019C 33.9864 14.4803 33.4957 14.1152 32.5141 13.5068C 32.0233 13.1417 31.9006 12.8984 32.0233 12.655C 32.146 12.4117 32.2687 12.5333 32.3914 12.655C 32.5141 12.7767 32.7595 12.7767 32.7595 12.7767C 32.7595 12.7767 32.7595 12.4117 32.5141 12.4117C 32.2687 12.4117 32.146 12.29 32.146 12.1683C 32.146 11.9249 32.146 11.5599 32.146 11.1948C 32.146 10.9515 32.146 10.8298 32.146 10.5864C 32.0233 10.343 31.6552 10.343 31.2872 10.5864C 31.4099 10.343 31.4099 10.0997 31.4099 9.85631C 31.4099 9.61294 31.2872 9.36958 31.0418 9.2479L 30.7964 8.63948C 30.7964 8.39612 30.9191 8.27443 31.1645 8.15275C 31.0418 7.7877 31.0418 7.54434 31.1645 7.17929C 31.2872 7.0576 31.2872 6.81424 31.4099 6.69256C 31.4099 6.57087 31.5326 6.57087 31.7779 6.69256C 32.2687 7.05761 32.5141 7.42265 32.8822 7.90939C 33.1276 7.66602 33.373 7.7877 33.4957 8.15275C 33.7411 8.63948 33.8638 9.12621 33.7411 9.61294C 34.3545 9.49126 34.4772 9.73463 34.3545 10.343C 34.5999 10.7081 34.7226 11.0731 34.7226 11.4382C 34.7226 11.6816 34.7226 11.9249 34.5999 12.1683C 34.4772 12.29 34.4772 12.5333 34.3545 12.655C 34.3545 12.7767 34.3545 12.7767 34.4772 12.655C 34.5999 12.4117 34.8453 12.29 35.0907 12.29C 35.2134 12.5333 35.3361 12.7767 35.3361 13.1417C 35.3361 13.3851 35.2134 13.5068 35.0907 13.6285C 34.968 13.7502 34.8453 13.9935 34.7226 14.2369C 34.7226 14.3586 34.7226 14.4803 34.968 14.4803L 35.3361 14.3586C 35.5815 14.3586 35.5815 14.4803 35.3361 14.8453C 35.2134 15.2104 34.968 15.4537 34.8453 15.8188C 34.7226 16.0621 34.7226 16.1838 34.7226 16.4272C 34.7226 16.7922 34.5999 16.9139 34.5999 17.0356C 34.5999 16.5489 34.5999 16.1838 34.5999 15.6971C 34.4772 15.2104 34.4772 14.6019 34.3545 14.1152C 34.5999 13.7502 34.7226 13.5068 34.8453 13.1417C 34.968 12.8984 34.968 12.7767 34.8453 13.0201C 34.7226 13.3851 34.5999 13.6285 34.3545 13.8718C 34.2318 13.3851 33.9864 12.655 33.8638 11.9249C 34.1091 11.5599 34.2318 11.0731 34.2318 10.5864C 34.2318 10.0997 34.2318 10.0997 34.1091 10.4647C 34.1091 10.9515 33.8638 11.3165 33.6184 11.8032C 33.4957 11.1948 33.2503 10.5864 33.0049 10.0997C 33.1276 9.73463 33.1276 9.36958 33.1276 9.00453C 33.1276 8.63948 33.1276 8.63948 33.0049 8.88285C 33.0049 9.12621 33.0049 9.36958 32.8822 9.61294L 32.3914 8.39612L 32.146 7.66602C 32.0233 7.42265 32.0233 7.42265 32.0233 7.66602L 32.2687 8.5178C 32.146 8.27443 31.9006 8.15275 31.6552 8.03107C 31.4099 7.90939 31.4099 7.90939 31.5326 8.03107C 31.9006 8.27443 32.146 8.63948 32.3914 8.88285L 33.0049 10.343C 32.6368 9.97799 32.2687 9.73463 31.7779 9.61294C 31.5326 9.49126 31.5326 9.61295 31.7779 9.73463C 32.2687 10.0997 32.7595 10.5864 33.1276 11.0731L 33.6184 12.5333C 33.2503 12.29 32.8822 11.9249 32.6368 11.5599C 32.5141 11.4382 32.3914 11.4382 32.6368 11.6816C 33.0049 12.1683 33.373 12.5333 33.7411 12.8984L 34.1091 14.2369C 33.7411 13.8718 33.2503 13.5068 32.7595 13.2634C 32.5141 13.1417 32.5141 13.1417 32.7595 13.3851C 33.373 13.8718 33.8638 14.3586 34.2318 14.8453C 34.3545 15.5754 34.4772 16.3055 34.4772 17.0356C 34.4772 17.279 34.2318 17.5223 33.8638 17.644L 33.7411 18.7392L 33.1276 18.7392C 33.0049 18.4958 32.7595 18.2524 32.3914 17.8874ZM 33.1276 18.9825C 33.2503 18.9825 33.4957 18.9825 33.6184 18.9825C 33.373 20.0777 33.1276 21.2945 33.0049 22.0246L 32.7595 21.9029C 33.0049 20.9295 33.1276 19.956 33.1276 18.9825ZM 29.324 25.1884C 29.2014 25.1884 28.956 24.945 28.5879 24.5799C 28.2198 24.2149 28.0971 23.9715 28.2198 23.6065C 28.0971 23.4848 27.9744 23.3631 27.9744 23.1197C 27.8517 22.9981 27.8517 22.7547 27.9744 22.633C 28.0971 22.5113 28.3425 22.5113 28.8333 22.8764C 28.956 22.633 28.956 22.3896 28.8333 22.1463L 28.4652 21.5379C 28.3425 21.1728 28.0971 20.9295 27.8517 20.6861C 27.729 20.321 27.6063 20.1994 27.729 20.0777C 27.8517 19.956 27.9744 20.0777 28.0971 20.1994C 28.4652 19.8343 28.7106 19.7126 28.8333 19.8343C 28.956 20.0777 29.0787 20.321 29.0787 20.6861C 29.2014 21.0511 29.2014 21.5379 29.0787 21.9029L 28.956 22.0246L 29.0787 22.1463C 29.0787 22.5113 29.0787 22.8764 28.956 23.1197C 28.956 23.2414 28.956 23.3631 29.0787 23.4848C 29.0787 23.3631 29.0787 23.2414 29.0787 23.1197C 29.0787 22.9981 29.0787 22.8764 29.2014 22.633C 29.2014 22.5113 29.324 22.268 29.324 22.1463C 29.324 22.1463 29.324 22.1463 29.2014 22.0246C 29.324 22.0246 29.324 21.9029 29.4467 21.9029C 29.4467 21.7812 29.4467 21.7812 29.4467 21.6595C 29.4467 21.5379 29.4467 21.4162 29.4467 20.9295C 29.4467 20.6861 29.4467 20.321 29.324 20.0777C 29.324 19.956 29.2014 19.7126 29.2014 19.5909C 29.2014 19.4693 29.0787 19.3476 28.956 19.3476C 28.8333 19.3476 28.5879 19.4693 28.3425 19.8343C 28.4652 19.4693 28.5879 18.9825 28.7106 18.6175C 28.8333 18.3741 28.956 18.3741 29.0787 18.3741C 29.2014 18.3741 29.324 18.4958 29.324 18.6175C 29.324 18.7392 29.4467 18.7392 29.5694 18.4958C 29.6921 18.2524 29.6921 18.2524 29.8148 18.3741L 30.0602 18.6175C 30.0602 18.7392 30.1829 18.8608 30.1829 18.9825C 30.1829 19.2259 30.3056 19.4693 30.3056 19.8343C 30.3056 20.0777 30.3056 20.321 30.1829 20.5644C 30.0602 20.6861 30.0602 20.8078 30.0602 21.0511C 30.0602 21.7812 30.1829 22.1463 30.1829 22.1463C 30.3056 22.1463 30.4283 22.0246 30.4283 22.0246C 30.551 21.9029 30.6737 21.9029 30.7964 21.9029C 30.9191 21.9029 30.9191 22.1463 30.9191 22.5113C 30.9191 22.8764 30.9191 22.9981 31.0418 22.633C 31.1645 22.268 31.1645 22.1463 31.4099 22.1463C 31.6552 22.1463 31.6552 22.5113 31.5326 23.3631C 31.0418 23.7282 30.6737 24.0932 30.3056 24.5799C 30.1829 24.3366 30.1829 24.0932 30.3056 23.8498C 30.4283 23.7282 30.4283 23.4848 30.551 23.3631C 30.551 23.2414 30.6737 22.9981 30.6737 22.8764C 30.7964 22.5113 30.7964 22.5113 30.6737 22.7547C 30.551 22.8764 30.551 22.9981 30.4283 23.2414C 30.3056 23.3631 30.3056 23.4848 30.1829 23.6065C 30.0602 23.2414 30.0602 22.7547 29.9375 22.3896C 29.8148 22.0246 29.8148 22.0246 29.8148 22.3896C 29.9375 23.1197 30.0602 23.7282 30.0602 24.3366C 29.8148 24.0932 29.5694 23.8498 29.324 23.7282C 29.0787 23.4848 28.8333 23.3631 28.7106 23.1197C 28.5879 22.9981 28.4652 22.9981 28.5879 23.2414C 28.7106 23.4848 29.0787 23.7282 29.324 24.0932C 29.5694 24.4583 29.9375 24.5799 29.9375 24.7016C 30.0602 24.8233 30.0602 24.8233 30.0602 24.945C 29.9375 25.0667 29.8148 25.31 29.5694 25.4317C 29.4467 25.31 29.4467 25.31 29.4467 25.1884C 29.4467 25.31 29.4467 25.1884 29.324 25.1884ZM 21.4716 33.0977C 21.717 32.8544 21.8397 32.7327 22.0851 32.611C 22.8212 32.246 23.6801 31.8809 24.539 31.5159C 24.6616 31.5159 24.6616 31.5159 24.7843 31.5159L 24.907 31.7592L 24.6616 31.8809C 24.539 32.0026 24.2936 32.0026 24.0482 32.0026C 23.8028 32.0026 23.5574 32.1243 23.312 32.246C 22.9439 32.3676 22.8212 32.611 22.8212 32.8544C 22.8212 32.9761 22.6985 33.0977 22.5758 33.2194L 21.717 33.7062L 21.1035 33.7062L 21.4716 33.0977ZM 23.312 33.8278C 23.1893 33.8278 23.0666 33.8278 22.9439 33.8278L 22.2078 33.7062L 22.9439 33.3411L 23.312 33.8278L 23.312 33.7062L 23.1893 33.3411C 23.0666 33.0977 23.1893 32.8544 23.4347 32.7327C 23.6801 32.611 23.9255 32.4893 24.1709 32.4893C 24.2936 32.4893 24.2936 32.7327 24.1709 33.0977C 24.0482 33.3411 23.6801 33.5845 23.312 33.8278ZM 20.1219 36.6265L 19.9992 36.2615L 19.3858 36.9916L 18.895 37.3566C 18.7723 37.4783 18.5269 37.6 18.2815 37.6L 17.5454 37.235L 17.9134 36.9916L 18.0361 37.1133C 17.9134 37.3566 18.0361 37.3566 18.2815 36.9916L 18.895 36.3832C 18.895 35.8964 18.7723 35.288 18.6496 34.923C 18.5269 34.5579 18.4042 34.0712 18.1588 33.7062C 18.1588 33.5845 17.7907 33.5845 17.1773 33.5845C 17.668 33.4628 18.0361 33.4628 18.5269 33.5845L 19.0177 33.8278L 19.2631 33.7062L 18.7723 33.4628L 19.0177 33.4628L 19.2631 33.7062L 19.3858 33.8278C 19.8766 34.3146 20.2446 34.8013 20.6127 35.4097C 20.7354 35.6531 20.7354 36.0181 20.6127 36.2615C 20.49 36.6265 20.2446 36.7482 20.1219 36.6265ZM 25.2751 39.6686L 25.5205 39.7903L 25.3978 39.912L 24.7843 40.0337C 24.539 40.277 24.1709 40.3987 23.9255 40.5204L 23.5574 40.3987L 23.4347 40.1553C 23.5574 40.0337 23.6801 39.912 23.8028 39.912C 23.9255 39.7903 24.1709 39.7903 24.2936 39.7903L 24.7843 39.912L 25.2751 39.6686ZM 24.539 39.6686C 24.1709 39.6686 23.9255 39.912 23.8028 39.912L 23.5574 39.912C 23.312 39.5469 22.9439 39.3036 22.5758 38.9385L 21.5943 38.0867C 21.8397 37.9651 22.2078 38.0867 22.8212 38.2084L 24.539 39.6686ZM 27.6063 35.0447C 27.9744 35.0447 28.2198 35.0447 28.5879 35.0447C 29.4467 34.5579 30.3056 33.9495 31.0418 33.2194C 32.0233 32.4893 33.0049 31.8809 34.1091 31.3942C 34.3545 31.2725 34.3545 31.1508 34.1091 31.1508C 33.7411 31.0291 33.373 31.0291 33.1276 31.0291C 33.0049 31.1508 33.0049 31.2725 33.1276 31.2725C 33.2503 31.2725 33.373 31.2725 33.6184 31.2725C 32.7595 31.7592 31.9006 32.246 31.1645 32.7327C 31.1645 32.3676 31.2872 31.7592 31.2872 31.0291C 31.2872 30.7858 31.1645 30.5424 31.0418 30.299C 30.9191 30.1773 31.0418 30.0557 31.4099 29.934L 31.6552 29.8123L 31.6552 30.299L 31.2872 30.1773L 31.2872 30.4207C 31.4099 30.5424 31.5326 30.6641 31.7779 30.7858L 33.0049 30.7858L 33.4957 30.7858C 34.1091 30.7858 34.4772 30.9074 34.3545 31.2725C 34.3545 31.5159 34.3545 31.7592 34.3545 32.1243C 34.4772 32.7327 34.7226 33.3411 35.0907 33.9495C 34.968 34.3146 34.7226 34.5579 34.4772 34.923L 33.373 35.6531C 32.3914 36.3832 31.0418 37.235 29.324 38.3301C 26.5021 38.3301 23.6801 37.965 20.9808 37.1133L 20.6127 36.9916L 20.7354 36.8699C 20.8581 36.6265 21.1035 36.5049 21.1035 36.2615C 21.1035 35.4097 20.7354 34.6796 20.1219 34.1929L 20.1219 34.0712L 20.49 33.9495C 21.3489 33.9495 22.0851 34.0712 22.9439 34.3146C 23.6801 34.4362 24.539 34.6796 25.5205 34.8013C 26.3794 34.923 26.9928 35.0447 27.6063 35.0447ZM 26.0113 34.5579C 25.6432 34.4362 25.0297 34.4362 24.1709 34.1929L 24.907 33.9495C 25.2751 34.0712 25.5205 33.9495 25.6432 33.7062C 25.7659 33.9495 25.8886 34.3146 26.0113 34.5579ZM 30.6737 28.1087C 30.4283 28.3521 30.3056 28.7172 30.4283 29.0822C 29.9375 29.3256 29.5694 29.6906 29.2014 30.0557C 28.8333 30.4207 28.5879 30.7858 28.3425 31.1508C 28.2198 31.3942 27.9744 31.6375 27.729 31.6375C 27.4836 31.7592 27.1155 31.6375 26.8702 31.5159L 26.7475 32.0026L 25.2751 32.8544L 24.539 33.2194C 24.6616 32.9761 24.6616 32.7327 24.6616 32.4893L 24.907 32.246C 25.8886 31.7592 26.5021 31.2725 26.6248 30.7858C 26.7475 30.4207 26.9928 30.1773 27.2382 29.934C 27.4836 29.6906 27.6063 29.3256 27.729 29.0822L 27.729 28.5955L 27.729 28.1087C 27.9744 28.3521 28.2198 28.4738 28.3425 28.2304C 28.5879 27.622 28.956 27.1353 29.324 26.6485C 29.6921 26.1618 30.0602 25.6751 30.4283 25.31L 31.4099 24.2149L 31.4099 24.7016C 30.7964 25.4317 30.3056 26.1618 29.8148 26.8919C 29.2014 27.7437 28.7106 28.5955 28.3425 29.5689C 28.2198 29.934 27.9744 30.1773 27.6063 30.4207C 27.3609 30.5424 27.2382 30.6641 27.1155 30.7858C 26.9928 31.0291 27.1155 31.0291 27.2382 30.9074C 27.3609 30.7858 27.4836 30.6641 27.729 30.5424C 28.4652 29.934 29.2014 29.0822 29.8148 28.2304L 29.8148 27.5003L 30.0602 27.1353C 30.0602 27.5003 30.0602 27.8654 30.1829 27.8654C 30.3056 27.8654 30.4283 27.7437 30.551 27.5003C 30.6737 27.257 31.0418 26.4052 31.6552 25.1884C 31.5326 25.5534 31.5326 25.9184 31.6552 26.1618C 31.2872 26.4052 31.1645 26.7702 31.4099 27.3786L 30.6737 28.1087ZM 35.5815 23.2414C 35.5815 23.6065 35.4588 23.8498 35.2134 24.2149C 34.5999 24.945 34.3545 25.31 34.4772 25.4317C 34.5999 25.6751 34.5999 26.0401 34.3545 26.4052C 33.9864 26.8919 33.6184 27.257 33.1276 27.7437C 33.2503 27.9871 33.1276 28.2304 32.7595 28.4738C 32.2687 28.7172 31.7779 28.9605 31.2872 29.0822C 32.146 28.5955 32.7595 27.7437 33.0049 26.7702C 33.2503 26.5269 33.4957 26.4052 33.7411 26.2835C 33.9864 26.1618 33.9864 26.0401 33.8638 26.1618C 33.6184 26.2835 33.2503 26.4052 33.0049 26.6485C 33.2503 26.0401 33.4957 25.4317 33.6184 24.8233C 33.9864 24.4583 34.3545 23.9715 34.7226 23.4848C 34.968 23.2414 34.968 23.1197 34.7226 23.3631C 34.4772 23.8498 34.1091 24.2149 33.7411 24.5799C 33.9864 23.9715 34.1091 23.2414 34.3545 22.5113C 34.4772 22.0246 34.3545 22.0246 34.3545 22.268L 34.2318 22.7547C 34.1091 22.5113 33.9864 22.268 33.8638 22.0246L 34.1091 22.9981C 33.9864 23.4848 33.8638 24.0932 33.7411 24.5799C 33.4957 23.9715 33.2503 23.4848 32.8822 22.9981C 32.6368 22.633 32.5141 22.633 32.7595 22.9981C 33.1276 23.6065 33.373 24.2149 33.6184 24.945C 33.4957 25.5534 33.2503 26.1618 33.0049 26.6485C 32.8822 26.4052 32.6368 26.2835 32.3914 26.1618C 32.2687 26.0401 32.2687 26.1618 32.3914 26.2835C 32.5141 26.4052 32.7595 26.6485 32.8822 26.8919C 32.7595 27.257 32.5141 27.622 32.146 27.9871C 31.9006 28.2304 31.6552 28.5955 31.2872 28.8388C 31.6552 28.3521 31.7779 27.622 31.6552 27.0136C 31.6552 26.8919 31.7779 26.7702 31.9006 26.7702C 32.0233 26.7702 32.146 26.6485 32.146 26.5269C 32.0233 26.2835 31.9006 26.0401 31.9006 25.7968C 32.0233 25.7968 32.2687 25.7968 32.3914 25.7968C 32.6368 25.6751 32.5141 25.5534 32.3914 25.31C 32.146 25.0667 32.0233 24.7016 32.0233 24.2149C 32.0233 23.9715 32.146 23.8498 32.5141 23.9715C 32.6368 23.9715 32.6368 23.8498 32.5141 23.3631L 32.146 22.8764C 31.9006 22.268 32.0233 22.1463 32.5141 22.268L 33.1276 22.633C 33.4957 22.7547 33.7411 22.5113 33.7411 21.9029C 33.7411 21.7812 33.8638 21.7812 34.1091 21.7812C 34.3545 21.7812 34.5999 21.6595 34.7226 21.2945C 34.968 21.0511 35.0907 21.2945 35.2134 21.9029C 35.3361 22.5113 35.3361 22.9981 35.8269 22.9981C 35.5815 22.8764 35.5815 22.9981 35.5815 23.2414ZM 36.195 21.2945C 36.195 21.4162 36.195 21.5379 36.0723 21.6595C 35.9496 21.7812 35.7042 21.9029 35.5815 21.9029L 35.3361 21.5379C 35.3361 21.1728 35.2134 20.8078 34.968 20.5644C 35.0907 20.4427 35.2134 20.321 35.4588 20.321C 35.5815 20.1994 35.5815 20.321 35.3361 20.321C 35.0907 20.321 34.968 20.5644 34.7226 20.5644C 34.8453 20.0777 35.0907 19.5909 35.3361 19.2259C 35.4588 18.9825 35.3361 18.9825 35.2134 19.2259C 34.968 19.5909 34.7226 19.956 34.5999 20.321C 34.4772 20.1994 34.4772 19.956 34.3545 19.8343C 34.3545 19.5909 34.2318 19.5909 34.2318 19.8343C 34.2318 20.0777 34.3545 20.321 34.4772 20.5644C 34.1091 21.0511 33.8638 21.2945 33.7411 21.1728C 33.8638 20.4427 33.9864 19.7126 34.2318 18.9825C 34.5999 18.6175 34.8453 18.4958 35.0907 18.6175C 35.4588 18.3741 35.7042 18.2524 35.9496 18.4958C 36.0723 18.7392 36.195 18.8608 36.0723 19.1042C 36.0723 19.3476 35.9496 19.5909 35.8269 19.8343C 36.0723 19.8343 36.195 19.956 36.3176 20.1994C 36.195 20.6861 35.9496 21.0511 35.5815 21.2945C 36.0723 21.1728 36.195 21.2945 36.195 21.2945Z"/>
<path id="path33_fill" d="M 3.92623 3.04207C 4.17162 3.16375 4.41701 3.16376 4.53971 2.92039C 4.6624 2.79871 4.6624 2.55534 4.53971 2.43366C 4.53971 2.43366 4.53971 2.43366 4.41701 2.31198C 4.29432 2.19029 4.29432 2.19029 4.17162 2.43366L 3.92623 3.04207ZM 1.10425 1.09515C 1.34964 1.33851 1.47234 1.4602 1.84042 1.09515C 1.96312 0.973464 1.96312 0.730096 1.84042 0.608413L 1.71773 0.486732C 1.59503 0.486732 1.59503 0.486732 1.59503 0.486732L 1.10425 1.09515ZM 5.27588 3.16375C 5.27588 2.92039 5.39857 2.79871 5.15318 2.67702C 5.27588 2.67702 5.39857 2.79871 5.39857 2.92039C 5.52126 3.04207 5.64396 3.04207 5.76665 3.04207C 5.76665 3.04207 5.52126 2.92039 5.52126 3.04207C 5.52126 3.16375 5.39857 3.65049 5.27588 3.77217L 5.15318 4.62395L 5.88935 4.13722C 6.01204 4.01554 6.38013 3.65049 6.38013 3.5288C 6.38013 3.40712 6.38013 3.28544 6.25743 3.28544L 6.25743 3.16375L 6.50282 3.28544C 6.62552 3.28544 6.62552 3.40712 6.74821 3.40712C 6.50282 3.28544 6.38013 3.5288 6.13474 3.65048L 4.90779 4.86731L 4.7851 4.74563L 5.27588 3.16375ZM 3.55815 3.40712C 3.55815 3.5288 3.43545 3.77217 3.43545 3.89385C 3.43545 4.01553 3.43545 4.01554 3.55815 4.13722L 3.55815 4.2589C 3.43545 4.13722 3.31276 4.01553 3.19006 3.89385C 3.06737 3.89385 2.94467 3.77217 2.94467 3.77217L 2.94467 3.65048C 3.06737 3.65048 3.19006 3.77217 3.19006 3.65048C 3.31276 3.5288 3.43545 3.40712 3.43545 3.28544L 3.92623 2.55534C 3.92623 2.43366 4.17162 2.31197 4.17162 2.19029C 4.17162 2.06861 4.17162 1.94693 4.04893 1.94693C 4.17162 2.06861 4.29432 2.06861 4.41701 2.19029C 4.53971 2.31197 4.6624 2.31197 4.7851 2.43366C 5.03049 2.55534 5.15318 2.79871 5.03049 3.16375L 5.03049 3.28544C 4.90779 3.5288 4.53971 3.65049 4.29432 3.5288C 4.29432 3.5288 4.17162 3.5288 4.17162 3.40712C 4.04893 3.40712 4.04893 3.40712 4.04893 3.28544L 3.55815 3.40712ZM 2.4539 1.70356C 2.4539 1.58188 2.69928 1.46019 2.69928 1.33851C 2.69928 1.21683 2.69928 1.09515 2.57659 1.09515L 2.69928 1.09515L 3.80354 1.82524L 3.43545 2.19029C 3.68084 1.94693 3.55815 1.82524 3.31276 1.58188L 3.19006 1.46019C 3.19006 1.33851 3.19006 1.33851 3.06737 1.46019L 2.69928 2.06861C 2.94467 2.31197 3.19006 2.19029 3.31276 1.94693C 3.19006 2.06861 3.06737 2.19029 3.06737 2.31198C 3.06737 2.43366 2.94467 2.55534 2.82198 2.67702L 2.82198 2.55534C 3.06737 2.31197 2.94467 2.19029 2.69928 2.06861L 2.20851 2.67702C 2.20851 2.79871 2.08581 2.79871 2.08581 2.92039C 2.08581 3.04207 2.20851 3.16375 2.3312 3.16375C 2.4539 3.28544 2.82198 3.28544 2.94467 3.16375L 2.69928 3.65048L 1.47234 2.79871L 1.47234 2.67702C 1.59503 2.67702 1.59503 2.67702 1.71773 2.67702C 1.84042 2.55534 1.96312 2.43366 1.96312 2.31198L 2.4539 1.70356ZM 1.22695 2.43366C 1.22695 2.55534 1.22695 2.67702 1.34964 2.79871L 1.22695 2.67702C 1.22695 2.67702 1.10425 2.67702 0.981558 2.55534L 0.981558 2.31198L 0.981558 1.46019C 0.981558 1.33851 0.981558 1.33851 0.858863 1.21683L 0.736169 1.46019C 0.613474 1.58188 0.613474 1.70356 0.490779 1.82524C 0.490779 1.94692 0.490779 1.94693 0.613474 2.06861C 0.490779 2.06861 0.368084 1.94693 0.368084 1.94693C 0.24539 1.82524 0.122695 1.82524 5.85054e-08 1.70356C 0.122695 1.70356 0.122695 1.82524 0.24539 1.70356C 0.368084 1.58188 0.490779 1.46019 0.490779 1.33851L 0.981558 0.608413C 1.10425 0.48673 1.10425 0.365049 1.22695 0.243366C 1.22695 0.121683 1.22695 0.121682 1.10425 -9.28366e-07C 1.22695 0.121682 1.34964 0.243366 1.47234 0.243366C 1.59503 0.243366 1.71773 0.365049 1.71773 0.486732C 1.96312 0.730098 2.20851 0.851779 1.96312 1.21683C 1.96312 1.46019 1.59503 1.58188 1.34964 1.46019C 1.34964 1.46019 1.34964 1.46019 1.22695 1.46019L 1.22695 2.43366ZM 15.5822 3.04207L 15.2142 2.31198L 15.0915 3.16375L 15.5822 3.04207ZM 9.20211 4.50227C 9.20211 4.62395 9.20211 4.74563 9.3248 4.86731C 9.4475 4.989 9.4475 4.989 9.57019 4.989C 9.81558 4.86731 9.81558 4.74563 9.81558 4.50227C 9.81558 4.38058 9.69289 4.2589 9.57019 4.13722C 9.4475 4.01554 9.3248 4.13722 9.20211 4.13722L 9.20211 4.13722L 9.20211 4.50227ZM 9.20211 4.01553C 9.3248 3.89385 9.4475 3.89385 9.4475 3.89385C 9.57019 3.77217 9.57019 3.65049 9.57019 3.40712C 9.57019 3.16375 9.4475 3.04207 9.20211 3.04207L 9.07941 3.04207L 9.07941 3.16375L 9.20211 4.01553ZM 7.60708 4.74563C 7.60708 4.86732 7.60708 4.989 7.72977 5.11068C 7.72977 5.23236 7.85247 5.23236 7.97516 5.11068C 8.09785 4.989 8.34324 4.989 8.34324 4.62395C 8.34324 4.38058 8.22055 4.38058 8.09786 4.2589C 7.97516 4.2589 7.85247 4.2589 7.72977 4.2589L 7.72977 4.74563L 7.60708 4.74563ZM 7.48438 4.2589C 7.72977 4.2589 7.72977 4.13722 7.85247 4.13722C 7.85247 4.01554 7.97516 3.89385 7.97516 3.77217C 7.97516 3.5288 7.85247 3.40712 7.60708 3.40712C 7.60708 3.40712 7.48438 3.40712 7.48438 3.5288L 7.48438 3.65048L 7.48438 4.2589ZM 15.0915 3.40712C 15.0915 3.5288 14.9688 3.77217 15.0915 3.89385C 15.2142 4.01553 15.2142 4.01553 15.3368 4.01553L 15.3368 4.13722L 15.0915 4.13722C 14.9688 4.13722 14.8461 4.13722 14.8461 4.13722C 14.9688 4.13722 15.0915 4.01553 15.0915 3.89385C 15.0915 3.65049 15.0915 3.5288 15.2142 3.28544L 15.4595 1.94693L 15.5822 1.94693L 16.3184 3.40712C 16.3184 3.5288 16.4411 3.65049 16.5638 3.77217C 16.6865 3.89385 16.6865 3.89385 16.8092 3.89385L 16.8092 4.01553C 16.6865 4.01553 16.5638 4.01553 16.4411 4.01553C 16.3184 4.01553 16.1957 4.13722 16.073 4.13722L 16.073 4.01553C 16.073 4.01553 16.3184 4.01553 16.1957 3.77217C 16.073 3.5288 16.1957 3.65049 16.1957 3.5288L 15.9503 3.16375L 15.3368 3.28544L 15.0915 3.40712ZM 14.1099 2.19029L 14.2326 2.79871C 14.1099 2.43366 13.8645 2.19029 13.6191 2.31198C 13.1283 2.31198 13.1283 2.92039 13.1283 3.40712C 13.1283 3.89385 13.3737 4.38058 13.9872 4.2589C 14.6007 4.13722 14.3553 3.89385 14.3553 3.5288L 14.478 4.2589L 14.3553 4.13722C 14.2326 4.2589 13.9872 4.38058 13.8645 4.38058C 13.3737 4.50227 12.883 4.13722 12.7603 3.5288C 12.6376 2.92039 13.0056 2.31198 13.4964 2.31198C 13.7418 2.31198 13.8645 2.31197 14.1099 2.43366L 14.1099 2.19029ZM 12.1468 3.04207C 12.1468 2.92039 12.0241 2.79871 12.0241 2.67702C 11.9014 2.67702 11.9014 2.55534 11.7787 2.55534L 11.656 2.55534C 11.7787 2.55534 11.9014 2.43366 12.0241 2.43366C 12.1468 2.43366 12.2695 2.31198 12.3922 2.31198L 12.3922 2.19029C 12.2695 2.19029 12.2695 2.31198 12.1468 2.31198C 12.1468 2.43366 12.1468 2.55534 12.2695 2.67702L 12.3922 3.65048C 12.3922 3.77217 12.3922 3.89385 12.5149 4.01553C 12.5149 4.13722 12.6376 4.13722 12.7603 4.13722L 12.7603 4.2589L 12.3922 4.2589C 12.2695 4.2589 12.1468 4.38058 12.0241 4.38058L 12.0241 4.2589C 12.1468 4.2589 12.2695 4.2589 12.2695 4.13722C 12.2695 4.01554 12.2695 3.89385 12.2695 3.77217L 12.1468 3.04207ZM 10.4291 3.40712C 10.4291 3.28544 10.4291 3.04207 10.4291 2.92039C 10.3064 2.79871 10.3064 2.79871 10.1837 2.92039L 10.1837 2.79871C 10.3064 2.79871 10.4291 2.79871 10.5518 2.67702C 10.6744 2.67702 10.7971 2.67702 10.9198 2.67702L 10.9198 2.79871C 10.7971 2.79871 10.6744 2.79871 10.6744 2.92039C 10.6744 3.04207 10.7971 3.28544 10.7971 3.40712L 10.9198 4.38058C 10.9198 4.74563 11.0425 4.86732 11.4106 4.74563C 11.5333 4.74563 11.656 4.74563 11.7787 4.62395C 11.9014 4.50227 11.9014 4.38058 11.9014 4.2589L 12.0241 4.13722L 12.1468 4.74563L 12.0241 4.74563C 11.5333 4.74563 11.0425 4.86731 10.6744 4.989C 10.7971 4.86731 10.9198 4.86731 10.9198 4.86731C 10.9198 4.74563 10.9198 4.62395 10.9198 4.38058L 10.6744 3.5288L 10.4291 3.40712ZM 8.83402 3.65048C 8.83402 3.5288 8.83402 3.40712 8.71133 3.28544C 8.58863 3.16375 8.58863 3.16375 8.46594 3.16375C 8.58863 3.16375 8.71133 3.04207 8.83402 3.04207C 8.95672 3.04207 9.07941 3.04207 9.07941 3.04207C 9.3248 2.92039 9.69289 3.04207 9.81558 3.40712C 9.81558 3.65049 9.69289 3.89385 9.4475 4.01553C 9.57019 4.01553 9.69289 4.01554 9.81558 4.13722C 9.93828 4.2589 10.061 4.38058 10.061 4.50227C 10.061 4.74563 9.93828 4.86731 9.81558 4.989C 9.93828 5.11068 9.69289 5.23236 9.57019 5.23236C 9.57019 5.35405 9.3248 5.35405 9.3248 5.35405C 9.20211 5.35405 9.07941 5.35404 8.83402 5.47573L 8.83402 5.35405C 8.83402 5.35405 9.07941 5.35405 9.07941 5.23236C 9.07941 5.11068 9.07941 4.989 9.07941 4.86731L 8.83402 3.65048ZM 7.23899 4.01553C 7.23899 3.89385 7.1163 3.65049 7.1163 3.5288C 7.1163 3.40712 6.9936 3.40712 6.87091 3.5288L 6.87091 3.40712C 6.9936 3.40712 7.1163 3.40712 7.23899 3.40712C 7.36169 3.40712 7.48438 3.40712 7.60708 3.40712C 7.85247 3.40712 8.22055 3.40712 8.34324 3.77217C 8.46594 4.01553 8.34324 4.2589 8.09786 4.2589C 8.22055 4.2589 8.34325 4.2589 8.46594 4.38058C 8.58863 4.50227 8.71133 4.62395 8.71133 4.74563C 8.71133 4.989 8.71133 5.11068 8.46594 5.23236C 8.22055 5.35405 8.22055 5.35405 7.97516 5.35405C 7.85247 5.35405 7.72977 5.35405 7.60708 5.35405C 7.36169 5.35405 7.36169 5.47573 7.1163 5.47573L 7.1163 5.35405C 7.23899 5.35405 7.36169 5.35405 7.36169 5.23236C 7.36169 5.11068 7.23899 4.86732 7.23899 4.74563L 7.23899 4.01553ZM 23.8028 4.2589L 23.6801 3.40712L 23.312 4.2589L 23.8028 4.2589ZM 27.1155 4.01553C 27.1155 3.89385 27.1155 3.65048 27.1155 3.65048C 27.1155 3.65048 26.9928 3.5288 26.8702 3.5288L 26.8702 3.40712L 27.2382 3.40712C 27.3609 3.40712 27.4836 3.40712 27.6063 3.40712L 27.6063 3.5288C 27.4836 3.5288 27.4836 3.5288 27.3609 3.65048L 27.3609 4.13722L 27.4836 4.989C 27.4836 5.11068 27.4836 5.23236 27.4836 5.47573C 27.4836 5.59741 27.6063 5.59741 27.729 5.59741L 27.3609 5.59741C 27.2382 5.59741 27.1155 5.59741 26.9928 5.59741C 26.9928 5.59741 27.2382 5.59741 27.2382 5.47573C 27.2382 5.35404 27.2382 5.23236 27.2382 5.11068L 27.1155 4.01553ZM 25.1524 3.89385C 25.1524 3.77217 25.1524 3.5288 25.1524 3.40712C 25.1524 3.28544 25.0297 3.28544 24.907 3.28544L 24.907 3.16375C 25.0297 3.16375 25.1524 3.28544 25.2751 3.28544C 25.3978 3.28544 25.5205 3.28544 25.7659 3.28544L 25.7659 3.40712C 25.7659 3.40712 25.5205 3.40712 25.5205 3.5288C 25.5205 3.65049 25.5205 3.89385 25.3978 4.01553L 25.2751 4.989C 25.2751 5.35404 25.2751 5.47573 25.5205 5.47573C 25.7659 5.47573 25.7659 5.59741 25.8886 5.47573C 26.0113 5.35404 26.134 5.23236 26.134 5.11068L 26.2567 5.11068L 26.134 5.71909L 26.0113 5.71909C 25.5205 5.59741 25.0297 5.59741 24.539 5.47573C 24.6616 5.47573 24.7843 5.47573 24.7843 5.35405C 24.7843 5.23236 24.7843 5.11068 24.907 4.989L 25.1524 3.89385ZM 23.0666 4.38058C 23.0666 4.50227 22.9439 4.74563 22.8212 4.86731C 22.6985 4.989 22.9439 4.989 23.0666 5.11068C 22.9439 5.11068 22.8212 5.11068 22.8212 5.11068C 22.8212 5.11068 22.5758 4.989 22.4531 4.989C 22.5758 4.989 22.6985 4.86732 22.6985 4.74563C 22.6985 4.62395 22.9439 4.38058 22.9439 4.13722L 23.5574 2.92039L 23.6801 2.92039L 23.9255 4.62395C 23.9255 4.74563 23.9255 4.989 24.0482 4.989C 24.1709 4.989 24.1709 5.11068 24.2936 5.11068C 24.1709 5.11068 24.0482 5.11068 23.9255 5.11068C 23.8028 5.11068 23.6801 4.989 23.5574 4.989L 23.5574 4.86731L 23.8028 4.86731L 23.8028 4.50227L 23.8028 4.13722L 23.0666 4.13722L 23.0666 4.38058ZM 22.9439 3.28544C 22.9439 3.04207 22.9439 2.92039 22.5758 2.79871C 22.2078 2.67702 22.3304 2.79871 22.3304 2.79871L 22.0851 4.2589C 22.0851 4.50226 22.0851 4.50227 22.3304 4.62395L 22.3304 4.74563C 22.2078 4.74563 21.9624 4.74563 21.8397 4.62395C 21.717 4.62395 21.5943 4.62395 21.3489 4.62395L 21.3489 4.50227C 21.5943 4.50227 21.717 4.50226 21.717 4.2589L 21.9624 2.79871C 21.9624 2.79871 21.8397 2.67702 21.717 2.67702C 21.4716 2.67702 21.3489 2.67702 21.2262 3.04207L 21.1035 3.04207L 21.2262 2.55534L 22.9439 2.79871L 22.9439 3.28544ZM 20.3673 3.04207C 20.3673 2.92039 20.3673 2.79871 20.3673 2.67702C 20.3673 2.55534 20.2446 2.55534 20.1219 2.55534L 20.1219 2.43366C 20.2446 2.43366 20.3673 2.55534 20.49 2.55534C 20.6127 2.55534 20.7354 2.55534 20.9808 2.55534C 20.9808 2.55534 20.7354 2.55534 20.7354 2.67702C 20.7354 2.79871 20.7354 2.92039 20.6127 3.04207L 20.49 3.89385C 20.49 4.01553 20.3673 4.13722 20.49 4.2589C 20.49 4.38058 20.6127 4.38058 20.7354 4.38058L 20.7354 4.50227C 20.6127 4.50227 20.49 4.38058 20.3673 4.38058C 20.2446 4.38058 20.1219 4.38058 19.9992 4.2589L 19.9992 4.13722C 20.1219 4.13722 20.2446 4.13722 20.2446 4.01553C 20.3673 3.89385 20.3673 3.77217 20.3673 3.65048L 20.3673 3.04207ZM 32.3914 1.46019L 31.6552 0.973463L 31.9006 1.82524L 32.3914 1.46019ZM 28.956 3.89385L 28.3425 3.28544L 28.4652 4.13722L 28.956 3.89385ZM 32.0233 2.06861C 32.0233 2.19029 32.146 2.43366 32.146 2.55534C 32.2687 2.67702 32.3914 2.55534 32.3914 2.43366L 32.3914 2.67702C 32.2687 2.79871 32.2687 2.79871 32.146 2.79871C 32.0233 2.79871 32.0233 2.92039 31.9006 2.92039L 31.9006 2.79871C 32.0233 2.67702 32.0233 2.67702 32.0233 2.55534C 31.9006 2.31197 31.9006 2.19029 31.7779 1.94693L 31.4099 0.608413L 32.8822 1.58188C 33.0049 1.70356 33.1276 1.70356 33.1276 1.70356C 33.2503 1.82524 33.373 1.70356 33.373 1.70356L 33.373 1.82524C 33.2503 1.82524 33.1276 1.94693 33.1276 2.06861C 33.0049 2.19029 32.8822 2.19029 32.8822 2.31198L 32.7595 2.19029C 32.7595 2.06861 32.8822 2.06861 32.8822 1.94693C 32.8822 1.82524 32.7595 1.82524 32.6368 1.82524L 32.3914 1.58188L 31.7779 1.94693L 32.0233 2.06861ZM 29.5694 2.43366C 29.4467 2.31197 29.324 2.31197 29.2014 2.43366L 29.2014 2.31198C 29.324 2.31198 29.324 2.31197 29.4467 2.19029C 29.5694 2.19029 29.5694 2.19029 29.6921 2.06861L 31.6552 2.67702L 31.0418 1.94693C 30.9191 1.82524 30.7964 1.70356 30.7964 1.58188C 30.7964 1.46019 30.551 1.58188 30.4283 1.58188C 30.551 1.46019 30.6737 1.46019 30.6737 1.46019C 30.6737 1.33851 30.6737 1.21683 30.7964 1.21683L 30.7964 1.33851C 30.7964 1.46019 30.6737 1.46019 30.6737 1.58188C 30.6737 1.70356 30.9191 1.94693 31.0418 2.06861L 31.7779 3.16375L 31.7779 3.28544C 31.6553 3.28544 31.5326 3.28544 31.5326 3.16375L 29.5694 2.43366L 30.1829 3.28544C 30.3056 3.40712 30.4283 3.5288 30.4283 3.65048C 30.551 3.77217 30.6737 3.65048 30.7964 3.65048C 30.7964 3.77217 30.6737 3.77217 30.551 3.89385C 30.4283 3.89385 30.4283 4.01554 30.3056 4.13722L 30.3056 4.01553C 30.4283 3.89385 30.4283 3.77217 30.4283 3.65048C 30.4283 3.5288 30.3056 3.40712 30.1829 3.28544L 29.5694 2.43366ZM 28.5879 4.38058C 28.5879 4.50227 28.5879 4.74563 28.7106 4.86731C 28.7106 4.989 28.956 4.86731 28.956 4.86731C 28.8333 4.86731 28.8333 4.989 28.7106 4.989C 28.5879 4.989 28.5879 5.11068 28.4652 5.11068C 28.5879 4.989 28.5879 4.989 28.5879 4.74563C 28.5879 4.50227 28.5879 4.2589 28.4652 4.13722L 28.2198 2.79871L 29.4467 3.89385C 29.5694 4.01553 29.6921 4.13722 29.6921 4.13722C 29.8148 4.13722 29.9375 4.13722 29.9375 4.13722C 29.8148 4.13722 29.6921 4.2589 29.5694 4.38058C 29.4467 4.38058 29.324 4.50227 29.2014 4.62395L 29.2014 4.50227C 29.324 4.50227 29.4467 4.38058 29.324 4.2589C 29.324 4.13722 29.2014 4.13722 29.0787 4.01553L 28.8333 3.77217L 28.2198 4.01553L 28.2198 4.13722L 28.5879 4.38058Z"/>
<path id="path34_fill" d="M 0.736169 18.4958C 0.613474 18.1307 0.490779 17.644 0.368084 17.5223L 0.368084 17.4006L 1.47234 16.7922C 1.34964 16.1838 1.22695 15.6971 1.22695 15.2104L -5.85054e-08 14.967L -5.85054e-08 13.0201L 1.22695 12.7767C 1.22695 12.29 1.34964 11.8032 1.47234 11.1948L 0.858863 10.8298L 1.22695 10.8298L 1.71773 11.0731L 1.71773 11.1948C 1.59503 11.8032 1.47234 12.29 1.47234 12.8984L 1.47234 13.0201L 0.24539 13.2634L 0.24539 14.7236L 1.47234 14.967L 1.47234 15.0887C 1.47234 15.6971 1.59503 16.3055 1.71773 16.7922L 1.71773 16.9139L 0.613474 17.5223L 0.858863 18.2524L 0.736169 18.4958ZM 2.94467 22.1463C 3.06737 22.268 3.19006 22.3896 3.31276 22.5113L 4.41701 22.0246L 4.53971 22.0246C 4.90779 22.3896 5.27587 22.8764 5.76665 23.2414L 5.27587 24.4583C 5.52126 24.7016 6.13474 25.1883 6.38013 25.31L 7.36169 24.4583L 7.48438 24.4583C 7.97516 24.8233 8.46594 25.0667 9.07941 25.31L 9.20211 25.31L 9.07941 26.6485C 9.4475 26.7702 10.1837 27.0136 10.4291 27.1353L 11.0425 26.0401L 11.1652 26.0401C 11.7787 26.1618 12.2695 26.2835 12.883 26.2835L 13.0056 26.2835L 13.251 27.5003L 14.7234 27.5003L 14.9688 26.2835L 15.0915 26.2835C 15.7049 26.2835 16.1957 26.1618 16.8092 26.0401L 16.8092 26.0401L 17.4227 27.1353L 18.7723 26.6485L 18.6496 25.4317L 18.7723 25.4317C 19.2631 25.1883 19.8766 24.945 20.3673 24.5799L 20.49 24.4583L 21.4716 25.31L 22.6985 24.4583L 22.2078 23.2414L 22.3304 23.2414C 22.8212 22.8764 23.1893 22.5113 23.5574 22.0246L 23.5574 21.9029L 24.7843 22.5113C 25.0297 22.268 25.3978 21.6595 25.6432 21.2945L 24.7843 20.321L 24.7843 20.1994C 25.0297 19.7126 25.3978 19.2259 25.6432 18.6175L 25.6432 18.4958L 26.8702 18.6175C 26.9929 18.2524 27.2382 17.5223 27.3609 17.279L 26.2567 16.6705L 26.2567 16.5489C 26.3794 15.9405 26.5021 15.4537 26.5021 14.8453L 26.5021 14.7236L 27.729 14.4803L 27.729 13.0201L 26.5021 12.7767L 26.5021 12.655C 26.5021 12.0466 26.3794 11.5599 26.2567 10.9515L 26.2567 10.8298L 27.3609 10.2214C 27.2382 9.85631 26.9929 9.12621 26.8702 8.88285L 25.6432 9.00453L 25.6432 8.88285C 25.3978 8.27443 25.1524 7.7877 24.7843 7.30097L 24.7843 7.42265L 25.6432 6.44919C 25.3978 6.20582 25.0297 5.47573 24.7843 5.23236L 23.5574 5.71909L 23.5574 5.71909C 23.1893 5.23236 22.8212 4.86731 22.3304 4.50227L 22.2078 4.38058L 22.6985 3.16375L 21.4716 2.31197L 20.49 3.16375L 20.3673 3.16375C 19.8766 2.92039 19.2631 2.67702 18.7723 2.43366L 18.6496 2.43366L 18.7723 1.21683C 18.5269 1.09515 17.668 0.85178 17.4227 0.730097L 16.8092 1.82524L 16.6865 1.82524C 16.073 1.70356 15.5822 1.58188 14.9688 1.58188L 14.8461 1.58188L 14.6007 0.365049L 13.251 0.365049L 13.0056 1.58188L 12.883 1.58188C 12.2695 1.58188 11.7787 1.70356 11.1652 1.82524L 11.0425 1.82524L 10.4291 0.730097C 10.1837 0.85178 9.3248 1.09515 9.07941 1.21683L 9.20211 2.43366L 9.07941 2.43366C 8.58863 2.67702 8.09785 2.92039 7.60708 3.16375L 7.48438 3.16375L 6.50282 2.31197C 6.25743 2.43366 6.13474 2.67702 6.01204 2.79871L 6.01204 2.43366L 6.50282 2.06861L 6.62552 2.06861L 7.48438 2.92039C 7.97516 2.67702 8.46594 2.43366 8.95672 2.19029L 8.71133 0.85178L 8.83402 0.85178C 9.07941 0.730097 10.1837 0.365049 10.4291 0.365049L 10.5517 0.365049L 11.1652 1.46019C 11.656 1.33851 12.2695 1.21683 12.7603 1.21683L 13.0056 -1.16046e-07L 13.8645 -1.16046e-07C 14.1099 -1.16046e-07 14.478 -1.16046e-07 14.7234 -1.16046e-07L 14.8461 -1.16046e-07L 15.0915 1.21683C 15.5822 1.21683 16.1957 1.33851 16.6865 1.46019L 17.3 0.365049L 17.4227 0.365049C 17.668 0.486732 18.7723 0.730097 19.0177 0.85178L 19.1404 0.85178L 19.1404 2.06861C 19.6312 2.31197 20.1219 2.55534 20.6127 2.79871L 21.5943 1.94693L 21.717 1.94693C 21.8397 2.06861 22.6985 2.79871 22.9439 2.92039L 22.4531 4.13722C 22.8212 4.50227 23.1893 4.86731 23.5574 5.23236L 24.7843 4.74563L 24.7843 4.86731C 24.907 5.11068 25.6432 5.96246 25.7659 6.20583L 25.7659 6.32751L 24.907 7.30097C 25.1524 7.7877 25.3978 8.27443 25.6432 8.76117L 26.8702 8.63948L 26.8702 8.76117C 26.9929 9.00453 27.3609 10.0997 27.3609 10.343L 27.3609 10.2214L 26.2567 10.8298C 26.3794 11.3165 26.5021 11.9249 26.5021 12.4117L 27.729 12.655L 27.729 12.7767C 27.729 13.3851 27.729 13.8718 27.729 14.4803L 27.729 14.8453L 26.6248 15.0887C 26.6248 15.5754 26.5021 16.0621 26.3794 16.6705L 27.4836 17.279L 27.4836 17.4006C 27.4836 17.644 27.1155 18.7392 26.9928 18.9825L 26.9928 19.1042L 25.6432 18.9825C 25.3978 19.4693 25.1524 19.956 24.907 20.4427L 25.7659 21.4162L 25.7659 21.6595C 25.6432 21.9029 24.907 22.7547 24.7843 22.9981L 24.7843 23.1197L 23.5574 22.633C 23.1893 22.9981 22.8212 23.3631 22.4531 23.7282L 23.0666 24.945L 22.9439 24.945C 22.6985 25.0667 21.8397 25.7968 21.5943 25.9184L 21.4716 26.0401L 20.49 24.945C 19.9992 25.1883 19.5085 25.4317 19.0177 25.6751L 19.1404 27.0136L 19.0177 27.0136L 17.4227 27.5003L 17.3 27.5003L 16.6865 26.4052C 16.1957 26.5269 15.5822 26.6485 15.0915 26.6485L 14.8461 27.8654L 12.883 27.8654L 12.6376 26.6485C 12.1468 26.5269 11.5333 26.5269 11.0425 26.4052L 10.4291 27.5003L 10.3064 27.5003C 10.061 27.3786 8.95672 27.0136 8.71133 27.0136L 8.58863 27.0136L 8.71133 25.6751C 8.22055 25.4317 7.72977 25.1883 7.23899 24.945L 6.25743 25.7968L 6.50282 25.7968C 6.25743 25.6751 5.39857 24.945 5.15318 24.8233L 5.03049 24.8233L 5.52126 23.6065C 5.15318 23.2414 4.7851 22.8764 4.41701 22.5113L 3.19006 22.9981L 3.19006 22.8764L 2.94467 22.3896L 2.94467 22.1463Z"/>
<path id="path35_fill" d="M 10.2599 20.321C 8.78758 20.321 7.31524 19.956 5.9656 19.3476L 5.72021 19.3476L 10.2599 13.7502L 14.6769 19.3476L 14.4315 19.4693C 13.0819 20.0777 11.7323 20.321 10.2599 20.321ZM 6.21099 19.2259C 8.78758 20.321 11.6096 20.321 14.1861 19.2259L 10.2599 14.2369L 6.21099 19.2259ZM 17.7443 17.1573L 13.6954 11.1948L 20.4436 8.76117L 20.4436 9.00453C 20.8117 11.9249 19.8301 14.8453 17.7443 17.0356L 17.7443 17.1573ZM 14.1861 11.3165L 17.7443 16.6706C 19.5847 14.6019 20.4436 11.9249 20.1982 9.2479L 14.1861 11.3165ZM 2.77554 17.1573L 2.65284 17.0356C 0.689724 14.8453 -0.291834 11.9249 0.0762505 9.00453L 0.0762505 8.76117L 6.82446 11.3165L 2.77554 17.1573ZM 0.32164 9.12621C 0.0762502 11.8032 0.935114 14.6019 2.77554 16.5489L 6.45638 11.3165L 0.32164 9.12621ZM 12.3457 7.17929L 12.1003 2.32092e-07L 12.3457 2.32092e-07C 15.2904 0.608414 17.7443 2.43366 19.2166 4.989L 19.3393 5.11068L 12.3457 7.17929ZM 12.4684 0.486731L 12.7138 6.81424L 18.9712 5.11068C 17.4989 2.79871 15.1677 1.09515 12.4684 0.486731ZM 8.05141 7.17929L 1.1805 5.11068L 1.3032 4.989C 2.77554 2.43366 5.35213 0.608414 8.17411 0.121683L 8.41949 0.121683L 8.05141 7.17929ZM 1.67128 4.989L 7.80602 6.81424L 8.05141 0.486731C 5.35212 0.973463 3.14362 2.67702 1.67128 4.989Z"/>
<path id="path36_fill" d="M 9.81558 0.973463L 7.60708 7.17929L 7.60708 7.30097L 7.48438 7.30097L 0.858863 7.42265L 6.13474 11.4382L 6.25743 11.5599L 6.25743 11.6816L 4.41701 17.8874L 9.81558 14.2369L 9.93828 14.1152L 10.061 14.2369L 15.4595 17.8874L 13.6191 11.6816L 13.6191 11.3165L 13.7418 11.1948L 19.0177 7.17929L 12.3922 7.05761L 12.2695 7.05761L 12.2695 6.93592L 9.81558 0.973463ZM 7.36169 6.93592L 9.69289 0.365049L 9.81558 -2.32092e-07L 9.93828 0.365049L 12.2695 6.81424L 19.1404 6.93592L 19.6312 6.93592L 19.2631 7.17929L 13.7418 11.3165L 15.7049 17.8874L 15.8276 18.2524L 15.4595 18.0091L 9.81558 14.1152L 4.17162 18.0091L 3.80354 18.2524L 3.92623 17.7657L 5.88935 11.1948L 0.368084 7.30097L -2.34022e-07 7.05761L 0.368084 7.05761C 0.490779 7.05761 7.36169 6.93592 7.36169 6.93592Z"/>
<path id="path37_fill" d="M 1.90735e-07 4.64183e-07L 1.90735e-07 0.121684L 1.90735e-07 4.64183e-07Z"/>
<path id="path38_fill" d="M 2.34022e-07 9.28366e-07L 0.613474 1.09515L 2.34022e-07 9.28366e-07Z"/>
<path id="path39_stroke" d="M -0.499994 1.45057e-08L -0.499994 41.6155L 0.500006 41.6155L 0.500006 1.45057e-08L -0.499994 1.45057e-08Z"/>
</defs>
</svg>
